<svg id="svg" version="1.1" xmlns="http://www.w3.org/2000/svg" xmlns:xlink="http://www.w3.org/1999/xlink" width="400" height="400" viewBox="0, 0, 400,400"><g id="svgg"><path id="path0" d="M131.000 50.447 C 87.559 53.750,53.636 87.970,50.424 131.729 C 49.928 138.492,50.297 264.611,50.831 270.800 C 54.178 309.575,83.159 340.794,122.955 348.493 C 128.300 349.527,258.437 350.154,269.600 349.199 C 310.397 345.710,342.290 315.706,348.681 274.800 C 349.787 267.720,349.791 130.387,348.685 124.200 C 341.215 82.410,309.705 53.526,268.200 50.422 C 261.461 49.918,137.662 49.941,131.000 50.447 M273.600 75.730 C 300.543 81.150,320.294 101.502,324.603 128.284 C 325.499 133.851,325.486 267.288,324.589 272.400 C 319.736 300.056,299.363 320.170,271.554 324.763 C 267.139 325.492,132.811 325.352,128.307 324.613 C 99.809 319.942,79.064 298.762,75.205 270.400 C 74.371 264.272,74.857 130.726,75.728 126.400 C 81.421 98.150,102.671 78.693,131.800 75.060 C 136.583 74.463,270.448 75.095,273.600 75.730 M273.431 107.241 C 258.820 112.266,259.630 132.657,274.600 136.656 C 284.942 139.419,295.307 129.595,293.081 119.141 C 291.065 109.673,282.118 104.254,273.431 107.241 M192.000 125.822 C 130.220 133.403,103.328 207.168,146.169 251.539 C 189.017 295.919,262.793 272.904,273.556 211.800 C 281.952 164.136,240.019 119.930,192.000 125.822 M207.149 150.224 C 247.969 156.220,264.710 206.469,235.589 235.589 C 209.127 262.052,164.103 251.224,152.228 215.543 C 140.546 180.445,170.485 144.839,207.149 150.224 " stroke="none" fill="#fbfbfb" fill-rule="evenodd"></path><path id="path1" d="M82.006 0.214 C 82.003 0.442,81.378 0.608,80.619 0.583 C 79.853 0.558,79.341 0.704,79.469 0.911 C 79.603 1.128,79.342 1.172,78.850 1.016 C 78.327 0.850,78.000 0.919,78.000 1.197 C 78.000 1.444,77.812 1.531,77.582 1.389 C 77.353 1.247,76.903 1.349,76.582 1.615 C 76.126 1.994,76.000 1.991,76.000 1.600 C 76.000 1.242,75.857 1.221,75.490 1.525 C 75.210 1.758,74.535 2.013,73.990 2.092 C 73.446 2.172,72.595 2.459,72.100 2.732 C 71.605 3.005,71.200 3.110,71.200 2.965 C 71.200 2.820,70.895 2.949,70.523 3.251 C 69.939 3.725,69.895 3.718,70.200 3.200 C 70.492 2.704,70.448 2.685,69.945 3.092 C 69.611 3.363,68.991 3.659,68.569 3.751 C 68.146 3.843,67.440 4.036,67.000 4.180 C 66.560 4.323,66.040 4.416,65.845 4.386 C 65.649 4.356,65.375 4.516,65.236 4.741 C 65.097 4.967,64.461 5.246,63.824 5.361 C 63.186 5.477,62.535 5.781,62.377 6.037 C 62.219 6.293,61.889 6.379,61.645 6.228 C 61.400 6.076,61.200 6.154,61.200 6.400 C 61.200 6.646,61.040 6.749,60.845 6.628 C 60.650 6.507,60.268 6.677,59.996 7.004 C 59.724 7.332,59.179 7.600,58.783 7.600 C 58.006 7.600,55.776 8.689,54.886 9.504 C 54.583 9.781,54.142 9.888,53.906 9.742 C 53.667 9.594,53.591 9.662,53.736 9.896 C 54.030 10.372,52.921 10.922,52.364 10.578 C 52.164 10.454,52.000 10.524,52.000 10.733 C 52.000 10.942,51.535 11.230,50.966 11.373 C 50.397 11.516,49.560 11.979,49.105 12.402 C 48.651 12.826,48.125 13.077,47.937 12.961 C 47.748 12.844,47.487 13.030,47.355 13.372 C 47.224 13.715,46.970 13.905,46.790 13.794 C 46.611 13.683,46.193 13.864,45.861 14.196 C 45.529 14.528,45.064 14.800,44.829 14.800 C 44.593 14.800,44.400 14.980,44.400 15.200 C 44.400 15.420,44.130 15.600,43.800 15.600 C 43.470 15.600,43.200 15.881,43.200 16.224 C 43.200 16.567,43.020 16.736,42.800 16.600 C 42.580 16.464,42.400 16.554,42.400 16.800 C 42.400 17.046,42.231 17.143,42.025 17.015 C 41.818 16.888,41.464 17.102,41.237 17.492 C 41.010 17.881,40.819 18.058,40.812 17.884 C 40.800 17.559,40.246 17.961,38.623 19.476 C 38.107 19.957,37.576 20.242,37.442 20.109 C 37.309 19.976,37.200 20.042,37.200 20.257 C 37.200 20.471,36.917 20.996,36.570 21.424 C 36.224 21.851,36.063 21.962,36.212 21.670 C 36.436 21.234,36.338 21.232,35.658 21.657 C 35.066 22.026,34.969 22.260,35.316 22.480 C 35.627 22.678,35.487 22.790,34.924 22.794 C 34.442 22.797,33.919 23.008,33.762 23.262 C 33.571 23.571,33.662 23.618,34.038 23.403 C 34.464 23.160,34.492 23.200,34.152 23.569 C 33.906 23.837,33.406 24.099,33.041 24.153 C 32.676 24.206,32.428 24.349,32.489 24.471 C 32.550 24.592,31.887 25.301,31.016 26.046 C 29.191 27.606,27.463 29.341,25.920 31.162 C 25.327 31.862,24.697 32.393,24.520 32.341 C 24.344 32.288,23.826 32.912,23.370 33.726 C 22.913 34.540,22.418 35.085,22.270 34.936 C 22.121 34.788,22.000 35.087,22.000 35.600 C 22.000 36.113,21.899 36.432,21.775 36.309 C 21.412 35.946,19.600 37.829,19.600 38.569 C 19.600 38.942,19.420 39.136,19.200 39.000 C 18.840 38.778,18.627 39.303,18.753 40.100 C 18.779 40.265,18.519 40.400,18.176 40.400 C 17.833 40.400,17.664 40.580,17.800 40.800 C 17.936 41.020,17.857 41.200,17.624 41.200 C 17.391 41.200,17.200 41.430,17.200 41.712 C 17.200 41.993,16.850 42.476,16.421 42.785 C 15.993 43.093,15.718 43.467,15.809 43.615 C 15.900 43.763,15.446 44.476,14.800 45.200 C 14.154 45.924,13.708 46.651,13.810 46.816 C 13.912 46.981,13.715 47.224,13.372 47.355 C 13.030 47.487,12.846 47.752,12.965 47.944 C 13.084 48.136,12.836 48.606,12.413 48.988 C 11.991 49.370,11.531 50.204,11.391 50.841 C 11.251 51.479,10.960 52.000,10.745 52.000 C 10.529 52.000,10.455 52.165,10.580 52.368 C 10.705 52.570,10.529 53.014,10.189 53.353 C 9.850 53.693,9.578 54.068,9.586 54.186 C 9.656 55.240,9.539 55.609,9.200 55.400 C 8.980 55.264,8.800 55.501,8.800 55.927 C 8.800 56.353,8.552 56.907,8.250 57.159 C 7.947 57.410,7.584 58.339,7.443 59.223 C 7.301 60.107,6.939 60.925,6.637 61.041 C 6.324 61.161,6.175 61.582,6.290 62.021 C 6.414 62.497,6.246 62.884,5.848 63.037 C 5.494 63.173,5.317 63.465,5.454 63.687 C 5.590 63.908,5.493 64.219,5.237 64.377 C 4.981 64.535,4.679 65.178,4.565 65.804 C 4.451 66.431,4.238 67.137,4.091 67.372 C 3.944 67.607,3.769 68.146,3.704 68.569 C 3.638 68.991,3.363 69.611,3.092 69.945 C 2.685 70.448,2.704 70.492,3.200 70.200 C 3.681 69.917,3.710 69.961,3.350 70.423 C 3.103 70.740,2.967 71.405,3.048 71.900 C 3.136 72.440,2.991 72.800,2.685 72.800 C 2.404 72.800,2.135 73.277,2.087 73.860 C 2.039 74.442,1.853 75.117,1.675 75.360 C 1.497 75.602,1.362 76.368,1.375 77.062 C 1.389 77.756,1.246 78.228,1.057 78.112 C 0.869 77.995,0.843 78.305,1.000 78.800 C 1.168 79.329,1.131 79.605,0.911 79.469 C 0.704 79.341,0.558 79.853,0.583 80.619 C 0.608 81.378,0.487 82.000,0.314 82.000 C 0.141 82.000,0.025 128.125,0.056 184.500 C 0.089 245.846,0.253 285.956,0.465 284.400 C 0.660 282.970,1.189 278.920,1.642 275.400 C 5.744 243.519,18.039 213.431,37.601 187.400 C 42.616 180.727,48.779 173.540,49.241 173.825 C 49.450 173.954,49.610 194.262,49.623 222.324 C 49.636 248.876,49.793 271.320,49.972 272.200 C 50.197 273.307,50.253 272.568,50.155 269.800 C 49.628 254.985,49.656 130.681,50.188 126.800 C 53.024 106.080,61.034 89.734,75.384 75.384 C 89.717 61.051,106.069 53.037,126.800 50.185 C 132.973 49.335,266.879 49.322,273.200 50.170 C 303.701 54.262,329.442 72.794,341.436 99.296 C 342.704 102.098,343.817 104.316,343.910 104.224 C 344.002 104.131,343.250 102.309,342.239 100.174 C 339.976 95.398,339.874 96.225,343.233 92.089 C 368.363 61.138,355.120 15.403,317.400 2.874 C 315.420 2.217,312.810 1.346,311.600 0.939 C 308.776 -0.010,82.805 -0.445,82.794 0.499 C 82.790 0.835,82.660 0.802,82.400 0.400 C 82.187 0.070,82.009 -0.014,82.006 0.214 M132.200 75.801 C 100.889 78.812,77.959 102.477,75.617 134.200 C 75.159 140.394,75.084 265.592,75.535 269.000 C 75.681 270.100,75.750 243.690,75.689 210.311 L 75.578 149.622 78.489 147.469 C 105.224 127.698,140.268 115.240,176.000 112.803 C 183.225 112.311,264.400 112.263,264.400 112.752 C 264.400 112.945,263.915 114.160,263.321 115.452 C 262.440 117.371,262.227 118.458,262.155 121.400 L 262.067 125.000 262.362 121.386 C 263.694 105.096,284.211 99.797,291.687 113.812 C 293.231 116.705,293.817 117.178,292.388 114.376 C 291.364 112.370,290.916 112.491,300.200 112.263 C 306.151 112.117,308.625 111.883,311.600 111.187 C 318.812 109.501,317.904 108.906,321.082 117.400 C 321.823 119.380,322.319 120.460,322.184 119.800 C 321.800 117.917,318.841 110.562,318.052 109.531 C 317.660 109.019,316.732 107.524,315.989 106.209 C 306.110 88.731,287.385 77.294,265.878 75.603 C 258.011 74.984,138.858 75.160,132.200 75.801 M346.434 112.000 C 346.446 112.330,346.611 112.960,346.800 113.400 L 347.144 114.200 347.166 113.400 C 347.178 112.960,347.013 112.330,346.800 112.000 C 346.455 111.467,346.415 111.467,346.434 112.000 M347.246 114.800 C 347.265 115.130,347.424 115.850,347.600 116.400 L 347.920 117.400 347.954 116.400 C 347.973 115.850,347.813 115.130,347.600 114.800 C 347.255 114.267,347.216 114.267,347.246 114.800 M293.268 117.200 C 293.288 118.239,293.918 119.946,293.932 119.000 C 293.938 118.560,293.789 117.840,293.600 117.400 C 293.389 116.910,293.261 116.832,293.268 117.200 M348.262 119.000 C 348.396 119.880,348.572 120.675,348.653 120.767 C 348.956 121.110,348.729 118.968,348.381 118.200 C 348.129 117.642,348.093 117.885,348.262 119.000 M322.456 121.800 C 322.456 122.240,322.611 122.960,322.800 123.400 L 323.144 124.200 323.144 123.400 C 323.144 122.960,322.989 122.240,322.800 121.800 L 322.456 121.000 322.456 121.800 M349.088 123.400 C 349.211 124.720,349.376 125.875,349.456 125.967 C 349.735 126.289,349.516 122.988,349.193 122.000 C 348.989 121.379,348.949 121.909,349.088 123.400 M293.499 125.265 C 292.444 131.771,286.123 137.023,278.608 137.638 L 275.000 137.933 278.600 137.845 C 284.229 137.708,288.471 135.391,291.558 130.768 C 293.073 128.499,294.238 125.314,293.911 124.334 C 293.815 124.045,293.629 124.463,293.499 125.265 M197.900 124.693 C 198.835 124.777,200.365 124.777,201.300 124.693 C 202.235 124.609,201.470 124.540,199.600 124.540 C 197.730 124.540,196.965 124.609,197.900 124.693 M323.295 125.200 C 323.295 125.750,323.432 126.740,323.600 127.400 C 323.872 128.470,323.905 128.492,323.905 127.600 C 323.905 127.050,323.768 126.060,323.600 125.400 C 323.328 124.330,323.295 124.308,323.295 125.200 M189.600 125.217 C 188.735 125.409,189.346 125.446,191.200 125.312 C 192.850 125.193,194.275 125.029,194.367 124.948 C 194.658 124.690,191.057 124.893,189.600 125.217 M207.400 125.218 C 210.147 125.646,212.431 125.612,210.000 125.180 C 209.010 125.003,207.570 124.870,206.800 124.883 C 205.655 124.903,205.765 124.964,207.400 125.218 M262.593 126.144 C 263.638 131.034,269.059 136.445,273.856 137.387 C 274.782 137.569,274.726 137.505,273.562 137.049 C 268.139 134.923,265.515 132.428,263.343 127.334 C 262.796 126.050,262.458 125.515,262.593 126.144 M184.800 126.000 C 183.456 126.431,184.908 126.431,186.600 126.000 C 187.678 125.726,187.698 125.694,186.800 125.687 C 186.250 125.683,185.350 125.824,184.800 126.000 M213.200 126.000 C 213.750 126.176,214.650 126.317,215.200 126.313 C 216.098 126.306,216.078 126.274,215.000 126.000 C 213.308 125.569,211.856 125.569,213.200 126.000 M181.400 126.689 C 155.398 133.074,130.330 158.478,126.624 182.200 C 126.486 183.080,126.993 181.730,127.751 179.200 C 135.301 153.978,154.197 135.093,179.200 127.783 C 182.970 126.680,184.467 125.936,181.400 126.689 M217.600 126.842 C 245.308 135.215,262.518 151.036,271.293 176.200 C 272.137 178.620,272.710 179.970,272.567 179.200 C 271.195 171.829,264.018 158.666,256.719 150.134 C 247.547 139.414,229.030 128.238,217.800 126.645 L 216.200 126.418 217.600 126.842 M349.901 184.640 C 349.957 216.738,350.050 247.590,350.108 253.200 C 350.167 258.810,350.246 233.250,350.284 196.400 C 350.322 159.550,350.229 128.698,350.077 127.840 C 349.925 126.982,349.846 152.542,349.901 184.640 M324.304 159.000 C 324.361 175.500,324.459 190.710,324.520 192.800 C 324.582 194.890,324.654 182.290,324.681 164.800 C 324.708 147.310,324.611 132.100,324.465 131.000 C 324.319 129.900,324.247 142.500,324.304 159.000 M193.000 150.674 C 173.474 153.179,153.844 171.385,151.458 189.200 C 151.279 190.535,151.411 190.277,151.971 188.200 C 157.462 167.806,173.330 153.761,194.000 151.000 C 196.133 150.715,197.010 150.498,196.000 150.506 C 195.010 150.514,193.660 150.589,193.000 150.674 M204.000 150.817 C 205.210 150.984,206.830 151.115,207.600 151.107 C 208.722 151.096,208.603 151.031,207.000 150.782 C 205.900 150.610,204.280 150.480,203.400 150.491 C 202.007 150.510,202.084 150.552,204.000 150.817 M213.200 152.448 C 229.316 157.051,242.492 169.752,246.968 185.000 C 247.484 186.760,248.098 188.830,248.331 189.600 L 248.755 191.000 248.523 189.400 C 247.005 178.904,237.859 165.393,227.728 158.679 C 222.713 155.356,212.409 151.114,209.617 151.224 C 209.278 151.238,210.890 151.788,213.200 152.448 M272.868 181.200 C 272.888 182.239,273.518 183.946,273.532 183.000 C 273.538 182.560,273.389 181.840,273.200 181.400 C 272.989 180.910,272.861 180.832,272.868 181.200 M125.800 185.600 C 125.646 186.510,125.604 187.338,125.707 187.440 C 125.810 187.543,126.013 186.877,126.160 185.960 C 126.307 185.043,126.348 184.215,126.253 184.120 C 126.158 184.024,125.954 184.690,125.800 185.600 M273.687 184.800 C 273.683 185.350,273.824 186.250,274.000 186.800 C 274.431 188.144,274.431 186.692,274.000 185.000 C 273.726 183.922,273.694 183.902,273.687 184.800 M124.992 190.938 C 124.839 192.369,124.793 193.778,124.890 194.070 C 124.987 194.361,125.190 193.268,125.342 191.641 C 125.493 190.014,125.539 188.605,125.443 188.510 C 125.348 188.415,125.145 189.508,124.992 190.938 M274.677 191.400 C 274.798 193.160,274.965 194.675,275.049 194.767 C 275.319 195.064,275.150 191.850,274.799 190.000 C 274.542 188.647,274.512 188.994,274.677 191.400 M150.588 194.188 C 150.431 195.864,150.389 197.323,150.495 197.429 C 150.601 197.534,150.812 196.246,150.965 194.565 C 151.117 192.884,151.159 191.426,151.058 191.324 C 150.957 191.223,150.745 192.512,150.588 194.188 M248.893 192.400 C 248.885 193.170,249.016 194.790,249.183 196.000 C 249.448 197.916,249.490 197.993,249.509 196.600 C 249.520 195.720,249.390 194.100,249.218 193.000 C 248.969 191.397,248.904 191.278,248.893 192.400 M124.542 199.400 C 124.541 201.380,124.608 202.240,124.692 201.312 C 124.776 200.384,124.777 198.764,124.695 197.712 C 124.612 196.660,124.543 197.420,124.542 199.400 M275.331 199.400 C 275.333 200.940,275.405 201.521,275.492 200.691 C 275.579 199.861,275.577 198.601,275.489 197.891 C 275.400 197.181,275.329 197.860,275.331 199.400 M150.491 203.400 C 150.480 204.280,150.610 205.900,150.782 207.000 C 151.031 208.603,151.096 208.722,151.107 207.600 C 151.115 206.830,150.984 205.210,150.817 204.000 C 150.552 202.084,150.510 202.007,150.491 203.400 M249.012 205.412 C 248.855 207.088,248.816 208.550,248.926 208.660 C 249.036 208.770,249.255 207.488,249.412 205.812 C 249.569 204.136,249.607 202.674,249.497 202.564 C 249.387 202.454,249.169 203.736,249.012 205.412 M274.893 204.800 C 274.893 205.570,274.975 205.885,275.076 205.500 C 275.176 205.115,275.176 204.485,275.076 204.100 C 274.975 203.715,274.893 204.030,274.893 204.800 M124.880 207.000 C 124.868 207.660,125.003 209.010,125.180 210.000 C 125.416 211.328,125.505 211.485,125.520 210.600 C 125.532 209.940,125.397 208.590,125.220 207.600 C 124.984 206.272,124.895 206.115,124.880 207.000 M151.224 209.617 C 151.114 212.409,155.356 222.713,158.679 227.728 C 165.381 237.841,178.923 247.007,189.400 248.523 L 191.000 248.755 189.600 248.331 C 188.830 248.098,186.760 247.484,185.000 246.968 C 169.752 242.492,157.051 229.316,152.448 213.200 C 151.788 210.890,151.238 209.278,151.224 209.617 M247.872 211.820 C 246.940 215.664,247.070 216.463,248.041 212.850 C 248.477 211.227,248.769 209.706,248.690 209.470 C 248.611 209.234,248.243 210.292,247.872 211.820 M125.687 213.000 C 125.691 213.440,125.832 214.340,126.000 215.000 C 126.274 216.078,126.306 216.098,126.313 215.200 C 126.317 214.650,126.176 213.750,126.000 213.200 C 125.749 212.416,125.681 212.373,125.687 213.000 M126.468 217.000 C 126.462 217.440,126.611 218.160,126.800 218.600 C 127.238 219.619,127.238 218.568,126.800 217.200 C 126.543 216.396,126.477 216.357,126.468 217.000 M127.214 219.953 C 127.085 225.085,136.703 242.524,144.261 250.863 C 153.311 260.847,169.174 270.701,179.200 272.567 C 179.970 272.710,178.620 272.137,176.200 271.293 C 153.388 263.338,136.483 246.423,128.735 223.800 C 127.906 221.380,127.221 219.649,127.214 219.953 M234.987 235.300 L 232.600 237.800 235.100 235.413 C 236.475 234.099,237.600 232.974,237.600 232.913 C 237.600 232.617,237.205 232.978,234.987 235.300 M211.405 247.922 C 210.087 248.260,209.210 248.603,209.454 248.685 C 209.699 248.766,211.227 248.477,212.850 248.041 C 214.472 247.605,215.350 247.262,214.800 247.279 C 214.250 247.295,212.722 247.585,211.405 247.922 M192.800 249.220 C 193.790 249.397,195.410 249.529,196.400 249.514 L 198.200 249.487 196.000 249.183 C 192.839 248.746,190.301 248.776,192.800 249.220 M204.000 249.200 L 202.200 249.480 203.800 249.510 C 204.680 249.527,206.210 249.397,207.200 249.220 L 209.000 248.900 207.400 248.910 C 206.520 248.916,204.990 249.046,204.000 249.200 M255.775 250.100 L 254.600 251.400 255.900 250.225 C 256.615 249.579,257.200 248.994,257.200 248.925 C 257.200 248.616,256.870 248.888,255.775 250.100 M249.375 256.500 L 248.200 257.800 249.500 256.625 C 250.215 255.979,250.800 255.394,250.800 255.325 C 250.800 255.016,250.470 255.288,249.375 256.500 M349.693 270.400 C 349.693 271.170,349.775 271.485,349.876 271.100 C 349.976 270.715,349.976 270.085,349.876 269.700 C 349.775 269.315,349.693 269.630,349.693 270.400 M76.095 272.400 C 76.095 272.950,76.232 273.940,76.400 274.600 C 76.672 275.670,76.705 275.692,76.705 274.800 C 76.705 274.250,76.568 273.260,76.400 272.600 C 76.128 271.530,76.095 271.508,76.095 272.400 M181.400 273.200 C 181.840 273.389,182.560 273.538,183.000 273.532 C 183.643 273.523,183.604 273.457,182.800 273.200 C 181.432 272.762,180.381 272.762,181.400 273.200 M185.000 274.000 C 186.692 274.431,188.144 274.431,186.800 274.000 C 186.250 273.824,185.350 273.683,184.800 273.687 C 183.902 273.694,183.922 273.726,185.000 274.000 M50.440 275.433 C 50.462 276.295,50.627 277.450,50.807 278.000 C 51.011 278.621,51.051 278.091,50.912 276.600 C 50.654 273.821,50.382 273.149,50.440 275.433 M190.000 274.820 C 190.990 274.997,192.430 275.130,193.200 275.117 C 194.345 275.097,194.235 275.036,192.600 274.782 C 189.853 274.354,187.569 274.388,190.000 274.820 M204.100 275.076 C 204.485 275.176,205.115 275.176,205.500 275.076 C 205.885 274.975,205.570 274.893,204.800 274.893 C 204.030 274.893,203.715 274.975,204.100 275.076 M197.891 275.489 C 198.601 275.577,199.861 275.579,200.691 275.492 C 201.521 275.405,200.940 275.333,199.400 275.331 C 197.860 275.329,197.181 275.400,197.891 275.489 M76.856 276.600 C 76.856 277.040,77.011 277.760,77.200 278.200 L 77.544 279.000 77.544 278.200 C 77.544 277.760,77.389 277.040,77.200 276.600 L 76.856 275.800 76.856 276.600 M51.228 280.033 C 51.244 280.565,51.419 281.360,51.619 281.800 C 51.871 282.358,51.907 282.115,51.738 281.000 C 51.455 279.143,51.187 278.636,51.228 280.033 M77.816 280.200 C 81.299 297.280,102.720 318.701,119.800 322.184 C 120.460 322.319,119.305 321.798,117.232 321.027 C 98.653 314.112,85.888 301.347,78.973 282.768 C 78.202 280.695,77.681 279.540,77.816 280.200 M52.046 283.600 C 52.027 284.150,52.187 284.870,52.400 285.200 C 52.894 285.964,52.894 285.142,52.400 283.600 L 52.080 282.600 52.046 283.600 M52.834 286.600 C 52.822 287.040,52.987 287.670,53.200 288.000 C 53.714 288.795,53.714 287.796,53.200 286.600 L 52.856 285.800 52.834 286.600 M56.002 295.817 C 55.983 299.296,66.722 315.786,73.800 323.145 C 81.380 331.026,97.323 342.462,100.633 342.392 C 100.835 342.388,99.380 341.522,97.400 340.468 C 80.039 331.223,67.525 318.459,58.902 301.200 C 57.309 298.010,56.004 295.588,56.002 295.817 M306.400 306.600 C 305.428 307.590,304.723 308.400,304.833 308.400 C 304.943 308.400,305.828 307.590,306.800 306.600 C 307.772 305.610,308.477 304.800,308.367 304.800 C 308.257 304.800,307.372 305.610,306.400 306.600 M326.581 322.100 L 325.000 323.800 326.700 322.219 C 328.281 320.748,328.584 320.400,328.281 320.400 C 328.216 320.400,327.451 321.165,326.581 322.100 M122.000 322.800 C 123.368 323.238,124.419 323.238,123.400 322.800 C 122.960 322.611,122.240 322.462,121.800 322.468 C 121.157 322.477,121.196 322.543,122.000 322.800 M125.400 323.600 C 126.060 323.768,127.050 323.905,127.600 323.905 C 128.492 323.905,128.470 323.872,127.400 323.600 C 126.740 323.432,125.750 323.295,125.200 323.295 C 124.308 323.295,124.330 323.328,125.400 323.600 M131.000 324.465 C 132.100 324.611,148.660 324.707,167.800 324.680 C 186.940 324.653,200.710 324.580,198.400 324.519 C 188.935 324.268,129.151 324.220,131.000 324.465 M321.781 326.900 L 320.200 328.600 321.900 327.019 C 323.481 325.548,323.784 325.200,323.481 325.200 C 323.416 325.200,322.651 325.965,321.781 326.900 M102.400 343.200 C 103.170 343.622,103.980 343.966,104.200 343.966 C 104.420 343.966,103.970 343.622,103.200 343.200 C 102.430 342.778,101.620 342.434,101.400 342.434 C 101.180 342.434,101.630 342.778,102.400 343.200 M106.200 344.771 C 107.080 345.194,108.070 345.547,108.400 345.555 C 109.086 345.571,107.039 344.627,105.574 344.251 C 105.038 344.114,105.320 344.348,106.200 344.771 M112.200 346.800 C 112.640 346.989,113.270 347.144,113.600 347.144 C 113.978 347.144,113.904 347.017,113.400 346.800 C 112.960 346.611,112.330 346.456,112.000 346.456 C 111.622 346.456,111.696 346.583,112.200 346.800 M114.800 347.600 C 115.130 347.813,115.850 347.973,116.400 347.954 L 117.400 347.920 116.400 347.600 C 114.858 347.106,114.036 347.106,114.800 347.600 M118.200 348.381 C 118.968 348.729,121.110 348.956,120.767 348.653 C 120.675 348.572,119.880 348.396,119.000 348.262 C 117.885 348.093,117.642 348.129,118.200 348.381 M122.000 349.193 C 122.988 349.516,126.289 349.735,125.967 349.456 C 125.875 349.376,124.720 349.211,123.400 349.088 C 121.909 348.949,121.379 348.989,122.000 349.193 M127.840 350.077 C 128.698 350.229,159.550 350.322,196.400 350.284 C 233.250 350.246,258.810 350.167,253.200 350.108 C 228.509 349.852,126.431 349.827,127.840 350.077 " stroke="none" fill="#fb7c6c" fill-rule="evenodd"></path><path id="path2" d="M309.600 0.585 C 353.160 10.834,370.625 58.352,343.233 92.089 C 339.955 96.125,340.051 95.732,341.598 98.796 C 343.630 102.821,346.177 109.632,347.508 114.600 C 348.616 118.735,348.980 120.582,349.997 127.233 C 350.237 128.802,350.411 141.489,350.428 158.633 C 350.444 174.455,350.579 187.098,350.728 186.730 C 350.878 186.361,352.800 184.858,355.000 183.390 C 378.916 167.429,394.114 143.613,398.896 114.600 C 399.779 109.248,400.452 84.413,399.757 82.843 C 399.601 82.489,399.512 82.034,399.560 81.831 C 399.717 81.157,397.548 72.415,397.164 72.178 C 396.957 72.050,396.880 71.794,396.993 71.611 C 397.588 70.648,389.713 51.600,388.720 51.600 C 388.544 51.600,388.400 51.343,388.400 51.029 C 388.400 48.242,376.063 32.358,368.686 25.647 C 362.792 20.286,353.056 13.067,351.719 13.067 C 351.434 13.067,351.200 12.914,351.200 12.726 C 351.200 11.625,329.422 2.368,328.366 3.021 C 328.165 3.145,328.000 3.090,328.000 2.898 C 328.000 2.498,321.002 0.713,318.943 0.588 C 318.189 0.543,317.458 0.391,317.319 0.253 C 317.180 0.114,314.892 0.015,312.233 0.034 L 307.400 0.067 309.600 0.585 M53.470 9.879 C 52.848 10.205,52.435 10.569,52.553 10.686 C 52.670 10.804,53.359 10.520,54.083 10.057 C 55.578 9.099,55.175 8.983,53.470 9.879 M30.378 26.291 C 29.620 27.112,29.438 27.427,29.973 26.991 C 31.552 25.706,32.423 24.800,32.078 24.800 C 31.902 24.800,31.137 25.471,30.378 26.291 M25.875 30.722 C 25.284 31.339,24.800 31.969,24.800 32.122 C 24.800 32.410,25.790 31.476,26.749 30.283 C 27.614 29.207,27.059 29.486,25.875 30.722 M6.867 59.980 C 6.633 60.651,6.527 61.200,6.631 61.200 C 6.901 61.200,7.656 59.122,7.457 58.924 C 7.367 58.833,7.101 59.308,6.867 59.980 M313.800 110.645 C 309.667 111.809,304.497 112.397,298.367 112.398 C 291.084 112.400,291.395 112.256,292.673 115.047 C 298.511 127.799,286.537 141.488,273.274 137.224 C 264.196 134.305,259.451 123.914,263.329 115.444 C 263.918 114.157,264.400 112.945,264.400 112.752 C 264.400 112.263,183.225 112.311,176.000 112.803 C 140.267 115.240,105.224 127.698,78.488 147.470 L 75.575 149.624 75.712 210.312 C 75.817 257.085,75.962 271.459,76.347 273.000 C 76.621 274.100,77.122 276.170,77.461 277.600 C 82.512 298.968,101.032 317.488,122.400 322.539 C 123.830 322.878,125.900 323.366,127.000 323.625 C 130.077 324.351,262.141 325.096,268.400 324.423 C 272.917 323.937,278.592 322.859,278.279 322.545 C 278.191 322.458,276.877 322.646,275.360 322.963 C 273.842 323.281,270.852 323.734,268.716 323.970 C 263.783 324.516,203.350 324.567,203.016 324.025 C 200.782 320.411,199.327 299.467,200.583 289.000 C 201.856 278.386,202.632 275.704,204.480 275.527 C 205.206 275.457,202.830 275.376,199.200 275.346 C 132.596 274.804,99.464 193.476,146.723 146.535 C 193.986 99.590,274.804 132.682,275.346 199.200 C 275.376 202.830,275.457 205.206,275.527 204.480 C 275.676 202.926,276.080 202.723,280.871 201.800 C 286.523 200.711,293.570 200.007,298.858 200.003 C 305.832 199.999,315.893 198.928,321.400 197.604 C 324.737 196.801,324.401 192.990,324.392 231.500 C 324.384 266.320,324.263 269.758,322.815 276.153 C 322.572 277.227,322.449 278.182,322.541 278.275 C 322.789 278.522,323.886 273.115,324.376 269.236 C 325.312 261.815,324.470 130.740,323.457 126.200 C 320.332 112.195,318.541 109.309,313.800 110.645 M194.000 151.000 C 153.123 156.460,136.151 205.405,165.000 234.636 C 178.743 248.562,196.311 252.567,217.200 246.538 C 229.231 243.065,244.932 226.964,246.978 216.000 C 247.122 215.230,247.579 213.160,247.995 211.400 C 255.878 178.038,227.685 146.501,194.000 151.000 M45.195 177.902 C 21.420 205.623,6.307 239.451,1.639 275.400 C 1.181 278.920,0.626 283.249,0.404 285.021 C -0.028 288.464,-0.166 316.900,0.246 317.313 C 0.382 317.448,0.548 318.298,0.615 319.201 C 0.682 320.104,0.930 321.075,1.165 321.358 C 1.401 321.642,1.495 321.972,1.374 322.093 C 1.102 322.365,2.339 327.240,2.832 327.837 C 3.031 328.077,3.101 328.365,2.989 328.477 C 2.318 329.149,10.328 348.400,11.280 348.400 C 11.456 348.400,11.600 348.657,11.600 348.971 C 11.600 350.671,19.914 362.368,25.453 368.462 C 31.514 375.129,46.099 386.933,48.276 386.933 C 48.564 386.933,48.800 387.071,48.800 387.240 C 48.800 387.565,58.980 392.700,60.000 392.889 C 60.330 392.950,60.690 393.112,60.800 393.250 C 61.164 393.704,68.615 396.350,72.987 397.578 C 82.282 400.188,73.468 400.004,187.144 399.957 C 244.045 399.934,289.880 399.771,289.000 399.596 C 288.120 399.422,286.050 399.064,284.400 398.803 C 257.080 394.469,232.505 378.760,216.918 355.667 C 214.470 352.040,213.972 351.063,214.429 350.774 C 214.771 350.557,197.926 350.410,172.433 350.406 C 145.904 350.402,128.874 350.248,127.233 349.997 C 119.956 348.884,118.436 348.569,113.400 347.130 C 85.249 339.087,62.740 317.427,53.824 289.800 C 51.894 283.818,51.263 281.005,50.003 272.767 C 49.749 271.110,49.600 252.327,49.600 222.091 C 49.600 194.139,49.450 173.954,49.241 173.825 C 49.043 173.703,47.223 175.538,45.195 177.902 M274.624 208.900 C 271.431 242.105,244.184 269.577,209.423 274.643 L 205.800 275.170 208.735 274.979 C 234.194 273.320,260.506 253.157,270.301 227.800 C 273.175 220.360,276.342 206.000,275.109 206.000 C 274.996 206.000,274.778 207.305,274.624 208.900 M246.400 216.345 C 246.400 220.031,238.288 232.082,232.459 237.056 C 226.409 242.219,216.000 247.844,216.000 245.951 C 216.000 244.709,222.990 235.820,228.186 230.456 C 235.354 223.055,246.400 214.497,246.400 216.345 M350.084 266.644 C 350.038 268.648,349.913 271.168,349.806 272.244 L 349.612 274.200 350.019 272.607 C 350.243 271.732,350.368 269.212,350.297 267.007 L 350.169 263.000 350.084 266.644 M349.070 276.557 C 348.911 277.853,348.861 278.994,348.960 279.093 C 349.226 279.359,349.703 275.818,349.519 274.947 C 349.432 274.536,349.230 275.260,349.070 276.557 M321.035 282.269 C 315.323 299.809,300.326 314.864,282.432 321.021 C 280.324 321.746,278.805 322.353,279.054 322.370 C 279.969 322.431,285.898 320.265,289.460 318.568 C 301.737 312.721,312.709 301.749,318.570 289.460 C 320.321 285.789,322.646 279.313,322.327 278.994 C 322.234 278.900,321.652 280.374,321.035 282.269 M348.222 281.022 C 348.072 281.825,348.038 282.572,348.148 282.682 C 348.258 282.792,348.472 282.225,348.622 281.422 C 348.773 280.619,348.806 279.873,348.696 279.763 C 348.586 279.653,348.373 280.219,348.222 281.022 M347.632 283.691 C 347.545 285.576,343.594 296.276,341.195 301.120 C 330.847 322.014,313.163 337.677,291.200 345.399 C 285.487 347.408,285.240 347.821,290.861 345.967 C 311.850 339.045,330.659 322.707,340.959 302.450 C 344.450 295.586,348.382 284.766,347.856 283.474 C 347.750 283.213,347.649 283.311,347.632 283.691 M282.652 347.856 C 281.361 348.168,278.931 348.672,277.252 348.976 C 275.574 349.280,274.748 349.544,275.418 349.564 C 276.703 349.602,283.941 348.164,285.364 347.589 C 286.609 347.085,285.312 347.213,282.652 347.856 M267.400 350.000 L 263.000 350.242 267.400 350.274 C 269.820 350.291,272.340 350.168,273.000 350.000 L 274.200 349.695 273.000 349.726 C 272.340 349.744,269.820 349.867,267.400 350.000 " stroke="none" fill="#fb3c54" fill-rule="evenodd"></path><path id="path3" d="M339.600 6.800 C 340.370 7.222,341.180 7.566,341.400 7.566 C 341.620 7.566,341.170 7.222,340.400 6.800 C 339.630 6.378,338.820 6.034,338.600 6.034 C 338.380 6.034,338.830 6.378,339.600 6.800 M343.633 8.552 C 344.041 8.924,348.000 10.793,348.000 10.613 C 348.000 10.388,344.180 8.400,343.747 8.400 C 343.593 8.400,343.542 8.468,343.633 8.552 M354.800 14.546 C 354.800 14.656,355.340 15.130,356.000 15.600 C 356.660 16.070,357.200 16.364,357.200 16.254 C 357.200 16.144,356.660 15.670,356.000 15.200 C 355.340 14.730,354.800 14.436,354.800 14.546 M363.000 20.602 C 363.660 21.196,365.951 23.233,368.092 25.129 C 370.233 27.024,373.447 30.246,375.235 32.287 C 377.023 34.329,378.575 36.000,378.684 36.000 C 378.880 36.000,378.378 35.403,374.081 30.524 C 371.967 28.124,365.438 22.153,363.000 20.390 L 361.800 19.522 363.000 20.602 M28.189 28.100 L 25.400 31.000 28.300 28.211 C 29.895 26.677,31.200 25.372,31.200 25.311 C 31.200 25.017,30.780 25.406,28.189 28.100 M381.025 39.300 C 382.275 41.005,383.376 42.400,383.473 42.400 C 383.723 42.400,381.328 39.108,379.928 37.526 C 379.282 36.797,379.776 37.595,381.025 39.300 M16.399 42.100 C 15.810 42.904,15.713 43.184,16.145 42.833 C 16.801 42.300,17.793 40.800,17.489 40.800 C 17.413 40.800,16.922 41.385,16.399 42.100 M386.600 47.600 C 386.941 48.260,387.311 48.800,387.421 48.800 C 387.531 48.800,387.341 48.260,387.000 47.600 C 386.659 46.940,386.289 46.400,386.179 46.400 C 386.069 46.400,386.259 46.940,386.600 47.600 M399.597 108.900 C 399.596 109.175,399.245 111.740,398.817 114.600 C 394.595 142.822,378.926 167.423,355.000 183.390 C 352.800 184.858,350.878 186.361,350.728 186.730 C 350.579 187.098,350.444 206.225,350.428 229.233 C 350.412 252.965,350.240 272.004,350.029 273.233 C 349.825 274.425,349.445 276.660,349.185 278.200 C 344.673 304.882,326.633 328.902,301.800 341.294 C 292.489 345.940,285.991 347.936,273.554 349.968 C 271.840 350.248,261.055 350.402,242.954 350.406 C 227.016 350.410,214.755 350.568,214.429 350.774 C 213.972 351.063,214.470 352.040,216.918 355.667 C 232.503 378.758,257.150 394.511,284.400 398.799 C 286.050 399.058,288.264 399.435,289.320 399.635 C 291.857 400.117,317.183 400.050,320.000 399.554 C 321.210 399.341,322.784 399.065,323.497 398.940 C 324.210 398.815,324.723 398.598,324.636 398.457 C 324.549 398.315,325.045 398.160,325.739 398.111 C 327.462 397.990,330.387 397.103,330.179 396.765 C 330.085 396.614,330.232 396.498,330.504 396.508 C 331.840 396.556,332.828 396.369,332.663 396.100 C 332.561 395.935,332.955 395.765,333.539 395.721 C 335.667 395.564,346.905 390.493,346.517 389.866 C 346.382 389.647,346.484 389.605,346.749 389.769 C 348.505 390.854,363.842 379.832,372.000 371.623 C 379.151 364.428,389.832 349.747,388.953 348.323 C 388.795 348.068,388.856 347.987,389.096 348.136 C 389.600 348.447,390.113 347.306,389.739 346.702 C 389.595 346.468,389.656 346.387,389.875 346.523 C 390.315 346.795,392.079 343.133,395.233 335.400 C 396.144 333.167,396.781 330.693,396.544 330.309 C 396.395 330.068,396.461 329.991,396.693 330.134 C 396.931 330.281,397.202 329.919,397.322 329.296 C 397.439 328.693,397.743 327.480,397.997 326.600 C 398.537 324.735,399.094 322.215,399.588 319.400 C 399.950 317.334,400.162 108.400,399.801 108.400 C 399.691 108.400,399.599 108.625,399.597 108.900 M321.200 197.630 C 316.063 198.907,305.784 199.999,298.858 200.004 C 291.545 200.009,277.066 201.956,275.966 203.081 C 275.795 203.257,275.451 205.290,275.202 207.600 C 271.312 243.656,243.656 271.312,207.600 275.202 C 205.290 275.451,203.257 275.795,203.081 275.966 C 201.865 277.155,200.007 291.675,200.007 300.000 C 200.007 308.461,201.878 322.838,203.144 324.104 C 203.885 324.845,269.063 324.231,273.200 323.444 C 295.850 319.137,314.030 303.325,321.177 281.715 C 324.243 272.443,324.159 273.753,324.303 233.300 L 324.432 197.200 323.516 197.241 C 323.012 197.263,321.970 197.438,321.200 197.630 M241.963 218.521 C 232.624 225.257,224.596 233.367,217.878 242.851 C 214.977 246.946,215.163 247.103,220.294 244.882 C 231.011 240.242,240.788 230.299,245.234 219.518 C 247.065 215.078,246.834 215.008,241.963 218.521 M0.412 320.400 C 0.412 321.090,1.080 322.270,1.311 321.988 C 1.396 321.885,1.229 321.350,0.939 320.800 C 0.648 320.249,0.412 320.069,0.412 320.400 M13.000 352.400 C 13.341 353.060,13.711 353.600,13.821 353.600 C 13.931 353.600,13.741 353.060,13.400 352.400 C 13.059 351.740,12.689 351.200,12.579 351.200 C 12.469 351.200,12.659 351.740,13.000 352.400 M17.624 359.374 C 18.325 360.349,19.426 361.744,20.072 362.474 C 20.718 363.203,20.224 362.405,18.975 360.700 C 17.725 358.995,16.624 357.600,16.527 357.600 C 16.430 357.600,16.924 358.398,17.624 359.374 M22.412 365.400 C 25.730 369.404,28.278 372.098,30.738 374.205 L 33.400 376.486 30.386 373.543 C 28.728 371.924,25.958 369.070,24.229 367.200 C 22.500 365.330,21.683 364.520,22.412 365.400 M33.600 376.525 C 33.600 376.594,34.185 377.179,34.900 377.825 L 36.200 379.000 35.025 377.700 C 33.930 376.488,33.600 376.216,33.600 376.525 M37.526 379.928 C 39.108 381.328,42.400 383.723,42.400 383.473 C 42.400 383.376,41.005 382.275,39.300 381.025 C 37.595 379.776,36.797 379.282,37.526 379.928 M47.600 387.056 C 47.600 387.124,48.185 387.476,48.900 387.838 C 50.192 388.493,50.195 388.492,49.400 387.716 C 48.724 387.056,47.600 386.644,47.600 387.056 M59.200 392.958 C 60.340 393.658,60.800 393.746,60.800 393.267 C 60.800 393.083,60.575 392.925,60.300 392.914 C 60.025 392.904,59.440 392.771,59.000 392.620 C 58.466 392.436,58.533 392.549,59.200 392.958 M64.000 395.000 C 64.550 395.314,65.270 395.571,65.600 395.570 C 65.930 395.569,65.594 395.306,64.854 394.984 C 63.151 394.245,62.694 394.253,64.000 395.000 " stroke="none" fill="#e40444" fill-rule="evenodd"></path><path id="path4" d="M127.400 50.042 C 105.874 53.143,89.789 60.980,75.384 75.384 C 61.039 89.729,53.022 106.085,50.190 126.781 C 49.329 133.077,49.751 267.078,50.654 274.200 C 55.557 312.838,86.693 344.008,125.770 349.397 C 132.193 350.283,265.797 350.297,272.800 349.413 C 313.492 344.273,344.544 313.142,349.416 272.600 C 350.304 265.216,350.279 132.133,349.389 125.770 C 343.762 85.536,313.581 55.588,273.200 50.170 C 268.367 49.522,131.845 49.402,127.400 50.042 M268.200 50.422 C 309.705 53.526,341.215 82.410,348.685 124.200 C 349.791 130.387,349.787 267.720,348.681 274.800 C 342.290 315.706,310.397 345.710,269.600 349.199 C 258.437 350.154,128.300 349.527,122.955 348.493 C 83.159 340.794,54.178 309.575,50.831 270.800 C 50.297 264.611,49.928 138.492,50.424 131.729 C 53.636 87.970,87.559 53.750,131.000 50.447 C 137.662 49.941,261.461 49.918,268.200 50.422 M131.800 75.060 C 102.671 78.693,81.421 98.150,75.728 126.400 C 74.857 130.726,74.371 264.272,75.205 270.400 C 79.064 298.762,99.809 319.942,128.307 324.613 C 132.811 325.352,267.139 325.492,271.554 324.763 C 299.363 320.170,319.736 300.056,324.589 272.400 C 325.486 267.288,325.499 133.851,324.603 128.284 C 320.294 101.502,300.543 81.150,273.600 75.730 C 270.448 75.095,136.583 74.463,131.800 75.060 M265.878 75.603 C 295.180 77.907,318.364 98.221,323.852 126.400 C 324.747 130.999,325.250 263.738,324.397 270.400 C 320.862 298.009,299.316 319.970,271.600 324.213 C 265.931 325.081,135.422 325.073,129.311 324.204 C 101.137 320.199,79.784 298.885,75.809 270.800 C 75.075 265.612,74.903 143.860,75.617 134.200 C 77.655 106.593,95.056 85.110,121.400 77.674 C 129.691 75.334,130.594 75.306,199.078 75.250 C 237.313 75.219,262.703 75.353,265.878 75.603 M273.178 106.580 C 256.273 112.808,260.280 137.400,278.200 137.400 C 290.599 137.400,297.608 125.121,291.665 113.811 C 288.351 107.503,279.777 104.149,273.178 106.580 M281.800 106.942 C 293.209 109.983,297.202 123.921,289.074 132.332 C 280.609 141.091,266.521 137.296,263.344 125.400 C 260.432 114.498,270.893 104.036,281.800 106.942 M190.480 125.419 C 129.470 133.261,103.276 207.438,145.800 251.944 C 184.690 292.645,253.273 277.144,271.204 223.600 C 288.678 171.418,245.088 118.401,190.480 125.419 M207.200 125.792 C 269.332 132.417,296.686 206.211,253.818 251.558 C 218.286 289.145,155.209 279.036,132.728 232.151 C 107.738 180.031,149.986 119.692,207.200 125.792 M194.800 149.873 C 163.177 153.144,142.219 185.472,152.228 215.543 C 165.449 255.268,218.692 262.741,241.748 228.107 C 265.262 192.786,236.897 145.518,194.800 149.873 M207.042 150.827 C 232.361 153.855,251.427 177.621,249.534 203.796 C 246.431 246.714,193.859 265.376,163.991 234.162 C 139.160 208.212,149.502 165.274,183.529 153.049 C 191.142 150.313,197.626 149.701,207.042 150.827 " stroke="none" fill="#f794ae" fill-rule="evenodd"></path></g></svg>