<svg id="svg" version="1.1" xmlns="http://www.w3.org/2000/svg" xmlns:xlink="http://www.w3.org/1999/xlink" width="400" height="400" viewBox="0, 0, 400,400"><g id="svgg"><path id="path0" d="M355.031 161.001 C 330.628 179.334,310.153 194.814,309.531 195.401 L 308.400 196.468 308.400 273.834 L 308.400 351.200 341.000 351.200 C 362.467 351.200,373.600 351.063,373.600 350.800 C 373.600 350.567,374.933 350.400,376.800 350.400 C 378.667 350.400,380.000 350.233,380.000 350.000 C 380.000 349.780,380.540 349.600,381.200 349.600 C 381.860 349.600,382.400 349.420,382.400 349.200 C 382.400 348.980,382.755 348.800,383.188 348.800 C 383.621 348.800,384.586 348.457,385.333 348.038 C 386.080 347.618,387.118 347.033,387.641 346.738 C 388.164 346.442,388.884 345.885,389.243 345.500 C 389.601 345.115,390.012 344.800,390.156 344.800 C 390.533 344.800,394.800 340.479,394.800 340.097 C 394.800 339.921,395.160 339.517,395.600 339.200 C 396.040 338.883,396.400 338.303,396.400 337.912 C 396.400 337.520,396.547 337.200,396.726 337.200 C 397.183 337.200,398.800 334.078,398.800 333.196 C 398.800 332.795,399.025 332.392,399.300 332.300 C 399.867 332.111,400.271 127.570,399.705 127.635 C 399.537 127.654,379.434 142.669,355.031 161.001 " stroke="none" fill="#04ac4b" fill-rule="evenodd"></path><path id="path1" d="M0.095 229.867 C 0.179 311.250,0.302 332.167,0.700 332.300 C 0.975 332.392,1.200 332.795,1.200 333.196 C 1.200 334.078,2.817 337.200,3.274 337.200 C 3.453 337.200,3.600 337.520,3.600 337.912 C 3.600 338.303,3.960 338.883,4.400 339.200 C 4.840 339.517,5.200 339.921,5.200 340.097 C 5.200 340.479,9.467 344.800,9.844 344.800 C 9.988 344.800,10.399 345.115,10.757 345.500 C 11.116 345.885,11.836 346.442,12.359 346.738 C 12.882 347.033,13.920 347.618,14.667 348.038 C 15.414 348.457,16.379 348.800,16.812 348.800 C 17.245 348.800,17.600 348.980,17.600 349.200 C 17.600 349.420,18.140 349.600,18.800 349.600 C 19.460 349.600,20.000 349.780,20.000 350.000 C 20.000 350.233,21.333 350.400,23.200 350.400 C 25.067 350.400,26.400 350.567,26.400 350.800 C 26.400 351.063,37.533 351.200,59.000 351.200 L 91.600 351.200 91.600 273.855 L 91.600 196.509 90.613 195.522 C 90.069 194.978,86.154 191.923,81.913 188.731 C 75.370 183.809,31.222 150.695,7.503 132.918 C 3.600 129.993,0.313 127.600,0.199 127.600 C 0.084 127.600,0.038 173.620,0.095 229.867 " stroke="none" fill="#0484f4" fill-rule="evenodd"></path><path id="path2" d="M40.600 49.200 C 40.759 49.457,39.337 49.600,36.624 49.600 C 34.075 49.600,32.400 49.759,32.400 50.000 C 32.400 50.220,31.680 50.400,30.800 50.400 C 29.920 50.400,29.200 50.580,29.200 50.800 C 29.200 51.020,28.660 51.200,28.000 51.200 C 27.340 51.200,26.800 51.380,26.800 51.600 C 26.800 51.820,26.350 52.000,25.800 52.000 C 25.250 52.000,24.800 52.180,24.800 52.400 C 24.800 52.620,24.440 52.800,24.000 52.800 C 23.560 52.800,23.200 52.980,23.200 53.200 C 23.200 53.420,22.840 53.600,22.400 53.600 C 21.960 53.600,21.600 53.780,21.600 54.000 C 21.600 54.220,21.240 54.400,20.800 54.400 C 20.360 54.400,20.000 54.580,20.000 54.800 C 20.000 55.020,19.680 55.200,19.288 55.200 C 18.897 55.200,18.317 55.560,18.000 56.000 C 17.683 56.440,17.185 56.800,16.894 56.800 C 16.602 56.800,15.910 57.254,15.356 57.808 C 14.802 58.362,13.865 59.127,13.274 59.508 C 11.489 60.658,10.477 61.644,9.314 63.362 C 8.705 64.263,7.890 65.291,7.503 65.647 C 7.117 66.003,6.800 66.548,6.800 66.859 C 6.800 67.169,6.440 67.683,6.000 68.000 C 5.560 68.317,5.200 68.882,5.200 69.255 C 5.200 69.628,5.065 69.993,4.900 70.067 C 4.735 70.140,4.174 71.100,3.653 72.200 C 3.132 73.300,2.367 74.892,1.953 75.738 C 1.539 76.584,1.200 77.694,1.200 78.204 C 1.200 78.715,0.975 79.208,0.700 79.300 C 0.309 79.430,0.179 84.683,0.105 103.433 L 0.010 127.400 40.641 157.800 C 62.987 174.520,83.330 189.775,85.846 191.700 C 88.362 193.625,90.506 195.200,90.611 195.200 C 90.715 195.200,90.800 168.665,90.800 136.233 C 90.800 89.435,90.903 77.225,91.300 77.063 C 91.636 76.926,91.475 76.597,90.811 76.061 C 90.267 75.622,89.655 75.366,89.449 75.493 C 89.244 75.620,89.175 75.561,89.296 75.362 C 89.524 74.986,88.613 73.920,88.317 74.216 C 88.225 74.308,87.485 73.757,86.674 72.992 C 85.862 72.226,85.038 71.600,84.841 71.600 C 84.645 71.600,83.954 71.105,83.306 70.500 C 82.657 69.895,81.648 69.145,81.063 68.832 C 80.479 68.520,80.000 68.115,80.000 67.932 C 80.000 67.750,79.719 67.600,79.376 67.600 C 79.033 67.600,78.864 67.420,79.000 67.200 C 79.136 66.980,78.993 66.800,78.683 66.800 C 78.373 66.800,77.554 66.260,76.863 65.600 C 76.172 64.940,75.459 64.400,75.278 64.400 C 75.098 64.400,74.432 63.860,73.800 63.200 C 73.168 62.540,72.496 62.000,72.308 62.000 C 72.119 62.000,71.490 61.560,70.910 61.021 C 70.329 60.483,69.707 60.134,69.527 60.245 C 69.347 60.356,69.200 60.227,69.200 59.957 C 69.200 59.687,69.092 59.575,68.960 59.706 C 68.828 59.838,68.233 59.463,67.637 58.873 C 67.041 58.283,66.305 57.744,66.002 57.675 C 65.699 57.606,65.169 57.245,64.825 56.872 C 64.481 56.500,63.705 55.940,63.100 55.630 C 62.495 55.319,62.000 54.915,62.000 54.732 C 62.000 54.550,61.640 54.400,61.200 54.400 C 60.760 54.400,60.400 54.220,60.400 54.000 C 60.400 53.780,60.040 53.600,59.600 53.600 C 59.160 53.600,58.800 53.420,58.800 53.200 C 58.800 52.980,58.440 52.800,58.000 52.800 C 57.560 52.800,57.200 52.620,57.200 52.400 C 57.200 52.180,56.750 52.000,56.200 52.000 C 55.650 52.000,55.200 51.859,55.200 51.687 C 55.200 51.515,54.705 51.334,54.100 51.284 C 53.495 51.234,52.940 51.015,52.867 50.797 C 52.793 50.578,52.028 50.400,51.167 50.400 C 50.305 50.400,49.600 50.220,49.600 50.000 C 49.600 49.762,48.075 49.600,45.824 49.600 C 43.737 49.600,41.937 49.421,41.800 49.200 C 41.664 48.980,41.283 48.800,40.953 48.800 C 40.623 48.800,40.464 48.980,40.600 49.200 " stroke="none" fill="#e41c1c" fill-rule="evenodd"></path><path id="path3" d="M358.200 49.200 C 358.063 49.421,356.263 49.600,354.176 49.600 C 351.925 49.600,350.400 49.762,350.400 50.000 C 350.400 50.220,349.680 50.400,348.800 50.400 C 347.920 50.400,347.200 50.580,347.200 50.800 C 347.200 51.020,346.660 51.200,346.000 51.200 C 345.340 51.200,344.800 51.380,344.800 51.600 C 344.800 51.820,344.350 52.000,343.800 52.000 C 343.250 52.000,342.800 52.180,342.800 52.400 C 342.800 52.620,342.440 52.800,342.000 52.800 C 341.560 52.800,341.200 52.980,341.200 53.200 C 341.200 53.420,340.840 53.600,340.400 53.600 C 339.960 53.600,339.600 53.780,339.600 54.000 C 339.600 54.220,339.240 54.400,338.800 54.400 C 338.360 54.400,338.000 54.550,338.000 54.732 C 338.000 54.915,337.505 55.319,336.900 55.630 C 336.295 55.940,335.509 56.511,335.153 56.897 C 334.797 57.284,334.212 57.600,333.853 57.600 C 333.494 57.600,333.200 57.735,333.199 57.900 C 333.199 58.065,332.119 58.920,330.800 59.800 C 329.481 60.680,328.401 61.535,328.401 61.700 C 328.400 61.865,328.210 62.000,327.978 62.000 C 327.746 62.000,326.981 62.539,326.278 63.198 C 325.575 63.857,324.863 64.397,324.696 64.398 C 324.529 64.399,323.828 64.940,323.137 65.600 C 322.446 66.260,321.710 66.800,321.501 66.800 C 321.292 66.800,320.617 67.340,320.000 68.000 C 319.383 68.660,318.680 69.200,318.436 69.200 C 318.192 69.200,317.428 69.740,316.737 70.400 C 316.046 71.060,315.304 71.600,315.088 71.600 C 314.871 71.600,314.403 71.924,314.047 72.321 C 313.691 72.717,312.275 73.823,310.900 74.779 C 308.555 76.408,307.868 77.200,308.800 77.200 C 309.065 77.200,309.200 97.144,309.200 136.233 C 309.200 168.702,309.340 195.207,309.511 195.133 C 309.682 195.060,330.114 179.790,354.915 161.200 L 400.008 127.400 399.904 103.433 C 399.823 84.690,399.691 79.430,399.300 79.300 C 399.025 79.208,398.800 78.619,398.800 77.990 C 398.800 77.362,398.620 76.736,398.400 76.600 C 398.180 76.464,398.000 76.003,398.000 75.576 C 398.000 75.149,397.820 74.800,397.600 74.800 C 397.380 74.800,397.200 74.547,397.200 74.238 C 397.200 73.572,395.532 70.259,395.100 70.067 C 394.935 69.993,394.800 69.588,394.800 69.167 C 394.800 68.745,394.650 68.400,394.468 68.400 C 394.285 68.400,393.881 67.905,393.570 67.300 C 393.260 66.695,392.726 65.930,392.384 65.600 C 392.042 65.270,391.330 64.370,390.803 63.600 C 389.682 61.965,388.593 60.882,386.508 59.331 C 385.678 58.714,384.709 57.892,384.353 57.504 C 383.997 57.117,383.452 56.800,383.141 56.800 C 382.831 56.800,382.317 56.440,382.000 56.000 C 381.683 55.560,381.103 55.200,380.712 55.200 C 380.320 55.200,380.000 55.020,380.000 54.800 C 380.000 54.580,379.640 54.400,379.200 54.400 C 378.760 54.400,378.400 54.220,378.400 54.000 C 378.400 53.780,378.040 53.600,377.600 53.600 C 377.160 53.600,376.800 53.420,376.800 53.200 C 376.800 52.980,376.440 52.800,376.000 52.800 C 375.560 52.800,375.200 52.620,375.200 52.400 C 375.200 52.180,374.750 52.000,374.200 52.000 C 373.650 52.000,373.200 51.820,373.200 51.600 C 373.200 51.380,372.660 51.200,372.000 51.200 C 371.340 51.200,370.800 51.020,370.800 50.800 C 370.800 50.580,370.080 50.400,369.200 50.400 C 368.320 50.400,367.600 50.220,367.600 50.000 C 367.600 49.760,366.000 49.600,363.600 49.600 C 361.200 49.600,359.600 49.440,359.600 49.200 C 359.600 48.980,359.341 48.800,359.024 48.800 C 358.707 48.800,358.336 48.980,358.200 49.200 " stroke="none" fill="#fbbb04" fill-rule="evenodd"></path><path id="path4" d="M91.300 77.087 C 90.903 77.230,90.800 89.494,90.800 136.591 L 90.800 195.915 91.900 197.058 C 92.505 197.686,93.614 198.650,94.363 199.200 C 95.113 199.750,95.923 200.386,96.163 200.613 C 96.404 200.840,97.230 201.462,98.000 201.994 C 98.770 202.526,99.490 203.069,99.600 203.200 C 99.710 203.332,101.330 204.505,103.200 205.808 C 105.070 207.112,106.949 208.498,107.375 208.889 C 107.802 209.280,108.305 209.600,108.494 209.600 C 108.682 209.600,109.256 210.005,109.768 210.500 C 110.954 211.646,111.851 212.368,113.600 213.586 C 114.370 214.123,115.090 214.669,115.200 214.800 C 115.310 214.931,116.030 215.471,116.800 216.000 C 117.570 216.529,118.290 217.069,118.400 217.200 C 118.510 217.331,119.230 217.871,120.000 218.400 C 120.770 218.929,121.490 219.469,121.600 219.600 C 121.710 219.731,122.430 220.274,123.200 220.806 C 123.970 221.338,124.807 221.960,125.061 222.187 C 125.315 222.414,126.555 223.320,127.816 224.200 C 129.078 225.080,130.527 226.205,131.037 226.700 C 131.547 227.195,132.125 227.600,132.322 227.600 C 132.520 227.600,133.246 228.140,133.937 228.800 C 134.628 229.460,135.348 230.000,135.537 230.000 C 135.726 230.000,136.446 230.540,137.137 231.200 C 137.828 231.860,138.539 232.400,138.718 232.400 C 138.897 232.400,139.731 233.030,140.572 233.800 C 141.413 234.570,142.215 235.200,142.354 235.200 C 142.494 235.200,143.056 235.612,143.604 236.115 C 144.152 236.619,145.860 237.920,147.400 239.008 C 148.940 240.095,150.260 241.123,150.333 241.293 C 150.407 241.462,150.722 241.600,151.033 241.600 C 151.345 241.600,151.600 241.780,151.600 242.000 C 151.600 242.220,151.782 242.400,152.004 242.400 C 152.226 242.400,152.972 242.940,153.663 243.600 C 154.354 244.260,155.080 244.800,155.278 244.800 C 155.475 244.800,156.086 245.250,156.636 245.800 C 157.186 246.350,157.800 246.800,158.000 246.800 C 158.200 246.800,158.779 247.205,159.286 247.700 C 159.793 248.195,161.286 249.410,162.604 250.399 C 163.922 251.388,165.090 252.297,165.200 252.418 C 165.310 252.539,166.030 253.071,166.800 253.600 C 167.570 254.129,168.290 254.661,168.400 254.782 C 168.510 254.903,169.410 255.542,170.400 256.201 C 171.390 256.861,172.549 257.715,172.975 258.100 C 173.402 258.485,173.905 258.800,174.094 258.800 C 174.282 258.800,174.856 259.205,175.368 259.700 C 176.554 260.846,177.451 261.568,179.200 262.786 C 179.970 263.323,180.690 263.869,180.800 264.000 C 180.910 264.131,181.630 264.671,182.400 265.200 C 183.170 265.729,183.890 266.269,184.000 266.400 C 184.110 266.531,184.830 267.071,185.600 267.600 C 186.370 268.129,187.090 268.669,187.200 268.800 C 187.310 268.931,188.030 269.471,188.800 270.000 C 189.570 270.529,190.290 271.066,190.400 271.194 C 190.510 271.322,191.860 272.310,193.400 273.389 C 194.940 274.469,196.290 275.461,196.400 275.595 C 198.334 277.949,201.217 278.078,203.243 275.900 C 203.601 275.515,204.098 275.200,204.347 275.200 C 204.596 275.200,204.800 275.056,204.800 274.880 C 204.800 274.704,205.565 274.075,206.500 273.482 C 207.435 272.889,208.723 271.954,209.362 271.402 C 210.001 270.851,210.633 270.400,210.766 270.400 C 210.899 270.400,211.456 269.990,212.004 269.489 C 212.552 268.987,213.630 268.141,214.400 267.608 C 215.170 267.075,215.890 266.531,216.000 266.400 C 216.110 266.269,216.830 265.729,217.600 265.200 C 218.370 264.671,219.090 264.131,219.200 264.000 C 219.310 263.869,220.030 263.323,220.800 262.786 C 222.549 261.568,223.446 260.846,224.632 259.700 C 225.144 259.205,225.718 258.800,225.906 258.800 C 226.095 258.800,226.598 258.485,227.025 258.100 C 227.451 257.715,228.610 256.861,229.600 256.201 C 230.590 255.542,231.490 254.903,231.600 254.782 C 231.710 254.661,232.430 254.129,233.200 253.600 C 233.970 253.071,234.690 252.539,234.800 252.418 C 234.910 252.297,236.080 251.390,237.400 250.402 C 238.720 249.415,240.091 248.290,240.447 247.903 C 240.803 247.517,241.271 247.200,241.488 247.200 C 241.704 247.200,242.446 246.660,243.137 246.000 C 243.828 245.340,244.548 244.800,244.737 244.800 C 244.926 244.800,245.646 244.260,246.337 243.600 C 247.028 242.940,247.740 242.400,247.921 242.400 C 248.101 242.400,248.598 242.082,249.025 241.694 C 249.451 241.305,251.060 240.101,252.600 239.018 C 254.140 237.935,255.490 236.939,255.600 236.805 C 255.710 236.671,256.430 236.124,257.200 235.589 C 257.970 235.055,259.013 234.208,259.518 233.709 C 260.023 233.209,260.600 232.800,260.800 232.800 C 261.000 232.800,261.614 232.350,262.164 231.800 C 262.714 231.250,263.325 230.800,263.522 230.800 C 263.720 230.800,264.446 230.260,265.137 229.600 C 265.828 228.940,266.574 228.400,266.796 228.400 C 267.018 228.400,267.200 228.220,267.200 228.000 C 267.200 227.780,267.430 227.600,267.712 227.600 C 267.993 227.600,268.483 227.240,268.800 226.800 C 269.117 226.360,269.592 226.000,269.855 226.000 C 270.118 226.000,270.393 225.855,270.467 225.677 C 270.540 225.499,271.410 224.798,272.400 224.119 C 273.390 223.440,274.633 222.506,275.161 222.042 C 275.690 221.579,276.232 221.200,276.365 221.200 C 276.499 221.200,277.056 220.790,277.604 220.289 C 278.152 219.787,279.230 218.941,280.000 218.408 C 280.770 217.875,281.490 217.331,281.600 217.200 C 281.710 217.069,282.430 216.529,283.200 216.000 C 283.970 215.471,284.690 214.931,284.800 214.800 C 284.910 214.669,285.630 214.123,286.400 213.586 C 288.149 212.368,289.046 211.646,290.232 210.500 C 290.744 210.005,291.318 209.600,291.506 209.600 C 291.695 209.600,292.198 209.280,292.625 208.889 C 293.051 208.498,294.930 207.112,296.800 205.808 C 298.670 204.505,300.290 203.332,300.400 203.200 C 300.510 203.069,301.230 202.526,302.000 201.994 C 302.770 201.462,303.596 200.840,303.837 200.613 C 304.077 200.386,304.887 199.750,305.637 199.200 C 306.386 198.650,307.495 197.686,308.100 197.058 L 309.200 195.915 309.200 136.600 C 309.200 72.107,309.339 75.824,306.998 77.836 C 306.381 78.366,305.743 78.800,305.580 78.800 C 305.418 78.800,304.707 79.340,304.000 80.000 C 303.293 80.660,302.563 81.200,302.376 81.200 C 302.189 81.200,301.586 81.650,301.036 82.200 C 300.486 82.750,299.875 83.200,299.678 83.200 C 299.480 83.200,298.754 83.740,298.063 84.400 C 297.372 85.060,296.718 85.600,296.608 85.600 C 296.406 85.600,295.142 86.591,294.184 87.500 C 293.894 87.775,293.537 88.000,293.389 88.000 C 293.242 88.000,292.617 88.540,292.000 89.200 C 291.383 89.860,290.680 90.400,290.436 90.400 C 290.192 90.400,289.428 90.940,288.737 91.600 C 288.046 92.260,287.253 92.800,286.974 92.800 C 286.695 92.800,286.407 92.952,286.333 93.138 C 286.260 93.324,285.210 94.174,284.000 95.027 C 282.790 95.879,281.710 96.672,281.600 96.789 C 281.490 96.906,280.320 97.810,279.000 98.798 C 277.680 99.785,276.309 100.910,275.953 101.297 C 275.597 101.683,275.129 102.000,274.912 102.000 C 274.696 102.000,273.954 102.540,273.263 103.200 C 272.572 103.860,271.852 104.400,271.663 104.400 C 271.474 104.400,270.754 104.940,270.063 105.600 C 269.372 106.260,268.652 106.800,268.463 106.800 C 268.274 106.800,267.554 107.340,266.863 108.000 C 266.172 108.660,265.495 109.200,265.357 109.200 C 265.108 109.200,261.181 111.963,260.800 112.406 C 260.690 112.534,259.970 113.071,259.200 113.600 C 258.430 114.129,257.509 114.886,257.153 115.281 C 256.797 115.676,256.329 116.000,256.112 116.000 C 255.896 116.000,255.154 116.540,254.463 117.200 C 253.772 117.860,253.052 118.400,252.863 118.400 C 252.674 118.400,251.954 118.940,251.263 119.600 C 250.572 120.260,249.852 120.800,249.663 120.800 C 249.474 120.800,248.754 121.340,248.063 122.000 C 247.372 122.660,246.626 123.200,246.404 123.200 C 246.182 123.200,246.000 123.380,246.000 123.600 C 246.000 123.820,245.770 124.000,245.488 124.000 C 245.207 124.000,244.717 124.360,244.400 124.800 C 244.083 125.240,243.676 125.600,243.495 125.600 C 243.314 125.600,242.949 125.783,242.683 126.007 C 240.933 127.483,240.248 128.001,240.039 128.006 C 239.907 128.010,239.191 128.550,238.446 129.206 C 237.701 129.863,236.944 130.400,236.764 130.400 C 236.584 130.400,235.986 130.850,235.436 131.400 C 234.886 131.950,234.275 132.400,234.078 132.400 C 233.880 132.400,233.154 132.940,232.463 133.600 C 231.772 134.260,231.118 134.800,231.008 134.800 C 230.806 134.800,229.542 135.791,228.584 136.700 C 228.294 136.975,227.937 137.200,227.789 137.200 C 227.642 137.200,227.017 137.740,226.400 138.400 C 225.783 139.060,225.063 139.600,224.800 139.600 C 224.537 139.600,223.817 140.140,223.200 140.800 C 222.583 141.460,221.791 142.000,221.440 142.000 C 221.088 142.000,220.800 142.144,220.800 142.320 C 220.800 142.496,220.008 143.141,219.041 143.752 C 218.073 144.364,216.948 145.170,216.541 145.543 C 216.133 145.916,215.170 146.658,214.400 147.192 C 213.630 147.725,212.910 148.261,212.800 148.382 C 212.690 148.503,211.520 149.410,210.200 150.398 C 208.880 151.385,207.509 152.510,207.153 152.897 C 206.797 153.283,206.329 153.600,206.112 153.600 C 205.896 153.600,205.154 154.140,204.463 154.800 C 203.772 155.460,203.052 156.000,202.863 156.000 C 202.674 156.000,201.952 156.542,201.259 157.203 L 200.000 158.407 198.741 157.203 C 198.048 156.542,197.310 156.000,197.101 156.000 C 196.892 156.000,196.217 155.460,195.600 154.800 C 194.983 154.140,194.263 153.600,194.000 153.600 C 193.737 153.600,193.017 153.060,192.400 152.400 C 191.783 151.740,191.161 151.200,191.016 151.200 C 190.779 151.200,187.689 148.917,187.200 148.381 C 187.090 148.260,186.370 147.725,185.600 147.192 C 184.830 146.658,183.867 145.916,183.459 145.543 C 183.052 145.170,181.927 144.364,180.959 143.752 C 179.992 143.141,179.200 142.496,179.200 142.320 C 179.200 142.144,178.912 142.000,178.560 142.000 C 178.209 142.000,177.417 141.460,176.800 140.800 C 176.183 140.140,175.463 139.600,175.200 139.600 C 174.937 139.600,174.217 139.060,173.600 138.400 C 172.983 137.740,172.373 137.200,172.244 137.200 C 172.011 137.200,170.800 136.265,169.784 135.300 C 169.494 135.025,169.153 134.800,169.025 134.800 C 168.897 134.800,168.228 134.260,167.537 133.600 C 166.846 132.940,166.120 132.400,165.922 132.400 C 165.725 132.400,165.114 131.950,164.564 131.400 C 164.014 130.850,163.411 130.400,163.224 130.400 C 163.037 130.400,162.307 129.860,161.600 129.200 C 160.893 128.540,160.179 128.000,160.012 128.000 C 159.845 128.000,159.099 127.463,158.354 126.806 C 157.609 126.150,156.815 125.610,156.588 125.606 C 156.362 125.603,155.917 125.240,155.600 124.800 C 155.283 124.360,154.793 124.000,154.512 124.000 C 154.230 124.000,154.000 123.820,154.000 123.600 C 154.000 123.380,153.818 123.200,153.596 123.200 C 153.374 123.200,152.628 122.660,151.937 122.000 C 151.246 121.340,150.526 120.800,150.337 120.800 C 150.148 120.800,149.428 120.260,148.737 119.600 C 148.046 118.940,147.326 118.400,147.137 118.400 C 146.948 118.400,146.228 117.860,145.537 117.200 C 144.846 116.540,144.104 116.000,143.888 116.000 C 143.671 116.000,143.203 115.676,142.847 115.281 C 142.491 114.886,141.570 114.129,140.800 113.600 C 140.030 113.071,139.310 112.529,139.200 112.395 C 139.090 112.261,137.740 111.265,136.200 110.182 C 134.660 109.099,133.051 107.895,132.625 107.506 C 132.198 107.118,131.685 106.800,131.485 106.800 C 131.285 106.800,130.617 106.260,130.000 105.600 C 129.383 104.940,128.663 104.400,128.400 104.400 C 128.137 104.400,127.417 103.860,126.800 103.200 C 126.183 102.540,125.473 102.000,125.221 102.000 C 124.970 102.000,124.344 101.595,123.832 101.100 C 122.658 99.966,121.767 99.246,120.000 98.006 C 119.230 97.465,118.152 96.613,117.604 96.111 C 117.056 95.610,116.499 95.200,116.365 95.200 C 116.152 95.200,115.481 94.695,113.717 93.207 C 113.451 92.983,113.073 92.800,112.876 92.800 C 112.680 92.800,111.954 92.260,111.263 91.600 C 110.572 90.940,109.808 90.400,109.564 90.400 C 109.320 90.400,108.617 89.860,108.000 89.200 C 107.383 88.540,106.773 88.000,106.644 88.000 C 106.411 88.000,105.200 87.065,104.184 86.100 C 103.894 85.825,103.553 85.600,103.425 85.600 C 103.297 85.600,102.628 85.060,101.937 84.400 C 101.246 83.740,100.526 83.200,100.337 83.200 C 100.148 83.200,99.428 82.660,98.737 82.000 C 98.046 81.340,97.320 80.800,97.122 80.800 C 96.925 80.800,96.314 80.350,95.764 79.800 C 95.214 79.250,94.605 78.800,94.410 78.800 C 94.216 78.800,93.819 78.575,93.527 78.300 C 92.428 77.263,91.785 76.913,91.300 77.087 " stroke="none" fill="#fc4434" fill-rule="evenodd"></path></g></svg>