<svg id="svg" version="1.1" xmlns="http://www.w3.org/2000/svg" xmlns:xlink="http://www.w3.org/1999/xlink" width="400" height="400" viewBox="0, 0, 400,400"><g id="svgg"><path id="path0" d="M267.400 63.059 C 256.310 64.341,247.371 67.258,237.231 72.902 C 226.129 79.081,214.515 91.342,208.614 103.113 C 207.068 106.197,206.520 107.393,205.185 110.600 C 204.325 112.668,202.796 117.839,202.052 121.200 C 200.287 129.170,200.000 134.999,200.000 162.822 L 200.000 187.600 180.700 187.604 C 149.202 187.611,150.000 186.806,150.000 218.600 C 150.000 241.222,150.223 242.691,154.209 246.366 C 157.988 249.849,159.120 250.000,181.420 250.000 L 200.000 250.000 200.000 325.000 L 200.000 400.000 231.199 400.000 L 262.398 400.000 262.499 324.900 L 262.600 249.800 284.200 249.598 C 308.304 249.372,307.260 249.497,310.280 246.496 C 313.408 243.388,313.689 242.732,315.206 235.000 C 315.465 233.680,315.848 231.790,316.058 230.800 C 323.260 196.750,323.212 193.061,315.519 189.307 C 312.040 187.609,311.890 187.600,286.740 187.600 L 262.400 187.600 262.406 161.300 C 262.411 140.572,262.524 134.679,262.940 133.485 C 264.152 130.002,267.602 126.552,271.085 125.340 C 272.263 124.929,277.226 124.811,293.406 124.806 C 326.145 124.797,324.800 126.132,324.800 93.634 C 324.800 78.562,324.670 72.675,324.315 71.628 C 323.033 67.854,319.965 64.606,316.521 63.378 C 315.115 62.876,271.430 62.593,267.400 63.059 " stroke="none" fill="#fbfbfb" fill-rule="evenodd"></path><path id="path1" d="M309.600 0.364 C 310.590 0.530,311.850 0.861,312.400 1.099 C 312.950 1.338,314.300 1.761,315.400 2.041 C 330.046 5.757,344.082 17.704,351.066 32.400 C 354.313 39.234,356.400 48.388,356.400 55.802 C 356.400 70.665,350.742 84.672,340.438 95.317 C 335.970 99.932,328.837 105.304,325.900 106.264 C 325.285 106.465,325.200 107.074,325.200 111.252 C 325.200 113.869,325.041 116.323,324.847 116.705 C 324.652 117.087,324.247 117.940,323.947 118.600 C 323.262 120.103,320.161 123.236,318.700 123.900 C 318.095 124.175,317.195 124.581,316.700 124.802 C 316.146 125.050,307.738 125.251,294.800 125.325 C 283.250 125.392,273.260 125.585,272.600 125.754 C 267.993 126.936,264.540 130.388,263.353 135.000 C 263.183 135.660,262.987 147.675,262.916 161.700 L 262.788 187.200 288.000 187.200 C 301.866 187.200,313.523 187.359,313.905 187.553 C 314.287 187.748,315.103 188.143,315.719 188.431 C 319.886 190.384,324.259 198.516,322.592 201.213 C 322.445 201.451,322.155 202.670,321.947 203.923 C 321.584 206.106,321.229 207.967,320.387 212.100 C 320.174 213.145,319.842 214.855,319.649 215.900 C 315.363 239.112,314.152 243.462,311.148 246.448 C 307.285 250.287,308.262 250.149,283.900 250.308 L 262.800 250.445 262.800 325.254 L 262.800 400.063 290.180 399.931 C 311.408 399.830,317.673 399.688,318.060 399.300 C 318.335 399.025,319.323 398.800,320.256 398.800 C 321.189 398.800,322.064 398.620,322.200 398.400 C 322.336 398.180,323.067 398.000,323.824 398.000 C 324.581 398.000,325.200 397.820,325.200 397.600 C 325.200 397.380,325.920 397.200,326.800 397.200 C 327.680 397.200,328.400 397.020,328.400 396.800 C 328.400 396.580,328.940 396.400,329.600 396.400 C 330.260 396.400,330.800 396.220,330.800 396.000 C 330.800 395.780,331.340 395.600,332.000 395.600 C 332.660 395.600,333.200 395.420,333.200 395.200 C 333.200 394.980,333.740 394.800,334.400 394.800 C 335.060 394.800,335.600 394.620,335.600 394.400 C 335.600 394.180,336.050 394.000,336.600 394.000 C 337.150 394.000,337.600 393.820,337.600 393.600 C 337.600 393.380,338.061 393.200,338.624 393.200 C 339.204 393.200,339.540 393.027,339.400 392.800 C 339.260 392.573,339.596 392.400,340.176 392.400 C 340.739 392.400,341.200 392.234,341.200 392.032 C 341.200 391.829,341.785 391.535,342.500 391.378 C 344.134 391.019,347.200 389.546,347.200 389.120 C 347.200 388.944,347.560 388.800,348.000 388.800 C 348.440 388.800,348.800 388.620,348.800 388.400 C 348.800 388.180,349.160 388.000,349.600 388.000 C 350.040 388.000,350.400 387.820,350.400 387.600 C 350.400 387.380,350.720 387.200,351.112 387.200 C 351.503 387.200,352.083 386.840,352.400 386.400 C 352.717 385.960,353.297 385.600,353.688 385.600 C 354.080 385.600,354.400 385.420,354.400 385.200 C 354.400 384.980,354.670 384.800,355.000 384.800 C 355.330 384.800,355.600 384.620,355.600 384.400 C 355.600 384.180,355.870 384.000,356.200 384.000 C 356.530 384.000,356.800 383.820,356.800 383.600 C 356.800 383.380,356.998 383.200,357.240 383.200 C 357.481 383.200,358.183 382.660,358.800 382.000 C 359.417 381.340,360.137 380.800,360.400 380.800 C 360.663 380.800,361.383 380.260,362.000 379.600 C 362.617 378.940,363.282 378.400,363.479 378.400 C 364.542 378.400,378.400 364.542,378.400 363.479 C 378.400 363.282,378.940 362.617,379.600 362.000 C 380.260 361.383,380.800 360.631,380.800 360.328 C 380.800 360.025,381.160 359.517,381.600 359.200 C 382.040 358.883,382.400 358.383,382.400 358.088 C 382.400 357.794,382.580 357.664,382.800 357.800 C 383.020 357.936,383.200 357.767,383.200 357.424 C 383.200 357.081,383.380 356.800,383.600 356.800 C 383.820 356.800,384.000 356.530,384.000 356.200 C 384.000 355.870,384.180 355.600,384.400 355.600 C 384.620 355.600,384.800 355.330,384.800 355.000 C 384.800 354.670,384.980 354.400,385.200 354.400 C 385.420 354.400,385.600 354.164,385.600 353.875 C 385.600 353.587,385.915 352.995,386.300 352.560 C 386.685 352.125,387.059 351.506,387.130 351.184 C 387.202 350.863,387.427 350.540,387.630 350.467 C 387.834 350.393,388.000 349.988,388.000 349.567 C 388.000 349.145,388.180 348.800,388.400 348.800 C 388.620 348.800,388.800 348.440,388.800 348.000 C 388.800 347.560,388.938 347.200,389.106 347.200 C 389.475 347.200,391.070 343.836,391.429 342.300 C 391.571 341.695,391.847 341.200,392.043 341.200 C 392.240 341.200,392.400 340.739,392.400 340.176 C 392.400 339.596,392.573 339.260,392.800 339.400 C 393.026 339.540,393.200 339.212,393.200 338.647 C 393.200 338.097,393.380 337.536,393.600 337.400 C 393.820 337.264,394.000 336.803,394.000 336.376 C 394.000 335.949,394.180 335.600,394.400 335.600 C 394.620 335.600,394.800 335.060,394.800 334.400 C 394.800 333.740,394.980 333.200,395.200 333.200 C 395.420 333.200,395.600 332.660,395.600 332.000 C 395.600 331.340,395.780 330.800,396.000 330.800 C 396.220 330.800,396.400 330.260,396.400 329.600 C 396.400 328.940,396.580 328.400,396.800 328.400 C 397.020 328.400,397.200 327.680,397.200 326.800 C 397.200 325.920,397.361 325.200,397.558 325.200 C 397.755 325.200,398.018 324.525,398.143 323.700 C 398.267 322.875,398.477 321.480,398.609 320.600 C 398.742 319.720,399.063 318.568,399.325 318.039 C 400.012 316.650,400.015 83.357,399.327 81.961 C 399.067 81.432,398.753 80.370,398.629 79.600 C 398.015 75.794,397.869 75.200,397.547 75.200 C 397.356 75.200,397.200 74.390,397.200 73.400 C 397.200 72.410,397.020 71.600,396.800 71.600 C 396.580 71.600,396.400 71.060,396.400 70.400 C 396.400 69.740,396.220 69.200,396.000 69.200 C 395.780 69.200,395.600 68.761,395.600 68.224 C 395.600 67.687,395.420 67.136,395.200 67.000 C 394.980 66.864,394.800 66.401,394.800 65.971 C 394.800 65.541,394.620 64.832,394.400 64.395 C 394.180 63.958,393.820 63.242,393.600 62.805 C 393.380 62.368,393.197 61.603,393.194 61.105 C 393.189 60.374,393.113 60.315,392.800 60.800 C 392.463 61.322,392.411 61.315,392.406 60.749 C 392.403 60.391,392.097 59.401,391.726 58.549 C 391.355 57.697,391.088 56.854,391.134 56.676 C 391.246 56.235,389.903 54.000,389.526 54.000 C 389.361 54.000,389.329 53.730,389.455 53.400 C 389.582 53.070,389.486 52.800,389.243 52.800 C 388.999 52.800,388.800 52.440,388.800 52.000 C 388.800 51.560,388.620 51.200,388.400 51.200 C 388.180 51.200,388.000 50.840,388.000 50.400 C 388.000 49.960,387.832 49.600,387.627 49.600 C 387.422 49.600,387.140 49.241,387.001 48.802 C 386.862 48.364,386.496 47.753,386.188 47.445 C 385.880 47.137,385.577 46.648,385.514 46.357 C 385.451 46.066,385.093 45.552,384.717 45.214 C 384.341 44.876,383.981 44.330,383.917 44.000 C 383.853 43.670,383.305 42.903,382.700 42.297 C 382.095 41.690,381.600 41.015,381.600 40.797 C 381.600 40.578,381.464 40.400,381.298 40.400 C 381.131 40.400,380.756 39.859,380.463 39.198 C 380.170 38.536,379.766 38.097,379.565 38.221 C 379.364 38.346,379.200 38.167,379.200 37.824 C 379.200 37.481,379.020 37.200,378.800 37.200 C 378.580 37.200,378.400 36.971,378.400 36.690 C 378.400 36.410,377.372 35.105,376.115 33.790 C 374.858 32.476,373.868 31.265,373.915 31.100 C 373.962 30.935,373.700 30.800,373.333 30.800 C 372.967 30.800,372.765 30.701,372.886 30.581 C 373.175 30.292,369.889 26.916,369.500 27.103 C 369.335 27.182,369.200 26.956,369.200 26.600 C 369.200 26.244,369.029 26.058,368.820 26.188 C 368.611 26.317,368.245 26.057,368.006 25.611 C 367.767 25.165,367.278 24.800,366.919 24.800 C 366.560 24.800,366.380 24.687,366.519 24.548 C 366.836 24.231,363.977 21.622,363.300 21.609 C 363.025 21.604,362.800 21.420,362.800 21.200 C 362.800 20.980,362.519 20.800,362.176 20.800 C 361.833 20.800,361.647 20.647,361.763 20.460 C 361.878 20.273,361.484 19.868,360.886 19.560 C 360.289 19.252,359.418 18.640,358.950 18.200 C 357.427 16.766,356.398 16.000,355.995 16.000 C 355.778 16.000,355.600 15.820,355.600 15.600 C 355.600 15.380,355.330 15.200,355.000 15.200 C 354.670 15.200,354.400 15.020,354.400 14.800 C 354.400 14.580,354.040 14.400,353.600 14.400 C 353.160 14.400,352.800 14.242,352.800 14.049 C 352.800 13.855,352.260 13.473,351.600 13.200 C 350.940 12.927,350.400 12.537,350.400 12.334 C 350.400 12.131,350.175 11.994,349.900 12.030 C 348.983 12.149,348.264 12.003,348.518 11.749 C 348.749 11.518,346.318 10.059,345.400 9.879 C 345.180 9.835,344.882 9.636,344.737 9.436 C 344.592 9.236,344.142 9.038,343.737 8.997 C 342.582 8.879,339.600 7.552,339.600 7.157 C 339.600 6.960,339.238 6.800,338.795 6.800 C 338.352 6.800,337.587 6.592,337.095 6.338 C 335.169 5.342,334.783 5.200,334.005 5.200 C 333.562 5.200,333.200 5.020,333.200 4.800 C 333.200 4.580,332.660 4.400,332.000 4.400 C 331.340 4.400,330.800 4.220,330.800 4.000 C 330.800 3.780,330.080 3.600,329.200 3.600 C 328.320 3.600,327.600 3.420,327.600 3.200 C 327.600 2.980,327.060 2.800,326.400 2.800 C 325.740 2.800,325.200 2.620,325.200 2.400 C 325.200 2.180,324.606 2.000,323.880 2.000 C 323.154 2.000,322.318 1.775,322.021 1.500 C 321.590 1.100,321.539 1.100,321.765 1.500 C 322.098 2.090,321.362 2.186,321.000 1.600 C 320.864 1.380,320.234 1.200,319.600 1.200 C 318.966 1.200,318.343 1.031,318.216 0.825 C 318.088 0.619,317.673 0.469,317.292 0.492 C 316.911 0.514,314.620 0.426,312.200 0.297 C 309.780 0.168,308.610 0.198,309.600 0.364 M35.506 22.172 C 35.124 22.451,34.921 22.788,35.054 22.921 C 35.187 23.053,35.565 22.892,35.895 22.562 C 36.672 21.785,36.403 21.516,35.506 22.172 M17.300 41.798 C 16.731 42.445,16.661 42.800,17.104 42.800 C 17.271 42.800,17.632 42.440,17.907 42.000 C 18.478 41.087,18.051 40.945,17.300 41.798 M179.000 112.826 C 168.589 113.322,160.487 114.313,151.000 116.250 C 149.240 116.609,147.080 117.050,146.200 117.228 C 142.639 117.952,140.915 118.367,139.200 118.912 C 138.210 119.227,136.590 119.715,135.600 119.996 C 131.521 121.156,130.965 121.325,130.200 121.639 C 129.760 121.819,128.050 122.408,126.400 122.948 C 108.589 128.775,87.921 139.942,72.800 151.908 C 68.175 155.568,67.306 156.284,64.001 159.159 C 56.595 165.604,45.666 177.105,40.396 184.000 C 39.640 184.990,38.926 185.890,38.809 186.000 C 38.122 186.650,34.800 191.327,31.705 196.000 C 28.594 200.698,27.027 203.237,23.926 208.600 C 22.651 210.804,17.374 221.367,16.232 224.000 C 15.611 225.430,14.862 227.140,14.566 227.800 C 12.916 231.481,9.129 242.272,7.618 247.600 C 7.337 248.590,6.969 249.850,6.800 250.400 C 5.636 254.190,3.893 262.053,2.855 268.200 C 0.814 280.290,0.263 287.084,0.229 300.600 C 0.198 312.919,0.347 317.428,0.816 318.400 C 1.262 319.324,2.000 322.694,2.000 323.806 C 2.000 324.353,2.180 324.800,2.400 324.800 C 2.620 324.800,2.800 325.610,2.800 326.600 C 2.800 327.590,2.980 328.400,3.200 328.400 C 3.420 328.400,3.600 328.940,3.600 329.600 C 3.600 330.260,3.780 330.800,4.000 330.800 C 4.220 330.800,4.400 331.239,4.400 331.776 C 4.400 332.313,4.580 332.864,4.800 333.000 C 5.020 333.136,5.200 333.563,5.200 333.948 C 5.200 334.334,5.560 335.395,6.000 336.306 C 6.440 337.216,6.800 338.341,6.800 338.804 C 6.800 339.268,6.980 339.536,7.200 339.400 C 7.420 339.264,7.600 339.398,7.600 339.697 C 7.600 340.411,8.527 342.393,8.863 342.397 C 9.007 342.399,9.038 342.733,8.931 343.140 C 8.825 343.548,9.013 344.156,9.350 344.493 C 9.686 344.829,9.855 345.212,9.724 345.343 C 9.593 345.474,9.770 345.690,10.117 345.824 C 10.465 345.957,10.652 346.321,10.532 346.633 C 10.412 346.945,10.514 347.200,10.757 347.200 C 11.001 347.200,11.200 347.560,11.200 348.000 C 11.200 348.440,11.380 348.800,11.600 348.800 C 11.820 348.800,12.000 349.160,12.000 349.600 C 12.000 350.040,12.180 350.400,12.400 350.400 C 12.620 350.400,12.800 350.636,12.800 350.925 C 12.800 351.213,13.156 351.831,13.591 352.299 C 14.027 352.766,14.432 353.378,14.491 353.658 C 14.551 353.939,14.915 354.525,15.300 354.960 C 15.685 355.395,16.000 355.975,16.000 356.248 C 16.000 356.522,16.356 356.859,16.792 356.997 C 17.227 357.136,17.542 357.395,17.492 357.574 C 17.441 357.753,17.989 358.552,18.710 359.350 C 19.430 360.147,19.837 360.800,19.613 360.800 C 19.390 360.800,19.746 361.314,20.404 361.943 C 21.062 362.572,21.600 363.252,21.600 363.453 C 21.600 363.655,22.628 364.895,23.885 366.210 C 25.142 367.524,26.132 368.735,26.085 368.900 C 26.038 369.065,26.225 369.155,26.500 369.100 C 26.775 369.045,26.959 369.214,26.908 369.476 C 26.858 369.737,27.173 370.064,27.608 370.203 C 28.044 370.341,28.400 370.712,28.400 371.027 C 28.400 371.342,28.658 371.600,28.973 371.600 C 29.288 371.600,29.661 371.963,29.802 372.406 C 29.943 372.849,30.225 373.108,30.429 372.982 C 30.633 372.856,30.800 373.044,30.800 373.400 C 30.800 373.756,30.971 373.942,31.180 373.812 C 31.389 373.683,31.755 373.943,31.994 374.389 C 32.233 374.835,32.680 375.200,32.987 375.200 C 33.295 375.200,33.652 375.515,33.781 375.900 C 33.911 376.285,35.093 377.319,36.408 378.198 C 37.724 379.076,38.800 379.923,38.800 380.079 C 38.800 380.235,39.428 380.661,40.196 381.025 C 40.965 381.390,41.494 381.848,41.373 382.044 C 41.177 382.361,41.718 382.563,42.476 382.455 C 42.627 382.434,42.865 382.775,43.004 383.214 C 43.144 383.653,43.392 383.929,43.556 383.827 C 43.720 383.726,44.299 384.038,44.842 384.521 C 45.385 385.005,46.093 385.459,46.415 385.530 C 46.737 385.602,47.060 385.827,47.133 386.030 C 47.207 386.234,47.522 386.400,47.833 386.400 C 48.145 386.400,48.400 386.580,48.400 386.800 C 48.400 387.020,48.670 387.200,49.000 387.200 C 49.330 387.200,49.600 387.380,49.600 387.600 C 49.600 387.820,49.960 388.000,50.400 388.000 C 50.840 388.000,51.200 388.180,51.200 388.400 C 51.200 388.620,51.560 388.800,52.000 388.800 C 52.440 388.800,52.800 388.991,52.800 389.224 C 52.800 389.457,52.965 389.545,53.168 389.420 C 53.370 389.295,53.779 389.436,54.076 389.733 C 54.973 390.630,56.427 391.275,57.031 391.043 C 57.344 390.923,57.600 390.966,57.600 391.138 C 57.600 391.310,58.230 391.698,59.000 392.000 C 59.770 392.302,60.400 392.696,60.400 392.875 C 60.400 393.054,60.839 393.200,61.376 393.200 C 61.913 393.200,62.464 393.380,62.600 393.600 C 62.736 393.820,63.197 394.000,63.624 394.000 C 64.051 394.000,64.400 394.180,64.400 394.400 C 64.400 394.620,65.041 394.800,65.824 394.800 C 66.671 394.800,67.147 394.962,67.000 395.200 C 66.856 395.433,67.263 395.600,67.976 395.600 C 68.649 395.600,69.200 395.780,69.200 396.000 C 69.200 396.220,69.740 396.400,70.400 396.400 C 71.060 396.400,71.600 396.580,71.600 396.800 C 71.600 397.020,72.309 397.200,73.176 397.200 C 74.043 397.200,74.852 397.361,74.974 397.558 C 75.181 397.893,75.730 398.009,80.100 398.649 C 81.035 398.785,81.928 399.100,82.085 399.349 C 82.295 399.680,98.010 399.831,140.985 399.916 L 199.600 400.032 199.600 325.216 L 199.600 250.400 179.224 250.400 C 166.071 250.400,158.760 250.258,158.600 250.000 C 158.464 249.780,158.003 249.600,157.576 249.600 C 157.149 249.600,156.800 249.420,156.800 249.200 C 156.800 248.980,156.534 248.800,156.209 248.800 C 155.423 248.800,151.545 244.877,150.853 243.382 C 150.553 242.732,150.148 241.887,149.953 241.505 C 149.492 240.598,149.492 197.002,149.953 196.095 C 150.148 195.713,150.553 194.860,150.853 194.200 C 151.154 193.540,151.580 192.799,151.800 192.553 C 152.020 192.307,152.579 191.677,153.043 191.153 C 154.521 189.482,156.755 188.000,157.795 188.000 C 158.128 188.000,158.400 187.820,158.400 187.600 C 158.400 187.339,165.531 187.200,178.993 187.200 L 199.585 187.200 199.737 157.500 C 199.841 137.260,200.038 126.972,200.357 125.200 C 200.613 123.770,200.927 121.924,201.054 121.097 C 201.181 120.271,201.445 119.495,201.642 119.374 C 201.839 119.252,202.000 118.771,202.000 118.305 C 202.000 117.404,202.665 115.061,203.249 113.905 C 203.442 113.523,203.600 113.028,203.600 112.805 C 203.600 112.336,189.022 112.348,179.000 112.826 " stroke="none" fill="#2c5cb4" fill-rule="evenodd"></path><path id="path2" d="M85.600 0.453 C 84.170 0.635,82.010 0.897,80.800 1.034 C 79.590 1.170,78.411 1.436,78.181 1.623 C 77.950 1.811,77.107 2.008,76.307 2.062 C 75.506 2.116,74.929 2.285,75.024 2.438 C 75.118 2.591,74.522 2.818,73.698 2.943 C 70.119 3.484,69.200 3.709,69.200 4.044 C 69.200 4.240,68.660 4.400,68.000 4.400 C 67.340 4.400,66.800 4.580,66.800 4.800 C 66.800 5.020,66.521 5.200,66.181 5.200 C 65.840 5.200,64.816 5.560,63.906 6.000 C 62.995 6.440,61.924 6.800,61.525 6.800 C 61.126 6.800,60.800 6.980,60.800 7.200 C 60.800 7.420,60.440 7.600,60.000 7.600 C 59.560 7.600,59.200 7.780,59.200 8.000 C 59.200 8.220,58.840 8.400,58.400 8.400 C 57.960 8.400,57.600 8.550,57.600 8.733 C 57.600 8.917,57.350 9.067,57.044 9.067 C 56.357 9.067,50.397 11.999,49.671 12.694 C 49.381 12.972,48.994 13.200,48.812 13.200 C 48.369 13.200,44.429 15.774,43.314 16.792 C 42.827 17.236,42.224 17.600,41.975 17.600 C 41.725 17.600,41.017 18.140,40.400 18.800 C 39.783 19.460,39.067 20.000,38.808 20.000 C 38.549 20.000,37.639 20.727,36.785 21.616 C 35.931 22.504,35.135 23.224,35.016 23.216 C 34.198 23.156,34.000 23.270,34.000 23.800 C 34.000 24.130,33.810 24.400,33.578 24.400 C 32.973 24.400,22.400 35.099,22.400 35.712 C 22.400 35.993,22.040 36.483,21.600 36.800 C 21.160 37.117,20.800 37.607,20.800 37.888 C 20.800 38.170,20.620 38.400,20.400 38.400 C 20.180 38.400,20.000 38.630,20.000 38.912 C 20.000 39.193,19.640 39.683,19.200 40.000 C 18.760 40.317,18.400 40.780,18.400 41.029 C 18.400 41.278,17.860 42.046,17.200 42.737 C 16.540 43.428,16.000 44.174,16.000 44.396 C 16.000 44.618,15.850 44.800,15.668 44.800 C 15.485 44.800,15.080 45.295,14.768 45.900 C 14.455 46.505,13.705 47.746,13.100 48.658 C 12.495 49.570,12.000 50.515,12.000 50.758 C 12.000 51.001,11.820 51.200,11.600 51.200 C 11.380 51.200,11.200 51.560,11.200 52.000 C 11.200 52.440,11.020 52.800,10.800 52.800 C 10.580 52.800,10.400 53.149,10.400 53.576 C 10.400 54.003,10.217 54.466,9.993 54.604 C 9.770 54.742,9.683 55.010,9.800 55.200 C 9.917 55.390,9.830 55.658,9.607 55.796 C 9.383 55.934,9.200 56.397,9.200 56.824 C 9.200 57.251,9.020 57.600,8.800 57.600 C 8.580 57.600,8.400 57.960,8.400 58.400 C 8.400 58.840,8.220 59.200,8.000 59.200 C 7.780 59.200,7.600 59.560,7.600 60.000 C 7.600 60.440,7.420 60.800,7.200 60.800 C 6.980 60.800,6.800 61.126,6.800 61.525 C 6.800 61.924,6.440 62.995,6.000 63.906 C 5.560 64.816,5.200 65.930,5.200 66.381 C 5.200 66.831,5.020 67.200,4.800 67.200 C 4.580 67.200,4.400 67.650,4.400 68.200 C 4.400 68.750,4.220 69.200,4.000 69.200 C 3.780 69.200,3.600 69.729,3.600 70.376 C 3.600 71.023,3.420 71.664,3.200 71.800 C 2.980 71.936,2.800 72.767,2.800 73.647 C 2.800 74.527,2.656 75.158,2.480 75.049 C 2.304 74.941,2.115 75.515,2.061 76.325 C 2.006 77.135,1.790 77.970,1.581 78.179 C 1.371 78.389,1.200 79.409,1.200 80.447 C 1.200 81.600,1.006 82.398,0.700 82.500 C 0.302 82.633,0.187 103.742,0.135 186.033 C 0.099 242.885,0.216 288.950,0.395 288.400 C 0.574 287.850,0.737 286.320,0.757 285.000 C 0.812 281.482,2.234 271.062,3.651 263.800 C 4.602 258.924,5.971 253.100,6.800 250.400 C 6.969 249.850,7.337 248.590,7.618 247.600 C 9.129 242.272,12.916 231.481,14.566 227.800 C 14.862 227.140,15.611 225.430,16.232 224.000 C 17.374 221.367,22.651 210.804,23.926 208.600 C 27.027 203.237,28.594 200.698,31.705 196.000 C 34.800 191.327,38.122 186.650,38.809 186.000 C 38.926 185.890,39.640 184.990,40.396 184.000 C 45.666 177.105,56.595 165.604,64.001 159.159 C 67.306 156.284,68.175 155.568,72.800 151.908 C 87.921 139.942,108.589 128.775,126.400 122.948 C 128.050 122.408,129.760 121.815,130.200 121.629 C 130.640 121.443,131.810 121.066,132.800 120.792 C 135.868 119.940,136.931 119.628,139.000 118.973 C 140.900 118.372,142.586 117.963,146.200 117.228 C 147.080 117.050,149.240 116.609,151.000 116.250 C 157.029 115.019,159.652 114.605,166.405 113.816 C 173.224 113.021,189.603 112.311,197.491 112.470 L 203.982 112.600 204.242 111.413 C 204.385 110.760,204.641 109.950,204.811 109.613 C 204.981 109.276,206.074 107.020,207.240 104.600 C 208.407 102.180,209.865 99.448,210.481 98.528 C 211.096 97.608,211.600 96.746,211.600 96.611 C 211.600 96.476,211.783 96.149,212.007 95.883 C 212.231 95.617,213.617 93.784,215.086 91.810 C 224.312 79.409,238.903 69.382,254.000 65.067 C 257.261 64.135,258.887 63.780,264.224 62.831 C 269.262 61.935,315.720 62.264,317.731 63.210 C 320.246 64.392,322.571 66.676,323.970 69.341 L 325.200 71.681 325.200 89.041 C 325.200 107.467,325.148 107.024,327.138 105.686 C 327.722 105.293,328.650 104.746,329.200 104.471 C 338.356 99.891,349.442 86.045,353.364 74.290 C 357.482 61.944,357.399 50.373,353.097 37.400 C 347.624 20.893,332.256 6.555,315.119 1.966 C 313.644 1.571,312.024 1.012,311.519 0.724 C 310.452 0.116,90.305 -0.149,85.600 0.453 M202.249 116.615 C 202.112 116.973,202.015 117.566,202.034 117.933 C 202.053 118.300,202.227 118.069,202.421 117.420 C 202.798 116.158,202.665 115.533,202.249 116.615 M201.467 119.467 C 201.320 119.613,201.215 120.198,201.234 120.767 C 201.268 121.781,201.275 121.779,201.621 120.620 C 201.985 119.403,201.931 119.002,201.467 119.467 M321.274 121.482 C 320.764 122.031,320.417 122.550,320.503 122.636 C 320.588 122.722,321.174 122.254,321.804 121.596 C 322.434 120.938,322.781 120.419,322.575 120.442 C 322.369 120.465,321.783 120.934,321.274 121.482 M200.649 123.015 C 200.512 123.373,200.421 124.326,200.447 125.133 C 200.490 126.483,200.520 126.442,200.826 124.613 C 201.168 122.570,201.090 121.867,200.649 123.015 M272.200 125.600 L 271.400 125.944 272.200 125.966 C 272.640 125.978,273.270 125.813,273.600 125.600 C 274.395 125.086,273.396 125.086,272.200 125.600 M199.856 128.084 C 199.721 128.588,199.650 142.140,199.698 158.200 L 199.785 187.400 199.993 157.400 C 200.107 140.900,200.178 127.348,200.151 127.284 C 200.124 127.220,199.991 127.580,199.856 128.084 M264.547 131.208 C 263.962 132.093,263.595 132.928,263.732 133.065 C 263.869 133.202,264.105 132.974,264.256 132.557 C 264.407 132.141,264.873 131.305,265.292 130.700 C 265.712 130.095,265.955 129.600,265.833 129.600 C 265.711 129.600,265.132 130.324,264.547 131.208 M263.249 134.000 C 263.216 134.330,263.089 135.050,262.967 135.600 C 262.775 136.464,262.807 136.503,263.199 135.888 C 263.448 135.497,263.575 134.777,263.481 134.288 C 263.386 133.800,263.282 133.670,263.249 134.000 M312.600 187.600 C 313.701 188.073,314.092 188.073,313.800 187.600 C 313.664 187.380,313.158 187.213,312.676 187.228 C 311.831 187.255,311.829 187.269,312.600 187.600 M154.000 190.119 C 153.670 190.391,153.044 191.060,152.609 191.607 C 152.139 192.195,152.424 192.039,153.309 191.222 C 154.649 189.982,155.002 189.574,154.700 189.613 C 154.645 189.620,154.330 189.848,154.000 190.119 M318.665 190.801 C 319.361 191.570,320.328 192.973,320.814 193.917 C 321.301 194.862,321.782 195.551,321.885 195.449 C 322.219 195.115,320.058 191.804,318.713 190.588 L 317.400 189.402 318.665 190.801 M149.867 196.267 C 149.497 196.637,149.529 241.109,149.900 241.338 C 150.065 241.440,150.200 231.281,150.200 218.762 C 150.200 206.243,150.185 196.000,150.167 196.000 C 150.148 196.000,150.013 196.120,149.867 196.267 M150.432 242.321 C 150.414 242.608,150.850 243.505,151.400 244.314 C 151.950 245.123,152.400 245.637,152.400 245.455 C 152.400 245.272,152.066 244.646,151.657 244.062 C 151.248 243.478,150.813 242.730,150.689 242.400 C 150.536 241.994,150.453 241.968,150.432 242.321 M311.178 246.300 L 309.800 247.800 311.300 246.422 C 312.696 245.138,312.984 244.800,312.678 244.800 C 312.612 244.800,311.937 245.475,311.178 246.300 M158.662 250.100 C 158.764 250.265,168.016 250.400,179.223 250.400 L 199.598 250.400 199.701 325.200 L 199.803 400.000 199.802 325.100 L 199.800 250.200 179.138 250.000 C 167.774 249.890,158.560 249.935,158.662 250.100 M272.700 250.300 C 278.255 250.362,287.345 250.362,292.900 250.300 C 298.455 250.237,293.910 250.186,282.800 250.186 C 271.690 250.186,267.145 250.237,272.700 250.300 " stroke="none" fill="#537cd4" fill-rule="evenodd"></path><path id="path3" d="M259.800 63.600 C 259.296 63.817,259.222 63.944,259.600 63.944 C 259.930 63.944,260.560 63.789,261.000 63.600 C 261.504 63.383,261.578 63.256,261.200 63.256 C 260.870 63.256,260.240 63.411,259.800 63.600 M256.200 64.400 C 255.696 64.617,255.622 64.744,256.000 64.744 C 256.330 64.744,256.960 64.589,257.400 64.400 C 257.904 64.183,257.978 64.056,257.600 64.056 C 257.270 64.056,256.640 64.211,256.200 64.400 M221.588 84.300 L 219.000 87.000 221.700 84.412 C 224.208 82.007,224.583 81.600,224.288 81.600 C 224.227 81.600,223.012 82.815,221.588 84.300 M324.846 114.467 C 324.821 114.834,324.696 115.464,324.570 115.867 C 324.352 116.562,324.363 116.563,324.797 115.887 C 325.048 115.496,325.173 114.866,325.073 114.487 C 324.911 113.868,324.888 113.866,324.846 114.467 M314.800 124.800 C 313.976 125.064,313.941 125.126,314.600 125.154 C 315.040 125.173,315.670 125.013,316.000 124.800 C 316.701 124.347,316.214 124.347,314.800 124.800 M262.596 162.000 L 262.600 187.400 287.400 187.405 L 312.200 187.409 287.503 187.302 L 262.806 187.194 262.699 161.897 L 262.591 136.600 262.596 162.000 M169.928 187.500 C 175.498 187.563,184.498 187.562,189.928 187.500 C 195.358 187.437,190.800 187.385,179.800 187.386 C 168.800 187.386,164.358 187.437,169.928 187.500 M318.400 191.000 C 319.146 191.770,319.847 192.400,319.957 192.400 C 320.067 192.400,319.546 191.770,318.800 191.000 C 318.054 190.230,317.353 189.600,317.243 189.600 C 317.133 189.600,317.654 190.230,318.400 191.000 M322.109 200.000 C 322.109 200.990,322.187 201.395,322.282 200.900 C 322.378 200.405,322.378 199.595,322.282 199.100 C 322.187 198.605,322.109 199.010,322.109 200.000 M152.400 245.325 C 152.400 245.394,152.985 245.979,153.700 246.625 L 155.000 247.800 153.825 246.500 C 152.730 245.288,152.400 245.016,152.400 245.325 M262.596 325.200 C 262.596 366.450,262.643 383.325,262.700 362.700 C 262.757 342.075,262.757 308.325,262.700 287.700 C 262.643 267.075,262.596 283.950,262.596 325.200 " stroke="none" fill="#829ed5" fill-rule="evenodd"></path><path id="path4" d="M266.219 62.747 C 265.570 62.886,276.578 63.000,290.681 63.000 C 304.784 63.000,316.115 62.868,315.861 62.706 C 315.302 62.350,267.892 62.389,266.219 62.747 M261.000 63.600 C 259.936 64.057,261.603 64.057,263.400 63.600 L 264.600 63.295 263.200 63.275 C 262.430 63.265,261.440 63.411,261.000 63.600 M317.400 63.659 C 320.588 65.393,323.209 68.288,324.228 71.200 C 324.420 71.750,324.678 81.650,324.801 93.200 L 325.024 114.200 325.012 93.000 C 324.999 69.420,325.096 70.315,322.163 66.829 C 320.943 65.379,317.901 63.194,317.128 63.212 C 316.838 63.219,316.960 63.420,317.400 63.659 M257.400 64.400 L 256.600 64.744 257.400 64.744 C 257.840 64.744,258.560 64.589,259.000 64.400 L 259.800 64.056 259.000 64.056 C 258.560 64.056,257.840 64.211,257.400 64.400 M254.400 65.200 C 253.605 65.714,254.604 65.714,255.800 65.200 L 256.600 64.856 255.800 64.834 C 255.360 64.822,254.730 64.987,254.400 65.200 M251.600 66.000 C 251.067 66.345,251.067 66.388,251.600 66.388 C 251.930 66.388,252.470 66.213,252.800 66.000 C 253.333 65.655,253.333 65.612,252.800 65.612 C 252.470 65.612,251.930 65.787,251.600 66.000 M246.480 67.875 C 244.654 68.655,243.252 69.386,243.365 69.498 C 243.477 69.611,244.341 69.346,245.285 68.910 C 246.228 68.474,247.855 67.796,248.900 67.404 C 249.945 67.012,250.800 66.626,250.800 66.546 C 250.800 66.179,249.548 66.564,246.480 67.875 M239.200 71.355 C 227.878 77.659,219.281 85.613,212.130 96.400 C 208.461 101.935,203.431 112.365,204.106 113.039 C 204.227 113.161,204.445 112.842,204.589 112.330 C 204.733 111.819,205.001 111.040,205.184 110.600 C 206.560 107.306,207.068 106.197,208.614 103.113 C 214.982 90.410,227.167 78.029,239.600 71.629 C 242.225 70.278,243.299 69.562,242.580 69.643 C 242.371 69.666,240.850 70.437,239.200 71.355 M324.027 116.298 C 323.148 119.564,319.564 123.148,316.298 124.027 C 315.430 124.261,314.793 124.526,314.882 124.615 C 315.758 125.492,320.559 122.449,322.672 119.678 C 323.856 118.127,325.010 115.277,324.615 114.882 C 324.526 114.793,324.261 115.430,324.027 116.298 M201.850 120.450 C 201.517 122.117,201.840 122.440,202.200 120.800 C 202.352 120.109,202.393 119.459,202.291 119.358 C 202.189 119.256,201.991 119.747,201.850 120.450 M201.000 124.400 C 200.846 125.310,200.811 126.144,200.921 126.254 C 201.031 126.364,201.246 125.710,201.400 124.800 C 201.554 123.890,201.589 123.056,201.479 122.946 C 201.369 122.836,201.154 123.490,201.000 124.400 M271.738 125.106 C 271.319 125.372,293.950 125.360,308.400 125.087 C 311.590 125.026,304.750 124.940,293.200 124.895 C 281.650 124.849,271.992 124.944,271.738 125.106 M268.800 126.433 L 267.800 127.248 269.200 126.573 C 270.912 125.748,271.094 125.597,270.367 125.609 C 270.055 125.614,269.350 125.985,268.800 126.433 M265.978 128.700 L 264.600 130.200 266.100 128.822 C 267.496 127.538,267.784 127.200,267.478 127.200 C 267.412 127.200,266.737 127.875,265.978 128.700 M200.268 129.759 C 200.120 130.833,200.025 132.722,200.055 133.956 C 200.099 135.749,200.179 135.436,200.451 132.400 C 200.820 128.288,200.702 126.591,200.268 129.759 M262.649 134.215 C 262.512 134.573,262.418 135.256,262.441 135.733 C 262.467 136.281,262.603 136.086,262.810 135.203 C 263.160 133.716,263.065 133.133,262.649 134.215 M159.000 188.000 C 158.496 188.217,158.422 188.344,158.800 188.344 C 159.130 188.344,159.760 188.189,160.200 188.000 C 160.704 187.783,160.778 187.656,160.400 187.656 C 160.070 187.656,159.440 187.811,159.000 188.000 M312.200 188.000 C 312.640 188.189,313.270 188.344,313.600 188.344 C 313.978 188.344,313.904 188.217,313.400 188.000 C 312.960 187.811,312.330 187.656,312.000 187.656 C 311.622 187.656,311.696 187.783,312.200 188.000 M156.265 189.047 C 155.640 189.386,155.215 189.748,155.320 189.853 C 155.424 189.957,156.115 189.674,156.855 189.223 C 158.413 188.273,157.948 188.135,156.265 189.047 M317.366 190.476 C 318.218 191.178,319.429 192.563,320.057 193.555 C 321.263 195.457,321.591 195.517,320.631 193.659 C 320.054 192.544,316.670 189.200,316.118 189.200 C 315.953 189.200,316.514 189.774,317.366 190.476 M152.198 192.802 C 151.798 193.244,151.566 193.699,151.682 193.815 C 151.797 193.930,152.190 193.569,152.555 193.012 C 153.352 191.796,153.193 191.702,152.198 192.802 M150.256 196.884 C 150.121 197.388,150.027 198.160,150.046 198.600 C 150.065 199.040,150.245 198.698,150.446 197.840 C 150.836 196.178,150.670 195.340,150.256 196.884 M321.701 197.800 C 321.705 198.680,321.787 198.993,321.883 198.495 C 321.979 197.998,321.975 197.278,321.875 196.895 C 321.775 196.513,321.696 196.920,321.701 197.800 M321.701 202.200 C 321.705 203.080,321.787 203.393,321.883 202.895 C 321.979 202.398,321.975 201.678,321.875 201.295 C 321.775 200.913,321.696 201.320,321.701 202.200 M316.622 227.422 C 316.472 228.225,316.428 228.962,316.526 229.060 C 316.624 229.157,316.827 228.581,316.978 227.778 C 317.128 226.975,317.172 226.238,317.074 226.140 C 316.976 226.043,316.773 226.619,316.622 227.422 M315.800 231.600 C 315.648 232.291,315.607 232.941,315.709 233.042 C 315.811 233.144,316.009 232.653,316.150 231.950 C 316.291 231.247,316.331 230.598,316.241 230.508 C 316.150 230.417,315.952 230.909,315.800 231.600 M315.000 235.600 C 314.848 236.291,314.807 236.941,314.909 237.042 C 315.011 237.144,315.209 236.653,315.350 235.950 C 315.491 235.247,315.531 234.598,315.441 234.508 C 315.350 234.417,315.152 234.909,315.000 235.600 M150.006 239.033 C 150.009 239.675,150.196 240.470,150.421 240.800 C 150.714 241.230,150.754 240.946,150.562 239.800 C 150.230 237.816,149.998 237.496,150.006 239.033 M314.229 239.429 C 314.081 240.015,314.038 240.572,314.132 240.666 C 314.227 240.760,314.424 240.358,314.571 239.771 C 314.719 239.185,314.762 238.628,314.668 238.534 C 314.573 238.440,314.376 238.842,314.229 239.429 M151.913 244.200 C 152.145 244.640,153.018 245.630,153.853 246.400 C 155.233 247.672,154.057 246.158,151.678 243.600 C 151.575 243.490,151.681 243.760,151.913 244.200 M312.400 244.026 C 312.400 244.260,311.455 245.379,310.300 246.513 C 309.145 247.646,308.740 248.192,309.400 247.726 C 311.265 246.409,313.613 243.600,312.849 243.600 C 312.602 243.600,312.400 243.792,312.400 244.026 M159.200 249.579 C 159.530 249.804,160.325 249.991,160.967 249.994 C 162.504 250.002,162.184 249.770,160.200 249.438 C 159.054 249.246,158.770 249.286,159.200 249.579 M283.816 249.500 C 272.385 249.559,262.899 249.741,262.736 249.904 C 262.573 250.067,272.046 250.110,283.787 250.000 C 295.528 249.890,305.269 249.665,305.434 249.500 C 305.598 249.335,305.478 249.243,305.167 249.296 C 304.855 249.349,295.247 249.441,283.816 249.500 " stroke="none" fill="#94ace0" fill-rule="evenodd"></path></g></svg>