<svg id="svg" version="1.1" xmlns="http://www.w3.org/2000/svg" xmlns:xlink="http://www.w3.org/1999/xlink" width="400" height="400" viewBox="0, 0, 400,400"><g id="svgg"><path id="path0" d="M110.111 261.300 C 109.484 262.632,108.400 266.383,108.400 267.222 C 108.400 267.624,108.220 268.064,108.000 268.200 C 107.780 268.336,107.600 268.797,107.600 269.224 C 107.600 269.651,107.420 270.000,107.200 270.000 C 106.980 270.000,106.800 270.540,106.800 271.200 C 106.800 271.860,106.620 272.400,106.400 272.400 C 106.180 272.400,106.000 272.940,106.000 273.600 C 106.000 274.260,105.820 274.800,105.600 274.800 C 105.380 274.800,105.200 275.239,105.200 275.776 C 105.200 276.313,105.020 276.864,104.800 277.000 C 104.580 277.136,104.400 277.687,104.400 278.224 C 104.400 278.761,104.220 279.200,104.000 279.200 C 103.780 279.200,103.600 279.729,103.600 280.376 C 103.600 281.023,103.420 281.664,103.200 281.800 C 102.980 281.936,102.800 282.487,102.800 283.024 C 102.800 283.561,102.620 284.000,102.400 284.000 C 102.180 284.000,102.000 284.362,102.000 284.805 C 102.000 285.583,101.858 285.969,100.862 287.895 C 100.608 288.387,100.400 289.152,100.400 289.595 C 100.400 290.038,100.220 290.400,100.000 290.400 C 99.780 290.400,99.600 290.940,99.600 291.600 C 99.600 292.260,99.420 292.800,99.200 292.800 C 98.980 292.800,98.800 293.239,98.800 293.776 C 98.800 294.313,98.620 294.864,98.400 295.000 C 98.180 295.136,98.000 295.687,98.000 296.224 C 98.000 296.761,97.820 297.200,97.600 297.200 C 97.380 297.200,97.200 297.740,97.200 298.400 C 97.200 299.060,97.020 299.600,96.800 299.600 C 96.580 299.600,96.400 300.110,96.400 300.733 C 96.400 301.357,96.281 301.986,96.135 302.132 C 95.672 302.594,94.469 306.335,94.706 306.573 C 94.831 306.698,94.762 306.800,94.552 306.800 C 94.342 306.800,94.144 307.143,94.113 307.562 C 94.081 307.981,93.678 309.105,93.217 310.060 C 92.756 311.014,92.269 312.475,92.137 313.307 C 92.004 314.138,91.739 314.914,91.547 315.032 C 91.356 315.151,91.200 315.777,91.200 316.424 C 91.200 317.071,91.020 317.600,90.800 317.600 C 90.580 317.600,90.400 318.140,90.400 318.800 C 90.400 319.460,90.220 320.000,90.000 320.000 C 89.780 320.000,89.600 320.349,89.600 320.776 C 89.600 321.203,89.420 321.664,89.200 321.800 C 88.980 321.936,88.800 322.487,88.800 323.024 C 88.800 323.561,88.620 324.000,88.400 324.000 C 88.180 324.000,88.000 324.392,88.000 324.872 C 88.000 326.005,87.131 328.400,86.720 328.400 C 86.544 328.400,86.400 328.940,86.400 329.600 C 86.400 330.260,86.220 330.800,86.000 330.800 C 85.780 330.800,85.600 331.329,85.600 331.976 C 85.600 332.623,85.420 333.264,85.200 333.400 C 84.980 333.536,84.800 334.087,84.800 334.624 C 84.800 335.161,84.620 335.600,84.400 335.600 C 84.180 335.600,84.000 336.029,84.000 336.554 C 84.000 337.079,83.739 338.011,83.420 338.626 C 83.102 339.240,82.932 339.891,83.044 340.071 C 83.156 340.252,83.057 340.400,82.824 340.400 C 82.591 340.400,82.400 340.760,82.400 341.200 C 82.400 341.640,82.220 342.000,82.000 342.000 C 81.780 342.000,81.600 342.439,81.600 342.976 C 81.600 343.513,81.420 344.064,81.200 344.200 C 80.980 344.336,80.800 344.876,80.800 345.400 C 80.800 345.924,80.620 346.464,80.400 346.600 C 80.180 346.736,80.000 347.287,80.000 347.824 C 80.000 348.361,79.859 348.800,79.687 348.800 C 79.515 348.800,79.334 349.295,79.284 349.900 C 79.234 350.505,79.015 351.060,78.797 351.133 C 78.578 351.207,78.400 351.792,78.400 352.433 C 78.400 353.075,78.220 353.600,78.000 353.600 C 77.780 353.600,77.600 354.125,77.600 354.767 C 77.600 355.408,77.422 355.993,77.203 356.067 C 76.985 356.140,76.766 356.695,76.716 357.300 C 76.666 357.905,76.474 358.400,76.289 358.400 C 76.104 358.400,76.038 358.538,76.143 358.708 C 76.247 358.877,75.994 359.732,75.580 360.608 C 75.166 361.483,74.821 362.695,74.814 363.300 C 74.806 363.905,74.620 364.400,74.400 364.400 C 74.169 364.400,74.000 365.673,74.000 367.418 C 74.000 370.650,74.949 372.400,76.702 372.400 C 77.108 372.400,77.656 372.616,77.920 372.880 C 78.293 373.253,78.507 373.253,78.880 372.880 C 79.184 372.576,80.715 372.400,83.056 372.400 C 85.089 372.400,86.864 372.220,87.000 372.000 C 87.136 371.780,88.767 371.600,90.624 371.600 C 92.481 371.600,94.000 371.444,94.000 371.254 C 94.000 371.064,95.575 370.864,97.500 370.810 C 99.425 370.755,101.225 370.701,101.500 370.689 C 101.775 370.677,102.000 370.517,102.000 370.333 C 102.000 370.150,103.584 370.000,105.520 370.000 C 107.456 370.000,109.211 369.830,109.420 369.622 C 109.629 369.414,111.375 369.209,113.300 369.167 C 115.225 369.126,116.800 368.936,116.800 368.746 C 116.800 368.556,118.332 368.400,120.205 368.400 L 123.609 368.400 127.754 372.600 C 130.033 374.910,132.112 376.800,132.373 376.800 C 132.634 376.800,132.736 376.980,132.600 377.200 C 132.464 377.420,132.644 377.600,133.000 377.600 C 133.356 377.600,133.536 377.780,133.400 378.000 C 133.264 378.220,133.463 378.400,133.843 378.400 C 134.223 378.400,134.414 378.519,134.269 378.664 C 134.124 378.810,134.391 379.125,134.863 379.364 C 135.335 379.604,135.919 380.160,136.161 380.600 C 136.707 381.595,137.261 382.009,137.691 381.744 C 137.872 381.632,137.970 381.779,137.910 382.070 C 137.849 382.362,138.025 382.555,138.300 382.500 C 138.575 382.445,138.755 382.535,138.700 382.700 C 138.645 382.865,138.724 383.055,138.877 383.123 C 139.372 383.344,142.622 386.594,142.553 386.800 C 142.516 386.910,143.564 387.990,144.881 389.200 C 146.199 390.410,149.245 393.335,151.651 395.700 L 156.026 400.000 158.952 400.000 C 162.273 400.000,163.600 399.273,163.600 397.453 C 163.600 396.874,163.780 396.400,164.000 396.400 C 164.220 396.400,164.400 395.860,164.400 395.200 C 164.400 394.540,164.580 394.000,164.800 394.000 C 165.020 394.000,165.200 393.460,165.200 392.800 C 165.200 392.140,165.380 391.600,165.600 391.600 C 165.820 391.600,166.000 391.150,166.000 390.600 C 166.000 390.050,166.180 389.600,166.400 389.600 C 166.620 389.600,166.800 389.238,166.800 388.795 C 166.800 388.352,166.980 387.632,167.200 387.195 C 167.420 386.758,167.780 386.042,168.000 385.605 C 168.220 385.168,168.400 384.348,168.400 383.782 C 168.400 383.198,168.573 382.860,168.800 383.000 C 169.033 383.144,169.200 382.737,169.200 382.024 C 169.200 381.351,169.341 380.800,169.513 380.800 C 169.685 380.800,169.866 380.305,169.916 379.700 C 169.966 379.095,170.185 378.540,170.403 378.467 C 170.622 378.393,170.800 377.844,170.800 377.247 C 170.800 376.649,170.949 375.989,171.130 375.780 C 171.312 375.571,171.705 374.590,172.003 373.600 C 172.301 372.610,172.854 371.080,173.233 370.200 C 174.295 367.734,175.200 364.756,175.200 363.729 C 175.200 363.218,175.380 362.800,175.600 362.800 C 175.820 362.800,176.000 362.271,176.000 361.624 C 176.000 360.977,176.180 360.336,176.400 360.200 C 176.620 360.064,176.800 359.513,176.800 358.976 C 176.800 358.439,176.980 358.000,177.200 358.000 C 177.420 358.000,177.600 357.550,177.600 357.000 C 177.600 356.450,177.780 356.000,178.000 356.000 C 178.220 356.000,178.400 355.638,178.400 355.195 C 178.400 354.752,178.580 354.032,178.800 353.595 C 179.020 353.158,179.380 352.442,179.600 352.005 C 179.820 351.568,180.000 350.848,180.000 350.405 C 180.000 349.962,180.141 349.600,180.313 349.600 C 180.485 349.600,180.666 349.105,180.716 348.500 C 180.766 347.895,180.985 347.340,181.203 347.267 C 181.422 347.193,181.600 346.619,181.600 345.990 C 181.600 345.362,181.780 344.736,182.000 344.600 C 182.220 344.464,182.400 343.913,182.400 343.376 C 182.400 342.839,182.580 342.400,182.800 342.400 C 183.020 342.400,183.200 341.961,183.200 341.424 C 183.200 340.887,183.380 340.336,183.600 340.200 C 183.820 340.064,184.000 339.513,184.000 338.976 C 184.000 338.439,184.180 338.000,184.400 338.000 C 184.620 338.000,184.800 337.571,184.800 337.046 C 184.800 336.521,185.061 335.589,185.380 334.974 C 185.698 334.360,185.868 333.709,185.756 333.529 C 185.644 333.348,185.743 333.200,185.976 333.200 C 186.209 333.200,186.400 332.851,186.400 332.424 C 186.400 331.997,186.580 331.536,186.800 331.400 C 187.020 331.264,187.200 330.713,187.200 330.176 C 187.200 329.639,187.358 329.200,187.550 329.200 C 187.743 329.200,187.900 328.730,187.900 328.155 C 187.900 327.579,188.058 326.994,188.250 326.855 C 188.442 326.715,188.664 326.150,188.741 325.600 C 188.819 325.050,188.999 324.510,189.141 324.400 C 189.284 324.290,189.464 323.750,189.541 323.200 C 189.619 322.650,189.859 322.090,190.075 321.955 C 190.292 321.821,190.433 321.591,190.390 321.444 C 190.348 321.297,190.448 320.777,190.614 320.289 C 190.779 319.800,190.956 319.220,191.006 319.000 C 191.564 316.533,191.750 316.000,192.050 316.000 C 192.243 316.000,192.400 315.460,192.400 314.800 C 192.400 314.140,192.580 313.600,192.800 313.600 C 193.020 313.600,193.200 313.060,193.200 312.400 C 193.200 311.740,193.380 311.200,193.600 311.200 C 193.820 311.200,194.000 310.660,194.000 310.000 C 194.000 309.340,194.180 308.800,194.400 308.800 C 194.620 308.800,194.800 308.350,194.800 307.800 C 194.800 307.250,194.980 306.800,195.200 306.800 C 195.420 306.800,195.600 306.260,195.600 305.600 C 195.600 304.940,195.780 304.400,196.000 304.400 C 196.220 304.400,196.400 303.860,196.400 303.200 C 196.400 302.540,196.580 302.000,196.800 302.000 C 197.020 302.000,197.200 301.638,197.200 301.195 C 197.200 300.752,197.380 300.032,197.600 299.595 C 197.820 299.158,198.180 298.442,198.400 298.005 C 198.620 297.568,198.800 296.848,198.800 296.405 C 198.800 295.962,198.980 295.600,199.200 295.600 C 199.420 295.600,199.600 295.060,199.600 294.400 C 199.600 293.740,199.780 293.200,200.000 293.200 C 200.220 293.200,200.400 293.740,200.400 294.400 C 200.400 295.060,200.580 295.600,200.800 295.600 C 201.020 295.600,201.200 295.962,201.200 296.405 C 201.200 296.848,201.380 297.568,201.600 298.005 C 201.820 298.442,202.180 299.158,202.400 299.595 C 202.620 300.032,202.800 300.752,202.800 301.195 C 202.800 301.638,202.980 302.000,203.200 302.000 C 203.420 302.000,203.600 302.540,203.600 303.200 C 203.600 303.860,203.780 304.400,204.000 304.400 C 204.220 304.400,204.400 304.940,204.400 305.600 C 204.400 306.260,204.580 306.800,204.800 306.800 C 205.020 306.800,205.200 307.250,205.200 307.800 C 205.200 308.350,205.380 308.800,205.600 308.800 C 205.820 308.800,206.000 309.149,206.000 309.576 C 206.000 310.003,206.180 310.464,206.400 310.600 C 206.620 310.736,206.800 311.467,206.800 312.224 C 206.800 312.981,206.980 313.600,207.200 313.600 C 207.420 313.600,207.600 314.140,207.600 314.800 C 207.600 315.460,207.757 316.000,207.950 316.000 C 208.291 316.000,208.974 318.260,208.839 318.942 C 208.802 319.130,208.955 319.504,209.178 319.773 C 209.401 320.043,209.651 320.609,209.733 321.031 C 209.815 321.454,210.067 322.250,210.294 322.800 C 210.521 323.350,210.627 323.935,210.529 324.100 C 210.432 324.265,210.543 324.400,210.776 324.400 C 211.009 324.400,211.200 324.925,211.200 325.567 C 211.200 326.208,211.403 326.801,211.650 326.883 C 211.898 326.966,212.100 327.521,212.100 328.117 C 212.100 328.713,212.257 329.200,212.450 329.200 C 212.643 329.200,212.800 329.639,212.800 330.176 C 212.800 330.713,212.980 331.264,213.200 331.400 C 213.420 331.536,213.600 331.997,213.600 332.424 C 213.600 332.851,213.780 333.200,214.000 333.200 C 214.220 333.200,214.400 333.639,214.400 334.176 C 214.400 334.713,214.580 335.264,214.800 335.400 C 215.020 335.536,215.200 336.177,215.200 336.824 C 215.200 337.471,215.380 338.000,215.600 338.000 C 215.820 338.000,216.000 338.439,216.000 338.976 C 216.000 339.513,216.180 340.064,216.400 340.200 C 216.620 340.336,216.800 340.887,216.800 341.424 C 216.800 341.961,216.980 342.400,217.200 342.400 C 217.420 342.400,217.600 342.839,217.600 343.376 C 217.600 343.913,217.780 344.464,218.000 344.600 C 218.220 344.736,218.400 345.362,218.400 345.990 C 218.400 346.619,218.578 347.193,218.797 347.267 C 219.015 347.340,219.234 347.895,219.284 348.500 C 219.334 349.105,219.515 349.600,219.687 349.600 C 219.859 349.600,220.000 349.962,220.000 350.405 C 220.000 350.848,220.180 351.568,220.400 352.005 C 220.620 352.442,220.980 353.158,221.200 353.595 C 221.420 354.032,221.600 354.752,221.600 355.195 C 221.600 355.638,221.780 356.000,222.000 356.000 C 222.220 356.000,222.400 356.450,222.400 357.000 C 222.400 357.550,222.580 358.000,222.800 358.000 C 223.020 358.000,223.200 358.540,223.200 359.200 C 223.200 359.860,223.380 360.400,223.600 360.400 C 223.820 360.400,224.000 360.940,224.000 361.600 C 224.000 362.260,224.180 362.800,224.400 362.800 C 224.620 362.800,224.800 363.351,224.800 364.024 C 224.800 364.728,224.968 365.144,225.195 365.003 C 225.419 364.864,225.491 365.019,225.360 365.360 C 225.233 365.691,225.275 366.195,225.453 366.481 C 225.631 366.766,225.822 367.288,225.877 367.639 C 225.932 367.991,226.342 369.131,226.788 370.173 C 227.235 371.214,227.600 372.401,227.600 372.810 C 227.600 373.218,227.780 373.664,228.000 373.800 C 228.220 373.936,228.400 374.487,228.400 375.024 C 228.400 375.561,228.580 376.000,228.800 376.000 C 229.020 376.000,229.200 376.525,229.200 377.167 C 229.200 377.808,229.378 378.393,229.597 378.467 C 229.815 378.540,230.034 379.095,230.084 379.700 C 230.134 380.305,230.315 380.800,230.487 380.800 C 230.659 380.800,230.800 381.261,230.800 381.824 C 230.800 382.404,230.973 382.740,231.200 382.600 C 231.434 382.456,231.600 382.864,231.600 383.582 C 231.600 384.651,232.167 386.170,232.801 386.800 C 232.912 386.910,233.064 387.540,233.139 388.200 C 233.214 388.860,233.439 389.460,233.638 389.533 C 233.837 389.607,234.000 390.102,234.000 390.633 C 234.000 391.165,234.180 391.600,234.400 391.600 C 234.620 391.600,234.800 392.140,234.800 392.800 C 234.800 393.460,234.980 394.000,235.200 394.000 C 235.420 394.000,235.600 394.540,235.600 395.200 C 235.600 395.860,235.780 396.400,236.000 396.400 C 236.220 396.400,236.400 396.874,236.400 397.453 C 236.400 399.273,237.727 400.000,241.048 400.000 L 243.974 400.000 248.351 395.700 C 250.759 393.335,253.846 390.365,255.211 389.100 C 256.577 387.835,257.590 386.800,257.462 386.800 C 257.333 386.800,257.627 386.383,258.114 385.874 C 258.601 385.365,259.135 385.016,259.300 385.098 C 259.465 385.180,259.600 384.967,259.600 384.624 C 259.600 384.281,259.743 384.045,259.919 384.100 C 260.339 384.232,262.480 382.362,263.039 381.375 C 263.281 380.949,263.865 380.404,264.337 380.164 C 264.809 379.925,265.076 379.610,264.931 379.464 C 264.786 379.319,264.875 379.200,265.130 379.200 C 265.715 379.200,271.435 373.568,271.300 373.126 C 271.245 372.947,271.369 372.845,271.576 372.900 C 271.783 372.955,272.938 371.965,274.142 370.700 L 276.331 368.400 279.766 368.400 C 281.655 368.400,283.200 368.557,283.200 368.749 C 283.200 368.941,284.950 369.131,287.090 369.171 C 289.229 369.211,291.074 369.388,291.190 369.566 C 291.305 369.743,292.829 369.923,294.575 369.967 C 296.322 370.010,297.942 370.166,298.175 370.312 C 298.769 370.684,299.371 370.750,302.900 370.837 C 304.605 370.878,306.000 371.067,306.000 371.256 C 306.000 371.445,307.519 371.600,309.376 371.600 C 311.233 371.600,312.864 371.780,313.000 372.000 C 313.136 372.220,314.911 372.400,316.944 372.400 C 319.285 372.400,320.816 372.576,321.120 372.880 C 321.493 373.253,321.707 373.253,322.080 372.880 C 322.344 372.616,322.876 372.400,323.262 372.400 C 324.993 372.400,326.000 370.554,326.000 367.382 C 326.000 365.661,325.831 364.400,325.600 364.400 C 325.380 364.400,325.194 363.905,325.186 363.300 C 325.179 362.695,324.834 361.483,324.420 360.608 C 324.006 359.732,323.753 358.877,323.857 358.708 C 323.962 358.538,323.896 358.400,323.711 358.400 C 323.526 358.400,323.334 357.913,323.285 357.318 C 323.236 356.722,323.016 356.056,322.798 355.838 C 322.579 355.619,322.400 355.026,322.400 354.520 C 322.400 354.014,322.220 353.600,322.000 353.600 C 321.780 353.600,321.600 353.060,321.600 352.400 C 321.600 351.740,321.420 351.200,321.200 351.200 C 320.980 351.200,320.800 350.660,320.800 350.000 C 320.800 349.340,320.659 348.800,320.487 348.800 C 320.315 348.800,319.938 347.945,319.649 346.900 C 319.360 345.855,318.883 344.467,318.590 343.816 C 318.296 343.165,318.162 342.462,318.290 342.254 C 318.418 342.046,318.316 342.005,318.062 342.162 C 317.762 342.347,317.600 342.114,317.600 341.499 C 317.600 340.977,317.240 339.805,316.800 338.894 C 316.360 337.984,316.000 336.870,316.000 336.419 C 316.000 335.969,315.820 335.600,315.600 335.600 C 315.380 335.600,315.200 335.161,315.200 334.624 C 315.200 334.087,315.020 333.536,314.800 333.400 C 314.580 333.264,314.400 332.623,314.400 331.976 C 314.400 331.329,314.220 330.800,314.000 330.800 C 313.780 330.800,313.600 330.260,313.600 329.600 C 313.600 328.940,313.420 328.400,313.200 328.400 C 312.980 328.400,312.800 328.051,312.800 327.624 C 312.800 327.197,312.620 326.736,312.400 326.600 C 312.180 326.464,312.000 326.003,312.000 325.576 C 312.000 325.149,311.775 324.797,311.500 324.794 C 311.167 324.790,311.200 324.658,311.600 324.400 C 312.000 324.142,312.033 324.010,311.700 324.006 C 311.412 324.003,311.200 323.490,311.200 322.800 C 311.200 322.140,311.020 321.600,310.800 321.600 C 310.580 321.600,310.400 321.240,310.400 320.800 C 310.400 320.360,310.220 320.000,310.000 320.000 C 309.780 320.000,309.600 319.460,309.600 318.800 C 309.600 318.140,309.420 317.600,309.200 317.600 C 308.980 317.600,308.800 317.071,308.800 316.424 C 308.800 315.777,308.620 315.136,308.400 315.000 C 308.180 314.864,307.992 314.358,307.982 313.876 C 307.973 313.394,307.694 312.280,307.362 311.400 C 307.031 310.520,306.719 309.620,306.669 309.400 C 306.619 309.180,306.474 308.820,306.347 308.600 C 306.220 308.380,305.871 307.345,305.571 306.300 C 305.271 305.255,304.885 304.400,304.713 304.400 C 304.541 304.400,304.400 303.961,304.400 303.424 C 304.400 302.887,304.220 302.336,304.000 302.200 C 303.780 302.064,303.600 301.423,303.600 300.776 C 303.600 300.129,303.420 299.600,303.200 299.600 C 302.980 299.600,302.800 299.060,302.800 298.400 C 302.800 297.740,302.620 297.200,302.400 297.200 C 302.180 297.200,302.000 296.761,302.000 296.224 C 302.000 295.687,301.820 295.136,301.600 295.000 C 301.380 294.864,301.200 294.328,301.200 293.810 C 301.200 293.291,301.022 292.807,300.803 292.733 C 300.585 292.660,300.366 292.105,300.316 291.500 C 300.266 290.895,300.085 290.400,299.913 290.400 C 299.741 290.400,299.600 289.961,299.600 289.424 C 299.600 288.887,299.420 288.336,299.200 288.200 C 298.980 288.064,298.800 287.603,298.800 287.176 C 298.800 286.749,298.659 286.400,298.487 286.400 C 298.315 286.400,298.134 285.905,298.084 285.300 C 298.034 284.695,297.815 284.140,297.597 284.067 C 297.378 283.993,297.200 283.408,297.200 282.767 C 297.200 282.125,297.020 281.600,296.800 281.600 C 296.580 281.600,296.400 281.060,296.400 280.400 C 296.400 279.740,296.220 279.200,296.000 279.200 C 295.780 279.200,295.600 278.761,295.600 278.224 C 295.600 277.687,295.420 277.136,295.200 277.000 C 294.980 276.864,294.800 276.313,294.800 275.776 C 294.800 275.239,294.620 274.800,294.400 274.800 C 294.180 274.800,294.000 274.260,294.000 273.600 C 294.000 272.940,293.820 272.400,293.600 272.400 C 293.380 272.400,293.200 271.860,293.200 271.200 C 293.200 270.540,293.020 270.000,292.800 270.000 C 292.580 270.000,292.400 269.651,292.400 269.224 C 292.400 268.797,292.220 268.336,292.000 268.200 C 291.780 268.064,291.600 267.624,291.600 267.222 C 291.600 265.464,289.736 260.400,289.089 260.400 C 288.882 260.400,287.157 261.538,285.256 262.929 C 281.460 265.705,276.863 268.800,276.533 268.800 C 276.418 268.800,275.846 269.139,275.262 269.553 C 273.293 270.949,270.630 272.392,263.800 275.765 C 253.762 280.722,242.374 284.802,232.900 286.835 C 227.101 288.080,224.049 288.657,221.400 289.013 C 220.520 289.131,218.540 289.396,217.000 289.602 C 209.182 290.648,199.149 290.882,190.800 290.213 C 180.785 289.411,179.534 289.285,177.000 288.817 C 172.064 287.906,170.104 287.516,168.800 287.185 C 168.030 286.989,166.140 286.534,164.600 286.174 C 158.676 284.788,148.136 281.278,142.800 278.914 C 140.370 277.838,131.052 273.242,129.807 272.506 C 121.985 267.879,118.772 265.852,115.298 263.352 C 110.713 260.052,110.701 260.048,110.111 261.300 " stroke="none" fill="#fc3f4f" fill-rule="evenodd"></path><path id="path1" d="M182.000 0.275 C 180.351 0.365,178.830 0.610,178.620 0.820 C 178.411 1.029,177.286 1.200,176.120 1.200 C 174.954 1.200,174.000 1.380,174.000 1.600 C 174.000 1.820,173.021 2.000,171.824 2.000 C 170.627 2.000,169.536 2.180,169.400 2.400 C 169.264 2.620,168.443 2.800,167.576 2.800 C 166.709 2.800,166.000 2.980,166.000 3.200 C 166.000 3.420,165.406 3.600,164.680 3.600 C 163.954 3.600,163.186 3.774,162.973 3.987 C 162.761 4.199,162.005 4.417,161.293 4.472 C 160.582 4.526,160.000 4.712,160.000 4.885 C 160.000 5.058,159.460 5.200,158.800 5.200 C 158.140 5.200,157.600 5.380,157.600 5.600 C 157.600 5.820,157.060 6.000,156.400 6.000 C 155.740 6.000,155.200 6.180,155.200 6.400 C 155.200 6.620,154.671 6.800,154.024 6.800 C 153.377 6.800,152.736 6.980,152.600 7.200 C 152.464 7.420,151.913 7.600,151.376 7.600 C 150.839 7.600,150.400 7.780,150.400 8.000 C 150.400 8.220,149.860 8.400,149.200 8.400 C 148.540 8.400,148.000 8.564,148.000 8.765 C 148.000 8.966,147.235 9.255,146.300 9.408 C 145.365 9.562,144.266 9.982,143.858 10.344 C 143.450 10.705,143.047 10.960,142.962 10.911 C 142.756 10.792,141.563 11.171,140.705 11.629 C 140.323 11.833,139.738 12.000,139.405 12.000 C 139.072 12.000,138.800 12.180,138.800 12.400 C 138.800 12.620,138.440 12.800,138.000 12.800 C 137.560 12.800,137.200 12.980,137.200 13.200 C 137.200 13.420,136.840 13.600,136.400 13.600 C 135.960 13.600,135.600 13.780,135.600 14.000 C 135.600 14.220,135.240 14.400,134.800 14.400 C 134.360 14.400,134.000 14.580,134.000 14.800 C 134.000 15.020,133.640 15.200,133.200 15.200 C 132.760 15.200,132.400 15.346,132.400 15.525 C 132.400 15.704,131.766 16.099,130.991 16.403 C 130.217 16.707,129.289 17.281,128.929 17.678 C 128.570 18.075,127.933 18.400,127.514 18.400 C 127.096 18.400,126.864 18.580,127.000 18.800 C 127.136 19.020,126.877 19.200,126.424 19.200 C 125.971 19.200,125.600 19.380,125.600 19.600 C 125.600 19.820,125.364 20.000,125.075 20.000 C 124.787 20.000,124.164 20.360,123.692 20.800 C 123.220 21.240,122.556 21.600,122.217 21.600 C 121.878 21.600,121.600 21.780,121.600 22.000 C 121.600 22.220,121.229 22.400,120.776 22.400 C 120.323 22.400,120.064 22.580,120.200 22.800 C 120.336 23.020,120.167 23.200,119.824 23.200 C 119.481 23.200,119.200 23.380,119.200 23.600 C 119.200 23.820,118.957 24.000,118.659 24.000 C 118.362 24.000,117.554 24.540,116.863 25.200 C 116.172 25.860,115.412 26.400,115.174 26.400 C 114.592 26.400,109.314 30.395,107.252 32.396 C 106.343 33.278,105.428 34.000,105.219 34.000 C 105.011 34.000,104.656 34.315,104.432 34.700 C 104.208 35.085,104.019 35.262,104.012 35.093 C 103.993 34.620,89.600 49.111,89.600 49.604 C 89.600 49.843,88.704 50.934,87.610 52.029 C 86.515 53.123,85.608 54.150,85.595 54.310 C 85.581 54.469,85.259 54.960,84.880 55.400 C 84.500 55.840,83.750 56.830,83.214 57.600 C 82.677 58.370,82.131 59.090,81.999 59.200 C 81.867 59.310,81.138 60.300,80.379 61.400 C 79.621 62.500,78.865 63.460,78.700 63.533 C 78.535 63.607,78.400 63.894,78.400 64.171 C 78.400 64.449,78.050 64.993,77.622 65.380 C 77.195 65.767,76.520 66.874,76.122 67.840 C 75.725 68.806,75.265 69.598,75.100 69.599 C 74.935 69.599,74.800 69.870,74.800 70.200 C 74.800 70.530,74.620 70.800,74.400 70.800 C 74.180 70.800,74.000 71.145,74.000 71.567 C 74.000 71.988,73.865 72.393,73.700 72.467 C 73.324 72.634,72.025 74.764,71.729 75.700 C 71.607 76.085,71.348 76.400,71.153 76.400 C 70.959 76.400,70.800 76.771,70.800 77.224 C 70.800 77.677,70.620 77.936,70.400 77.800 C 70.180 77.664,70.000 77.923,70.000 78.376 C 70.000 78.829,69.820 79.200,69.600 79.200 C 69.380 79.200,69.200 79.434,69.200 79.720 C 69.200 80.456,68.259 82.393,67.900 82.397 C 67.735 82.399,67.600 82.760,67.600 83.200 C 67.600 83.640,67.420 84.000,67.200 84.000 C 66.980 84.000,66.800 84.439,66.800 84.976 C 66.800 85.513,66.620 86.064,66.400 86.200 C 66.180 86.336,66.000 86.797,66.000 87.224 C 66.000 87.651,65.820 88.000,65.600 88.000 C 65.380 88.000,65.200 88.360,65.200 88.800 C 65.200 89.240,65.059 89.600,64.887 89.600 C 64.715 89.600,64.538 90.039,64.494 90.576 C 64.449 91.113,64.087 92.148,63.688 92.876 C 63.289 93.604,62.714 95.010,62.411 96.000 C 62.107 96.990,61.760 97.980,61.639 98.200 C 61.519 98.420,61.359 99.046,61.284 99.590 C 61.210 100.135,61.013 100.765,60.846 100.990 C 60.680 101.216,60.348 102.120,60.109 103.000 C 59.870 103.880,59.387 105.606,59.037 106.835 C 58.687 108.064,58.400 109.629,58.400 110.312 C 58.400 110.994,58.220 111.664,58.000 111.800 C 57.780 111.936,57.600 112.857,57.600 113.847 C 57.600 114.945,57.444 115.551,57.200 115.400 C 56.952 115.247,56.800 115.988,56.800 117.353 C 56.800 118.563,56.620 119.664,56.400 119.800 C 56.180 119.936,56.000 121.016,56.000 122.200 C 56.000 123.384,55.820 124.464,55.600 124.600 C 55.380 124.736,55.200 126.151,55.200 127.744 C 55.200 129.507,55.004 130.851,54.700 131.179 C 54.294 131.616,54.312 131.658,54.800 131.400 C 55.288 131.142,55.306 131.184,54.900 131.621 C 54.320 132.246,54.176 142.000,54.746 142.000 C 54.937 142.000,55.201 143.215,55.333 144.700 C 55.771 149.601,57.034 157.791,57.970 161.800 C 58.176 162.680,58.554 164.300,58.810 165.400 C 59.067 166.500,59.418 167.850,59.592 168.400 C 59.765 168.950,60.135 170.210,60.414 171.200 C 61.558 175.262,63.577 181.077,65.206 185.000 C 65.388 185.440,65.867 186.610,66.269 187.600 C 67.673 191.057,73.145 201.820,74.766 204.313 C 75.665 205.696,76.400 206.918,76.400 207.029 C 76.400 207.376,81.224 214.450,83.745 217.800 C 99.817 239.154,122.411 256.354,146.800 265.801 C 148.890 266.611,150.960 267.415,151.400 267.589 C 152.421 267.991,159.638 270.188,162.000 270.815 C 162.990 271.078,164.250 271.430,164.800 271.597 C 165.350 271.764,166.790 272.112,168.000 272.370 C 169.210 272.628,170.920 272.997,171.800 273.189 C 188.244 276.784,211.103 276.786,228.200 273.192 C 232.618 272.264,237.107 271.215,238.400 270.810 C 238.950 270.638,240.750 270.093,242.400 269.600 C 251.072 267.006,263.969 261.503,271.300 257.267 C 272.125 256.790,273.475 256.019,274.300 255.553 C 285.439 249.267,301.778 235.425,310.837 224.600 C 315.468 219.067,323.600 207.845,323.600 206.987 C 323.600 206.854,324.171 205.914,324.870 204.899 C 326.291 202.833,332.293 191.183,333.369 188.400 C 333.752 187.410,334.301 186.060,334.588 185.400 C 335.414 183.504,337.500 177.938,337.962 176.400 C 338.193 175.630,338.722 173.920,339.138 172.600 C 340.183 169.279,340.770 167.087,341.976 162.000 C 342.992 157.720,344.265 149.440,344.669 144.491 C 344.800 142.891,345.062 141.485,345.253 141.367 C 345.743 141.065,345.693 131.704,345.200 131.400 C 344.980 131.264,344.800 129.824,344.800 128.200 C 344.800 126.576,344.620 125.136,344.400 125.000 C 344.180 124.864,344.000 123.604,344.000 122.200 C 344.000 120.796,343.820 119.536,343.600 119.400 C 343.380 119.264,343.200 118.263,343.200 117.176 C 343.200 116.089,343.020 115.200,342.800 115.200 C 342.580 115.200,342.400 114.491,342.400 113.624 C 342.400 112.757,342.220 111.936,342.000 111.800 C 341.780 111.664,341.600 110.940,341.600 110.190 C 341.600 109.441,341.305 107.967,340.945 106.914 C 340.585 105.861,340.258 104.730,340.219 104.400 C 340.092 103.340,339.499 101.413,339.171 100.990 C 338.995 100.765,338.787 100.096,338.708 99.505 C 338.628 98.914,338.437 98.303,338.282 98.148 C 338.127 97.993,338.000 97.447,338.000 96.933 C 338.000 96.420,337.820 96.000,337.600 96.000 C 337.380 96.000,337.200 95.645,337.200 95.212 C 337.200 94.779,336.840 93.783,336.400 93.000 C 335.960 92.217,335.600 91.131,335.600 90.588 C 335.600 90.045,335.420 89.600,335.200 89.600 C 334.980 89.600,334.800 89.240,334.800 88.800 C 334.800 88.360,334.620 88.000,334.400 88.000 C 334.180 88.000,334.000 87.651,334.000 87.224 C 334.000 86.797,333.820 86.336,333.600 86.200 C 333.380 86.064,333.200 85.513,333.200 84.976 C 333.200 84.439,333.020 84.000,332.800 84.000 C 332.580 84.000,332.400 83.640,332.400 83.200 C 332.400 82.760,332.220 82.400,332.000 82.400 C 331.780 82.400,331.600 82.130,331.600 81.800 C 331.600 81.470,331.420 81.200,331.200 81.200 C 330.980 81.200,330.800 80.750,330.800 80.200 C 330.800 79.650,330.664 79.200,330.498 79.200 C 330.331 79.200,329.941 78.615,329.630 77.900 C 329.319 77.185,328.957 76.510,328.827 76.400 C 328.696 76.290,328.158 75.345,327.632 74.300 C 327.105 73.255,326.523 72.400,326.337 72.400 C 326.152 72.400,326.000 72.055,326.000 71.633 C 326.000 71.212,325.833 70.807,325.630 70.733 C 325.426 70.660,325.201 70.330,325.130 70.000 C 325.058 69.670,324.730 69.130,324.400 68.800 C 324.070 68.470,323.749 67.956,323.686 67.657 C 323.623 67.359,323.325 66.868,323.023 66.566 C 322.722 66.264,322.234 65.474,321.940 64.809 C 321.646 64.144,321.290 63.600,321.151 63.600 C 321.011 63.600,320.673 63.060,320.400 62.400 C 320.127 61.740,319.745 61.200,319.551 61.200 C 319.358 61.200,319.200 61.018,319.200 60.796 C 319.200 60.574,318.660 59.828,318.000 59.137 C 317.340 58.446,316.800 57.728,316.800 57.541 C 316.800 57.355,316.080 56.437,315.200 55.503 C 314.320 54.569,313.600 53.651,313.600 53.463 C 313.600 53.275,313.060 52.617,312.400 52.000 C 311.740 51.383,311.200 50.770,311.200 50.636 C 311.200 49.944,297.075 35.600,296.394 35.600 C 296.151 35.600,296.047 35.447,296.163 35.260 C 296.278 35.073,295.884 34.668,295.286 34.360 C 294.689 34.052,293.539 33.125,292.731 32.300 C 291.924 31.475,291.091 30.800,290.880 30.800 C 290.670 30.800,290.251 30.503,289.949 30.139 C 289.263 29.312,285.345 26.400,284.917 26.399 C 284.743 26.399,283.970 25.859,283.200 25.200 C 282.430 24.541,281.590 24.001,281.333 24.001 C 281.077 24.000,280.807 23.834,280.733 23.630 C 280.660 23.427,280.330 23.202,280.000 23.130 C 279.670 23.059,279.109 22.685,278.753 22.300 C 278.397 21.915,277.852 21.600,277.541 21.600 C 277.231 21.600,276.717 21.240,276.400 20.800 C 276.083 20.360,275.503 20.000,275.112 20.000 C 274.720 20.000,274.400 19.820,274.400 19.600 C 274.400 19.380,274.130 19.200,273.800 19.200 C 273.470 19.200,273.200 19.020,273.200 18.800 C 273.200 18.580,272.930 18.400,272.600 18.400 C 272.270 18.400,271.999 18.265,271.997 18.100 C 271.993 17.749,270.063 16.800,269.354 16.800 C 269.086 16.800,268.807 16.664,268.733 16.498 C 268.660 16.332,267.340 15.568,265.800 14.800 C 264.260 14.032,262.940 13.268,262.867 13.102 C 262.793 12.936,262.512 12.800,262.242 12.800 C 261.778 12.800,259.029 11.631,257.505 10.785 C 257.123 10.573,256.538 10.400,256.205 10.400 C 255.872 10.400,255.600 10.220,255.600 10.000 C 255.600 9.780,255.261 9.600,254.846 9.600 C 254.431 9.600,253.576 9.331,252.946 9.002 C 252.316 8.674,251.305 8.404,250.700 8.402 C 250.095 8.401,249.600 8.220,249.600 8.000 C 249.600 7.780,249.161 7.600,248.624 7.600 C 248.087 7.600,247.536 7.420,247.400 7.200 C 247.264 6.980,246.623 6.800,245.976 6.800 C 245.329 6.800,244.800 6.620,244.800 6.400 C 244.800 6.180,244.260 6.000,243.600 6.000 C 242.940 6.000,242.400 5.820,242.400 5.600 C 242.400 5.380,241.860 5.200,241.200 5.200 C 240.540 5.200,240.000 5.020,240.000 4.800 C 240.000 4.580,239.370 4.400,238.600 4.400 C 237.830 4.400,237.200 4.220,237.200 4.000 C 237.200 3.780,236.480 3.600,235.600 3.600 C 234.720 3.600,234.000 3.420,234.000 3.200 C 234.000 2.980,233.291 2.800,232.424 2.800 C 231.557 2.800,230.736 2.620,230.600 2.400 C 230.464 2.180,229.373 2.000,228.176 2.000 C 226.979 2.000,226.000 1.820,226.000 1.600 C 226.000 1.380,225.025 1.200,223.833 1.200 C 222.498 1.200,221.605 1.015,221.506 0.718 C 221.346 0.237,189.263 -0.123,182.000 0.275 M214.400 29.191 C 215.830 29.420,218.170 29.795,219.600 30.024 C 222.051 30.417,223.266 30.668,227.600 31.674 C 231.156 32.500,240.871 35.675,243.600 36.903 C 265.555 46.784,279.897 58.167,292.862 76.000 C 295.544 79.689,296.854 81.726,299.677 86.600 C 313.936 111.212,318.290 144.645,311.009 173.617 C 309.670 178.948,307.958 184.126,306.753 186.495 C 306.559 186.877,306.400 187.366,306.400 187.583 C 306.400 188.735,301.337 198.935,298.069 204.369 C 291.546 215.213,282.348 225.858,272.800 233.613 C 271.590 234.596,270.510 235.499,270.400 235.619 C 270.290 235.740,269.570 236.271,268.800 236.800 C 268.030 237.329,267.310 237.874,267.200 238.011 C 266.884 238.405,262.484 241.310,259.200 243.294 C 254.033 246.414,243.463 251.600,242.270 251.600 C 241.989 251.600,241.589 251.762,241.380 251.959 C 240.865 252.446,234.050 254.685,229.000 256.027 C 225.408 256.981,224.595 257.154,217.900 258.387 C 210.846 259.685,192.846 259.942,185.200 258.854 C 179.447 258.035,174.832 257.122,171.000 256.045 C 167.086 254.945,165.853 254.572,162.600 253.502 C 160.620 252.851,158.829 252.157,158.620 251.959 C 158.411 251.762,158.011 251.600,157.730 251.600 C 156.525 251.600,146.317 246.551,140.470 243.064 C 105.818 222.393,82.006 178.075,85.630 141.000 C 85.802 139.240,85.956 136.375,85.972 134.633 C 85.998 131.657,86.139 130.427,87.260 123.400 C 89.137 111.629,94.462 96.622,100.319 86.600 C 100.704 85.940,101.543 84.500,102.181 83.400 C 119.863 52.947,155.147 31.286,191.400 28.631 C 195.070 28.362,211.765 28.768,214.400 29.191 M190.103 71.248 C 188.949 71.691,187.059 72.922,185.903 73.983 C 183.832 75.883,183.251 76.774,175.574 89.800 C 173.759 92.880,171.312 96.989,170.137 98.932 C 168.962 100.875,168.000 102.534,168.000 102.618 C 168.000 102.703,167.460 103.624,166.800 104.664 C 165.159 107.252,165.255 108.011,167.496 110.190 C 173.637 116.158,182.611 115.658,188.704 109.008 C 190.503 107.045,191.180 106.540,191.534 106.894 C 191.883 107.243,192.001 117.940,192.002 149.380 C 192.004 174.752,192.159 192.351,192.395 193.800 C 193.279 199.240,196.325 202.655,202.519 205.149 C 208.209 207.441,216.348 203.723,219.635 197.331 L 220.600 195.456 220.600 138.028 L 220.600 80.600 219.501 78.515 C 217.517 74.752,214.686 72.276,210.801 70.906 C 208.250 70.006,192.663 70.264,190.103 71.248 " stroke="none" fill="#fce37b" fill-rule="evenodd"></path><path id="path2" d="M191.400 28.631 C 163.389 30.683,136.371 43.551,116.980 64.076 C 111.658 69.709,105.341 77.958,102.181 83.400 C 101.543 84.500,100.704 85.940,100.319 86.600 C 94.462 96.622,89.137 111.629,87.260 123.400 C 86.140 130.421,85.999 131.645,85.989 134.433 C 85.983 136.065,85.831 139.020,85.651 141.000 C 85.472 142.980,85.447 146.760,85.596 149.400 L 85.868 154.200 85.934 149.500 C 86.012 143.915,86.439 143.494,87.150 148.300 C 87.435 150.225,87.824 152.430,88.014 153.200 C 90.834 164.607,92.228 168.958,95.439 176.380 C 109.335 208.494,138.963 233.439,172.650 241.386 C 177.563 242.545,178.561 242.753,181.200 243.165 C 182.630 243.388,185.150 243.784,186.800 244.044 C 188.531 244.316,194.116 244.516,200.000 244.516 C 205.884 244.516,211.469 244.316,213.200 244.044 C 214.850 243.784,217.370 243.386,218.800 243.159 C 230.923 241.238,245.026 236.330,255.300 230.457 C 256.125 229.986,257.439 229.238,258.219 228.796 C 282.610 214.979,303.010 188.127,310.179 160.400 C 311.664 154.656,312.256 151.940,312.859 148.100 C 313.579 143.510,313.987 143.980,314.073 149.500 L 314.147 154.200 314.381 149.800 C 315.520 128.425,309.891 104.229,299.677 86.600 C 296.854 81.726,295.544 79.689,292.862 76.000 C 279.897 58.167,265.555 46.784,243.600 36.903 C 240.871 35.675,231.156 32.500,227.600 31.674 C 223.266 30.668,222.051 30.417,219.600 30.024 C 218.170 29.795,215.830 29.420,214.400 29.191 C 211.765 28.768,195.070 28.362,191.400 28.631 M210.801 70.906 C 214.686 72.276,217.517 74.752,219.501 78.515 L 220.600 80.600 220.600 138.028 L 220.600 195.456 219.635 197.331 C 216.348 203.723,208.209 207.441,202.519 205.149 C 196.325 202.655,193.279 199.240,192.395 193.800 C 192.159 192.351,192.004 174.752,192.002 149.380 C 192.001 117.940,191.883 107.243,191.534 106.894 C 191.180 106.540,190.503 107.045,188.704 109.008 C 182.611 115.658,173.637 116.158,167.496 110.190 C 165.255 108.011,165.159 107.252,166.800 104.664 C 167.460 103.624,168.000 102.703,168.000 102.618 C 168.000 102.534,168.962 100.875,170.137 98.932 C 171.312 96.989,173.759 92.880,175.574 89.800 C 183.251 76.774,183.832 75.883,185.903 73.983 C 189.409 70.766,190.757 70.444,200.800 70.427 C 206.637 70.417,209.850 70.571,210.801 70.906 M345.131 141.600 C 344.984 141.930,344.763 143.370,344.641 144.800 C 344.224 149.683,342.955 157.873,341.976 162.000 C 340.770 167.087,340.183 169.279,339.138 172.600 C 338.722 173.920,338.193 175.630,337.962 176.400 C 337.500 177.938,335.414 183.504,334.588 185.400 C 334.301 186.060,333.752 187.410,333.369 188.400 C 332.293 191.183,326.291 202.833,324.870 204.899 C 324.171 205.914,323.600 206.854,323.600 206.987 C 323.600 207.845,315.468 219.067,310.837 224.600 C 301.778 235.425,285.439 249.267,274.300 255.553 C 273.475 256.019,272.125 256.790,271.300 257.267 C 263.969 261.503,251.072 267.006,242.400 269.600 C 240.750 270.093,238.950 270.638,238.400 270.810 C 237.193 271.189,233.459 272.059,228.300 273.164 C 211.417 276.782,188.280 276.792,171.800 273.189 C 170.920 272.997,169.210 272.628,168.000 272.370 C 166.790 272.112,165.350 271.764,164.800 271.597 C 164.250 271.430,162.990 271.078,162.000 270.815 C 159.638 270.188,152.421 267.991,151.400 267.589 C 150.960 267.415,148.890 266.611,146.800 265.801 C 122.411 256.354,99.817 239.154,83.745 217.800 C 81.224 214.450,76.400 207.376,76.400 207.029 C 76.400 206.918,75.665 205.696,74.766 204.313 C 73.145 201.820,67.673 191.057,66.269 187.600 C 65.867 186.610,65.388 185.440,65.206 185.000 C 63.577 181.077,61.558 175.262,60.414 171.200 C 60.135 170.210,59.765 168.950,59.592 168.400 C 59.418 167.850,59.079 166.545,58.838 165.500 C 58.597 164.455,58.219 162.835,57.998 161.900 C 57.048 157.878,55.778 149.685,55.333 144.700 C 55.201 143.215,54.937 142.000,54.746 142.000 C 54.250 142.000,54.303 157.893,54.800 158.200 C 55.020 158.336,55.200 159.956,55.200 161.800 C 55.200 163.644,55.380 165.264,55.600 165.400 C 55.820 165.536,56.000 166.717,56.000 168.024 C 56.000 169.341,56.178 170.400,56.400 170.400 C 56.620 170.400,56.800 171.379,56.800 172.576 C 56.800 173.773,56.980 174.864,57.200 175.000 C 57.420 175.136,57.600 175.957,57.600 176.824 C 57.600 177.691,57.780 178.400,58.000 178.400 C 58.220 178.400,58.400 179.120,58.400 180.000 C 58.400 180.880,58.542 181.600,58.715 181.600 C 58.888 181.600,59.073 182.165,59.125 182.855 C 59.178 183.546,59.343 184.308,59.492 184.548 C 59.640 184.789,59.803 185.259,59.853 185.593 C 59.903 185.927,60.151 186.920,60.405 187.800 C 60.658 188.680,60.962 189.897,61.079 190.505 C 61.196 191.113,61.451 191.708,61.646 191.829 C 61.841 191.949,62.000 192.399,62.000 192.829 C 62.000 193.259,62.180 193.968,62.400 194.405 C 62.620 194.842,62.980 195.558,63.200 195.995 C 63.420 196.432,63.600 196.980,63.600 197.214 C 63.600 197.448,63.960 198.384,64.400 199.294 C 64.840 200.205,65.200 201.276,65.200 201.675 C 65.200 202.074,65.380 202.400,65.600 202.400 C 65.820 202.400,66.000 202.653,66.000 202.962 C 66.000 203.628,67.668 206.941,68.100 207.133 C 68.265 207.207,68.400 207.532,68.400 207.855 C 68.400 208.535,70.851 213.334,71.300 213.533 C 71.465 213.607,71.600 214.012,71.600 214.433 C 71.600 214.855,71.780 215.200,72.000 215.200 C 72.220 215.200,72.400 215.560,72.400 216.000 C 72.400 216.440,72.580 216.800,72.800 216.800 C 73.020 216.800,73.200 217.036,73.200 217.325 C 73.200 217.613,73.515 218.198,73.901 218.625 C 74.286 219.051,75.030 220.247,75.554 221.282 C 76.079 222.318,76.843 223.525,77.254 223.966 C 77.664 224.406,78.000 224.911,78.000 225.089 C 78.000 225.469,80.716 229.564,81.475 230.329 C 81.764 230.619,82.000 231.016,82.000 231.210 C 82.000 231.405,82.450 232.014,83.000 232.564 C 83.550 233.114,84.000 233.675,84.000 233.810 C 84.000 233.946,84.225 234.286,84.500 234.565 C 84.775 234.845,85.450 235.675,86.000 236.411 C 86.550 237.147,87.945 238.702,89.100 239.866 C 90.255 241.030,91.200 242.155,91.200 242.365 C 91.200 242.866,99.583 251.330,102.347 253.621 C 103.527 254.599,105.096 255.985,105.833 256.700 C 106.570 257.415,107.333 258.000,107.527 258.000 C 107.722 258.000,108.443 258.536,109.129 259.192 C 109.815 259.848,110.606 260.298,110.888 260.192 C 111.433 259.987,111.746 260.173,116.653 263.596 C 120.022 265.947,125.813 269.665,126.800 270.111 C 127.130 270.260,128.300 270.922,129.400 271.582 C 132.163 273.239,142.099 278.084,145.000 279.188 C 145.440 279.356,146.250 279.680,146.800 279.909 C 153.160 282.557,165.471 286.104,172.800 287.400 C 173.570 287.536,175.190 287.832,176.400 288.058 C 190.344 290.664,213.845 290.368,227.400 287.416 C 229.206 287.023,231.984 286.395,234.000 285.923 C 236.855 285.256,243.993 283.226,246.400 282.398 C 250.687 280.921,253.415 279.926,254.600 279.404 C 255.260 279.114,256.604 278.544,257.586 278.138 C 264.982 275.083,281.056 265.820,286.200 261.649 C 287.446 260.639,288.802 259.954,289.141 260.164 C 289.311 260.269,289.962 259.915,290.587 259.377 C 291.213 258.840,291.857 258.400,292.020 258.400 C 292.182 258.400,292.853 257.905,293.510 257.300 C 294.167 256.695,295.671 255.397,296.852 254.415 C 299.543 252.179,308.400 243.267,308.400 242.795 C 308.400 242.603,309.435 241.385,310.700 240.090 C 311.965 238.795,313.450 237.137,314.000 236.404 C 314.550 235.672,315.225 234.845,315.500 234.565 C 315.775 234.286,316.000 233.904,316.000 233.717 C 316.000 233.530,316.360 233.117,316.800 232.800 C 317.240 232.483,317.600 232.027,317.600 231.787 C 317.600 231.547,317.918 231.002,318.307 230.575 C 319.354 229.428,324.400 221.662,324.400 221.199 C 324.400 220.980,324.580 220.800,324.800 220.800 C 325.020 220.800,325.200 220.440,325.200 220.000 C 325.200 219.560,325.352 219.200,325.537 219.200 C 325.723 219.200,326.308 218.345,326.837 217.300 C 327.367 216.255,327.935 215.340,328.100 215.267 C 328.265 215.193,328.400 214.788,328.400 214.367 C 328.400 213.945,328.580 213.600,328.800 213.600 C 329.020 213.600,329.200 213.240,329.200 212.800 C 329.200 212.360,329.380 212.000,329.600 212.000 C 329.820 212.000,330.000 211.640,330.000 211.200 C 330.000 210.760,330.148 210.400,330.329 210.400 C 330.690 210.400,332.400 206.827,332.400 206.072 C 332.400 205.812,332.580 205.600,332.800 205.600 C 333.020 205.600,333.200 205.418,333.200 205.196 C 333.200 204.973,333.560 203.983,334.000 202.996 C 334.440 202.008,335.160 200.392,335.600 199.404 C 336.040 198.417,336.400 197.418,336.400 197.185 C 336.400 196.952,336.760 196.016,337.200 195.106 C 337.640 194.195,338.000 193.034,338.000 192.525 C 338.000 192.016,338.150 191.600,338.333 191.600 C 338.517 191.600,338.670 191.375,338.675 191.100 C 338.680 190.825,339.160 189.106,339.742 187.279 C 340.324 185.453,340.800 183.529,340.800 183.003 C 340.800 182.477,340.980 181.936,341.200 181.800 C 341.420 181.664,341.600 180.843,341.600 179.976 C 341.600 179.109,341.780 178.400,342.000 178.400 C 342.220 178.400,342.400 177.691,342.400 176.824 C 342.400 175.957,342.580 175.136,342.800 175.000 C 343.020 174.864,343.200 173.784,343.200 172.600 C 343.200 171.416,343.380 170.336,343.600 170.200 C 343.820 170.064,344.000 168.894,344.000 167.600 C 344.000 166.306,344.180 165.136,344.400 165.000 C 344.620 164.864,344.800 163.449,344.800 161.856 C 344.800 160.263,344.984 158.776,345.208 158.552 C 345.467 158.293,345.577 155.014,345.508 149.572 C 345.449 144.857,345.279 141.270,345.131 141.600 M86.054 155.903 C 85.989 157.940,86.896 164.186,88.033 169.529 C 95.100 202.741,117.808 232.106,148.200 247.331 C 153.259 249.865,157.131 251.600,157.730 251.600 C 158.011 251.600,158.411 251.762,158.620 251.959 C 158.829 252.157,160.620 252.851,162.600 253.502 C 165.853 254.572,167.086 254.945,171.000 256.045 C 174.832 257.122,179.447 258.035,185.200 258.854 C 192.846 259.942,210.846 259.685,217.900 258.387 C 224.595 257.154,225.408 256.981,229.000 256.027 C 234.050 254.685,240.865 252.446,241.380 251.959 C 241.589 251.762,241.989 251.600,242.270 251.600 C 243.463 251.600,254.033 246.414,259.200 243.294 C 262.484 241.310,266.884 238.405,267.200 238.011 C 267.310 237.874,268.030 237.329,268.800 236.800 C 269.570 236.271,270.290 235.740,270.400 235.619 C 270.510 235.499,271.590 234.596,272.800 233.613 C 282.348 225.858,291.546 215.213,298.069 204.369 C 301.337 198.935,306.400 188.735,306.400 187.583 C 306.400 187.366,306.559 186.877,306.753 186.495 C 309.593 180.913,313.298 165.607,313.781 157.467 C 313.931 154.931,313.893 154.558,313.610 155.800 C 313.410 156.680,313.236 158.151,313.223 159.069 C 313.210 159.988,313.008 161.698,312.774 162.869 C 312.540 164.041,312.166 165.990,311.944 167.200 C 311.089 171.858,308.515 181.104,307.210 184.200 C 307.025 184.640,306.424 186.170,305.875 187.600 C 302.870 195.429,296.001 207.743,291.412 213.527 C 282.442 224.835,273.726 233.072,263.406 239.996 C 254.157 246.201,241.801 252.056,232.900 254.450 C 232.185 254.643,230.925 254.992,230.100 255.227 C 227.672 255.917,225.546 256.419,223.200 256.855 C 221.990 257.080,220.100 257.431,219.000 257.635 C 208.778 259.531,191.169 259.518,180.800 257.606 C 176.691 256.848,171.901 255.804,169.900 255.230 C 169.075 254.994,167.815 254.637,167.100 254.438 C 166.385 254.239,164.540 253.631,163.000 253.087 C 140.718 245.211,124.190 233.194,108.588 213.527 C 102.696 206.100,95.499 192.419,92.108 182.200 C 89.086 173.093,87.686 166.849,86.458 157.000 C 86.179 154.768,86.098 154.545,86.054 155.903 " stroke="none" fill="#fcbe55" fill-rule="evenodd"></path><path id="path3" d="M86.439 151.200 C 86.383 155.471,88.249 167.565,90.048 174.600 C 90.274 175.480,90.554 176.785,90.673 177.500 C 90.791 178.215,91.048 178.800,91.244 178.800 C 91.440 178.800,91.600 179.340,91.600 180.000 C 91.600 180.660,91.780 181.200,92.000 181.200 C 92.220 181.200,92.400 181.639,92.400 182.176 C 92.400 182.713,92.580 183.264,92.800 183.400 C 93.020 183.536,93.200 184.087,93.200 184.624 C 93.200 185.161,93.380 185.600,93.600 185.600 C 93.820 185.600,94.000 185.949,94.000 186.376 C 94.000 186.803,94.180 187.264,94.400 187.400 C 94.620 187.536,94.800 188.087,94.800 188.624 C 94.800 189.161,94.980 189.600,95.200 189.600 C 95.420 189.600,95.600 189.856,95.600 190.168 C 95.600 190.693,100.104 199.729,101.842 202.692 C 104.198 206.708,107.405 211.600,107.681 211.600 C 107.856 211.600,108.000 211.793,108.000 212.029 C 108.000 212.264,108.225 212.686,108.500 212.965 C 108.775 213.245,109.450 214.070,110.000 214.800 C 110.550 215.530,111.183 216.323,111.406 216.563 C 111.629 216.804,112.799 218.162,114.006 219.582 C 116.959 223.057,122.418 228.531,125.600 231.208 C 127.030 232.411,128.290 233.492,128.400 233.610 C 128.510 233.728,129.770 234.684,131.200 235.735 C 132.630 236.785,134.117 237.905,134.505 238.222 C 134.892 238.540,135.387 238.800,135.605 238.800 C 135.822 238.800,136.000 238.950,136.000 239.132 C 136.000 239.315,136.495 239.720,137.100 240.032 C 137.705 240.345,138.549 240.915,138.975 241.300 C 139.402 241.685,139.972 242.000,140.242 242.000 C 140.512 242.000,140.793 242.135,140.867 242.300 C 141.164 242.968,153.342 249.081,157.900 250.851 C 159.734 251.563,161.019 252.103,161.695 252.447 C 162.077 252.641,162.741 252.800,163.171 252.800 C 163.601 252.800,164.064 252.980,164.200 253.200 C 164.336 253.420,164.876 253.600,165.400 253.600 C 165.924 253.600,166.464 253.780,166.600 254.000 C 166.736 254.220,167.366 254.400,168.000 254.400 C 168.634 254.400,169.264 254.580,169.400 254.800 C 169.536 255.020,170.166 255.200,170.800 255.200 C 171.434 255.200,172.064 255.380,172.200 255.600 C 172.336 255.820,173.146 256.000,174.000 256.000 C 174.854 256.000,175.664 256.180,175.800 256.400 C 175.936 256.620,176.836 256.800,177.800 256.800 C 178.764 256.800,179.664 256.980,179.800 257.200 C 179.936 257.420,180.991 257.600,182.144 257.600 C 183.297 257.600,184.411 257.768,184.620 257.973 C 185.136 258.481,191.549 258.844,200.000 258.844 C 208.451 258.844,214.864 258.481,215.380 257.973 C 215.589 257.768,216.678 257.600,217.800 257.600 C 218.922 257.600,220.011 257.437,220.220 257.239 C 220.429 257.040,221.410 256.776,222.400 256.651 C 226.344 256.156,227.615 255.900,227.826 255.558 C 227.948 255.361,228.566 255.200,229.200 255.200 C 229.834 255.200,230.464 255.020,230.600 254.800 C 230.736 254.580,231.366 254.400,232.000 254.400 C 232.634 254.400,233.264 254.220,233.400 254.000 C 233.536 253.780,234.076 253.600,234.600 253.600 C 235.124 253.600,235.664 253.420,235.800 253.200 C 235.936 252.980,236.399 252.800,236.829 252.800 C 237.259 252.800,237.923 252.641,238.305 252.447 C 238.992 252.097,240.351 251.527,242.100 250.854 C 244.291 250.010,245.286 249.557,250.000 247.256 C 255.839 244.407,258.946 242.721,259.133 242.300 C 259.207 242.135,259.488 242.000,259.758 242.000 C 260.028 242.000,260.598 241.685,261.025 241.300 C 261.451 240.915,262.295 240.345,262.900 240.032 C 263.505 239.720,264.000 239.315,264.000 239.132 C 264.000 238.950,264.178 238.800,264.395 238.800 C 264.613 238.800,265.108 238.540,265.495 238.222 C 265.883 237.905,267.370 236.783,268.800 235.730 C 270.230 234.677,271.597 233.632,271.839 233.407 C 272.080 233.183,273.520 231.922,275.039 230.604 C 278.248 227.820,284.362 221.783,285.214 220.556 C 285.536 220.093,286.520 218.897,287.400 217.899 C 289.495 215.524,290.017 214.877,291.193 213.200 C 291.732 212.430,292.406 211.560,292.691 211.267 C 294.564 209.338,304.400 191.583,304.400 190.130 C 304.400 189.838,304.580 189.600,304.800 189.600 C 305.020 189.600,305.200 189.161,305.200 188.624 C 305.200 188.087,305.380 187.536,305.600 187.400 C 305.820 187.264,306.000 186.803,306.000 186.376 C 306.000 185.949,306.180 185.600,306.400 185.600 C 306.620 185.600,306.800 185.161,306.800 184.624 C 306.800 184.087,306.980 183.536,307.200 183.400 C 307.420 183.264,307.600 182.713,307.600 182.176 C 307.600 181.639,307.780 181.200,308.000 181.200 C 308.220 181.200,308.400 180.660,308.400 180.000 C 308.400 179.340,308.560 178.800,308.756 178.800 C 308.952 178.800,309.209 178.215,309.327 177.500 C 309.446 176.785,309.722 175.480,309.942 174.600 C 310.914 170.709,311.555 167.509,312.145 163.600 C 313.674 153.464,313.968 149.725,313.200 150.200 C 312.980 150.336,312.800 150.911,312.800 151.477 C 312.800 152.044,312.606 153.248,312.368 154.154 C 312.131 155.059,311.786 156.430,311.601 157.200 C 311.255 158.645,310.587 161.155,309.897 163.600 C 309.680 164.370,309.344 165.313,309.151 165.695 C 308.958 166.077,308.800 166.716,308.800 167.115 C 308.800 167.514,308.657 168.011,308.482 168.220 C 308.307 168.429,307.935 169.320,307.655 170.200 C 307.376 171.080,306.979 172.205,306.774 172.700 C 306.568 173.195,306.232 174.005,306.027 174.500 C 302.937 181.963,296.021 194.162,292.235 198.829 C 291.776 199.394,290.950 200.458,290.400 201.192 C 289.850 201.926,289.220 202.728,289.000 202.973 C 288.780 203.219,287.440 204.765,286.023 206.410 C 278.758 214.842,268.323 223.505,258.339 229.394 C 255.005 231.361,245.775 235.854,242.400 237.153 C 240.530 237.873,238.687 238.628,238.305 238.831 C 237.923 239.034,237.336 239.200,237.000 239.200 C 236.664 239.200,236.077 239.362,235.695 239.561 C 235.313 239.760,234.190 240.144,233.200 240.415 C 229.810 241.344,228.599 241.703,227.681 242.051 C 227.176 242.243,226.151 242.400,225.405 242.400 C 224.658 242.400,223.950 242.557,223.832 242.748 C 223.714 242.940,222.758 243.210,221.708 243.348 C 220.659 243.486,218.720 243.777,217.400 243.994 C 209.620 245.273,198.576 245.615,190.000 244.844 C 183.091 244.223,175.720 242.963,171.000 241.597 C 170.120 241.343,168.860 241.036,168.200 240.917 C 167.540 240.797,166.820 240.575,166.600 240.422 C 166.380 240.269,165.390 239.911,164.400 239.626 C 162.713 239.141,162.175 238.952,159.900 238.039 C 159.405 237.840,157.920 237.265,156.600 236.760 C 145.519 232.522,131.831 223.802,122.555 215.070 C 120.959 213.568,119.219 211.948,118.687 211.470 C 117.129 210.069,111.497 203.700,109.600 201.194 C 109.050 200.468,108.409 199.677,108.175 199.437 C 107.428 198.669,102.900 191.793,100.800 188.239 C 97.914 183.353,93.596 174.140,92.345 170.200 C 92.065 169.320,91.693 168.429,91.518 168.220 C 91.343 168.011,91.200 167.437,91.200 166.944 C 91.200 166.451,91.041 165.949,90.846 165.829 C 90.651 165.708,90.396 165.113,90.279 164.505 C 90.162 163.897,89.887 162.770,89.668 162.000 C 88.880 159.231,88.110 156.157,87.615 153.800 C 86.767 149.767,86.467 149.105,86.439 151.200 " stroke="none" fill="#fcac3c" fill-rule="evenodd"></path><path id="path4" d="M111.600 260.522 C 111.600 260.789,120.023 266.728,122.200 267.996 C 124.650 269.423,123.371 268.355,119.800 265.991 C 118.040 264.826,115.970 263.389,115.200 262.798 C 113.293 261.332,111.600 260.263,111.600 260.522 M285.533 262.300 C 284.116 263.345,281.477 265.171,279.669 266.357 C 277.860 267.543,276.452 268.585,276.539 268.672 C 276.783 268.916,286.435 262.346,288.180 260.748 C 289.229 259.787,287.819 260.614,285.533 262.300 M124.000 268.943 C 124.000 269.190,128.697 272.000,129.110 272.000 C 129.457 272.000,128.280 271.202,125.900 269.824 C 124.855 269.219,124.000 268.822,124.000 268.943 M272.400 270.818 C 266.464 274.310,256.392 279.089,251.843 280.572 C 251.426 280.708,251.178 280.912,251.292 281.025 C 251.988 281.721,270.904 272.639,275.253 269.521 C 276.999 268.269,275.829 268.801,272.400 270.818 M130.200 272.628 C 130.640 272.972,133.340 274.388,136.200 275.775 C 144.662 279.878,147.155 280.899,146.626 280.043 C 146.476 279.799,146.098 279.600,145.786 279.600 C 145.066 279.600,141.211 277.872,134.600 274.587 C 131.740 273.165,129.760 272.284,130.200 272.628 M147.601 280.737 C 148.474 281.306,157.681 284.440,158.086 284.305 C 158.399 284.200,149.647 280.999,147.800 280.543 C 147.164 280.386,147.123 280.426,147.601 280.737 M248.200 282.029 C 247.320 282.452,247.050 282.686,247.600 282.550 C 249.105 282.175,251.084 281.266,250.400 281.262 C 250.070 281.261,249.080 281.606,248.200 282.029 M244.800 283.200 C 244.267 283.545,244.267 283.588,244.800 283.588 C 245.130 283.588,245.670 283.413,246.000 283.200 C 246.533 282.855,246.533 282.812,246.000 282.812 C 245.670 282.812,245.130 282.987,244.800 283.200 M242.000 284.000 C 241.205 284.514,242.204 284.514,243.400 284.000 L 244.200 283.656 243.400 283.634 C 242.960 283.622,242.330 283.787,242.000 284.000 M159.400 284.800 C 160.596 285.314,161.595 285.314,160.800 284.800 C 160.470 284.587,159.840 284.422,159.400 284.434 L 158.600 284.456 159.400 284.800 M239.400 284.800 L 238.600 285.144 239.400 285.166 C 239.840 285.178,240.470 285.013,240.800 284.800 C 241.595 284.286,240.596 284.286,239.400 284.800 M162.200 285.600 C 162.640 285.789,163.360 285.938,163.800 285.932 C 164.443 285.923,164.404 285.857,163.600 285.600 C 162.232 285.162,161.181 285.162,162.200 285.600 M236.200 285.600 L 235.400 285.944 236.200 285.944 C 236.640 285.944,237.360 285.789,237.800 285.600 L 238.600 285.256 237.800 285.256 C 237.360 285.256,236.640 285.411,236.200 285.600 M165.400 286.400 C 165.840 286.589,166.560 286.744,167.000 286.744 L 167.800 286.744 167.000 286.400 C 166.560 286.211,165.840 286.056,165.400 286.056 L 164.600 286.056 165.400 286.400 M233.200 286.400 L 232.200 286.720 233.200 286.754 C 233.750 286.773,234.470 286.613,234.800 286.400 C 235.564 285.906,234.742 285.906,233.200 286.400 M168.800 287.179 C 169.130 287.404,169.925 287.591,170.567 287.594 C 172.104 287.602,171.784 287.370,169.800 287.038 C 168.654 286.846,168.370 286.886,168.800 287.179 M229.600 287.200 L 228.600 287.520 229.600 287.554 C 230.150 287.573,230.870 287.413,231.200 287.200 C 231.964 286.706,231.142 286.706,229.600 287.200 M172.600 288.000 C 173.040 288.189,174.030 288.335,174.800 288.325 L 176.200 288.305 175.000 288.000 C 173.203 287.543,171.536 287.543,172.600 288.000 M225.200 288.000 L 223.800 288.295 225.200 288.319 C 225.970 288.333,226.960 288.189,227.400 288.000 L 228.200 287.656 227.400 287.681 C 226.960 287.694,225.970 287.838,225.200 288.000 M176.491 288.613 C 177.392 289.550,198.936 290.969,204.700 290.470 L 209.400 290.063 204.800 290.188 C 199.540 290.330,187.548 289.788,183.400 289.221 C 177.799 288.456,176.206 288.315,176.491 288.613 M220.000 288.800 L 218.200 289.080 220.200 289.112 C 221.300 289.129,222.560 288.989,223.000 288.800 C 224.009 288.366,222.788 288.366,220.000 288.800 M212.600 289.600 L 209.400 289.853 212.600 289.879 C 214.360 289.894,216.340 289.768,217.000 289.600 L 218.200 289.295 217.000 289.321 C 216.340 289.335,214.360 289.461,212.600 289.600 " stroke="none" fill="#fc7c4c" fill-rule="evenodd"></path><path id="path5" d="M86.030 149.300 C 86.046 151.775,86.207 154.610,86.387 155.600 C 86.622 156.888,86.669 156.263,86.554 153.400 C 86.386 149.193,86.668 149.299,87.615 153.800 C 88.110 156.157,88.880 159.231,89.668 162.000 C 89.887 162.770,90.162 163.897,90.279 164.505 C 90.396 165.113,90.651 165.708,90.846 165.829 C 91.041 165.949,91.200 166.451,91.200 166.944 C 91.200 167.437,91.343 168.011,91.518 168.220 C 91.693 168.429,92.065 169.320,92.345 170.200 C 94.698 177.609,104.437 195.596,108.175 199.437 C 108.409 199.677,109.050 200.468,109.600 201.194 C 111.497 203.700,117.129 210.069,118.687 211.470 C 119.219 211.948,120.959 213.568,122.555 215.070 C 131.831 223.802,145.519 232.522,156.600 236.760 C 157.920 237.265,159.405 237.840,159.900 238.039 C 162.175 238.952,162.713 239.141,164.400 239.626 C 165.390 239.911,166.380 240.269,166.600 240.422 C 166.820 240.575,167.540 240.797,168.200 240.917 C 168.860 241.036,170.120 241.343,171.000 241.597 C 175.720 242.963,183.091 244.223,190.000 244.844 C 198.576 245.615,209.620 245.273,217.400 243.994 C 218.720 243.777,220.659 243.486,221.708 243.348 C 222.758 243.210,223.714 242.940,223.832 242.748 C 223.950 242.557,224.658 242.400,225.405 242.400 C 226.151 242.400,227.176 242.243,227.681 242.051 C 228.599 241.703,229.810 241.344,233.200 240.415 C 234.190 240.144,235.313 239.760,235.695 239.561 C 236.077 239.362,236.664 239.200,237.000 239.200 C 237.336 239.200,237.923 239.034,238.305 238.831 C 238.687 238.628,240.530 237.873,242.400 237.153 C 258.288 231.036,274.878 219.344,286.023 206.410 C 287.440 204.765,288.780 203.219,289.000 202.973 C 289.220 202.728,289.850 201.926,290.400 201.192 C 290.950 200.458,291.776 199.394,292.235 198.829 C 297.067 192.873,305.322 177.546,307.655 170.200 C 307.935 169.320,308.307 168.429,308.482 168.220 C 308.657 168.011,308.800 167.514,308.800 167.115 C 308.800 166.716,308.962 166.077,309.161 165.695 C 309.555 164.936,310.445 161.835,311.541 157.400 C 311.759 156.520,312.131 155.059,312.368 154.154 C 312.606 153.248,312.800 152.044,312.800 151.477 C 312.800 150.911,313.009 150.318,313.264 150.161 C 313.609 149.948,313.670 150.790,313.505 153.437 C 313.355 155.840,313.391 156.479,313.618 155.400 C 314.046 153.363,314.102 144.800,313.688 144.800 C 313.517 144.800,313.144 146.285,312.859 148.100 C 312.256 151.940,311.664 154.656,310.179 160.400 C 303.010 188.127,282.610 214.979,258.219 228.796 C 257.439 229.238,256.125 229.986,255.300 230.457 C 245.026 236.330,230.923 241.238,218.800 243.159 C 217.370 243.386,214.850 243.784,213.200 244.044 C 211.469 244.316,205.884 244.516,200.000 244.516 C 194.116 244.516,188.531 244.316,186.800 244.044 C 185.150 243.784,182.630 243.388,181.200 243.165 C 178.561 242.753,177.563 242.545,172.650 241.386 C 138.963 233.439,109.335 208.494,95.439 176.380 C 92.228 168.958,90.834 164.607,88.014 153.200 C 87.824 152.430,87.435 150.225,87.150 148.300 C 86.441 143.511,85.994 143.910,86.030 149.300 M312.868 158.600 C 312.826 159.480,312.704 160.920,312.597 161.800 L 312.403 163.400 312.822 162.065 C 313.052 161.331,313.174 159.891,313.093 158.865 C 312.946 157.019,312.943 157.017,312.868 158.600 M86.840 159.433 C 86.862 160.515,87.022 161.850,87.197 162.400 C 87.381 162.981,87.425 162.227,87.301 160.600 C 87.051 157.304,86.783 156.627,86.840 159.433 M87.628 164.833 C 87.644 165.585,87.820 166.560,88.020 167.000 C 88.265 167.539,88.305 167.146,88.141 165.800 C 87.851 163.419,87.589 162.924,87.628 164.833 M312.064 164.250 C 312.029 164.718,311.905 165.708,311.789 166.450 C 311.596 167.686,311.615 167.717,312.008 166.814 C 312.245 166.272,312.368 165.282,312.283 164.614 C 312.191 163.897,312.102 163.748,312.064 164.250 M88.446 169.200 C 88.427 169.750,88.587 170.470,88.800 170.800 C 89.294 171.564,89.294 170.742,88.800 169.200 L 88.480 168.200 88.446 169.200 M311.249 168.800 C 311.216 169.130,311.089 169.850,310.967 170.400 C 310.775 171.264,310.807 171.303,311.199 170.688 C 311.448 170.297,311.575 169.577,311.481 169.088 C 311.386 168.600,311.282 168.470,311.249 168.800 M89.212 172.800 C 89.212 173.130,89.387 173.670,89.600 174.000 C 89.945 174.533,89.988 174.533,89.988 174.000 C 89.988 173.670,89.813 173.130,89.600 172.800 C 89.255 172.267,89.212 172.267,89.212 172.800 M310.200 173.200 C 310.050 173.673,310.017 174.150,310.127 174.260 C 310.237 174.370,310.450 174.073,310.600 173.600 C 310.750 173.127,310.783 172.650,310.673 172.540 C 310.563 172.430,310.350 172.727,310.200 173.200 M96.400 192.942 C 96.400 193.231,98.807 197.977,100.695 201.410 C 102.110 203.985,104.429 207.600,104.665 207.600 C 104.868 207.600,104.711 207.315,103.238 205.000 C 101.962 202.993,101.615 202.367,98.922 197.200 C 96.721 192.977,96.400 192.435,96.400 192.942 M301.231 196.869 C 300.549 198.261,299.543 200.170,298.995 201.111 C 297.930 202.942,297.642 203.893,298.548 202.589 C 299.718 200.905,302.883 194.749,302.682 194.549 C 302.566 194.433,301.913 195.476,301.231 196.869 M296.677 205.100 C 295.293 207.325,295.032 207.921,295.923 206.826 C 296.945 205.569,298.108 203.600,297.828 203.600 C 297.708 203.600,297.190 204.275,296.677 205.100 M291.693 212.400 C 291.418 212.840,291.331 213.200,291.500 213.200 C 291.669 213.200,292.032 212.840,292.307 212.400 C 292.582 211.960,292.669 211.600,292.500 211.600 C 292.331 211.600,291.968 211.960,291.693 212.400 M113.482 219.534 C 114.757 221.038,115.870 222.213,115.955 222.146 C 116.173 221.974,111.869 216.852,111.482 216.824 C 111.307 216.811,112.207 218.030,113.482 219.534 M287.000 218.292 C 286.340 219.080,285.565 220.057,285.277 220.463 C 284.280 221.870,285.057 221.189,286.947 219.000 C 287.991 217.790,288.701 216.813,288.523 216.829 C 288.345 216.845,287.660 217.503,287.000 218.292 M282.035 223.940 C 281.725 224.303,280.919 225.230,280.244 226.000 C 279.509 226.839,279.808 226.644,280.989 225.514 C 282.074 224.477,282.880 223.550,282.781 223.454 C 282.681 223.359,282.346 223.578,282.035 223.940 M118.000 224.293 C 118.000 224.486,118.673 225.263,119.496 226.022 C 120.788 227.212,120.856 227.238,119.996 226.218 C 118.346 224.261,118.000 223.927,118.000 224.293 M275.000 230.627 C 273.460 232.033,272.065 233.187,271.900 233.191 C 271.735 233.196,271.600 233.402,271.600 233.649 C 271.600 234.014,275.116 231.196,277.548 228.883 C 279.493 227.032,277.275 228.551,275.000 230.627 M123.274 229.700 C 125.012 231.336,128.396 234.011,128.373 233.731 C 128.343 233.364,123.405 229.200,122.999 229.200 C 122.858 229.200,122.982 229.425,123.274 229.700 M129.926 235.116 C 131.849 236.835,134.801 238.903,134.793 238.525 C 134.789 238.346,133.934 237.623,132.893 236.917 C 131.852 236.211,130.460 235.251,129.800 234.782 C 128.702 234.002,128.713 234.031,129.926 235.116 M268.400 236.012 C 266.970 237.102,265.665 237.996,265.500 237.997 C 265.335 237.999,265.200 238.191,265.200 238.425 C 265.200 238.863,267.735 237.168,270.074 235.167 C 272.168 233.376,271.249 233.839,268.400 236.012 M143.600 244.367 C 144.563 245.152,145.200 245.408,145.200 245.010 C 145.200 244.906,144.615 244.535,143.900 244.186 L 142.600 243.552 143.600 244.367 M255.900 244.229 C 254.405 245.040,254.496 245.378,256.000 244.600 C 256.660 244.259,257.200 243.894,257.200 243.790 C 257.200 243.532,257.157 243.547,255.900 244.229 M147.200 246.206 C 147.200 246.386,153.971 249.667,155.300 250.130 C 156.503 250.550,156.065 250.066,154.700 249.467 C 153.985 249.153,152.320 248.385,151.000 247.761 C 147.717 246.209,147.200 245.997,147.200 246.206 M249.497 247.567 C 246.526 249.009,244.951 249.977,246.612 249.340 C 248.221 248.723,252.800 246.403,252.800 246.205 C 252.800 245.942,253.080 245.827,249.497 247.567 M224.400 256.400 C 223.867 256.745,223.867 256.788,224.400 256.788 C 224.730 256.788,225.270 256.613,225.600 256.400 C 226.133 256.055,226.133 256.012,225.600 256.012 C 225.270 256.012,224.730 256.187,224.400 256.400 M178.600 257.200 C 179.701 257.673,180.092 257.673,179.800 257.200 C 179.664 256.980,179.158 256.813,178.676 256.828 C 177.831 256.855,177.829 256.869,178.600 257.200 M220.200 257.200 C 219.908 257.673,220.299 257.673,221.400 257.200 C 222.171 256.869,222.169 256.855,221.324 256.828 C 220.842 256.813,220.336 256.980,220.200 257.200 M183.000 258.000 C 184.111 258.478,184.895 258.478,184.600 258.000 C 184.464 257.780,183.868 257.613,183.276 257.628 C 182.315 257.653,182.286 257.693,183.000 258.000 M215.400 258.000 C 215.105 258.478,215.889 258.478,217.000 258.000 C 217.714 257.693,217.685 257.653,216.724 257.628 C 216.132 257.613,215.536 257.780,215.400 258.000 M188.433 258.550 C 188.525 258.632,189.680 258.820,191.000 258.968 C 192.696 259.157,193.224 259.114,192.800 258.824 C 192.261 258.454,188.032 258.189,188.433 258.550 M207.200 258.824 C 206.776 259.114,207.304 259.157,209.000 258.968 C 210.320 258.820,211.475 258.632,211.567 258.550 C 211.968 258.189,207.739 258.454,207.200 258.824 M192.707 289.890 C 193.426 289.979,194.506 289.977,195.107 289.886 C 195.708 289.795,195.120 289.722,193.800 289.724 C 192.480 289.726,191.988 289.801,192.707 289.890 M205.107 289.890 C 205.826 289.979,206.906 289.977,207.507 289.886 C 208.108 289.795,207.520 289.722,206.200 289.724 C 204.880 289.726,204.388 289.801,205.107 289.890 " stroke="none" fill="#fcb444" fill-rule="evenodd"></path></g></svg>