<svg id="svg" version="1.1" xmlns="http://www.w3.org/2000/svg" xmlns:xlink="http://www.w3.org/1999/xlink" width="400" height="400" viewBox="0, 0, 400,400"><g id="svgg"><path id="path0" d="M127.200 50.615 C 86.655 55.609,55.404 87.089,50.576 127.800 C 49.861 133.827,49.724 258.869,50.422 268.200 C 53.746 312.636,87.382 346.183,132.030 349.588 C 144.230 350.519,270.698 349.701,276.400 348.655 C 314.398 341.681,341.742 314.345,348.648 276.427 C 349.484 271.838,350.355 144.553,349.629 133.200 C 346.813 89.221,315.399 55.699,272.200 50.576 C 265.477 49.779,133.701 49.814,127.200 50.615 M272.200 75.793 C 299.810 80.317,320.952 102.013,324.624 129.591 C 325.464 135.902,325.456 266.192,324.615 271.200 C 323.183 279.731,321.893 283.861,318.558 290.600 C 311.386 305.089,297.699 316.993,282.442 322.010 C 278.312 323.368,276.825 323.712,271.235 324.601 C 266.612 325.336,136.781 325.513,130.790 324.792 C 102.776 321.422,80.848 300.950,75.741 273.400 C 74.785 268.239,74.590 135.428,75.530 129.200 C 79.717 101.456,100.236 80.409,127.600 75.789 C 132.405 74.977,267.247 74.981,272.200 75.793 M272.819 107.195 C 262.248 111.086,259.381 125.273,267.609 132.970 C 275.960 140.781,289.097 137.392,292.773 126.479 C 296.776 114.597,284.621 102.850,272.819 107.195 M190.213 125.839 C 135.429 133.316,107.148 195.643,137.783 241.388 C 171.590 291.870,247.879 283.216,269.817 226.411 C 290.003 174.143,245.768 118.256,190.213 125.839 M208.600 150.627 C 247.694 157.406,263.727 205.487,236.533 234.394 C 212.869 259.549,170.904 253.493,155.348 222.678 C 136.818 185.972,168.128 143.608,208.600 150.627 " stroke="none" fill="#fbfbfb" fill-rule="evenodd"></path><path id="path1" d="M82.006 0.214 C 82.003 0.442,81.378 0.608,80.619 0.583 C 79.853 0.558,79.341 0.704,79.469 0.911 C 79.603 1.128,79.342 1.172,78.850 1.016 C 78.327 0.850,78.000 0.919,78.000 1.197 C 78.000 1.444,77.812 1.531,77.582 1.389 C 77.353 1.247,76.903 1.349,76.582 1.615 C 76.126 1.994,76.000 1.991,76.000 1.600 C 76.000 1.242,75.857 1.221,75.490 1.525 C 75.210 1.758,74.535 2.013,73.990 2.092 C 73.446 2.172,72.595 2.459,72.100 2.732 C 71.605 3.005,71.200 3.110,71.200 2.965 C 71.200 2.820,70.895 2.949,70.523 3.251 C 69.939 3.725,69.895 3.718,70.200 3.200 C 70.492 2.704,70.448 2.685,69.945 3.092 C 69.611 3.363,68.991 3.659,68.569 3.751 C 68.146 3.843,67.440 4.036,67.000 4.180 C 66.560 4.323,66.040 4.416,65.845 4.386 C 65.649 4.356,65.375 4.516,65.236 4.741 C 65.097 4.967,64.461 5.246,63.824 5.361 C 63.186 5.477,62.535 5.781,62.377 6.037 C 62.219 6.293,61.889 6.379,61.645 6.228 C 61.400 6.076,61.200 6.154,61.200 6.400 C 61.200 6.646,61.040 6.749,60.845 6.628 C 60.650 6.507,60.268 6.677,59.996 7.004 C 59.724 7.332,59.179 7.600,58.783 7.600 C 58.006 7.600,55.776 8.689,54.886 9.504 C 54.583 9.781,54.142 9.888,53.906 9.742 C 53.667 9.594,53.591 9.662,53.736 9.896 C 54.030 10.372,52.921 10.922,52.364 10.578 C 52.164 10.454,52.000 10.524,52.000 10.733 C 52.000 10.942,51.535 11.230,50.966 11.373 C 50.397 11.516,49.560 11.979,49.105 12.402 C 48.651 12.826,48.125 13.077,47.937 12.961 C 47.748 12.844,47.487 13.030,47.355 13.372 C 47.224 13.715,46.970 13.905,46.790 13.794 C 46.611 13.683,46.193 13.864,45.861 14.196 C 45.529 14.528,45.064 14.800,44.829 14.800 C 44.593 14.800,44.400 14.980,44.400 15.200 C 44.400 15.420,44.130 15.600,43.800 15.600 C 43.470 15.600,43.200 15.881,43.200 16.224 C 43.200 16.567,43.020 16.736,42.800 16.600 C 42.580 16.464,42.400 16.554,42.400 16.800 C 42.400 17.046,42.231 17.143,42.025 17.015 C 41.818 16.888,41.464 17.102,41.237 17.492 C 41.010 17.881,40.819 18.058,40.812 17.884 C 40.800 17.559,40.246 17.961,38.623 19.476 C 38.107 19.957,37.576 20.242,37.442 20.109 C 37.309 19.976,37.200 20.042,37.200 20.257 C 37.200 20.471,36.917 20.996,36.570 21.424 C 36.224 21.851,36.063 21.962,36.212 21.670 C 36.436 21.234,36.338 21.232,35.658 21.657 C 35.066 22.026,34.969 22.260,35.316 22.480 C 35.627 22.678,35.487 22.790,34.924 22.794 C 34.442 22.797,33.919 23.008,33.762 23.262 C 33.571 23.571,33.662 23.618,34.038 23.403 C 34.464 23.160,34.492 23.200,34.152 23.569 C 33.906 23.837,33.406 24.099,33.041 24.153 C 32.676 24.206,32.428 24.349,32.489 24.471 C 32.550 24.592,31.887 25.301,31.016 26.046 C 29.191 27.606,27.463 29.341,25.920 31.162 C 25.327 31.862,24.697 32.393,24.520 32.341 C 24.344 32.288,23.826 32.912,23.370 33.726 C 22.913 34.540,22.418 35.085,22.270 34.936 C 22.121 34.788,22.000 35.057,22.000 35.533 C 22.000 36.010,21.865 36.358,21.700 36.307 C 21.151 36.137,19.600 37.766,19.600 38.513 C 19.600 38.917,19.420 39.136,19.200 39.000 C 18.840 38.778,18.627 39.303,18.753 40.100 C 18.779 40.265,18.519 40.400,18.176 40.400 C 17.833 40.400,17.664 40.580,17.800 40.800 C 17.936 41.020,17.857 41.200,17.624 41.200 C 17.391 41.200,17.200 41.430,17.200 41.712 C 17.200 41.993,16.850 42.476,16.421 42.785 C 15.993 43.093,15.718 43.467,15.809 43.615 C 15.900 43.763,15.446 44.476,14.800 45.200 C 14.154 45.924,13.708 46.651,13.810 46.816 C 13.912 46.981,13.715 47.224,13.372 47.355 C 13.030 47.487,12.846 47.752,12.965 47.944 C 13.084 48.136,12.836 48.606,12.413 48.988 C 11.991 49.370,11.531 50.204,11.391 50.841 C 11.251 51.479,10.960 52.000,10.745 52.000 C 10.529 52.000,10.455 52.165,10.580 52.368 C 10.705 52.570,10.529 53.014,10.189 53.353 C 9.850 53.693,9.578 54.068,9.586 54.186 C 9.656 55.240,9.539 55.609,9.200 55.400 C 8.980 55.264,8.800 55.501,8.800 55.927 C 8.800 56.353,8.552 56.907,8.250 57.159 C 7.947 57.410,7.584 58.339,7.443 59.223 C 7.301 60.107,6.939 60.925,6.637 61.041 C 6.324 61.161,6.175 61.582,6.290 62.021 C 6.414 62.497,6.246 62.884,5.848 63.037 C 5.494 63.173,5.317 63.465,5.454 63.687 C 5.590 63.908,5.493 64.219,5.237 64.377 C 4.981 64.535,4.679 65.178,4.565 65.804 C 4.451 66.431,4.238 67.137,4.091 67.372 C 3.944 67.607,3.769 68.146,3.704 68.569 C 3.638 68.991,3.363 69.611,3.092 69.945 C 2.685 70.448,2.704 70.492,3.200 70.200 C 3.681 69.917,3.710 69.961,3.350 70.423 C 3.103 70.740,2.967 71.405,3.048 71.900 C 3.136 72.440,2.991 72.800,2.685 72.800 C 2.404 72.800,2.135 73.277,2.087 73.860 C 2.039 74.442,1.853 75.117,1.675 75.360 C 1.497 75.602,1.362 76.368,1.375 77.062 C 1.389 77.756,1.246 78.228,1.057 78.112 C 0.869 77.995,0.843 78.305,1.000 78.800 C 1.168 79.329,1.131 79.605,0.911 79.469 C 0.704 79.341,0.558 79.853,0.583 80.619 C 0.608 81.378,0.487 82.000,0.314 82.000 C 0.141 82.000,0.025 128.125,0.056 184.500 C 0.089 245.846,0.253 285.956,0.465 284.400 C 0.660 282.970,1.189 278.920,1.642 275.400 C 5.744 243.519,18.039 213.431,37.601 187.400 C 42.616 180.727,48.779 173.540,49.241 173.825 C 49.450 173.954,49.600 194.139,49.600 222.091 C 49.600 252.327,49.749 271.110,50.003 272.767 C 51.263 281.005,51.894 283.818,53.824 289.800 C 62.995 318.219,88.301 341.752,116.400 347.993 C 128.077 350.586,124.714 350.494,201.000 350.311 C 264.085 350.160,270.968 350.081,274.529 349.467 C 314.686 342.550,342.548 315.023,349.294 275.600 C 350.324 269.585,350.976 135.479,350.014 127.600 C 348.777 117.467,345.691 106.903,341.598 98.796 C 340.051 95.732,339.955 96.125,343.233 92.089 C 368.363 61.138,355.120 15.403,317.400 2.874 C 315.420 2.217,312.810 1.346,311.600 0.939 C 308.776 -0.010,82.805 -0.445,82.794 0.499 C 82.790 0.835,82.660 0.802,82.400 0.400 C 82.187 0.070,82.009 -0.014,82.006 0.214 M272.200 50.576 C 315.399 55.699,346.813 89.221,349.629 133.200 C 350.355 144.553,349.484 271.838,348.648 276.427 C 341.742 314.345,314.398 341.681,276.400 348.655 C 270.698 349.701,144.230 350.519,132.030 349.588 C 87.382 346.183,53.746 312.636,50.422 268.200 C 49.724 258.869,49.861 133.827,50.576 127.800 C 55.404 87.089,86.655 55.609,127.200 50.615 C 133.701 49.814,265.477 49.779,272.200 50.576 M127.600 75.789 C 100.236 80.409,79.717 101.456,75.530 129.200 C 74.590 135.428,74.785 268.239,75.741 273.400 C 80.848 300.950,102.776 321.422,130.790 324.792 C 136.781 325.513,266.612 325.336,271.235 324.601 C 276.825 323.712,278.312 323.368,282.442 322.010 C 297.699 316.993,311.386 305.089,318.558 290.600 C 321.893 283.861,323.183 279.731,324.615 271.200 C 325.456 266.192,325.464 135.902,324.624 129.591 C 320.952 102.013,299.810 80.317,272.200 75.793 C 267.247 74.981,132.405 74.977,127.600 75.789 M284.470 107.669 C 291.549 110.973,295.206 119.258,292.773 126.479 C 287.138 143.207,263.000 139.372,263.000 121.749 C 263.000 110.352,274.318 102.929,284.470 107.669 M319.880 114.400 C 321.574 118.634,322.312 121.068,323.457 126.200 C 324.608 131.357,325.296 262.143,324.215 270.225 C 320.311 299.413,297.717 321.357,268.400 324.434 C 262.096 325.096,130.034 324.341,127.000 323.625 C 125.900 323.366,123.830 322.878,122.400 322.539 C 101.032 317.488,82.512 298.968,77.461 277.600 C 77.122 276.170,76.621 274.100,76.347 273.000 C 75.962 271.459,75.817 257.085,75.712 210.312 L 75.575 149.624 78.488 147.470 C 105.224 127.698,140.267 115.240,176.000 112.803 C 183.225 112.311,264.400 112.263,264.400 112.752 C 264.400 112.945,263.918 114.157,263.329 115.444 C 259.451 123.914,264.196 134.305,273.274 137.224 C 286.537 141.488,298.511 127.799,292.673 115.047 C 291.395 112.256,291.084 112.400,298.367 112.398 C 304.497 112.397,309.667 111.809,313.800 110.645 C 317.786 109.521,317.975 109.638,319.880 114.400 M194.800 124.659 C 132.251 128.818,102.020 203.898,144.061 250.669 C 179.357 289.936,243.531 280.881,267.368 233.272 C 293.344 181.389,252.862 120.799,194.800 124.659 M208.036 125.627 C 273.777 133.964,298.113 214.049,248.008 257.166 C 208.503 291.161,145.662 273.425,129.076 223.600 C 111.987 172.265,154.996 118.900,208.036 125.627 M190.200 150.813 C 151.120 159.029,136.390 207.152,164.368 235.203 C 196.029 266.948,250.005 244.759,249.998 200.000 C 249.994 168.472,220.723 144.396,190.200 150.813 M205.400 150.985 C 235.190 154.575,254.838 182.441,247.995 211.400 C 247.579 213.160,247.122 215.230,246.978 216.000 C 244.932 226.964,229.231 243.065,217.200 246.538 C 196.311 252.567,178.743 248.562,165.000 234.636 C 136.151 205.405,153.123 156.460,194.000 151.000 C 199.111 150.317,199.847 150.316,205.400 150.985 " stroke="none" fill="#fb7c6c" fill-rule="evenodd"></path><path id="path2" d="M309.600 0.565 C 321.414 3.453,329.994 7.680,337.185 14.157 C 359.902 34.615,362.519 68.336,343.233 92.089 C 339.955 96.125,340.051 95.732,341.598 98.796 C 345.691 106.903,348.777 117.467,350.014 127.600 C 350.976 135.479,350.324 269.585,349.294 275.600 C 342.548 315.023,314.686 342.550,274.529 349.467 C 270.968 350.081,264.085 350.160,201.000 350.311 C 124.714 350.494,128.077 350.586,116.400 347.993 C 88.301 341.752,62.995 318.219,53.824 289.800 C 51.894 283.818,51.263 281.005,50.003 272.767 C 49.749 271.110,49.600 252.327,49.600 222.091 C 49.600 194.139,49.450 173.954,49.241 173.825 C 48.368 173.286,36.317 188.556,30.319 197.800 C 12.950 224.572,4.547 249.164,0.389 285.400 C -0.270 291.139,0.076 320.247,0.819 321.635 C 1.027 322.024,1.279 322.981,1.379 323.761 C 1.479 324.541,1.743 325.520,1.966 325.937 C 2.189 326.354,2.275 326.792,2.156 326.910 C 2.038 327.029,2.217 327.660,2.555 328.312 C 2.892 328.965,3.061 329.606,2.930 329.737 C 2.799 329.868,2.990 330.431,3.355 330.988 C 3.720 331.544,3.920 332.000,3.799 332.000 C 3.678 332.000,3.859 332.540,4.200 333.200 C 4.541 333.860,4.705 334.400,4.564 334.400 C 4.423 334.400,4.603 334.850,4.963 335.400 C 5.324 335.950,5.518 336.400,5.395 336.400 C 5.272 336.400,5.397 336.805,5.672 337.300 C 5.947 337.795,6.187 338.290,6.205 338.400 C 6.330 339.133,6.968 340.688,7.331 341.140 C 7.570 341.438,7.801 341.925,7.845 342.223 C 8.419 346.136,17.682 360.196,25.569 369.127 C 30.817 375.069,47.493 388.133,49.830 388.133 C 50.144 388.133,50.400 388.268,50.400 388.432 C 50.400 388.786,57.173 392.126,57.900 392.130 C 58.175 392.132,58.400 392.261,58.400 392.418 C 58.400 392.710,60.267 393.582,61.251 393.750 C 61.553 393.802,62.400 394.161,63.132 394.549 C 64.625 395.339,68.933 396.819,70.277 397.004 C 70.760 397.070,71.372 397.259,71.639 397.424 C 71.905 397.589,72.501 397.782,72.962 397.854 C 73.423 397.926,74.790 398.270,76.000 398.619 C 77.210 398.968,79.010 399.377,80.000 399.527 C 83.761 400.098,320.052 399.844,322.000 399.267 C 322.990 398.974,324.520 398.556,325.400 398.338 C 355.525 390.886,381.599 368.324,393.627 339.300 C 394.201 337.915,394.873 336.284,395.233 335.400 C 395.703 334.248,396.836 330.818,397.247 329.300 C 397.441 328.585,397.794 327.325,398.030 326.500 C 398.603 324.503,399.150 321.924,399.620 319.000 C 399.936 317.036,399.954 82.889,399.639 79.836 C 399.595 79.416,399.389 78.754,399.181 78.365 C 398.973 77.976,398.721 77.019,398.621 76.239 C 398.521 75.459,398.257 74.480,398.034 74.063 C 397.811 73.646,397.725 73.208,397.844 73.090 C 397.962 72.971,397.783 72.340,397.445 71.688 C 397.108 71.035,396.929 70.404,397.048 70.285 C 397.167 70.166,397.032 69.648,396.747 69.134 C 396.462 68.620,396.207 68.110,396.182 68.000 C 395.793 66.337,395.404 65.238,394.943 64.500 C 394.634 64.005,394.482 63.600,394.605 63.600 C 394.728 63.600,394.603 63.195,394.328 62.700 C 394.053 62.205,393.813 61.710,393.795 61.600 C 393.670 60.867,393.032 59.312,392.669 58.860 C 392.430 58.562,392.198 58.070,392.154 57.765 C 392.062 57.139,389.357 51.709,387.725 48.875 C 382.846 40.403,375.083 30.862,367.910 24.520 C 363.410 20.542,355.159 14.378,354.707 14.657 C 354.538 14.762,354.400 14.699,354.400 14.518 C 354.400 14.093,351.248 12.169,350.767 12.300 C 350.565 12.355,350.400 12.227,350.400 12.017 C 350.400 11.578,339.117 6.000,338.230 6.000 C 337.909 6.000,337.528 5.808,337.383 5.573 C 337.238 5.338,336.879 5.238,336.585 5.350 C 336.292 5.463,335.986 5.358,335.906 5.117 C 335.825 4.875,335.408 4.649,334.980 4.614 C 334.551 4.579,333.802 4.335,333.316 4.070 C 332.830 3.806,332.290 3.630,332.116 3.680 C 331.942 3.729,331.380 3.537,330.866 3.253 C 330.352 2.968,329.834 2.833,329.715 2.952 C 329.596 3.071,328.965 2.892,328.312 2.555 C 327.660 2.217,327.030 2.037,326.912 2.155 C 326.795 2.272,326.226 2.131,325.649 1.840 C 324.692 1.359,323.641 1.105,320.200 0.520 C 316.953 -0.031,307.328 0.009,309.600 0.565 M59.796 6.807 C 59.658 7.030,59.390 7.117,59.200 7.000 C 59.010 6.883,58.742 6.970,58.604 7.193 C 58.206 7.838,59.448 7.665,60.000 7.000 C 60.274 6.670,60.397 6.400,60.273 6.400 C 60.149 6.400,59.934 6.583,59.796 6.807 M54.243 9.414 C 53.905 9.752,53.528 10.009,53.404 9.984 C 52.889 9.883,52.221 10.313,52.472 10.584 C 52.776 10.912,55.200 9.606,55.200 9.114 C 55.200 8.645,54.926 8.731,54.243 9.414 M48.629 12.229 C 48.205 12.538,47.936 12.869,48.030 12.963 C 48.124 13.057,48.548 12.881,48.971 12.571 C 49.395 12.262,49.664 11.931,49.570 11.837 C 49.476 11.743,49.052 11.919,48.629 12.229 M42.392 16.210 C 42.114 16.545,42.002 16.935,42.143 17.076 C 42.284 17.218,42.400 17.113,42.400 16.843 C 42.400 16.573,42.580 16.464,42.800 16.600 C 43.020 16.736,43.200 16.567,43.200 16.224 C 43.200 15.442,43.031 15.439,42.392 16.210 M35.827 21.170 C 35.180 21.885,35.179 21.932,35.810 21.840 C 36.184 21.785,36.659 21.438,36.865 21.070 C 37.378 20.152,36.688 20.219,35.827 21.170 M33.643 22.955 C 32.576 24.090,32.562 24.556,33.611 23.994 C 34.057 23.755,34.325 23.402,34.205 23.209 C 34.086 23.015,34.396 22.798,34.894 22.725 C 35.626 22.618,35.674 22.542,35.143 22.325 C 34.724 22.155,34.179 22.384,33.643 22.955 M28.138 28.100 C 26.307 29.915,24.806 31.644,24.804 31.941 C 24.802 32.239,25.295 31.898,25.900 31.185 C 27.453 29.353,29.185 27.611,30.954 26.100 C 31.792 25.385,32.250 24.800,31.972 24.800 C 31.695 24.800,29.969 26.285,28.138 28.100 M22.811 33.787 C 22.543 34.109,22.393 34.580,22.477 34.832 C 22.561 35.084,22.845 34.820,23.107 34.245 C 23.640 33.074,23.537 32.912,22.811 33.787 M16.463 42.000 C 15.975 42.660,15.684 43.200,15.817 43.200 C 16.204 43.200,17.200 42.093,17.200 41.662 C 17.200 41.445,17.425 41.176,17.700 41.065 C 17.975 40.954,18.009 40.849,17.775 40.832 C 17.542 40.814,16.951 41.340,16.463 42.000 M14.869 44.439 C 14.110 45.654,14.566 45.816,15.355 44.612 C 15.720 44.056,15.878 43.600,15.705 43.600 C 15.533 43.600,15.157 43.978,14.869 44.439 M9.060 54.587 C 8.936 54.910,8.987 55.268,9.172 55.383 C 9.357 55.497,9.603 55.233,9.717 54.796 C 9.956 53.881,9.399 53.704,9.060 54.587 M8.056 56.655 C 7.576 57.727,7.586 57.758,8.218 57.139 C 8.589 56.776,8.820 56.260,8.731 55.994 C 8.642 55.727,8.339 56.025,8.056 56.655 M7.081 59.210 C 6.939 59.755,6.833 60.270,6.845 60.355 C 6.858 60.441,6.628 60.663,6.334 60.849 C 5.921 61.111,5.915 61.189,6.310 61.194 C 6.862 61.201,7.716 59.349,7.483 58.650 C 7.405 58.414,7.224 58.666,7.081 59.210 M2.400 72.000 C 2.062 72.632,2.096 72.800,2.561 72.800 C 2.904 72.800,3.125 72.465,3.090 72.000 C 3.057 71.560,2.984 71.200,2.929 71.200 C 2.874 71.200,2.635 71.560,2.400 72.000 M313.800 110.645 C 309.667 111.809,304.497 112.397,298.367 112.398 C 291.084 112.400,291.395 112.256,292.673 115.047 C 298.511 127.799,286.537 141.488,273.274 137.224 C 264.196 134.305,259.451 123.914,263.329 115.444 C 263.918 114.157,264.400 112.945,264.400 112.752 C 264.400 112.263,183.225 112.311,176.000 112.803 C 140.267 115.240,105.224 127.698,78.488 147.470 L 75.575 149.624 75.712 210.312 C 75.817 257.085,75.962 271.459,76.347 273.000 C 76.621 274.100,77.122 276.170,77.461 277.600 C 82.512 298.968,101.032 317.488,122.400 322.539 C 123.830 322.878,125.900 323.366,127.000 323.625 C 130.034 324.341,262.096 325.096,268.400 324.434 C 297.717 321.357,320.311 299.413,324.215 270.225 C 325.296 262.143,324.608 131.357,323.457 126.200 C 320.332 112.195,318.541 109.309,313.800 110.645 M205.800 124.793 C 259.131 128.954,291.257 185.558,267.368 233.272 C 243.531 280.881,179.357 289.936,144.061 250.669 C 98.538 200.025,138.031 119.505,205.800 124.793 M194.000 151.000 C 153.123 156.460,136.151 205.405,165.000 234.636 C 178.743 248.562,196.311 252.567,217.200 246.538 C 229.231 243.065,244.932 226.964,246.978 216.000 C 247.122 215.230,247.579 213.160,247.995 211.400 C 255.878 178.038,227.685 146.501,194.000 151.000 " stroke="none" fill="#fb3c54" fill-rule="evenodd"></path></g></svg>