<svg id="svg" version="1.1" xmlns="http://www.w3.org/2000/svg" xmlns:xlink="http://www.w3.org/1999/xlink" width="400" height="400" viewBox="0, 0, 400,400"><g id="svgg"><path id="path0" d="M94.752 69.423 C 70.307 73.849,60.513 103.240,77.488 121.235 C 94.171 138.919,123.997 131.273,130.008 107.770 C 135.577 85.994,116.691 65.452,94.752 69.423 M254.483 150.828 C 238.841 152.860,223.571 162.540,214.598 176.114 C 212.619 179.108,212.503 178.897,212.335 171.985 C 212.127 163.452,209.490 158.814,203.875 157.109 C 200.607 156.116,172.621 156.405,170.351 157.455 C 167.816 158.627,165.346 160.954,164.069 163.375 L 163.000 165.400 163.000 240.600 L 163.000 315.800 164.065 317.800 C 167.430 324.116,168.929 324.573,186.740 324.719 C 204.479 324.864,206.842 324.316,210.010 319.319 C 212.267 315.761,212.159 318.137,212.395 266.800 C 212.642 213.267,212.398 217.483,215.619 211.000 C 227.094 187.908,260.400 187.919,271.936 211.019 C 275.364 217.881,275.199 215.052,275.205 267.271 C 275.210 317.618,275.140 316.022,277.498 319.378 C 280.960 324.304,282.237 324.600,300.000 324.600 C 319.259 324.600,322.090 323.546,324.208 315.590 C 325.075 312.332,325.079 218.325,324.213 209.318 C 320.342 169.088,292.662 145.870,254.483 150.828 M83.733 157.140 C 81.205 158.014,79.128 159.554,77.562 161.716 C 75.040 165.197,75.181 160.224,75.296 241.417 L 75.400 315.400 76.255 317.249 C 77.482 319.903,79.728 322.208,82.336 323.488 L 84.600 324.600 100.000 324.600 L 115.400 324.600 117.664 323.488 C 120.272 322.208,122.518 319.903,123.745 317.249 L 124.600 315.400 124.704 241.417 C 124.819 160.131,124.965 165.204,122.409 161.676 C 120.806 159.463,118.415 157.778,115.804 157.018 C 112.433 156.038,86.638 156.137,83.733 157.140 " stroke="none" fill="#fbfbfb" fill-rule="evenodd"></path><path id="path1" d="M82.368 0.157 C 82.276 0.244,81.343 0.430,80.295 0.570 C 79.247 0.710,77.942 0.994,77.395 1.202 C 76.848 1.410,76.400 1.490,76.400 1.380 C 76.400 1.270,75.883 1.447,75.251 1.774 C 74.619 2.101,74.017 2.283,73.913 2.180 C 73.810 2.076,72.977 2.255,72.062 2.578 C 71.148 2.901,70.400 3.046,70.400 2.902 C 70.400 2.758,70.184 2.856,69.920 3.120 C 69.656 3.384,69.109 3.600,68.704 3.600 C 68.299 3.600,67.262 3.960,66.400 4.400 C 65.537 4.840,64.462 5.257,64.010 5.326 C 63.559 5.394,62.990 5.650,62.746 5.894 C 62.502 6.138,62.054 6.242,61.751 6.126 C 61.448 6.010,61.200 6.114,61.200 6.357 C 61.200 6.601,60.928 6.800,60.595 6.800 C 60.262 6.800,59.677 6.966,59.295 7.168 C 58.913 7.371,57.340 8.115,55.800 8.823 C 54.260 9.531,52.910 10.220,52.800 10.355 C 52.690 10.490,52.378 10.644,52.107 10.698 C 50.147 11.086,39.364 18.463,33.834 23.200 C 30.451 26.098,22.000 34.822,22.000 35.417 C 22.000 35.532,21.505 36.145,20.900 36.778 C 19.611 38.127,19.464 38.311,17.371 41.200 C 16.494 42.410,15.561 43.895,15.297 44.500 C 15.033 45.105,14.654 45.600,14.455 45.600 C 14.256 45.600,13.986 45.915,13.854 46.300 C 13.722 46.685,13.074 47.900,12.414 49.000 C 10.514 52.166,8.365 56.400,8.657 56.400 C 8.804 56.400,8.608 56.749,8.223 57.175 C 7.837 57.601,7.640 58.141,7.784 58.375 C 7.929 58.609,7.877 58.800,7.669 58.800 C 7.251 58.800,5.067 63.683,5.067 64.616 C 5.067 64.937,4.906 65.200,4.710 65.200 C 4.513 65.200,4.444 65.348,4.556 65.529 C 4.668 65.709,4.498 66.360,4.180 66.974 C 3.861 67.589,3.600 68.401,3.600 68.779 C 3.600 69.157,3.465 69.602,3.300 69.766 C 3.135 69.931,2.796 70.906,2.547 71.933 C 2.297 72.960,1.670 75.240,1.154 77.000 L 0.216 80.200 0.103 198.782 C 0.001 306.098,0.050 317.396,0.618 317.714 C 1.042 317.951,1.119 318.216,0.856 318.532 C 0.332 319.164,0.342 319.336,1.013 321.237 C 1.333 322.144,1.495 323.046,1.374 323.243 C 1.252 323.439,1.354 323.600,1.600 323.600 C 1.846 323.600,1.931 323.788,1.789 324.018 C 1.647 324.247,1.747 324.695,2.010 325.012 C 2.274 325.330,2.385 325.862,2.257 326.195 C 2.130 326.528,2.194 326.800,2.400 326.800 C 2.606 326.800,2.671 327.070,2.545 327.400 C 2.418 327.730,2.498 328.000,2.722 328.000 C 2.946 328.000,3.079 328.315,3.017 328.700 C 2.955 329.085,3.097 329.760,3.333 330.200 C 3.570 330.640,3.774 331.180,3.786 331.400 C 3.835 332.232,5.324 336.225,5.799 336.800 C 6.072 337.130,6.214 337.625,6.114 337.900 C 6.015 338.175,6.126 338.400,6.361 338.400 C 6.596 338.400,6.992 339.210,7.242 340.200 C 7.491 341.190,7.836 342.000,8.008 342.000 C 8.266 342.000,9.188 344.088,9.244 344.800 C 9.292 345.406,11.769 349.600,12.079 349.600 C 12.282 349.600,12.345 349.765,12.220 349.968 C 12.095 350.170,12.264 350.607,12.596 350.939 C 12.928 351.271,13.200 351.736,13.200 351.971 C 13.200 352.207,13.380 352.400,13.600 352.400 C 13.820 352.400,13.960 352.535,13.910 352.700 C 13.766 353.185,17.060 358.007,17.342 357.724 C 17.484 357.583,17.600 357.857,17.600 358.333 C 17.600 358.810,17.745 359.200,17.922 359.200 C 18.099 359.200,18.864 360.188,19.622 361.395 C 20.380 362.602,21.225 363.592,21.500 363.595 C 21.775 363.598,22.000 363.842,22.000 364.138 C 22.000 364.434,22.990 365.698,24.200 366.947 C 25.410 368.196,26.400 369.394,26.400 369.609 C 26.400 369.824,26.681 370.000,27.024 370.000 C 27.367 370.000,27.536 370.180,27.400 370.400 C 27.264 370.620,27.313 370.800,27.509 370.800 C 27.705 370.800,29.291 372.206,31.033 373.924 C 32.775 375.643,34.830 377.479,35.600 378.004 C 36.370 378.530,37.144 379.194,37.320 379.480 C 37.496 379.766,37.811 380.000,38.020 380.000 C 38.229 380.000,38.747 380.315,39.171 380.700 C 40.556 381.957,41.180 382.418,41.427 382.367 C 41.561 382.339,42.396 382.920,43.282 383.658 C 44.169 384.396,45.053 384.955,45.247 384.900 C 45.441 384.845,45.600 384.968,45.600 385.173 C 45.600 385.378,45.959 385.660,46.398 385.799 C 46.836 385.938,47.463 386.320,47.791 386.648 C 48.118 386.975,48.747 387.313,49.188 387.398 C 49.630 387.483,50.578 387.986,51.295 388.517 C 52.423 389.351,53.719 390.040,54.400 390.169 C 54.993 390.280,57.598 391.673,57.788 391.980 C 57.909 392.177,58.539 392.455,59.187 392.597 C 59.835 392.740,61.138 393.234,62.083 393.697 C 63.027 394.159,64.115 394.518,64.500 394.493 C 64.885 394.469,65.200 394.596,65.200 394.775 C 65.200 395.173,70.700 396.978,71.688 396.903 C 72.080 396.874,72.400 396.989,72.400 397.158 C 72.400 397.328,72.625 397.470,72.900 397.475 C 73.175 397.480,74.840 397.896,76.600 398.400 C 78.360 398.904,80.520 399.411,81.400 399.527 C 85.372 400.049,289.439 399.917,286.106 399.395 C 247.586 393.355,216.662 367.530,204.781 331.479 C 202.954 325.935,202.979 325.708,205.573 324.354 C 208.438 322.858,210.593 320.701,211.919 318.000 L 213.000 315.800 213.200 282.594 L 213.400 249.387 215.390 246.194 C 226.153 228.916,243.579 214.515,263.110 206.756 C 267.422 205.043,268.164 205.506,271.185 211.800 C 274.380 218.455,274.152 214.454,274.389 268.000 L 274.600 315.800 275.648 318.035 C 276.980 320.875,279.125 323.020,281.965 324.352 L 284.200 325.400 300.000 325.400 L 315.800 325.400 318.035 324.352 C 320.875 323.020,323.020 320.875,324.352 318.035 L 325.400 315.800 325.523 264.400 C 325.647 212.220,325.572 208.738,324.150 200.901 C 323.424 196.896,323.355 197.018,326.916 196.000 C 365.978 184.834,392.816 153.448,399.087 111.600 C 399.832 106.629,400.282 82.178,399.621 82.587 C 399.436 82.702,399.183 82.532,399.059 82.211 C 398.936 81.889,398.991 81.529,399.182 81.411 C 399.373 81.293,399.488 80.973,399.437 80.698 C 399.049 78.586,398.677 77.629,398.328 77.845 C 398.087 77.994,398.106 77.750,398.374 77.248 C 398.698 76.644,398.702 76.400,398.390 76.400 C 398.150 76.400,398.069 76.212,398.211 75.982 C 398.353 75.753,398.262 75.315,398.008 75.010 C 397.755 74.705,397.533 73.909,397.514 73.242 C 397.495 72.574,397.326 72.122,397.138 72.238 C 396.951 72.354,396.865 72.033,396.948 71.524 C 397.030 71.016,396.903 70.240,396.664 69.800 C 396.425 69.360,396.275 68.846,396.329 68.658 C 396.384 68.470,396.274 68.110,396.086 67.858 C 395.898 67.606,395.494 66.590,395.189 65.600 C 394.883 64.610,394.509 63.710,394.357 63.600 C 394.205 63.490,394.017 63.040,393.940 62.600 C 393.863 62.160,393.582 61.569,393.316 61.287 C 393.049 61.005,392.714 60.150,392.571 59.387 C 392.428 58.624,392.158 58.000,391.971 58.000 C 391.784 58.000,391.439 57.288,391.205 56.418 C 390.971 55.548,390.501 54.558,390.161 54.218 C 389.821 53.878,389.656 53.600,389.795 53.600 C 389.933 53.600,389.548 52.713,388.938 51.629 C 388.329 50.545,387.690 49.744,387.520 49.850 C 387.349 49.955,387.302 49.801,387.414 49.507 C 387.527 49.213,387.251 48.577,386.801 48.094 C 386.351 47.611,386.002 47.112,386.025 46.985 C 386.080 46.675,383.079 42.235,382.700 42.067 C 382.535 41.993,382.400 41.673,382.400 41.354 C 382.400 41.036,382.130 40.671,381.800 40.545 C 381.470 40.418,381.200 40.072,381.200 39.775 C 381.200 39.479,380.750 38.786,380.200 38.236 C 379.650 37.686,379.200 37.069,379.200 36.865 C 379.200 36.660,378.835 36.398,378.389 36.281 C 377.942 36.164,377.611 35.918,377.652 35.734 C 377.789 35.125,377.122 34.001,376.758 34.226 C 376.561 34.348,376.400 34.200,376.400 33.897 C 376.400 33.595,375.770 32.789,375.000 32.108 C 374.230 31.426,373.600 30.673,373.600 30.434 C 373.600 30.195,373.453 30.000,373.274 30.000 C 373.094 30.000,371.087 28.197,368.813 25.994 C 366.540 23.790,364.588 22.079,364.476 22.190 C 364.156 22.510,363.184 21.550,363.428 21.155 C 363.549 20.960,363.444 20.800,363.195 20.800 C 362.946 20.800,362.471 20.528,362.139 20.196 C 361.807 19.864,361.342 19.712,361.106 19.858 C 360.851 20.016,360.793 19.936,360.962 19.661 C 361.136 19.380,360.847 19.046,360.224 18.809 C 359.661 18.595,359.200 18.225,359.200 17.986 C 359.200 17.748,359.052 17.644,358.871 17.756 C 358.691 17.868,358.253 17.653,357.899 17.280 C 356.863 16.185,356.099 15.634,355.897 15.837 C 355.793 15.940,355.279 15.573,354.754 15.019 C 354.229 14.466,353.588 14.011,353.329 14.007 C 353.069 14.003,352.591 13.734,352.266 13.408 C 351.352 12.495,347.948 10.785,347.542 11.036 C 347.343 11.159,347.230 11.021,347.290 10.730 C 347.360 10.391,347.067 10.236,346.477 10.299 C 345.944 10.357,345.658 10.230,345.800 9.999 C 346.022 9.640,345.497 9.427,344.700 9.553 C 344.535 9.579,344.400 9.420,344.400 9.200 C 344.400 8.980,344.124 8.800,343.786 8.800 C 343.448 8.800,342.728 8.509,342.186 8.154 C 341.644 7.799,341.200 7.647,341.200 7.816 C 341.200 7.985,340.856 7.812,340.435 7.432 C 340.014 7.051,339.429 6.694,339.135 6.638 C 338.620 6.541,336.173 5.496,334.684 4.738 C 334.290 4.537,333.807 4.472,333.611 4.593 C 333.416 4.714,333.140 4.627,333.000 4.400 C 332.860 4.173,332.577 4.091,332.372 4.217 C 332.168 4.344,332.000 4.246,332.000 4.000 C 332.000 3.754,331.812 3.669,331.582 3.811 C 331.353 3.953,330.912 3.859,330.603 3.603 C 330.295 3.347,329.447 3.044,328.721 2.931 C 327.994 2.818,327.220 2.579,327.000 2.400 C 326.780 2.221,325.700 1.942,324.600 1.781 C 323.500 1.619,321.970 1.272,321.200 1.010 C 320.430 0.748,319.305 0.566,318.700 0.605 C 318.095 0.644,317.600 0.525,317.600 0.341 C 317.600 0.017,82.709 -0.167,82.368 0.157 M107.790 68.987 C 121.969 72.584,131.994 85.429,131.994 100.000 C 131.994 129.797,93.588 143.226,75.020 119.922 C 56.060 96.124,78.328 61.514,107.790 68.987 M272.353 150.205 C 299.264 154.030,317.772 171.084,322.974 196.849 C 325.188 207.813,325.192 207.949,325.196 263.485 L 325.200 314.770 324.338 317.073 C 323.176 320.180,320.180 323.176,317.073 324.338 C 313.518 325.668,286.482 325.668,282.927 324.338 C 279.820 323.176,276.824 320.180,275.662 317.073 L 274.800 314.770 274.791 268.485 C 274.781 215.694,274.951 218.525,271.371 211.264 C 259.528 187.239,223.566 189.384,214.777 214.640 C 213.041 219.628,213.066 218.949,212.829 268.000 L 212.600 315.400 211.541 317.659 C 210.260 320.390,208.064 322.654,205.388 324.000 L 203.400 325.000 187.685 325.113 L 171.970 325.227 169.426 324.012 C 166.503 322.617,164.722 320.776,163.240 317.618 L 162.200 315.400 162.200 240.592 L 162.200 165.783 163.520 163.102 C 166.777 156.486,168.434 156.000,187.740 156.000 L 203.072 156.000 205.503 157.215 C 210.923 159.923,212.800 163.574,212.800 171.411 C 212.800 177.630,212.813 177.645,215.200 174.104 C 227.003 156.592,249.906 147.014,272.353 150.205 M116.943 156.642 C 119.338 157.459,122.713 160.522,124.006 163.055 L 125.000 165.000 125.000 240.600 L 125.000 316.200 124.031 318.169 C 122.797 320.676,120.676 322.797,118.169 324.031 L 116.200 325.000 100.000 325.000 L 83.800 325.000 81.834 324.032 C 79.264 322.767,76.910 320.317,75.740 317.689 L 74.800 315.577 74.800 240.860 C 74.800 155.510,74.409 163.931,78.569 159.765 C 82.319 156.010,81.987 156.069,99.829 156.032 C 112.821 156.005,115.334 156.094,116.943 156.642 " stroke="none" fill="#366ebe" fill-rule="evenodd"></path><path id="path2" d="M340.102 7.079 C 340.488 7.512,341.073 7.867,341.402 7.867 C 342.279 7.867,342.148 7.696,340.700 6.956 C 339.415 6.298,339.408 6.300,340.102 7.079 M342.600 8.400 C 342.736 8.620,343.242 8.787,343.724 8.772 C 344.569 8.745,344.571 8.731,343.800 8.400 C 342.699 7.927,342.308 7.927,342.600 8.400 M344.585 9.225 C 344.450 9.442,344.489 9.594,344.670 9.563 C 345.480 9.422,346.027 9.633,345.800 10.000 C 345.664 10.220,345.733 10.400,345.953 10.400 C 346.818 10.400,346.723 9.693,345.802 9.274 C 345.171 8.986,344.743 8.969,344.585 9.225 M350.534 12.094 C 350.937 12.372,351.640 12.915,352.095 13.300 C 352.550 13.685,353.120 13.994,353.361 13.987 C 353.927 13.971,352.547 12.905,351.000 12.164 C 350.328 11.842,350.123 11.811,350.534 12.094 M45.144 14.424 L 44.200 15.247 45.400 14.545 C 46.979 13.620,47.003 13.600,46.511 13.600 C 46.279 13.600,45.664 13.971,45.144 14.424 M354.236 14.548 C 354.438 15.076,355.444 15.717,355.714 15.489 C 355.841 15.382,357.009 16.339,357.899 17.280 C 358.253 17.653,358.691 17.868,358.871 17.756 C 359.052 17.644,359.200 17.748,359.200 17.986 C 359.200 18.225,359.661 18.595,360.224 18.809 C 360.847 19.046,361.136 19.380,360.962 19.661 C 360.793 19.936,360.851 20.016,361.106 19.858 C 361.342 19.712,361.829 19.886,362.187 20.244 C 362.545 20.602,362.930 20.803,363.043 20.691 C 363.155 20.578,361.392 19.145,359.124 17.506 C 354.129 13.896,353.942 13.783,354.236 14.548 M363.428 21.155 C 363.307 21.350,363.477 21.732,363.804 22.004 C 364.132 22.276,364.400 22.364,364.400 22.200 C 364.400 22.036,364.715 22.144,365.100 22.439 C 365.485 22.734,365.364 22.486,364.830 21.888 C 363.743 20.668,363.732 20.663,363.428 21.155 M33.375 23.300 L 32.200 24.600 33.500 23.425 C 34.215 22.779,34.800 22.194,34.800 22.125 C 34.800 21.816,34.470 22.088,33.375 23.300 M366.000 23.001 C 366.000 23.386,372.875 30.000,373.276 30.000 C 373.878 30.000,373.608 29.706,369.800 26.210 C 367.710 24.292,366.000 22.848,366.000 23.001 M30.000 26.200 C 29.483 26.750,29.206 27.200,29.383 27.200 C 29.684 27.200,31.200 25.647,31.200 25.339 C 31.200 25.029,30.894 25.249,30.000 26.200 M26.600 29.600 C 25.968 30.260,25.587 30.800,25.754 30.800 C 26.071 30.800,26.623 30.277,27.549 29.098 C 28.421 27.990,27.858 28.287,26.600 29.600 M373.600 30.538 C 373.600 30.682,373.960 31.160,374.400 31.600 C 374.840 32.040,375.200 32.248,375.200 32.062 C 375.200 31.876,374.840 31.398,374.400 31.000 C 373.960 30.602,373.600 30.394,373.600 30.538 M377.425 34.800 C 377.625 35.130,377.791 35.565,377.794 35.767 C 377.797 35.968,378.025 36.208,378.300 36.300 C 379.093 36.564,378.881 35.795,377.931 34.962 C 377.405 34.500,377.205 34.436,377.425 34.800 M381.082 39.500 C 381.224 39.885,381.578 40.344,381.870 40.520 C 382.161 40.696,382.400 41.086,382.400 41.387 C 382.400 41.687,382.535 41.993,382.700 42.067 C 383.083 42.237,386.218 46.888,386.146 47.181 C 386.117 47.301,386.455 47.760,386.898 48.200 L 387.704 49.000 387.193 48.000 C 386.563 46.765,381.179 38.800,380.974 38.800 C 380.892 38.800,380.941 39.115,381.082 39.500 M387.362 49.662 C 387.185 49.948,387.252 50.015,387.538 49.838 C 387.792 49.681,388.000 49.709,388.000 49.900 C 388.000 50.091,388.279 50.596,388.619 51.024 C 389.166 51.709,389.165 51.648,388.609 50.500 C 387.917 49.071,387.783 48.981,387.362 49.662 M391.207 56.424 C 391.423 57.178,391.600 57.841,391.600 57.897 C 391.600 57.954,391.776 58.000,391.991 58.000 C 392.228 58.000,392.198 57.566,391.915 56.900 C 391.187 55.186,390.772 54.907,391.207 56.424 M392.400 58.860 C 392.400 59.528,393.331 61.600,393.631 61.600 C 393.824 61.600,393.773 61.105,393.515 60.500 C 393.047 59.398,392.400 58.447,392.400 58.860 M397.524 72.609 C 397.209 72.924,397.638 74.776,398.091 75.056 C 398.339 75.209,398.372 74.947,398.180 74.350 C 398.012 73.828,397.873 73.175,397.870 72.900 C 397.866 72.342,397.826 72.308,397.524 72.609 M399.515 108.000 C 399.359 108.770,399.026 111.020,398.777 113.000 C 393.860 152.054,365.316 185.023,326.916 196.000 C 323.355 197.018,323.424 196.896,324.150 200.901 C 325.572 208.738,325.647 212.220,325.523 264.400 L 325.400 315.800 324.352 318.035 C 323.020 320.875,320.875 323.020,318.035 324.352 L 315.800 325.400 300.000 325.400 L 284.200 325.400 281.965 324.352 C 279.125 323.020,276.980 320.875,275.648 318.035 L 274.600 315.800 274.389 268.000 C 274.152 214.454,274.380 218.455,271.185 211.800 C 268.164 205.506,267.422 205.043,263.110 206.756 C 243.579 214.515,226.153 228.916,215.390 246.194 L 213.400 249.387 213.200 282.594 L 213.000 315.800 211.919 318.000 C 210.593 320.701,208.438 322.858,205.573 324.354 C 202.979 325.708,202.954 325.935,204.781 331.479 C 216.838 368.065,249.044 394.493,287.800 399.603 C 292.387 400.208,320.409 399.955,322.200 399.293 C 322.860 399.049,324.210 398.644,325.200 398.393 C 331.425 396.816,339.376 393.926,338.908 393.410 C 338.738 393.224,338.833 393.206,339.118 393.370 C 339.402 393.535,339.897 393.451,340.218 393.185 C 340.538 392.920,340.800 392.802,340.800 392.924 C 340.800 393.046,343.275 391.911,346.300 390.402 C 354.297 386.413,364.792 379.190,364.806 377.666 C 364.811 377.151,364.889 377.121,365.149 377.531 C 365.400 377.927,365.837 377.650,366.881 376.431 C 367.649 375.534,368.469 374.800,368.703 374.800 C 369.291 374.800,377.600 365.933,377.600 365.306 C 377.600 365.028,377.761 364.800,377.957 364.800 C 378.855 364.800,385.390 355.546,384.886 354.988 C 384.729 354.814,384.795 354.783,385.033 354.918 C 385.619 355.252,391.867 344.400,391.373 343.907 C 391.267 343.801,391.455 343.486,391.790 343.208 C 392.126 342.930,392.400 342.542,392.400 342.347 C 392.400 342.151,392.776 341.192,393.235 340.214 C 393.695 339.237,393.966 338.268,393.838 338.061 C 393.709 337.853,393.874 337.581,394.202 337.454 C 394.531 337.328,394.800 336.947,394.800 336.607 C 394.800 336.267,394.971 335.677,395.181 335.295 C 395.535 334.650,396.373 332.169,397.601 328.130 C 397.880 327.211,397.996 326.167,397.859 325.809 C 397.717 325.440,397.775 325.261,397.993 325.396 C 398.204 325.526,398.461 325.220,398.564 324.716 C 398.667 324.212,398.863 323.260,398.999 322.600 C 399.135 321.940,399.417 320.320,399.625 319.000 C 400.068 316.196,399.958 105.823,399.515 108.000 M6.485 339.500 C 7.213 341.214,7.628 341.493,7.193 339.976 C 6.977 339.222,6.800 338.559,6.800 338.503 C 6.800 338.446,6.624 338.400,6.409 338.400 C 6.172 338.400,6.202 338.834,6.485 339.500 M8.180 343.287 C 8.477 343.995,8.901 344.634,9.121 344.707 C 9.341 344.780,9.231 344.201,8.877 343.420 C 8.074 341.649,7.440 341.528,8.180 343.287 M11.362 349.500 C 12.074 350.906,12.267 351.077,12.266 350.300 C 12.265 350.025,11.914 349.440,11.484 349.000 C 10.708 348.205,10.707 348.208,11.362 349.500 M12.959 352.300 C 13.783 353.863,14.772 355.080,14.787 354.549 C 14.794 354.301,14.532 353.876,14.204 353.604 C 13.877 353.332,13.707 352.950,13.828 352.755 C 13.949 352.560,13.857 352.400,13.624 352.400 C 13.391 352.400,13.200 352.130,13.200 351.800 C 13.200 351.470,13.015 351.200,12.790 351.200 C 12.550 351.200,12.621 351.658,12.959 352.300 M16.720 358.000 C 17.856 359.650,19.242 361.540,19.800 362.200 L 20.816 363.400 20.021 361.990 C 19.585 361.215,18.861 360.187,18.414 359.707 C 17.966 359.226,17.600 358.545,17.600 358.193 C 17.600 357.841,17.433 357.656,17.229 357.782 C 17.025 357.908,16.750 357.673,16.619 357.259 C 16.487 356.844,15.991 356.167,15.517 355.753 C 15.043 355.339,15.584 356.350,16.720 358.000 M23.200 366.254 C 23.200 366.465,23.920 367.341,24.800 368.200 C 25.680 369.059,26.400 369.643,26.400 369.498 C 26.400 369.353,25.680 368.477,24.800 367.552 C 23.920 366.627,23.200 366.043,23.200 366.254 M29.600 373.208 C 33.805 377.133,34.563 377.405,30.689 373.600 C 29.121 372.060,27.684 370.800,27.496 370.800 C 27.307 370.800,27.264 370.620,27.400 370.400 C 27.536 370.180,27.322 370.008,26.924 370.017 C 26.439 370.029,27.325 371.085,29.600 373.208 M34.545 377.511 C 34.842 377.991,43.320 384.418,44.400 384.982 C 44.730 385.154,44.201 384.564,43.224 383.671 C 42.248 382.777,41.303 382.137,41.124 382.247 C 40.946 382.357,40.800 382.269,40.800 382.051 C 40.800 381.832,40.437 381.539,39.994 381.398 C 39.551 381.257,39.309 380.948,39.456 380.709 C 39.615 380.451,39.537 380.392,39.262 380.562 C 39.008 380.719,38.800 380.657,38.800 380.424 C 38.800 380.191,38.539 380.000,38.220 380.000 C 37.901 380.000,37.496 379.766,37.320 379.480 C 37.144 379.194,36.382 378.528,35.628 378.001 C 34.873 377.474,34.386 377.253,34.545 377.511 M45.200 385.118 C 45.200 385.325,45.914 385.966,46.786 386.543 C 47.775 387.198,48.288 387.374,48.149 387.012 C 48.026 386.692,47.584 386.322,47.165 386.189 C 46.747 386.056,46.134 385.677,45.802 385.345 C 45.471 385.014,45.200 384.912,45.200 385.118 M49.004 387.593 C 48.778 387.959,49.298 388.174,50.100 388.047 C 50.265 388.021,50.400 388.172,50.400 388.381 C 50.400 388.591,51.075 389.071,51.900 389.448 C 52.725 389.826,53.563 390.222,53.762 390.329 C 53.961 390.436,53.995 390.316,53.838 390.062 C 53.681 389.808,53.355 389.600,53.114 389.600 C 52.873 389.600,52.119 389.182,51.438 388.672 C 49.590 387.286,49.279 387.148,49.004 387.593 M54.400 390.406 C 54.400 390.623,54.670 390.800,55.000 390.800 C 55.330 390.800,55.600 390.941,55.600 391.112 C 55.600 391.284,56.141 391.629,56.803 391.879 C 57.464 392.128,57.915 392.186,57.805 392.008 C 57.450 391.433,54.400 389.999,54.400 390.406 M58.416 392.533 C 58.656 392.792,64.146 395.127,65.400 395.504 C 66.114 395.719,66.135 395.680,65.595 395.139 C 65.263 394.806,64.723 394.530,64.395 394.525 C 64.068 394.521,62.990 394.146,62.000 393.691 C 60.060 392.800,58.065 392.156,58.416 392.533 M67.200 395.923 C 67.200 396.078,67.823 396.399,68.584 396.637 C 69.344 396.875,69.885 396.937,69.784 396.775 C 69.523 396.351,67.200 395.586,67.200 395.923 M71.600 397.200 C 71.600 397.529,72.026 397.705,72.500 397.572 C 72.555 397.556,73.140 397.748,73.800 397.997 C 74.667 398.325,74.878 398.327,74.560 398.005 C 74.317 397.760,73.732 397.530,73.260 397.495 C 72.787 397.459,72.400 397.288,72.400 397.115 C 72.400 396.942,72.220 396.800,72.000 396.800 C 71.780 396.800,71.600 396.980,71.600 397.200 " stroke="none" fill="#0c4c9c" fill-rule="evenodd"></path><path id="path3" d="M93.232 68.642 C 70.176 73.684,60.311 101.459,75.020 119.922 C 93.588 143.226,131.994 129.797,131.994 100.000 C 131.994 79.823,112.866 64.348,93.232 68.642 M105.016 69.414 C 130.599 73.875,139.930 105.044,120.980 122.741 C 106.604 136.167,83.338 132.711,73.197 115.642 C 59.935 93.319,79.456 64.957,105.016 69.414 M254.200 150.186 C 238.358 152.696,223.478 161.822,215.200 174.104 C 212.813 177.645,212.800 177.630,212.800 171.411 C 212.800 163.574,210.923 159.923,205.503 157.215 L 203.072 156.000 187.740 156.000 C 168.434 156.000,166.777 156.486,163.520 163.102 L 162.200 165.783 162.200 240.592 L 162.200 315.400 163.240 317.618 C 164.722 320.776,166.503 322.617,169.426 324.012 L 171.970 325.227 187.685 325.113 L 203.400 325.000 205.388 324.000 C 208.064 322.654,210.260 320.390,211.541 317.659 L 212.600 315.400 212.829 268.000 C 213.066 218.949,213.041 219.628,214.777 214.640 C 223.566 189.384,259.528 187.239,271.371 211.264 C 274.951 218.525,274.781 215.694,274.791 268.485 L 274.800 314.770 275.662 317.073 C 276.824 320.180,279.820 323.176,282.927 324.338 C 286.482 325.668,313.518 325.668,317.073 324.338 C 320.180 323.176,323.176 320.180,324.338 317.073 L 325.200 314.770 325.196 263.485 C 325.192 207.949,325.188 207.813,322.974 196.849 C 316.598 165.266,286.768 145.027,254.200 150.186 M271.610 150.821 C 302.589 154.670,320.916 175.051,324.213 209.318 C 325.079 218.325,325.075 312.332,324.208 315.590 C 322.090 323.546,319.259 324.600,300.000 324.600 C 282.237 324.600,280.960 324.304,277.498 319.378 C 275.140 316.022,275.210 317.618,275.205 267.271 C 275.199 215.052,275.364 217.881,271.936 211.019 C 260.400 187.919,227.094 187.908,215.619 211.000 C 212.398 217.483,212.642 213.267,212.395 266.800 C 212.159 318.137,212.267 315.761,210.010 319.319 C 206.842 324.316,204.479 324.864,186.740 324.719 C 168.929 324.573,167.430 324.116,164.065 317.800 L 163.000 315.800 163.000 240.600 L 163.000 165.400 164.069 163.375 C 165.346 160.954,167.816 158.627,170.351 157.455 C 172.621 156.405,200.607 156.116,203.875 157.109 C 209.490 158.814,212.127 163.452,212.335 171.985 C 212.503 178.897,212.619 179.108,214.598 176.114 C 226.918 157.477,248.417 147.939,271.610 150.821 M82.800 156.697 C 80.259 157.592,76.348 161.579,75.469 164.171 C 74.853 165.986,74.800 172.092,74.800 240.860 L 74.800 315.577 75.740 317.689 C 76.910 320.317,79.264 322.767,81.834 324.032 L 83.800 325.000 100.000 325.000 L 116.200 325.000 118.169 324.031 C 120.676 322.797,122.797 320.676,124.031 318.169 L 125.000 316.200 125.000 240.600 L 125.000 165.000 124.006 163.055 C 122.713 160.522,119.338 157.459,116.943 156.642 C 114.167 155.697,85.511 155.742,82.800 156.697 M115.804 157.018 C 118.415 157.778,120.806 159.463,122.409 161.676 C 124.965 165.204,124.819 160.131,124.704 241.417 L 124.600 315.400 123.745 317.249 C 122.518 319.903,120.272 322.208,117.664 323.488 L 115.400 324.600 100.000 324.600 L 84.600 324.600 82.336 323.488 C 79.728 322.208,77.482 319.903,76.255 317.249 L 75.400 315.400 75.296 241.417 C 75.181 160.224,75.040 165.197,77.562 161.716 C 79.128 159.554,81.205 158.014,83.733 157.140 C 86.638 156.137,112.433 156.038,115.804 157.018 " stroke="none" fill="#7c9ece" fill-rule="evenodd"></path></g></svg>