<svg id="svg" version="1.1" xmlns="http://www.w3.org/2000/svg" xmlns:xlink="http://www.w3.org/1999/xlink" width="400" height="400" viewBox="0, 0, 400,400"><g id="svgg"><path id="path0" d="M41.464 1.241 C 39.240 2.714,37.567 4.655,36.357 7.167 C 35.871 8.175,35.322 9.313,35.137 9.695 C 34.952 10.077,34.800 14.082,34.800 18.595 L 34.800 26.800 23.071 26.800 C 7.915 26.800,5.636 27.505,1.300 33.533 L 0.000 35.341 0.000 55.241 L 0.000 75.142 1.491 76.371 C 3.128 77.720,4.050 77.903,4.779 77.026 C 5.041 76.710,5.745 76.344,6.344 76.212 C 11.316 75.120,11.581 74.107,11.591 56.129 L 11.600 41.258 12.654 40.429 C 13.988 39.380,35.100 39.116,35.949 40.138 C 36.275 40.532,36.423 83.662,36.498 200.838 L 36.600 361.000 37.639 363.200 C 39.673 367.508,43.579 370.390,48.455 371.181 C 51.707 371.709,129.923 371.737,132.200 371.212 C 137.087 370.084,138.011 363.281,133.588 360.994 C 132.594 360.480,126.874 360.400,91.074 360.400 C 49.831 360.400,49.705 360.398,48.654 359.571 L 47.600 358.742 47.600 185.833 C 47.600 18.830,47.625 12.901,48.331 12.262 C 49.110 11.558,273.190 11.205,274.240 11.906 C 275.592 12.809,275.600 13.228,275.594 81.674 C 275.591 118.923,275.451 149.615,275.284 149.878 C 275.117 150.141,273.094 150.977,270.790 151.736 C 257.638 156.066,246.420 162.551,235.434 172.176 L 232.667 174.600 153.034 174.800 L 73.400 175.000 72.131 175.905 C 68.982 178.151,69.130 183.057,72.405 184.981 C 73.796 185.797,74.036 185.800,147.584 185.904 C 188.166 185.962,221.515 186.155,221.693 186.333 C 221.872 186.512,220.907 188.348,219.548 190.414 C 218.189 192.480,216.023 196.067,214.734 198.385 L 212.390 202.600 142.895 202.800 L 73.400 203.000 72.131 203.905 C 68.770 206.302,69.124 211.249,72.788 213.100 L 74.570 214.000 140.937 214.000 L 207.304 214.000 207.076 215.700 C 206.951 216.635,206.408 219.020,205.869 221.000 C 205.330 222.980,204.653 225.860,204.364 227.400 C 204.075 228.940,203.649 230.332,203.419 230.494 C 203.189 230.656,174.103 230.791,138.785 230.794 L 74.570 230.800 72.788 231.700 C 68.986 233.620,68.771 238.846,72.405 240.981 C 73.791 241.795,74.197 241.801,138.200 242.000 L 202.600 242.200 202.867 248.941 C 203.014 252.649,203.239 256.100,203.367 256.610 C 203.961 258.976,209.172 258.799,138.657 258.807 L 74.200 258.813 72.611 259.713 C 68.771 261.888,68.869 267.121,72.788 269.100 L 74.570 270.000 140.093 270.000 L 205.617 270.000 205.987 270.900 C 206.190 271.395,206.795 273.240,207.331 275.000 C 207.867 276.760,208.957 279.810,209.753 281.778 C 210.549 283.745,211.200 285.680,211.200 286.078 C 211.200 286.771,208.483 286.800,142.885 286.800 L 74.570 286.800 72.788 287.700 C 68.757 289.736,68.757 295.064,72.788 297.100 L 74.570 298.000 146.266 298.000 L 217.962 298.000 219.254 299.900 C 221.467 303.152,224.995 307.673,227.753 310.793 C 229.209 312.438,230.400 314.012,230.400 314.289 C 230.400 314.691,214.711 314.813,152.100 314.896 C 74.001 315.000,73.796 315.002,72.405 315.819 C 69.130 317.743,68.982 322.649,72.131 324.895 L 73.400 325.800 159.204 326.000 L 245.008 326.200 248.204 328.247 C 254.902 332.536,263.805 336.768,270.734 338.956 C 276.195 340.680,275.661 339.463,275.521 349.861 C 275.401 358.781,275.390 358.880,274.456 359.636 C 273.536 360.380,271.967 360.400,213.140 360.400 C 154.072 360.400,152.735 360.417,151.239 361.180 C 147.491 363.092,147.516 368.624,151.282 370.681 C 152.524 371.359,155.090 371.406,195.895 371.509 L 239.189 371.617 239.430 372.575 C 240.041 375.012,239.424 386.691,238.638 387.559 L 237.876 388.400 125.400 388.400 C 17.076 388.400,12.900 388.373,12.264 387.671 C 11.654 386.997,11.597 375.846,11.502 239.371 C 11.401 92.605,11.396 91.793,10.600 90.462 C 9.834 89.181,7.446 87.600,6.278 87.600 C 5.973 87.600,5.416 87.260,5.039 86.843 C 4.216 85.934,3.128 86.118,1.300 87.475 L 0.000 88.441 0.000 240.575 L 0.000 392.710 1.300 394.639 C 2.015 395.701,3.552 397.341,4.715 398.284 L 6.830 400.000 125.355 400.000 L 243.880 400.000 245.464 398.853 C 250.950 394.879,252.093 391.982,252.315 381.500 L 252.491 373.200 263.983 373.200 C 276.646 373.200,278.177 372.972,281.640 370.572 C 287.049 366.824,288.763 362.236,288.786 351.448 L 288.800 344.696 290.700 345.021 C 304.727 347.421,328.518 343.421,344.200 336.025 C 368.342 324.640,388.796 301.421,396.372 276.800 C 396.880 275.150,397.440 273.440,397.618 273.000 C 397.795 272.560,398.051 271.660,398.188 271.000 C 398.324 270.340,398.618 269.080,398.842 268.200 C 399.909 263.990,400.050 260.663,399.897 243.214 C 399.783 230.093,399.598 224.553,399.235 223.400 C 398.959 222.520,398.543 221.080,398.312 220.200 C 395.521 209.572,390.492 198.279,384.739 189.722 C 381.137 184.363,378.994 183.091,374.767 183.806 C 373.495 184.020,373.200 184.237,373.200 184.957 C 373.200 185.445,372.763 186.437,372.229 187.161 C 370.067 190.092,370.422 192.017,374.156 197.600 C 412.158 254.420,370.279 332.296,301.600 332.520 C 246.987 332.697,204.297 281.506,215.370 229.119 C 222.999 193.022,248.895 167.034,284.600 159.642 C 291.784 158.154,306.202 157.690,312.400 158.746 C 330.086 161.761,343.697 167.563,355.549 177.138 C 359.290 180.159,363.018 180.747,364.802 178.597 C 365.075 178.269,365.698 178.000,366.187 178.000 C 368.395 178.000,369.209 173.954,367.625 170.850 C 364.967 165.639,343.314 152.927,331.400 149.583 C 330.740 149.397,328.850 148.865,327.200 148.399 C 316.979 145.514,302.012 144.229,291.900 145.368 L 288.800 145.717 288.800 79.664 C 288.800 32.648,288.672 13.062,288.356 11.706 C 287.305 7.201,285.206 3.821,282.057 1.566 L 279.870 0.000 161.603 0.000 L 43.337 0.000 41.464 1.241 M96.114 26.580 C 87.857 29.161,86.008 33.339,86.003 49.427 C 85.998 64.408,87.821 68.880,95.034 71.578 C 97.699 72.575,223.554 72.906,226.954 71.925 C 230.699 70.844,234.105 67.838,235.933 64.000 C 237.090 61.570,236.921 36.895,235.729 34.315 C 233.936 30.435,230.961 27.817,226.966 26.605 C 224.198 25.765,98.798 25.742,96.114 26.580 M225.032 38.176 C 226.054 39.574,225.847 59.353,224.800 60.400 C 223.740 61.460,99.620 61.688,98.176 60.632 C 97.441 60.095,97.400 59.495,97.400 49.397 L 97.400 38.729 98.349 37.961 C 99.846 36.749,224.143 36.960,225.032 38.176 M72.908 91.393 C 68.854 93.155,68.839 99.368,72.883 101.203 C 74.840 102.091,246.066 102.477,249.223 101.600 C 254.067 100.255,254.510 93.750,249.920 91.362 C 248.300 90.519,74.848 90.549,72.908 91.393 M73.715 119.080 C 69.422 119.912,68.544 126.932,72.465 129.072 C 74.017 129.919,246.070 130.443,249.163 129.610 C 254.162 128.264,254.530 121.401,249.713 119.348 C 248.483 118.824,76.391 118.562,73.715 119.080 M74.005 147.095 C 69.567 147.924,68.365 154.208,72.131 156.895 L 73.400 157.800 159.600 157.919 C 207.010 157.985,246.764 157.925,247.943 157.785 C 254.150 157.051,255.142 148.844,249.223 147.200 C 247.805 146.806,76.104 146.703,74.005 147.095 M338.243 198.837 C 334.026 200.288,332.087 202.030,309.401 224.759 C 297.082 237.102,286.753 247.200,286.448 247.200 C 286.144 247.200,282.083 243.427,277.425 238.815 C 270.135 231.599,268.587 230.258,266.309 229.192 C 250.238 221.672,233.859 238.368,241.628 254.351 C 243.128 257.437,271.718 286.656,276.140 289.623 C 281.982 293.542,289.084 293.841,295.471 290.437 C 299.476 288.302,359.471 227.910,360.941 224.534 C 367.517 209.428,353.521 193.583,338.243 198.837 M347.516 209.957 C 351.050 211.761,352.518 215.808,350.984 219.513 C 350.140 221.553,292.091 279.683,289.774 280.809 C 287.856 281.742,285.429 281.826,283.549 281.026 C 281.845 280.300,251.810 250.242,251.222 248.674 C 249.086 242.977,254.463 237.212,260.428 238.803 C 261.982 239.218,263.531 240.596,273.000 249.991 C 284.689 261.589,285.176 261.934,288.218 260.803 C 288.915 260.544,299.573 250.211,314.200 235.615 C 343.067 206.808,342.380 207.336,347.516 209.957 " stroke="none" fill="#060707" fill-rule="evenodd"></path><path id="path1" d="M98.418 38.767 C 98.133 39.299,98.023 43.013,98.093 49.675 L 98.200 59.777 99.200 60.285 C 100.358 60.874,213.195 60.733,220.000 60.134 L 223.800 59.800 223.907 49.345 C 224.005 39.686,223.959 38.865,223.307 38.548 C 221.533 37.690,98.880 37.904,98.418 38.767 M290.200 159.414 C 226.425 168.343,193.672 239.834,228.999 293.000 C 255.612 333.053,308.334 343.701,348.200 317.073 C 388.271 290.310,398.841 238.444,372.540 197.638 C 368.671 191.634,368.505 188.792,371.847 185.731 C 373.261 184.437,373.181 182.800,371.704 182.800 C 371.427 182.800,371.200 182.612,371.200 182.383 C 371.200 181.942,371.123 181.832,369.207 179.539 C 367.894 177.968,366.722 177.852,365.990 179.220 C 365.073 180.931,360.389 181.854,358.274 180.740 C 357.793 180.486,355.420 178.806,353.000 177.006 C 343.440 169.896,334.197 165.461,319.800 161.080 C 312.540 158.870,299.378 158.129,290.200 159.414 M349.687 197.994 C 361.254 201.567,366.558 213.983,361.309 225.200 C 359.736 228.563,302.632 286.545,297.494 289.998 C 290.921 294.414,282.455 294.585,276.133 290.429 C 272.189 287.836,242.356 257.507,241.030 254.742 C 232.921 237.832,250.009 220.580,266.866 228.659 C 269.439 229.892,270.729 231.001,278.080 238.299 C 282.649 242.835,286.470 246.468,286.571 246.373 C 286.672 246.278,297.070 235.938,309.677 223.396 C 333.907 199.292,334.025 199.189,339.075 197.801 C 342.035 196.987,346.701 197.072,349.687 197.994 " stroke="none" fill="#61e09c" fill-rule="evenodd"></path><path id="path2" d="M49.149 13.061 C 48.519 13.820,48.304 358.038,48.933 358.667 C 49.116 358.850,68.106 359.090,91.133 359.200 C 137.459 359.421,134.433 359.237,136.366 361.952 C 138.734 365.278,138.098 369.475,134.903 371.600 L 133.400 372.600 89.992 372.600 L 46.583 372.600 43.920 371.289 C 39.872 369.296,37.592 366.702,35.651 361.881 C 35.319 361.058,35.200 318.525,35.200 200.981 L 35.200 41.200 24.239 41.200 L 13.278 41.200 12.839 42.460 C 12.551 43.285,12.400 48.748,12.400 58.312 C 12.400 75.916,12.202 76.534,6.300 77.377 L 4.400 77.649 4.400 81.796 L 4.400 85.943 6.700 86.440 C 8.554 86.840,9.330 87.274,10.698 88.674 L 12.397 90.411 12.498 238.191 C 12.596 379.451,12.632 386.003,13.314 386.686 C 13.997 387.368,19.019 387.400,125.450 387.400 L 236.871 387.400 237.635 386.456 C 238.317 385.614,238.400 384.817,238.400 379.156 L 238.400 372.800 195.500 372.791 C 154.728 372.783,152.521 372.746,151.000 372.048 C 145.795 369.657,145.795 362.934,151.000 360.062 C 152.097 359.457,157.394 359.383,212.800 359.200 C 246.130 359.090,273.625 358.854,273.900 358.676 C 274.274 358.434,274.400 356.211,274.400 349.838 L 274.400 341.324 270.300 340.008 C 263.634 337.869,254.566 333.544,247.825 329.288 L 244.200 327.000 158.600 326.800 C 76.474 326.608,72.951 326.570,71.800 325.866 C 66.944 322.897,68.206 315.450,73.803 314.041 C 75.049 313.727,97.614 313.600,151.977 313.600 C 194.010 313.600,228.400 313.491,228.400 313.359 C 228.400 313.226,227.572 312.196,226.560 311.071 C 225.548 309.945,223.384 307.219,221.751 305.012 C 220.118 302.805,218.357 300.505,217.837 299.900 L 216.892 298.800 145.201 298.800 L 73.509 298.800 72.054 297.973 C 67.702 295.498,67.658 289.814,71.969 286.910 L 73.318 286.000 141.436 286.000 C 183.086 286.000,209.642 285.855,209.783 285.627 C 209.910 285.422,209.450 283.847,208.761 282.127 C 208.072 280.407,206.929 277.200,206.222 275.000 L 204.935 271.000 138.968 270.800 C 74.934 270.606,72.963 270.578,71.738 269.836 C 67.751 267.423,67.873 261.670,71.969 258.910 L 73.318 258.000 137.905 258.000 L 202.492 258.000 202.257 255.900 C 202.127 254.745,201.902 251.325,201.757 248.300 L 201.492 242.800 137.405 242.800 L 73.318 242.800 71.969 241.890 C 67.747 239.045,67.764 233.229,72.002 230.847 L 73.509 230.000 137.931 230.000 C 184.764 230.000,202.428 229.879,202.628 229.555 C 202.779 229.311,203.322 227.196,203.836 224.855 C 204.349 222.515,205.112 219.385,205.531 217.900 L 206.293 215.200 141.046 215.190 C 103.318 215.185,75.138 215.027,74.231 214.817 C 68.154 213.407,66.778 205.828,72.054 202.827 L 73.509 202.000 142.254 201.994 C 180.065 201.991,211.192 201.856,211.426 201.694 C 211.660 201.532,212.688 199.856,213.709 197.970 C 214.730 196.083,216.650 192.888,217.975 190.870 L 220.385 187.200 148.093 187.190 C 106.132 187.185,75.142 187.028,74.231 186.817 C 68.313 185.444,66.790 177.997,71.800 174.934 C 72.950 174.230,76.289 174.192,152.442 174.000 L 231.883 173.800 233.642 172.285 C 245.885 161.735,256.423 155.461,269.400 150.994 L 274.200 149.341 274.301 81.604 C 274.395 19.000,274.352 13.810,273.739 13.133 C 272.758 12.048,50.048 11.978,49.149 13.061 M228.584 26.028 C 232.642 27.547,236.034 31.352,237.431 35.953 C 238.436 39.264,238.230 59.967,237.159 63.234 C 236.079 66.527,234.122 69.179,231.489 70.912 C 227.436 73.582,232.559 73.400,161.400 73.400 L 96.600 73.400 94.319 72.478 C 91.122 71.187,88.308 68.525,86.712 65.282 L 85.400 62.616 85.400 49.208 C 85.400 36.263,85.430 35.735,86.275 33.907 C 88.053 30.056,90.462 27.744,94.368 26.137 L 96.600 25.219 161.485 25.209 C 226.140 25.200,226.378 25.203,228.584 26.028 M251.204 90.900 C 254.784 93.337,255.408 97.624,252.635 100.738 C 250.677 102.938,256.763 102.800,161.479 102.800 L 73.318 102.800 71.969 101.890 C 67.798 99.080,67.684 93.434,71.749 90.997 L 73.400 90.008 161.641 90.004 L 249.882 90.000 251.204 90.900 M248.969 117.983 C 254.095 119.172,256.049 124.905,252.635 128.738 C 250.677 130.938,256.763 130.800,161.479 130.800 L 73.318 130.800 71.969 129.890 C 66.919 126.487,68.048 119.408,73.858 118.043 C 75.917 117.559,246.890 117.501,248.969 117.983 M249.288 146.018 C 254.816 147.553,256.078 154.345,251.471 157.762 L 250.341 158.600 161.834 158.703 L 73.326 158.805 71.973 157.893 C 67.018 154.554,67.971 147.689,73.615 146.070 C 75.572 145.508,247.270 145.457,249.288 146.018 M341.400 210.768 C 340.315 211.277,332.068 219.277,315.800 235.600 C 289.140 262.350,289.524 262.000,286.766 262.000 C 283.604 262.000,283.010 261.544,272.205 250.821 C 260.862 239.565,260.907 239.600,258.174 239.600 C 253.014 239.600,250.244 245.128,253.150 249.622 C 253.783 250.600,260.758 257.806,268.650 265.636 C 284.762 281.620,284.821 281.664,288.487 280.225 C 290.207 279.550,346.379 224.088,349.240 220.240 C 353.155 214.974,347.360 207.973,341.400 210.768 " stroke="none" fill="#f6f0f6" fill-rule="evenodd"></path><path id="path3" d="M48.262 12.331 C 47.648 13.010,47.600 25.635,47.600 185.902 L 47.600 358.742 48.654 359.571 C 49.705 360.398,49.831 360.400,91.074 360.400 C 126.874 360.400,132.594 360.480,133.588 360.994 C 138.011 363.281,137.087 370.084,132.200 371.212 C 129.923 371.737,51.707 371.709,48.455 371.181 C 43.579 370.390,39.673 367.508,37.639 363.200 L 36.600 361.000 36.498 200.838 C 36.423 83.662,36.275 40.532,35.949 40.138 C 35.100 39.116,13.988 39.380,12.654 40.429 L 11.600 41.258 11.693 56.129 L 11.785 71.000 11.993 56.012 L 12.200 41.023 13.200 40.518 C 14.057 40.084,35.296 39.690,35.698 40.100 C 35.752 40.155,35.887 112.384,35.998 200.608 L 36.200 361.017 37.512 363.682 C 39.109 366.925,41.922 369.587,45.119 370.878 L 47.400 371.800 90.000 371.800 C 129.676 371.800,132.687 371.752,133.868 371.106 C 137.967 368.864,138.031 363.113,133.982 360.838 C 132.495 360.002,132.372 360.000,91.046 360.000 C 50.133 360.000,49.590 359.990,48.800 359.200 C 47.622 358.022,47.523 13.740,48.700 12.714 C 49.085 12.379,49.670 12.005,50.000 11.884 C 50.415 11.731,50.342 11.653,49.762 11.632 C 49.301 11.614,48.626 11.929,48.262 12.331 M272.896 11.886 C 275.364 12.261,275.200 7.279,275.200 81.675 C 275.200 148.145,275.184 149.580,274.434 149.982 C 274.013 150.207,272.174 150.864,270.347 151.441 C 258.146 155.295,243.386 163.916,234.886 172.152 L 232.772 174.200 153.015 174.400 L 73.259 174.600 72.154 175.425 C 68.410 178.220,68.410 182.580,72.154 185.375 L 73.259 186.200 147.229 186.305 C 197.427 186.377,221.200 186.542,221.200 186.821 C 221.200 187.046,220.146 188.799,218.858 190.715 C 217.569 192.632,215.540 196.000,214.349 198.200 L 212.182 202.200 142.720 202.400 C 73.343 202.600,73.257 202.601,72.154 203.425 C 68.410 206.220,68.410 210.580,72.154 213.375 C 73.258 214.200,73.296 214.200,140.029 214.305 C 200.985 214.400,206.800 214.465,206.800 215.051 C 206.800 215.403,206.338 217.389,205.773 219.464 C 205.207 221.538,204.811 223.434,204.893 223.678 C 205.069 224.208,206.846 217.635,207.103 215.500 L 207.284 214.000 140.927 214.000 L 74.570 214.000 72.788 213.100 C 69.124 211.249,68.770 206.302,72.131 203.905 L 73.400 203.000 142.895 202.800 L 212.390 202.600 214.734 198.385 C 216.023 196.067,218.189 192.480,219.548 190.414 C 220.907 188.348,221.872 186.512,221.693 186.333 C 221.515 186.155,188.166 185.962,147.584 185.904 C 74.036 185.800,73.796 185.797,72.405 184.981 C 69.130 183.057,68.982 178.151,72.131 175.905 L 73.400 175.000 153.034 174.800 L 232.667 174.600 235.434 172.176 C 246.420 162.551,257.638 156.066,270.790 151.736 C 273.094 150.977,275.117 150.141,275.284 149.878 C 275.812 149.048,275.670 14.080,275.140 13.074 C 274.532 11.918,274.005 11.601,272.800 11.666 C 271.840 11.718,271.844 11.727,272.896 11.886 M95.255 26.488 C 90.443 28.102,85.927 33.650,86.047 37.800 C 86.091 39.325,86.110 39.299,86.451 37.246 C 87.174 32.895,90.033 29.279,94.352 27.254 L 96.600 26.200 161.000 25.996 L 225.400 25.793 161.600 25.714 L 97.800 25.634 95.255 26.488 M227.146 26.628 C 230.968 27.828,233.977 30.524,235.729 34.315 C 236.921 36.895,237.090 61.570,235.933 64.000 C 234.105 67.838,230.699 70.844,226.954 71.925 C 223.554 72.906,97.699 72.575,95.034 71.578 C 90.828 70.005,87.625 66.250,86.524 61.600 L 86.003 59.400 86.148 61.264 C 86.460 65.270,89.704 69.555,93.921 71.532 L 96.200 72.600 161.600 72.600 L 227.000 72.600 228.887 71.728 C 231.532 70.506,234.592 67.503,235.895 64.850 L 237.000 62.600 237.000 49.200 C 237.000 34.055,237.024 34.184,233.551 30.239 C 231.914 28.380,227.716 25.970,226.236 26.040 C 225.754 26.062,226.140 26.312,227.146 26.628 M98.349 37.961 L 97.400 38.729 97.400 49.397 C 97.400 59.495,97.441 60.095,98.176 60.632 C 99.620 61.688,223.740 61.460,224.800 60.400 C 225.847 59.353,226.054 39.574,225.032 38.176 C 224.143 36.960,99.846 36.749,98.349 37.961 M223.307 38.548 C 223.959 38.865,224.005 39.686,223.907 49.345 L 223.800 59.800 220.000 60.134 C 213.195 60.733,100.358 60.874,99.200 60.285 L 98.200 59.777 98.093 49.675 C 98.023 43.013,98.133 39.299,98.418 38.767 C 98.880 37.904,221.533 37.690,223.307 38.548 M11.090 72.035 C 10.636 73.756,9.295 75.099,7.296 75.833 C 6.253 76.215,5.130 76.779,4.800 77.087 C 4.355 77.501,4.510 77.485,5.400 77.025 C 6.060 76.684,6.753 76.404,6.940 76.402 C 8.780 76.389,11.837 73.248,11.512 71.704 C 11.400 71.174,11.296 71.255,11.090 72.035 M5.149 86.900 C 5.451 87.285,5.953 87.600,6.265 87.600 C 7.445 87.600,9.831 89.175,10.600 90.462 C 11.396 91.793,11.401 92.605,11.502 239.371 C 11.597 375.846,11.654 386.997,12.264 387.671 C 12.900 388.373,17.076 388.400,125.400 388.400 L 237.876 388.400 238.638 387.559 C 239.424 386.691,240.041 375.012,239.430 372.575 L 239.189 371.617 195.895 371.509 C 155.090 371.406,152.524 371.359,151.282 370.681 C 147.516 368.624,147.491 363.092,151.239 361.180 C 152.735 360.417,154.072 360.400,213.140 360.400 C 271.967 360.400,273.536 360.380,274.456 359.636 C 275.390 358.880,275.401 358.781,275.521 349.861 C 275.661 339.463,276.195 340.680,270.734 338.956 C 263.805 336.768,254.902 332.536,248.204 328.247 L 245.008 326.200 159.204 326.000 L 73.400 325.800 72.131 324.895 C 68.982 322.649,69.130 317.743,72.405 315.819 C 73.796 315.002,74.001 315.000,152.100 314.896 C 214.711 314.813,230.400 314.691,230.400 314.289 C 230.400 314.012,229.209 312.438,227.753 310.793 C 224.995 307.673,221.467 303.152,219.254 299.900 L 217.962 298.000 146.266 298.000 L 74.570 298.000 72.788 297.100 C 68.757 295.064,68.757 289.736,72.788 287.700 L 74.570 286.800 142.885 286.800 C 208.483 286.800,211.200 286.771,211.200 286.078 C 211.200 285.680,210.549 283.745,209.753 281.778 C 208.957 279.810,207.867 276.760,207.331 275.000 C 206.795 273.240,206.190 271.395,205.987 270.900 L 205.617 270.000 140.093 270.000 L 74.570 270.000 72.788 269.100 C 68.869 267.121,68.771 261.888,72.611 259.713 C 73.508 259.205,73.901 258.810,73.514 258.807 C 69.606 258.769,68.114 265.862,71.419 268.763 C 72.194 269.444,72.867 270.043,72.914 270.096 C 72.961 270.149,102.790 270.284,139.199 270.396 L 205.399 270.600 207.226 276.000 C 208.232 278.970,209.447 282.278,209.927 283.351 C 210.407 284.424,210.800 285.547,210.800 285.846 C 210.800 286.303,199.736 286.408,142.029 286.496 C 73.276 286.600,73.258 286.600,72.154 287.425 C 68.410 290.220,68.410 294.580,72.154 297.375 L 73.259 298.200 145.409 298.303 L 217.559 298.406 220.973 302.998 C 222.851 305.524,225.561 308.935,226.994 310.578 C 228.427 312.222,229.600 313.752,229.600 313.979 C 229.600 314.261,204.830 314.425,151.429 314.496 L 73.259 314.600 72.154 315.425 C 68.410 318.220,68.410 322.580,72.154 325.375 L 73.259 326.200 159.129 326.400 L 245.000 326.600 248.600 328.936 C 254.747 332.925,263.281 336.947,270.800 339.398 C 275.581 340.957,275.200 340.067,275.200 349.667 C 275.200 358.020,275.198 358.038,274.218 359.018 L 273.236 360.000 212.918 360.001 C 156.283 360.001,152.516 360.044,151.228 360.701 C 147.206 362.752,146.930 368.523,150.743 370.894 L 152.200 371.800 195.494 371.907 L 238.788 372.014 239.030 372.976 C 239.659 375.484,239.026 386.847,238.224 387.433 C 236.857 388.431,13.567 388.269,12.662 387.269 C 12.049 386.591,12.000 375.789,11.998 239.969 C 11.996 140.382,11.863 92.923,11.582 91.912 C 10.987 89.769,9.411 88.091,7.471 87.537 C 6.552 87.275,5.530 86.866,5.200 86.630 C 4.679 86.257,4.673 86.292,5.149 86.900 M73.200 90.848 C 67.994 92.918,68.229 100.164,73.560 101.946 C 74.558 102.279,98.001 102.400,161.775 102.400 L 248.630 102.400 250.415 101.500 C 254.905 99.236,254.213 90.789,249.538 90.801 C 249.242 90.802,249.540 91.137,250.200 91.544 C 254.544 94.227,253.955 100.286,249.223 101.600 C 248.306 101.855,216.999 101.996,161.185 101.998 L 74.570 102.000 72.788 101.100 C 69.140 99.257,68.790 94.329,72.129 91.841 L 73.259 91.000 161.129 90.798 L 249.000 90.596 161.600 90.523 C 104.453 90.476,73.854 90.588,73.200 90.848 M73.442 118.814 C 68.040 120.439,68.173 128.443,73.627 130.008 C 74.502 130.259,106.293 130.400,161.813 130.400 L 248.630 130.400 250.415 129.500 C 254.381 127.500,254.753 122.132,251.106 119.532 L 249.800 118.600 162.200 118.533 C 113.370 118.495,74.087 118.619,73.442 118.814 M249.713 119.348 C 254.530 121.401,254.162 128.264,249.163 129.610 C 246.070 130.443,74.017 129.919,72.465 129.072 C 68.544 126.932,69.422 119.912,73.715 119.080 C 76.391 118.562,248.483 118.824,249.713 119.348 M73.442 146.814 C 67.602 148.570,68.404 157.326,74.483 158.190 C 79.893 158.958,249.402 158.199,250.755 157.400 C 254.374 155.263,254.561 149.996,251.106 147.532 L 249.800 146.600 162.200 146.533 C 113.370 146.495,74.087 146.619,73.442 146.814 M249.223 147.200 C 255.142 148.844,254.150 157.051,247.943 157.785 C 246.764 157.925,207.010 157.985,159.600 157.919 L 73.400 157.800 72.131 156.895 C 68.365 154.208,69.567 147.924,74.005 147.095 C 76.104 146.703,247.805 146.806,249.223 147.200 M295.000 158.231 C 291.442 158.579,286.106 159.289,284.600 159.616 C 248.405 167.477,223.010 192.972,215.370 229.119 C 204.297 281.506,246.987 332.697,301.600 332.520 C 370.279 332.296,412.158 254.420,374.156 197.600 C 370.422 192.017,370.067 190.092,372.229 187.161 C 373.752 185.096,373.502 184.216,371.827 185.750 C 368.507 188.791,368.678 191.646,372.540 197.638 C 386.231 218.880,390.262 242.201,384.373 266.097 C 373.091 311.877,325.039 340.870,279.800 329.193 C 215.729 312.654,192.986 233.491,238.569 185.677 C 259.457 163.767,294.131 153.267,319.800 161.080 C 334.197 165.461,343.440 169.896,353.000 177.006 C 358.477 181.080,358.709 181.200,361.112 181.200 C 363.305 181.200,365.392 180.336,366.016 179.170 C 366.574 178.127,367.138 178.200,368.559 179.500 L 369.762 180.600 368.581 179.181 C 367.278 177.615,366.173 177.519,364.488 178.826 C 361.993 180.762,359.218 180.137,354.908 176.667 C 350.793 173.354,345.126 169.803,339.800 167.200 C 330.931 162.865,324.202 160.786,312.600 158.794 C 310.072 158.359,297.727 157.965,295.000 158.231 M339.075 197.801 C 334.025 199.189,333.907 199.292,309.677 223.396 C 297.070 235.938,286.672 246.278,286.571 246.373 C 286.470 246.468,282.649 242.835,278.080 238.299 C 270.729 231.001,269.439 229.892,266.866 228.659 C 250.009 220.580,232.921 237.832,241.030 254.742 C 242.356 257.507,272.189 287.836,276.133 290.429 C 282.455 294.585,290.921 294.414,297.494 289.998 C 302.632 286.545,359.736 228.563,361.309 225.200 C 368.463 209.911,355.068 193.404,339.075 197.801 M349.227 198.644 C 360.321 201.933,365.651 213.714,360.941 224.534 C 359.471 227.910,299.476 288.302,295.471 290.437 C 289.084 293.841,281.982 293.542,276.140 289.623 C 271.718 286.656,243.128 257.437,241.628 254.351 C 233.859 238.368,250.238 221.672,266.309 229.192 C 268.587 230.258,270.135 231.599,277.425 238.815 C 282.083 243.427,286.144 247.200,286.448 247.200 C 286.753 247.200,297.082 237.102,309.401 224.759 C 321.721 212.416,332.720 201.717,333.843 200.983 C 338.236 198.113,344.317 197.188,349.227 198.644 M340.400 210.035 C 339.630 210.492,327.840 222.003,314.200 235.615 C 299.573 250.211,288.915 260.544,288.218 260.803 C 285.176 261.934,284.689 261.589,273.000 249.991 C 263.531 240.596,261.982 239.218,260.428 238.803 C 254.463 237.212,249.086 242.977,251.222 248.674 C 251.810 250.242,281.845 280.300,283.549 281.026 C 285.429 281.826,287.856 281.742,289.774 280.809 C 292.091 279.683,350.140 221.553,350.984 219.513 C 353.675 213.014,346.381 206.482,340.400 210.035 M347.160 210.180 C 350.226 211.765,351.812 215.466,350.798 218.670 C 350.213 220.517,291.507 279.687,289.313 280.641 C 287.511 281.424,285.032 281.337,283.284 280.429 C 280.767 279.122,252.185 250.095,251.598 248.250 C 249.805 242.615,254.783 237.634,260.595 239.247 C 261.907 239.611,264.103 241.588,272.995 250.408 C 282.169 259.509,284.023 261.169,285.274 261.403 C 288.550 262.017,288.104 262.404,315.000 235.573 C 328.860 221.746,340.650 210.258,341.200 210.042 C 342.707 209.452,345.896 209.526,347.160 210.180 M204.200 226.000 C 204.046 226.910,204.011 227.744,204.121 227.854 C 204.231 227.964,204.446 227.310,204.600 226.400 C 204.754 225.490,204.789 224.656,204.679 224.546 C 204.569 224.436,204.354 225.090,204.200 226.000 M203.575 229.200 L 203.400 230.200 138.200 230.404 C 102.340 230.517,72.961 230.652,72.914 230.704 C 72.867 230.757,72.194 231.356,71.419 232.037 C 68.114 234.938,69.606 242.031,73.514 241.993 C 73.901 241.990,73.508 241.595,72.611 241.087 C 68.771 238.912,68.869 233.679,72.788 231.700 L 74.570 230.800 138.785 230.794 C 204.444 230.788,204.184 230.794,203.910 229.155 L 203.751 228.200 203.575 229.200 M138.200 242.398 L 202.200 242.600 202.452 249.318 C 202.590 253.013,202.809 256.143,202.939 256.272 C 203.188 256.521,202.844 243.359,202.579 242.500 C 202.457 242.102,189.322 242.020,138.313 242.098 L 74.200 242.196 138.200 242.398 M203.089 257.583 L 202.876 258.398 138.538 258.500 L 74.200 258.602 138.673 258.701 L 203.146 258.800 203.410 257.970 C 203.554 257.513,203.589 257.056,203.487 256.954 C 203.385 256.852,203.206 257.135,203.089 257.583 " stroke="none" fill="#329a6b" fill-rule="evenodd"></path><path id="path4" d="M105.700 11.900 C 136.225 11.957,186.175 11.957,216.700 11.900 C 247.225 11.843,222.250 11.797,161.200 11.797 C 100.150 11.797,75.175 11.843,105.700 11.900 M48.662 12.731 C 47.519 13.995,47.656 358.056,48.800 359.200 C 49.591 359.991,50.068 359.999,91.100 359.904 L 132.600 359.807 90.885 359.604 C 54.390 359.425,49.123 359.325,48.791 358.800 C 48.554 358.424,48.410 293.712,48.406 185.723 L 48.400 13.245 49.289 12.623 C 49.778 12.280,49.986 12.000,49.751 12.000 C 49.516 12.000,49.026 12.329,48.662 12.731 M273.400 12.478 C 273.840 12.727,274.332 13.127,274.494 13.366 C 274.656 13.605,274.791 44.336,274.794 81.659 L 274.800 149.518 271.072 150.736 C 258.071 154.984,245.623 162.110,235.400 171.157 L 232.200 173.989 153.226 173.994 L 74.253 174.000 72.541 174.828 C 70.699 175.720,69.023 177.943,69.323 179.096 C 69.465 179.639,69.518 179.597,69.554 178.914 C 69.623 177.584,71.862 175.276,73.533 174.812 C 74.506 174.542,101.503 174.404,153.698 174.402 L 232.397 174.400 235.203 171.824 C 244.643 163.161,258.277 155.254,270.347 151.441 C 272.174 150.864,274.013 150.207,274.434 149.982 C 275.184 149.580,275.200 148.145,275.200 81.675 C 275.200 8.529,275.295 11.976,273.277 12.012 C 272.710 12.022,272.729 12.098,273.400 12.478 M130.300 25.500 C 147.515 25.558,175.685 25.558,192.900 25.500 C 210.115 25.442,196.030 25.395,161.600 25.395 C 127.170 25.395,113.085 25.442,130.300 25.500 M94.705 26.206 C 91.132 27.518,88.425 30.149,86.589 34.093 C 85.177 37.126,85.047 60.492,86.422 64.166 C 87.843 67.966,93.455 72.834,96.364 72.791 C 96.714 72.785,95.996 72.368,94.768 71.863 C 91.905 70.685,89.848 69.104,88.356 66.935 C 86.073 63.618,86.000 63.062,86.000 49.050 L 86.001 36.200 87.137 33.798 C 88.702 30.490,91.895 27.615,95.255 26.488 C 96.655 26.018,97.440 25.639,97.000 25.645 C 96.560 25.651,95.527 25.903,94.705 26.206 M226.828 26.147 C 230.787 27.214,234.131 30.034,236.077 33.946 C 237.471 36.747,237.518 61.479,236.136 64.470 C 234.521 67.965,230.991 71.123,227.470 72.224 C 226.552 72.511,226.160 72.757,226.600 72.769 C 229.432 72.850,234.534 68.714,236.332 64.879 L 237.400 62.600 237.400 49.200 C 237.400 33.863,237.409 33.909,233.713 29.938 C 231.696 27.771,227.776 25.580,226.000 25.627 C 225.330 25.645,225.604 25.817,226.828 26.147 M13.200 40.516 C 12.600 40.818,12.162 41.416,12.104 42.010 C 12.008 42.995,12.010 42.996,12.393 42.094 C 13.052 40.545,14.360 40.381,25.144 40.493 L 35.400 40.600 35.600 201.000 L 35.800 361.400 36.968 363.778 C 38.987 367.890,42.380 370.622,47.000 371.856 C 49.534 372.533,130.459 372.657,132.869 371.988 C 136.185 371.067,138.094 367.719,137.198 364.394 C 136.687 362.496,134.446 359.993,133.272 360.009 C 132.879 360.015,133.199 360.366,134.040 360.853 C 138.034 363.170,137.939 368.879,133.868 371.106 C 132.687 371.752,129.676 371.800,90.000 371.800 L 47.400 371.800 45.119 370.878 C 41.922 369.587,39.109 366.925,37.512 363.682 L 36.200 361.017 35.998 200.608 C 35.887 112.384,35.752 40.155,35.698 40.100 C 35.298 39.691,14.056 40.084,13.200 40.516 M11.654 71.553 C 11.534 73.661,9.800 75.435,6.800 76.520 C 6.389 76.669,6.465 76.747,7.041 76.768 C 9.077 76.845,12.247 73.404,11.884 71.513 L 11.709 70.600 11.654 71.553 M129.500 73.100 C 147.155 73.158,176.045 73.158,193.700 73.100 C 211.355 73.042,196.910 72.995,161.600 72.995 C 126.290 72.995,111.845 73.042,129.500 73.100 M5.434 86.747 C 5.635 86.922,6.531 87.272,7.424 87.526 C 9.360 88.075,10.669 89.366,11.417 91.462 C 11.841 92.654,11.969 92.785,11.982 92.047 C 12.006 90.748,10.554 88.499,9.261 87.834 C 7.966 87.168,4.925 86.304,5.434 86.747 M118.132 90.300 C 142.075 90.357,181.135 90.357,204.932 90.300 C 228.729 90.243,209.140 90.196,161.400 90.196 C 113.660 90.196,94.189 90.243,118.132 90.300 M71.857 91.159 C 70.451 92.086,69.194 93.928,69.237 95.000 C 69.260 95.569,69.368 95.467,69.614 94.648 C 70.053 93.181,71.462 91.648,73.000 90.965 C 73.660 90.671,73.930 90.425,73.600 90.418 C 73.270 90.411,72.485 90.745,71.857 91.159 M249.400 90.693 C 254.423 91.951,255.099 99.138,250.415 101.500 C 249.434 101.995,248.894 102.399,249.215 102.399 C 251.403 102.393,253.996 99.185,253.999 96.480 C 254.001 93.642,251.448 90.319,249.362 90.446 C 248.651 90.490,248.653 90.506,249.400 90.693 M69.234 97.899 C 69.185 99.189,71.787 101.903,73.539 102.390 C 74.511 102.660,104.055 102.764,161.800 102.700 L 248.600 102.604 161.200 102.402 C 96.835 102.253,73.536 102.079,72.800 101.742 C 71.429 101.115,70.028 99.536,69.614 98.152 C 69.320 97.172,69.264 97.134,69.234 97.899 M73.528 118.391 C 71.297 119.068,69.170 121.354,69.239 123.000 C 69.260 123.519,69.400 123.357,69.637 122.541 C 70.162 120.729,72.412 118.904,74.483 118.610 C 75.427 118.476,115.260 118.419,163.000 118.483 L 249.800 118.600 251.106 119.532 C 254.753 122.132,254.381 127.500,250.415 129.500 L 248.630 130.400 161.815 130.398 C 105.869 130.396,74.494 130.255,73.577 130.000 C 71.903 129.535,70.104 127.790,69.615 126.158 C 69.322 125.177,69.264 125.137,69.234 125.899 C 69.185 127.189,71.787 129.903,73.539 130.390 C 74.506 130.658,104.359 130.796,161.815 130.798 L 248.630 130.800 250.412 129.900 C 254.952 127.606,255.282 122.158,251.071 119.037 L 249.941 118.200 162.271 118.133 C 114.052 118.095,74.117 118.212,73.528 118.391 M73.528 146.391 C 71.297 147.068,69.170 149.354,69.239 151.000 C 69.260 151.519,69.400 151.357,69.637 150.541 C 70.162 148.729,72.412 146.904,74.483 146.610 C 75.427 146.476,115.260 146.419,163.000 146.483 L 249.800 146.600 251.106 147.532 C 254.561 149.996,254.374 155.263,250.755 157.400 C 249.411 158.193,248.682 158.200,161.315 158.200 C 112.868 158.200,73.538 158.322,73.915 158.472 C 74.292 158.621,113.757 158.756,161.615 158.772 L 248.630 158.800 250.412 157.900 C 254.952 155.606,255.282 150.158,251.071 147.037 L 249.941 146.200 162.271 146.133 C 114.052 146.095,74.117 146.212,73.528 146.391 M69.236 153.899 C 69.201 154.783,71.730 158.000,72.460 158.000 C 72.663 158.000,72.192 157.442,71.415 156.759 C 70.638 156.077,69.838 154.952,69.637 154.259 C 69.349 153.265,69.265 153.189,69.236 153.899 M69.236 181.738 C 69.179 182.907,70.475 184.777,72.000 185.728 L 73.400 186.600 147.100 186.704 C 187.635 186.761,220.800 186.881,220.800 186.969 C 220.800 187.057,219.628 188.895,218.195 191.054 C 216.762 193.212,214.773 196.558,213.776 198.489 L 211.962 202.000 143.107 202.000 C 74.284 202.000,74.252 202.000,72.541 202.828 C 70.699 203.720,69.023 205.943,69.323 207.096 C 69.468 207.649,69.517 207.613,69.554 206.931 C 69.606 205.947,71.255 203.829,72.543 203.091 C 73.207 202.710,88.993 202.555,142.791 202.400 L 212.182 202.200 214.349 198.200 C 215.540 196.000,217.569 192.632,218.858 190.715 C 220.146 188.799,221.200 187.044,221.200 186.815 C 221.200 186.530,198.423 186.397,148.300 186.390 C 65.783 186.380,70.916 186.652,69.625 182.215 C 69.422 181.516,69.257 181.314,69.236 181.738 M69.239 209.800 C 69.166 211.547,72.050 214.432,73.800 214.363 C 74.366 214.341,74.262 214.230,73.442 213.985 C 71.893 213.521,70.061 211.712,69.625 210.215 C 69.388 209.399,69.261 209.262,69.239 209.800 M341.200 210.042 C 340.650 210.258,328.860 221.746,315.000 235.573 C 288.104 262.404,288.550 262.017,285.274 261.403 C 284.023 261.169,282.167 259.508,273.000 250.419 C 263.194 240.697,260.812 238.655,260.103 239.363 C 259.973 239.494,260.201 239.600,260.609 239.600 C 261.046 239.600,265.727 243.955,271.980 250.180 C 284.227 262.371,285.379 263.132,288.920 261.359 C 289.624 261.007,301.540 249.424,315.400 235.620 C 334.735 216.363,340.926 210.424,342.000 210.102 C 342.770 209.871,343.130 209.675,342.800 209.666 C 342.470 209.658,341.750 209.827,341.200 210.042 M346.200 210.197 C 349.575 211.382,351.485 215.236,350.397 218.670 C 349.820 220.495,292.065 278.701,289.516 280.028 C 287.295 281.183,284.896 281.039,282.769 279.622 C 279.901 277.712,252.937 250.427,252.220 248.709 C 250.885 245.515,252.110 241.725,255.000 240.108 C 256.782 239.111,256.619 238.859,254.801 239.800 C 252.043 241.225,250.586 245.070,251.598 248.250 C 252.185 250.095,280.767 279.122,283.284 280.429 C 285.032 281.337,287.511 281.424,289.313 280.641 C 291.507 279.687,350.213 220.517,350.798 218.670 C 352.023 214.797,348.837 209.532,345.320 209.618 C 344.924 209.627,345.320 209.888,346.200 210.197 M140.500 214.700 C 195.216 214.785,206.400 214.893,206.400 215.338 C 206.400 215.632,206.132 216.756,205.804 217.836 C 205.477 218.916,205.220 220.070,205.235 220.400 C 205.269 221.187,206.796 216.011,206.798 215.100 C 206.800 214.436,203.424 214.405,140.700 214.499 L 74.600 214.598 140.500 214.700 M204.254 224.200 C 203.882 225.960,203.442 227.940,203.274 228.600 L 202.970 229.800 138.585 230.002 L 74.200 230.205 138.793 230.202 L 203.386 230.200 204.274 226.000 C 204.762 223.690,205.109 221.620,205.045 221.400 C 204.981 221.180,204.625 222.440,204.254 224.200 M71.857 231.159 C 70.451 232.086,69.194 233.928,69.237 235.000 C 69.260 235.569,69.368 235.467,69.614 234.648 C 70.053 233.181,71.462 231.648,73.000 230.965 C 73.660 230.671,73.930 230.425,73.600 230.418 C 73.270 230.411,72.485 230.745,71.857 231.159 M69.236 237.738 C 69.148 239.537,72.353 242.675,73.875 242.281 C 74.460 242.129,74.429 242.084,73.714 242.046 C 72.465 241.981,70.071 239.757,69.637 238.259 C 69.435 237.564,69.256 237.331,69.236 237.738 M257.505 239.083 C 258.002 239.179,258.722 239.175,259.105 239.075 C 259.487 238.975,259.080 238.896,258.200 238.901 C 257.320 238.905,257.007 238.987,257.505 239.083 M201.500 242.665 C 201.859 242.810,202.008 244.237,202.030 247.733 C 202.046 250.410,202.193 253.410,202.357 254.400 C 202.521 255.395,202.583 253.337,202.496 249.800 C 202.325 242.807,202.268 242.385,201.513 242.432 C 201.111 242.456,201.108 242.507,201.500 242.665 M202.832 257.099 L 202.800 257.998 139.100 258.100 L 75.400 258.202 139.113 258.301 C 206.756 258.406,203.779 258.480,203.069 256.713 C 202.956 256.431,202.849 256.604,202.832 257.099 M71.857 259.159 C 70.449 260.087,69.194 261.929,69.239 263.000 C 69.261 263.538,69.388 263.401,69.625 262.585 C 70.061 261.088,71.893 259.279,73.442 258.815 C 74.262 258.570,74.366 258.459,73.800 258.437 C 73.360 258.420,72.485 258.745,71.857 259.159 M69.237 265.800 C 69.172 267.432,72.014 270.416,73.600 270.382 C 73.930 270.375,73.660 270.129,73.000 269.835 C 71.462 269.152,70.053 267.619,69.614 266.152 C 69.368 265.333,69.260 265.231,69.237 265.800 M139.673 270.700 L 205.147 270.802 205.410 271.631 C 205.555 272.087,205.761 272.372,205.869 272.264 C 205.977 272.157,205.864 271.693,205.618 271.234 L 205.172 270.400 139.686 270.499 L 74.200 270.598 139.673 270.700 M206.034 273.400 C 206.022 273.840,206.187 274.470,206.400 274.800 C 206.914 275.595,206.914 274.596,206.400 273.400 L 206.056 272.600 206.034 273.400 M207.600 278.302 C 207.600 278.541,208.230 280.230,209.000 282.056 C 209.770 283.882,210.400 285.516,210.400 285.687 C 210.400 285.858,179.845 286.044,142.500 286.100 L 74.600 286.202 142.700 286.301 C 192.973 286.374,210.800 286.282,210.800 285.950 C 210.800 285.510,208.046 278.364,207.750 278.033 C 207.667 277.942,207.600 278.062,207.600 278.302 M71.857 287.159 C 70.449 288.087,69.194 289.929,69.239 291.000 C 69.261 291.538,69.388 291.401,69.625 290.585 C 70.061 289.088,71.893 287.279,73.442 286.815 C 74.262 286.570,74.366 286.459,73.800 286.437 C 73.360 286.420,72.485 286.745,71.857 287.159 M69.234 293.753 C 69.174 295.074,70.775 297.117,72.541 297.972 L 74.253 298.800 145.885 298.800 L 217.517 298.800 220.147 302.500 C 221.593 304.535,224.242 307.910,226.034 310.000 L 229.292 313.800 151.346 314.000 L 73.400 314.200 71.968 315.091 C 70.410 316.059,68.956 318.330,69.313 319.234 C 69.453 319.587,69.549 319.466,69.568 318.914 C 69.615 317.594,71.853 315.279,73.533 314.812 C 74.506 314.542,101.054 314.404,152.300 314.402 C 205.642 314.401,229.600 314.271,229.600 313.983 C 229.600 313.754,228.427 312.222,226.994 310.578 C 225.561 308.935,222.850 305.522,220.971 302.995 L 217.554 298.400 145.964 298.400 C 86.212 298.400,74.161 298.309,73.087 297.852 C 71.481 297.167,70.065 295.659,69.614 294.152 C 69.393 293.415,69.256 293.271,69.234 293.753 M69.234 321.753 C 69.174 323.074,70.775 325.117,72.541 325.972 L 74.253 326.800 159.387 326.800 L 244.522 326.800 248.336 329.246 C 254.997 333.518,264.458 337.870,272.800 340.499 L 274.600 341.066 274.708 349.446 C 274.795 356.231,274.706 357.976,274.240 358.613 C 273.673 359.388,272.748 359.403,212.662 359.600 L 151.659 359.800 150.529 360.637 C 146.490 363.630,146.624 368.924,150.801 371.378 C 152.183 372.190,152.724 372.202,195.400 372.400 L 238.600 372.600 238.815 379.200 L 239.030 385.800 239.109 379.400 C 239.152 375.880,239.047 372.778,238.875 372.507 C 238.630 372.122,229.065 371.991,195.381 371.907 L 152.200 371.800 150.743 370.894 C 146.930 368.523,147.206 362.752,151.228 360.701 C 152.516 360.044,156.283 360.001,212.918 360.001 L 273.236 360.000 274.218 359.018 C 275.198 358.038,275.200 358.020,275.200 349.667 C 275.200 340.067,275.581 340.957,270.800 339.398 C 263.315 336.958,255.339 333.214,248.536 328.948 L 244.473 326.400 159.736 326.398 C 105.160 326.396,74.494 326.255,73.577 326.000 C 71.903 325.535,70.104 323.790,69.615 322.158 C 69.395 321.422,69.256 321.274,69.234 321.753 M12.046 385.838 C 11.987 386.905,13.318 388.128,14.270 387.881 C 14.887 387.722,14.868 387.686,14.149 387.646 C 13.194 387.594,12.581 386.986,12.289 385.800 C 12.100 385.030,12.091 385.032,12.046 385.838 M238.282 386.530 C 238.137 386.909,237.609 387.383,237.109 387.584 C 236.550 387.809,236.440 387.959,236.824 387.975 C 237.742 388.012,238.938 387.014,238.728 386.385 C 238.592 385.977,238.480 386.014,238.282 386.530 " stroke="none" fill="#bcb6bc" fill-rule="evenodd"></path><path id="path5" d="M105.732 12.300 C 136.495 12.357,186.715 12.357,217.332 12.300 C 247.950 12.243,222.780 12.197,161.400 12.197 C 100.020 12.197,74.970 12.243,105.732 12.300 M273.738 13.131 C 274.792 14.296,274.755 148.932,273.700 149.610 C 273.046 150.031,273.048 150.045,273.733 149.830 C 274.136 149.704,274.541 149.600,274.633 149.600 C 275.222 149.600,274.763 13.620,274.171 13.029 C 273.295 12.152,272.930 12.239,273.738 13.131 M97.105 25.483 C 97.602 25.579,98.322 25.575,98.705 25.475 C 99.087 25.375,98.680 25.296,97.800 25.301 C 96.920 25.305,96.607 25.387,97.105 25.483 M224.705 25.483 C 225.202 25.579,225.922 25.575,226.305 25.475 C 226.687 25.375,226.280 25.296,225.400 25.301 C 224.520 25.305,224.207 25.387,224.705 25.483 M228.433 26.149 C 228.845 26.517,231.200 27.600,231.200 27.421 C 231.200 27.190,228.982 26.000,228.553 26.000 C 228.396 26.000,228.342 26.067,228.433 26.149 M233.589 29.800 C 234.779 31.120,235.833 32.290,235.931 32.400 C 236.028 32.510,235.918 32.240,235.685 31.800 C 235.452 31.360,234.398 30.190,233.343 29.200 L 231.425 27.400 233.589 29.800 M88.677 30.100 C 87.307 31.791,85.984 34.070,86.018 34.680 C 86.027 34.856,86.410 34.280,86.867 33.400 C 87.324 32.520,88.318 31.035,89.076 30.100 C 89.834 29.165,90.364 28.400,90.254 28.400 C 90.144 28.400,89.434 29.165,88.677 30.100 M85.378 49.400 C 85.378 56.220,85.432 59.066,85.499 55.725 C 85.566 52.384,85.566 46.804,85.499 43.325 C 85.433 39.846,85.378 42.580,85.378 49.400 M237.778 49.200 C 237.778 55.910,237.832 58.655,237.899 55.300 C 237.966 51.945,237.966 46.455,237.899 43.100 C 237.832 39.745,237.778 42.490,237.778 49.200 M13.694 40.811 C 12.121 41.449,12.000 42.668,11.999 57.926 C 11.997 71.863,11.957 72.665,11.202 73.904 C 10.320 75.351,8.231 76.793,7.000 76.805 C 6.560 76.809,5.930 76.984,5.600 77.195 C 4.419 77.948,8.182 77.107,9.480 76.328 C 12.406 74.571,12.400 74.611,12.400 58.312 C 12.400 48.748,12.551 43.285,12.839 42.460 L 13.278 41.200 24.239 41.200 L 35.200 41.200 35.200 200.981 C 35.200 318.525,35.319 361.058,35.651 361.881 C 37.592 366.702,39.872 369.296,43.920 371.289 L 46.583 372.600 89.992 372.600 L 133.400 372.600 134.903 371.600 C 136.503 370.536,138.009 367.984,137.987 366.374 C 137.979 365.750,137.702 366.189,137.217 367.594 C 136.384 370.007,135.010 371.378,132.800 372.001 C 130.469 372.658,49.490 372.521,47.000 371.856 C 42.380 370.622,38.987 367.890,36.968 363.778 L 35.800 361.400 35.600 201.000 L 35.400 40.600 25.000 40.522 C 19.280 40.479,14.192 40.609,13.694 40.811 M89.003 68.754 C 90.242 70.155,93.438 72.404,94.178 72.395 C 94.410 72.393,93.790 71.931,92.800 71.368 C 91.810 70.806,90.281 69.684,89.403 68.873 C 87.828 67.421,87.822 67.420,89.003 68.754 M129.931 73.500 C 147.384 73.558,175.824 73.558,193.131 73.500 C 210.439 73.442,196.160 73.395,161.400 73.395 C 126.640 73.395,112.479 73.442,129.931 73.500 M5.400 86.359 C 5.840 86.558,7.053 87.023,8.095 87.392 C 9.289 87.814,10.324 88.531,10.895 89.331 L 11.800 90.600 12.000 238.486 C 12.191 379.772,12.232 386.403,12.914 387.086 C 13.597 387.768,18.635 387.800,125.450 387.800 L 237.271 387.800 238.045 386.844 C 238.752 385.971,238.809 385.312,238.709 379.244 L 238.600 372.600 195.400 372.400 C 152.724 372.202,152.183 372.190,150.801 371.378 C 148.791 370.198,147.608 368.250,147.559 366.041 L 147.518 364.200 147.191 365.590 C 146.606 368.076,148.187 370.756,151.000 372.048 C 152.521 372.746,154.728 372.783,195.500 372.791 L 238.400 372.800 238.400 379.156 C 238.400 384.817,238.317 385.614,237.635 386.456 L 236.871 387.400 125.450 387.400 C 19.019 387.400,13.997 387.368,13.314 386.686 C 12.632 386.003,12.596 379.453,12.498 238.256 L 12.397 90.540 10.975 88.879 C 9.629 87.306,8.906 86.955,5.400 86.174 L 4.600 85.996 5.400 86.359 M251.347 91.246 C 251.978 91.735,252.832 92.690,253.245 93.368 C 253.659 94.045,253.998 94.389,253.999 94.131 C 254.001 93.462,252.072 91.258,251.057 90.769 C 250.522 90.511,250.630 90.690,251.347 91.246 M69.814 92.635 C 69.441 93.204,69.205 93.738,69.289 93.822 C 69.373 93.907,69.758 93.441,70.144 92.788 C 71.006 91.328,70.748 91.209,69.814 92.635 M254.109 96.400 C 254.109 97.390,254.187 97.795,254.282 97.300 C 254.378 96.805,254.378 95.995,254.282 95.500 C 254.187 95.005,254.109 95.410,254.109 96.400 M252.400 100.483 C 251.850 101.116,250.680 101.889,249.800 102.200 C 248.920 102.510,248.524 102.773,248.920 102.782 C 250.258 102.815,254.218 99.991,253.568 99.468 C 253.476 99.393,252.950 99.850,252.400 100.483 M69.600 99.725 C 69.600 99.794,70.185 100.379,70.900 101.025 L 72.200 102.200 71.025 100.900 C 69.930 99.688,69.600 99.416,69.600 99.725 M118.300 117.900 C 142.115 117.957,181.085 117.957,204.900 117.900 C 228.715 117.843,209.230 117.796,161.600 117.796 C 113.970 117.796,94.485 117.843,118.300 117.900 M70.613 119.813 C 69.836 120.591,69.201 121.446,69.203 121.713 C 69.204 121.981,69.545 121.685,69.959 121.057 C 70.374 120.428,71.228 119.574,71.857 119.159 C 72.485 118.745,72.781 118.404,72.513 118.403 C 72.246 118.401,71.391 119.036,70.613 119.813 M252.246 119.981 C 252.712 120.542,253.292 121.360,253.534 121.800 C 253.777 122.240,253.981 122.372,253.988 122.094 C 253.995 121.816,253.415 120.998,252.700 120.276 C 251.985 119.554,251.781 119.421,252.246 119.981 M254.109 124.400 C 254.109 125.390,254.187 125.795,254.282 125.300 C 254.378 124.805,254.378 123.995,254.282 123.500 C 254.187 123.005,254.109 123.410,254.109 124.400 M252.650 128.281 C 252.237 128.833,251.157 129.621,250.250 130.033 C 249.342 130.445,248.834 130.786,249.120 130.791 C 250.324 130.812,254.108 127.962,253.568 127.441 C 253.476 127.351,253.062 127.730,252.650 128.281 M69.600 127.725 C 69.600 127.794,70.185 128.379,70.900 129.025 L 72.200 130.200 71.025 128.900 C 69.930 127.688,69.600 127.416,69.600 127.725 M118.100 145.900 C 142.025 145.957,181.175 145.957,205.100 145.900 C 229.025 145.843,209.450 145.796,161.600 145.796 C 113.750 145.796,94.175 145.843,118.100 145.900 M70.613 147.813 C 69.836 148.591,69.201 149.446,69.203 149.713 C 69.204 149.981,69.545 149.685,69.959 149.057 C 70.374 148.428,71.228 147.574,71.857 147.159 C 72.485 146.745,72.781 146.404,72.513 146.403 C 72.246 146.401,71.391 147.036,70.613 147.813 M252.246 147.981 C 252.712 148.542,253.292 149.360,253.534 149.800 C 253.777 150.240,253.981 150.372,253.988 150.094 C 253.995 149.816,253.415 148.998,252.700 148.276 C 251.985 147.554,251.781 147.421,252.246 147.981 M254.109 152.400 C 254.109 153.390,254.187 153.795,254.282 153.300 C 254.378 152.805,254.378 151.995,254.282 151.500 C 254.187 151.005,254.109 151.410,254.109 152.400 M265.683 152.269 C 264.298 152.835,263.233 153.366,263.315 153.449 C 263.459 153.592,268.422 151.691,268.767 151.360 C 269.168 150.975,268.018 151.314,265.683 152.269 M260.800 154.400 C 260.030 154.822,259.580 155.166,259.800 155.166 C 260.020 155.166,260.830 154.822,261.600 154.400 C 262.370 153.978,262.820 153.634,262.600 153.634 C 262.380 153.634,261.570 153.978,260.800 154.400 M69.600 155.725 C 69.600 155.794,70.185 156.379,70.900 157.025 L 72.200 158.200 71.025 156.900 C 69.930 155.688,69.600 155.416,69.600 155.725 M252.580 156.432 C 252.433 156.670,251.747 157.210,251.056 157.631 C 250.365 158.052,250.022 158.398,250.294 158.399 C 250.806 158.400,253.613 156.032,253.124 156.012 C 252.972 156.005,252.727 156.195,252.580 156.432 M252.700 158.427 C 251.875 158.863,251.200 159.308,251.200 159.418 C 251.200 159.527,251.920 159.249,252.800 158.800 C 253.680 158.351,254.400 157.897,254.400 157.792 C 254.400 157.530,254.397 157.531,252.700 158.427 M245.893 162.614 C 245.072 163.172,244.400 163.715,244.400 163.820 C 244.400 163.925,245.120 163.535,246.000 162.953 C 247.397 162.028,247.870 161.600,247.493 161.600 C 247.434 161.600,246.714 162.056,245.893 162.614 M242.600 165.035 L 241.400 166.066 242.700 165.206 C 243.415 164.733,244.000 164.268,244.000 164.173 C 244.000 163.873,243.831 163.978,242.600 165.035 M235.381 170.900 L 233.800 172.600 235.500 171.019 C 237.081 169.548,237.384 169.200,237.081 169.200 C 237.016 169.200,236.251 169.965,235.381 170.900 M232.983 172.828 C 232.837 173.063,232.332 173.412,231.859 173.603 C 231.273 173.839,231.203 173.957,231.638 173.975 C 231.989 173.989,232.602 173.640,233.000 173.200 C 233.398 172.760,233.617 172.400,233.486 172.400 C 233.354 172.400,233.128 172.593,232.983 172.828 M147.726 187.100 L 220.453 187.202 219.593 188.501 L 218.734 189.800 219.765 188.600 C 220.332 187.940,220.797 187.265,220.798 187.100 C 220.799 186.935,187.995 186.845,147.900 186.899 L 75.000 186.998 147.726 187.100 M217.353 191.700 C 215.976 194.036,215.886 194.235,216.587 193.400 C 217.400 192.432,218.100 191.200,217.838 191.200 C 217.733 191.200,217.515 191.425,217.353 191.700 M212.954 199.300 C 212.372 200.455,211.694 201.532,211.448 201.694 C 211.130 201.902,211.144 201.990,211.494 201.994 C 211.766 201.997,212.534 200.920,213.200 199.600 C 213.866 198.280,214.322 197.200,214.212 197.200 C 214.103 197.200,213.537 198.145,212.954 199.300 M314.999 236.100 L 290.200 261.000 315.100 236.201 C 328.795 222.562,340.000 211.357,340.000 211.301 C 340.000 211.020,338.051 212.954,314.999 236.100 M107.900 215.100 C 125.995 215.158,155.605 215.158,173.700 215.100 C 191.795 215.042,176.990 214.995,140.800 214.995 C 104.610 214.995,89.805 215.042,107.900 215.100 M350.501 216.600 C 350.505 217.480,350.587 217.793,350.683 217.295 C 350.779 216.798,350.775 216.078,350.675 215.695 C 350.575 215.313,350.496 215.720,350.501 216.600 M320.002 249.763 L 290.205 279.800 319.727 250.400 C 344.288 225.940,351.097 219.008,349.914 219.663 C 349.851 219.698,336.391 233.243,320.002 249.763 M204.629 221.029 C 204.481 221.615,204.438 222.172,204.532 222.266 C 204.627 222.360,204.824 221.958,204.971 221.371 C 205.119 220.785,205.162 220.228,205.068 220.134 C 204.973 220.040,204.776 220.442,204.629 221.029 M257.305 239.487 C 257.914 239.579,258.814 239.577,259.305 239.482 C 259.797 239.387,259.300 239.311,258.200 239.314 C 257.100 239.317,256.697 239.395,257.305 239.487 M261.000 240.059 C 261.440 240.298,266.302 244.928,271.804 250.347 L 281.809 260.200 271.589 249.900 C 265.968 244.235,261.106 239.605,260.784 239.612 C 260.397 239.620,260.469 239.771,261.000 240.059 M254.092 240.621 C 253.605 240.962,253.013 241.637,252.776 242.121 L 252.346 243.000 253.073 242.112 C 253.473 241.623,254.160 240.954,254.600 240.625 C 255.661 239.830,255.225 239.827,254.092 240.621 M105.100 242.700 C 122.755 242.758,151.645 242.758,169.300 242.700 C 186.955 242.642,172.510 242.595,137.200 242.595 C 101.890 242.595,87.445 242.642,105.100 242.700 M201.737 245.800 C 201.739 247.560,201.809 248.230,201.893 247.289 C 201.978 246.349,201.977 244.909,201.891 244.089 C 201.805 243.270,201.736 244.040,201.737 245.800 M251.709 246.000 C 251.709 246.990,251.787 247.395,251.882 246.900 C 251.978 246.405,251.978 245.595,251.882 245.100 C 251.787 244.605,251.709 245.010,251.709 246.000 M252.000 248.289 C 252.000 248.521,252.371 249.136,252.824 249.656 L 253.647 250.600 252.945 249.400 C 252.020 247.821,252.000 247.797,252.000 248.289 M267.400 264.800 C 275.098 272.500,281.486 278.800,281.596 278.800 C 281.706 278.800,275.498 272.500,267.800 264.800 C 260.102 257.100,253.714 250.800,253.604 250.800 C 253.494 250.800,259.702 257.100,267.400 264.800 M202.093 254.400 C 202.093 255.170,202.175 255.485,202.276 255.100 C 202.376 254.715,202.376 254.085,202.276 253.700 C 202.175 253.315,202.093 253.630,202.093 254.400 M73.700 258.276 C 74.085 258.376,74.715 258.376,75.100 258.276 C 75.485 258.175,75.170 258.093,74.400 258.093 C 73.630 258.093,73.315 258.175,73.700 258.276 M209.738 284.938 C 209.772 285.522,209.935 286.000,210.100 286.000 C 210.506 286.000,210.468 285.128,210.032 284.439 C 209.778 284.037,209.694 284.179,209.738 284.938 M225.539 309.841 C 226.439 310.963,227.451 312.110,227.788 312.390 C 228.124 312.669,228.400 313.055,228.400 313.248 C 228.400 313.446,195.099 313.642,151.500 313.700 L 74.600 313.802 151.914 313.901 C 225.451 313.995,229.208 313.966,228.819 313.300 C 228.594 312.915,227.395 311.520,226.156 310.200 C 224.025 307.930,223.991 307.911,225.539 309.841 M244.815 327.515 C 245.577 327.908,246.695 328.559,247.300 328.961 C 247.905 329.363,248.400 329.600,248.400 329.488 C 248.400 329.136,244.558 326.800,243.980 326.800 C 243.678 326.800,244.054 327.122,244.815 327.515 M249.400 330.207 C 249.840 330.566,250.560 331.035,251.000 331.251 L 251.800 331.644 251.000 330.993 C 250.560 330.634,249.840 330.165,249.400 329.949 L 248.600 329.556 249.400 330.207 M253.600 332.579 C 253.600 332.689,254.140 333.059,254.800 333.400 C 255.460 333.741,256.000 333.931,256.000 333.821 C 256.000 333.711,255.460 333.341,254.800 333.000 C 254.140 332.659,253.600 332.469,253.600 332.579 M257.600 334.800 C 258.370 335.222,259.180 335.566,259.400 335.566 C 259.620 335.566,259.170 335.222,258.400 334.800 C 257.630 334.378,256.820 334.034,256.600 334.034 C 256.380 334.034,256.830 334.378,257.600 334.800 M263.800 337.529 C 264.310 338.022,270.054 340.080,270.282 339.851 C 270.376 339.757,269.767 339.457,268.927 339.185 C 268.087 338.913,266.500 338.342,265.400 337.917 C 264.300 337.491,263.580 337.317,263.800 337.529 M273.292 340.917 L 274.385 341.349 274.501 349.774 L 274.617 358.200 274.708 349.690 L 274.800 341.180 273.774 340.790 C 273.210 340.576,272.625 340.419,272.474 340.443 C 272.323 340.466,272.692 340.679,273.292 340.917 M273.833 358.700 C 273.668 358.865,246.503 359.091,213.467 359.203 L 153.400 359.405 213.224 359.503 C 265.309 359.587,273.148 359.524,273.824 359.013 C 274.251 358.690,274.495 358.420,274.367 358.413 C 274.238 358.406,273.998 358.535,273.833 358.700 M49.338 359.294 C 49.592 359.456,68.250 359.548,90.800 359.500 C 113.350 359.452,126.580 359.365,120.200 359.307 C 90.495 359.037,48.922 359.029,49.338 359.294 M134.000 360.111 C 134.000 360.187,134.585 360.678,135.300 361.201 C 136.104 361.790,136.384 361.887,136.033 361.455 C 135.500 360.799,134.000 359.807,134.000 360.111 M148.841 361.814 C 148.159 362.592,147.605 363.447,147.612 363.714 C 147.619 363.981,147.823 363.840,148.066 363.400 C 148.308 362.960,148.967 362.105,149.528 361.500 C 150.090 360.895,150.445 360.400,150.316 360.400 C 150.188 360.400,149.524 361.036,148.841 361.814 " stroke="none" fill="#cdc6c6" fill-rule="evenodd"></path></g></svg>