<svg id="svg" version="1.1" xmlns="http://www.w3.org/2000/svg" xmlns:xlink="http://www.w3.org/1999/xlink" width="400" height="400" viewBox="0, 0, 400,400"><g id="svgg"><path id="path0" d="M48.400 89.200 C 48.400 89.420,47.950 89.600,47.400 89.600 C 46.850 89.600,46.400 89.780,46.400 90.000 C 46.400 90.220,46.139 90.400,45.820 90.400 C 45.502 90.400,44.738 91.075,44.123 91.900 C 43.508 92.725,42.893 93.490,42.756 93.600 C 42.436 93.858,41.817 95.709,41.921 96.100 C 41.964 96.265,41.820 96.400,41.600 96.400 C 41.380 96.400,41.200 96.749,41.200 97.176 C 41.200 97.603,41.020 98.064,40.800 98.200 C 40.580 98.336,40.400 98.887,40.400 99.424 C 40.400 99.961,40.220 100.400,40.000 100.400 C 39.780 100.400,39.600 101.019,39.600 101.776 C 39.600 102.533,39.420 103.264,39.200 103.400 C 38.980 103.536,38.800 104.537,38.800 105.624 C 38.800 106.711,38.620 107.600,38.400 107.600 C 38.169 107.600,38.000 108.859,38.000 110.576 C 38.000 112.213,37.820 113.664,37.600 113.800 C 37.053 114.138,37.053 141.862,37.600 142.200 C 37.832 142.343,38.000 144.537,38.000 147.424 C 38.000 150.475,38.155 152.400,38.400 152.400 C 38.636 152.400,38.800 153.840,38.800 155.920 C 38.800 157.856,38.970 159.611,39.177 159.820 C 39.385 160.029,39.592 161.505,39.638 163.100 C 39.684 164.695,39.874 166.000,40.061 166.000 C 40.247 166.000,40.400 167.271,40.400 168.824 C 40.400 170.428,40.558 171.550,40.766 171.421 C 40.967 171.297,41.224 172.321,41.336 173.698 C 41.692 178.050,42.585 184.128,42.955 184.728 C 43.071 184.915,43.204 185.773,43.251 186.634 C 43.298 187.495,43.465 188.380,43.623 188.600 C 43.781 188.820,44.020 189.765,44.155 190.700 C 44.772 194.985,44.904 195.600,45.202 195.600 C 45.376 195.600,45.622 196.365,45.747 197.300 C 46.294 201.389,46.506 202.418,46.842 202.626 C 47.039 202.748,47.200 203.477,47.200 204.247 C 47.200 205.079,47.362 205.547,47.600 205.400 C 47.838 205.253,48.000 205.721,48.000 206.553 C 48.000 207.323,48.180 208.064,48.400 208.200 C 48.620 208.336,48.800 208.966,48.800 209.600 C 48.800 210.234,48.980 210.864,49.200 211.000 C 49.420 211.136,49.600 211.777,49.600 212.424 C 49.600 213.071,49.780 213.600,50.000 213.600 C 50.220 213.600,50.400 214.140,50.400 214.800 C 50.400 215.460,50.580 216.000,50.800 216.000 C 51.020 216.000,51.200 216.439,51.200 216.976 C 51.200 217.513,51.344 218.042,51.521 218.151 C 51.697 218.260,52.088 219.253,52.388 220.357 C 52.689 221.461,53.049 222.294,53.188 222.208 C 53.327 222.122,53.671 222.831,53.952 223.785 C 54.234 224.738,54.810 225.889,55.232 226.342 C 55.654 226.796,56.000 227.404,56.000 227.695 C 56.000 227.986,56.360 228.483,56.800 228.800 C 57.240 229.117,57.600 229.607,57.600 229.888 C 57.600 230.170,57.780 230.400,58.000 230.400 C 58.220 230.400,58.400 230.598,58.400 230.840 C 58.400 231.081,58.959 231.801,59.642 232.440 C 60.326 233.078,60.771 233.600,60.633 233.600 C 60.495 233.600,61.151 234.386,62.091 235.347 C 63.031 236.309,63.890 237.074,64.000 237.047 C 64.110 237.021,64.603 237.360,65.095 237.800 C 65.587 238.240,66.544 239.050,67.221 239.600 C 67.899 240.150,68.698 240.825,68.998 241.100 C 69.298 241.375,69.753 241.600,70.011 241.600 C 70.268 241.600,70.983 242.140,71.600 242.800 C 72.217 243.460,72.969 244.000,73.272 244.000 C 73.575 244.000,74.083 244.360,74.400 244.800 C 74.717 245.240,75.217 245.600,75.512 245.600 C 75.806 245.600,75.936 245.780,75.800 246.000 C 75.664 246.220,75.833 246.400,76.176 246.400 C 76.519 246.400,76.800 246.580,76.800 246.800 C 76.800 247.020,77.070 247.200,77.400 247.200 C 77.730 247.200,78.000 247.380,78.000 247.600 C 78.000 247.820,78.190 248.000,78.422 248.000 C 78.654 248.000,79.419 248.539,80.122 249.198 C 80.825 249.857,81.615 250.397,81.877 250.398 C 82.140 250.399,82.592 250.715,82.882 251.100 C 83.172 251.485,83.768 251.997,84.205 252.238 C 86.485 253.492,87.063 253.883,87.993 254.800 C 88.551 255.350,89.265 255.856,89.578 255.925 C 89.892 255.994,90.476 256.426,90.875 256.886 C 91.274 257.346,91.600 257.607,91.600 257.465 C 91.600 257.182,92.815 258.102,94.288 259.500 C 94.810 259.995,95.422 260.400,95.648 260.400 C 96.493 260.400,106.000 270.303,106.000 271.183 C 106.000 271.658,106.180 271.936,106.400 271.800 C 106.627 271.660,106.800 271.996,106.800 272.576 C 106.800 273.139,106.980 273.600,107.200 273.600 C 107.420 273.600,107.600 273.960,107.600 274.400 C 107.600 274.840,107.780 275.200,108.000 275.200 C 108.220 275.200,108.400 275.560,108.400 276.000 C 108.400 276.440,108.564 276.800,108.765 276.800 C 108.965 276.800,109.079 277.115,109.017 277.500 C 108.956 277.885,109.136 278.656,109.418 279.214 C 109.701 279.771,110.060 280.941,110.218 281.814 C 110.375 282.686,110.628 283.580,110.780 283.800 C 110.932 284.020,111.286 285.010,111.567 286.000 C 111.848 286.990,112.240 288.113,112.439 288.495 C 112.638 288.877,112.800 289.577,112.800 290.050 C 112.800 292.001,112.409 291.974,140.905 291.987 C 169.325 292.001,169.481 291.991,168.784 290.159 C 168.597 289.666,168.407 287.893,168.363 286.219 C 168.319 284.544,168.129 283.080,167.941 282.964 C 167.754 282.848,167.600 281.503,167.600 279.976 C 167.600 278.392,167.428 277.200,167.200 277.200 C 166.975 277.200,166.800 276.075,166.800 274.624 C 166.800 273.207,166.620 271.936,166.400 271.800 C 166.180 271.664,166.000 270.494,166.000 269.200 C 166.000 267.906,165.820 266.736,165.600 266.600 C 165.380 266.464,165.200 265.474,165.200 264.400 C 165.200 263.326,165.020 262.336,164.800 262.200 C 164.580 262.064,164.400 260.973,164.400 259.776 C 164.400 258.579,164.220 257.600,164.000 257.600 C 163.780 257.600,163.600 256.801,163.600 255.824 C 163.600 254.847,163.420 253.936,163.200 253.800 C 162.980 253.664,162.800 252.843,162.800 251.976 C 162.800 251.109,162.620 250.400,162.400 250.400 C 162.180 250.400,162.000 249.680,162.000 248.800 C 162.000 247.920,161.820 247.200,161.600 247.200 C 161.380 247.200,161.200 246.581,161.200 245.824 C 161.200 245.067,161.020 244.336,160.800 244.200 C 160.580 244.064,160.400 243.513,160.400 242.976 C 160.400 242.439,160.220 242.000,160.000 242.000 C 159.780 242.000,159.600 241.475,159.600 240.833 C 159.600 240.192,159.437 239.607,159.238 239.533 C 159.039 239.460,158.814 238.950,158.738 238.400 C 158.662 237.850,158.500 237.310,158.378 237.200 C 158.087 236.939,156.583 233.655,156.225 232.500 C 156.072 232.005,155.778 231.600,155.573 231.600 C 155.368 231.600,155.200 231.330,155.200 231.000 C 155.200 230.670,155.020 230.400,154.800 230.400 C 154.580 230.400,154.400 230.149,154.400 229.843 C 154.400 229.536,154.104 229.172,153.743 229.033 C 153.381 228.895,153.195 228.672,153.329 228.538 C 153.462 228.404,153.038 227.796,152.386 227.187 C 151.734 226.578,151.200 225.881,151.200 225.640 C 151.200 225.398,150.480 224.459,149.600 223.552 C 148.720 222.645,148.000 221.754,148.000 221.571 C 148.000 221.388,147.100 220.338,146.000 219.238 C 144.900 218.138,144.000 217.039,144.000 216.795 C 144.000 216.552,143.820 216.464,143.600 216.600 C 143.380 216.736,143.200 216.577,143.200 216.248 C 143.200 215.918,141.523 213.927,139.474 211.824 C 137.425 209.721,135.850 208.000,135.974 208.000 C 136.213 207.999,134.269 206.252,133.127 205.441 C 132.757 205.178,132.397 204.709,132.327 204.400 C 132.147 203.601,130.536 202.000,129.913 202.000 C 129.625 202.000,129.212 201.595,128.995 201.100 C 128.778 200.605,128.510 200.259,128.400 200.331 C 128.290 200.403,126.264 198.558,123.897 196.231 C 121.530 193.904,119.415 192.000,119.197 192.000 C 118.979 192.000,118.800 191.820,118.800 191.600 C 118.800 191.380,118.606 191.200,118.369 191.200 C 118.131 191.200,117.252 190.487,116.415 189.615 C 115.577 188.744,114.651 187.979,114.355 187.915 C 114.060 187.852,113.153 187.125,112.341 186.300 C 111.528 185.475,110.651 184.800,110.392 184.800 C 110.133 184.800,109.417 184.260,108.800 183.600 C 108.183 182.940,107.526 182.399,107.340 182.398 C 107.153 182.397,106.425 181.857,105.722 181.198 C 105.019 180.539,104.299 179.988,104.122 179.973 C 103.945 179.959,102.990 179.330,102.000 178.575 C 101.010 177.821,99.754 177.011,99.208 176.777 C 98.663 176.542,98.123 176.226,98.008 176.075 C 97.640 175.589,96.030 174.800,95.405 174.800 C 95.072 174.800,94.800 174.620,94.800 174.400 C 94.800 174.180,94.440 174.000,94.000 174.000 C 93.560 174.000,93.200 173.854,93.200 173.675 C 93.200 173.496,92.570 173.102,91.800 172.800 C 91.030 172.498,90.400 172.104,90.400 171.925 C 90.400 171.746,90.040 171.600,89.600 171.600 C 89.160 171.600,88.800 171.420,88.800 171.200 C 88.800 170.980,88.451 170.800,88.024 170.800 C 87.597 170.800,87.136 170.620,87.000 170.400 C 86.864 170.180,86.313 170.000,85.776 170.000 C 85.239 170.000,84.800 169.820,84.800 169.600 C 84.800 169.380,84.181 169.200,83.424 169.200 C 82.667 169.200,81.936 169.020,81.800 168.800 C 81.664 168.580,80.123 168.400,78.376 168.400 C 75.630 168.400,75.196 168.305,75.169 167.700 C 75.153 167.315,75.047 166.640,74.934 166.200 C 74.821 165.760,74.676 164.472,74.611 163.338 C 74.547 162.204,74.398 161.121,74.282 160.932 C 74.165 160.743,74.025 159.601,73.971 158.394 C 73.918 157.187,73.726 155.904,73.546 155.543 C 73.365 155.181,73.185 153.959,73.145 152.827 C 73.105 151.695,72.921 150.675,72.736 150.560 C 72.551 150.446,72.400 149.499,72.400 148.456 C 72.400 147.413,72.237 146.389,72.037 146.180 C 71.837 145.971,71.577 144.900,71.459 143.800 C 71.340 142.700,71.122 140.675,70.974 139.300 C 70.825 137.925,70.545 136.800,70.352 136.800 C 70.158 136.800,70.000 135.900,70.000 134.800 C 70.000 133.700,69.820 132.800,69.600 132.800 C 69.380 132.800,69.200 131.900,69.200 130.800 C 69.200 129.700,69.020 128.800,68.800 128.800 C 68.580 128.800,68.400 128.080,68.400 127.200 C 68.400 126.320,68.220 125.600,68.000 125.600 C 67.780 125.600,67.600 124.805,67.600 123.833 C 67.600 122.862,67.429 122.007,67.220 121.933 C 67.011 121.860,66.796 121.035,66.742 120.100 C 66.688 119.165,66.499 118.400,66.322 118.400 C 66.145 118.400,66.000 117.770,66.000 117.000 C 66.000 116.230,65.820 115.600,65.600 115.600 C 65.380 115.600,65.200 115.006,65.200 114.280 C 65.200 113.554,65.021 112.781,64.802 112.562 C 64.584 112.344,64.364 111.678,64.315 111.082 C 64.266 110.487,64.085 110.000,63.913 110.000 C 63.741 110.000,63.600 109.460,63.600 108.800 C 63.600 108.140,63.420 107.600,63.200 107.600 C 62.980 107.600,62.800 107.060,62.800 106.400 C 62.800 105.740,62.620 105.200,62.400 105.200 C 62.180 105.200,62.000 104.840,62.000 104.400 C 62.000 103.960,61.820 103.600,61.600 103.600 C 61.380 103.600,61.200 103.060,61.200 102.400 C 61.200 101.740,61.020 101.200,60.800 101.200 C 60.580 101.200,60.400 100.649,60.400 99.976 C 60.400 99.263,60.233 98.856,60.000 99.000 C 59.780 99.136,59.600 98.887,59.600 98.447 C 59.600 98.007,59.420 97.536,59.200 97.400 C 58.980 97.264,58.800 96.895,58.800 96.581 C 58.800 96.266,58.529 95.692,58.197 95.305 C 57.865 94.917,57.555 94.420,57.507 94.200 C 57.423 93.812,57.075 93.349,55.400 91.403 C 53.698 89.426,48.400 87.758,48.400 89.200 M346.800 89.666 C 344.994 90.711,343.571 92.030,343.819 92.431 C 343.926 92.604,343.652 92.999,343.209 93.309 C 342.767 93.618,342.524 93.991,342.669 94.136 C 342.814 94.281,342.723 94.400,342.467 94.400 C 342.210 94.400,342.000 94.670,342.000 95.000 C 342.000 95.330,341.820 95.600,341.600 95.600 C 341.380 95.600,341.200 95.949,341.200 96.376 C 341.200 96.803,341.020 97.264,340.800 97.400 C 340.580 97.536,340.400 98.007,340.400 98.447 C 340.400 98.887,340.220 99.136,340.000 99.000 C 339.767 98.856,339.600 99.263,339.600 99.976 C 339.600 100.649,339.420 101.200,339.200 101.200 C 338.980 101.200,338.800 101.661,338.800 102.224 C 338.800 102.787,338.658 103.160,338.485 103.052 C 338.312 102.945,338.130 103.340,338.081 103.929 C 338.033 104.518,337.815 105.060,337.597 105.133 C 337.378 105.207,337.200 105.781,337.200 106.410 C 337.200 107.038,337.020 107.664,336.800 107.800 C 336.580 107.936,336.400 108.476,336.400 109.000 C 336.400 109.524,336.220 110.064,336.000 110.200 C 335.780 110.336,335.600 110.876,335.600 111.400 C 335.600 111.924,335.420 112.464,335.200 112.600 C 334.980 112.736,334.800 113.366,334.800 114.000 C 334.800 114.634,334.620 115.264,334.400 115.400 C 334.180 115.536,334.000 116.267,334.000 117.024 C 334.000 117.781,333.820 118.400,333.600 118.400 C 333.380 118.400,333.200 119.120,333.200 120.000 C 333.200 120.880,333.055 121.600,332.878 121.600 C 332.701 121.600,332.512 122.365,332.457 123.300 C 332.402 124.235,332.187 125.171,331.979 125.380 C 331.770 125.589,331.600 126.444,331.600 127.280 C 331.600 128.116,331.437 128.800,331.239 128.800 C 331.040 128.800,330.777 129.655,330.654 130.700 C 330.217 134.421,329.906 136.206,329.625 136.600 C 329.469 136.820,329.292 137.808,329.233 138.796 C 329.174 139.785,328.986 140.865,328.817 141.196 C 328.648 141.528,328.388 142.790,328.240 144.000 C 328.092 145.210,327.792 147.280,327.572 148.600 C 326.722 153.710,326.446 155.463,326.218 157.200 C 326.088 158.190,325.860 159.810,325.712 160.800 C 325.565 161.790,325.400 163.230,325.347 164.000 C 325.294 164.770,325.129 166.075,324.981 166.900 L 324.712 168.400 321.580 168.400 C 319.857 168.400,318.336 168.580,318.200 168.800 C 318.064 169.020,317.323 169.200,316.553 169.200 C 315.721 169.200,315.253 169.362,315.400 169.600 C 315.536 169.820,315.322 170.003,314.924 170.006 C 313.804 170.015,311.160 171.027,311.463 171.330 C 311.612 171.478,311.450 171.600,311.104 171.600 C 310.388 171.600,307.069 173.245,306.867 173.700 C 306.793 173.865,306.388 174.000,305.967 174.000 C 305.545 174.000,305.200 174.180,305.200 174.400 C 305.200 174.620,304.862 174.800,304.449 174.800 C 304.036 174.800,303.474 175.070,303.200 175.400 C 302.926 175.730,302.536 176.000,302.333 176.000 C 302.130 176.000,300.630 176.900,299.000 178.000 C 297.370 179.100,295.915 180.000,295.767 180.000 C 295.618 180.000,294.831 180.585,294.018 181.300 C 291.612 183.414,289.823 184.785,289.460 184.793 C 289.274 184.797,288.644 185.302,288.060 185.915 C 287.477 186.529,286.370 187.467,285.600 188.000 C 284.830 188.533,283.723 189.471,283.140 190.085 C 282.556 190.698,281.881 191.200,281.640 191.200 C 281.398 191.200,281.200 191.380,281.200 191.600 C 281.200 191.820,281.024 192.000,280.810 192.000 C 280.595 192.000,278.528 193.862,276.215 196.139 C 273.903 198.415,271.933 200.199,271.837 200.104 C 271.742 200.009,271.359 200.396,270.986 200.965 C 270.613 201.534,270.141 202.000,269.936 202.000 C 269.731 202.000,269.114 202.450,268.564 203.000 C 268.014 203.550,267.694 204.000,267.853 204.000 C 268.011 204.000,267.178 204.900,266.000 206.000 C 264.822 207.100,263.959 208.000,264.082 208.000 C 264.205 208.000,262.618 209.707,260.555 211.794 C 258.492 213.881,256.758 215.793,256.702 216.044 C 256.646 216.295,255.565 217.553,254.300 218.838 C 253.035 220.124,252.000 221.339,252.000 221.539 C 252.000 221.740,251.325 222.615,250.500 223.484 C 249.675 224.353,248.946 225.300,248.881 225.589 C 248.815 225.878,248.230 226.611,247.581 227.218 C 246.931 227.825,246.400 228.519,246.400 228.760 C 246.400 229.002,246.220 229.200,246.000 229.200 C 245.780 229.200,245.600 229.470,245.600 229.800 C 245.600 230.130,245.420 230.400,245.200 230.400 C 244.980 230.400,244.800 230.670,244.800 231.000 C 244.800 231.330,244.655 231.600,244.477 231.600 C 244.123 231.600,242.800 234.388,242.800 235.134 C 242.800 235.390,242.620 235.600,242.400 235.600 C 242.180 235.600,242.000 235.960,242.000 236.400 C 242.000 236.840,241.859 237.200,241.687 237.200 C 241.515 237.200,241.334 237.695,241.284 238.300 C 241.234 238.905,241.015 239.460,240.797 239.533 C 240.578 239.607,240.400 240.192,240.400 240.833 C 240.400 241.475,240.220 242.000,240.000 242.000 C 239.780 242.000,239.600 242.439,239.600 242.976 C 239.600 243.513,239.420 244.064,239.200 244.200 C 238.980 244.336,238.800 244.966,238.800 245.600 C 238.800 246.234,238.620 246.864,238.400 247.000 C 238.180 247.136,238.000 247.946,238.000 248.800 C 238.000 249.654,237.820 250.464,237.600 250.600 C 237.380 250.736,237.200 251.456,237.200 252.200 C 237.200 252.944,237.020 253.664,236.800 253.800 C 236.580 253.936,236.400 254.847,236.400 255.824 C 236.400 256.801,236.237 257.600,236.037 257.600 C 235.837 257.600,235.572 258.545,235.446 259.700 C 234.823 265.446,234.700 266.228,234.363 266.580 C 234.163 266.789,234.000 267.903,234.000 269.056 C 234.000 270.209,233.820 271.264,233.600 271.400 C 233.380 271.536,233.200 272.861,233.200 274.344 C 233.200 275.827,233.035 277.211,232.832 277.420 C 232.479 277.786,232.234 279.855,231.760 286.500 C 231.639 288.205,231.403 289.600,231.236 289.600 C 230.679 289.600,230.922 290.994,231.565 291.487 C 232.355 292.094,286.030 292.226,287.154 291.625 C 287.540 291.418,288.086 290.473,288.367 289.525 C 288.648 288.576,289.040 287.487,289.239 287.105 C 289.438 286.723,289.608 286.093,289.618 285.705 C 289.627 285.317,289.906 284.280,290.238 283.400 C 291.035 281.283,291.040 281.264,291.395 279.300 C 291.564 278.365,291.859 277.600,292.051 277.600 C 292.243 277.600,292.400 277.240,292.400 276.800 C 292.400 276.360,292.580 276.000,292.800 276.000 C 293.020 276.000,293.200 275.640,293.200 275.200 C 293.200 274.760,293.380 274.400,293.600 274.400 C 293.820 274.400,294.000 274.040,294.000 273.600 C 294.000 273.160,294.180 272.800,294.400 272.800 C 294.620 272.800,294.800 272.429,294.800 271.976 C 294.800 271.523,294.980 271.264,295.200 271.400 C 295.420 271.536,295.600 271.368,295.600 271.027 C 295.600 270.685,296.005 269.940,296.500 269.371 C 296.995 268.802,297.351 268.256,297.290 268.158 C 297.091 267.834,304.957 260.403,305.507 260.396 C 305.668 260.394,306.225 259.854,306.745 259.196 C 307.265 258.538,307.930 258.000,308.222 258.000 C 308.515 258.000,308.990 257.667,309.277 257.260 C 309.565 256.852,310.412 256.204,311.159 255.819 C 311.906 255.434,312.950 254.687,313.477 254.159 C 314.005 253.632,314.565 253.200,314.722 253.200 C 314.880 253.200,315.456 252.787,316.004 252.283 C 316.552 251.779,317.900 250.751,319.000 250.000 C 320.100 249.249,321.448 248.221,321.996 247.717 C 322.544 247.213,323.110 246.800,323.254 246.800 C 323.398 246.800,324.093 246.261,324.798 245.602 C 325.504 244.942,326.271 244.520,326.502 244.663 C 326.749 244.816,326.805 244.732,326.638 244.462 C 326.481 244.208,326.561 244.000,326.816 244.000 C 327.071 244.000,327.783 243.460,328.400 242.800 C 329.017 242.140,329.726 241.600,329.977 241.600 C 330.445 241.600,330.638 241.463,332.710 239.651 C 333.371 239.073,334.315 238.330,334.807 238.000 C 335.967 237.223,339.736 233.600,339.384 233.600 C 339.236 233.600,339.674 233.078,340.358 232.440 C 341.041 231.801,341.600 231.081,341.600 230.840 C 341.600 230.598,341.780 230.400,342.000 230.400 C 342.220 230.400,342.400 230.218,342.400 229.996 C 342.400 229.774,342.909 229.060,343.532 228.408 C 344.155 227.757,344.904 226.498,345.196 225.612 C 345.489 224.725,345.879 224.000,346.064 224.000 C 346.249 224.000,346.400 223.539,346.400 222.976 C 346.400 222.413,346.550 222.045,346.733 222.158 C 346.916 222.271,347.311 221.461,347.612 220.357 C 347.912 219.253,348.303 218.260,348.479 218.151 C 348.656 218.042,348.800 217.513,348.800 216.976 C 348.800 216.439,348.980 216.000,349.200 216.000 C 349.420 216.000,349.600 215.460,349.600 214.800 C 349.600 214.140,349.760 213.600,349.956 213.600 C 350.152 213.600,350.422 212.970,350.556 212.200 C 350.690 211.430,350.910 210.170,351.044 209.400 C 351.178 208.630,351.448 208.000,351.644 208.000 C 351.840 208.000,352.000 207.359,352.000 206.576 C 352.000 205.729,352.162 205.253,352.400 205.400 C 352.638 205.547,352.800 205.079,352.800 204.247 C 352.800 203.477,352.961 202.748,353.158 202.626 C 353.355 202.505,353.610 201.729,353.725 200.903 C 353.840 200.076,354.144 198.590,354.400 197.600 C 354.656 196.610,354.960 195.124,355.075 194.297 C 355.190 193.471,355.445 192.695,355.642 192.574 C 355.839 192.452,356.000 191.564,356.000 190.600 C 356.000 189.636,356.183 188.734,356.407 188.596 C 356.630 188.458,356.736 188.221,356.643 188.069 C 356.549 187.917,356.641 186.985,356.847 185.997 C 357.599 182.400,358.404 176.956,358.667 173.700 C 358.778 172.325,359.033 171.200,359.234 171.200 C 359.435 171.200,359.600 169.929,359.600 168.376 C 359.600 166.596,359.748 165.644,360.000 165.800 C 360.254 165.957,360.400 164.871,360.400 162.824 C 360.400 160.941,360.566 159.600,360.800 159.600 C 361.039 159.600,361.200 158.059,361.200 155.776 C 361.200 153.329,361.344 152.042,361.600 152.200 C 361.859 152.360,362.000 150.671,362.000 147.424 C 362.000 144.509,362.160 142.400,362.381 142.400 C 362.614 142.400,362.773 136.905,362.790 128.200 C 362.809 118.772,362.681 114.000,362.409 114.000 C 362.164 114.000,362.000 112.714,362.000 110.800 C 362.000 108.933,361.833 107.600,361.600 107.600 C 361.380 107.600,361.200 106.700,361.200 105.600 C 361.200 104.500,361.020 103.600,360.800 103.600 C 360.580 103.600,360.400 102.880,360.400 102.000 C 360.400 101.120,360.220 100.400,360.000 100.400 C 359.780 100.400,359.600 99.860,359.600 99.200 C 359.600 98.540,359.420 98.000,359.200 98.000 C 358.980 98.000,358.800 97.668,358.800 97.261 C 358.800 96.551,357.711 94.013,357.229 93.600 C 357.101 93.490,356.492 92.725,355.877 91.900 C 355.262 91.075,354.498 90.400,354.180 90.400 C 353.861 90.400,353.600 90.220,353.600 90.000 C 353.600 89.780,353.251 89.600,352.824 89.600 C 352.397 89.600,351.936 89.420,351.800 89.200 C 351.381 88.523,348.277 88.812,346.800 89.666 " stroke="none" fill="#fba59e" fill-rule="evenodd"></path><path id="path1" d="M99.600 341.800 L 99.600 392.400 141.800 392.400 L 184.000 392.400 184.000 341.800 L 184.000 291.200 176.433 291.200 C 170.736 291.200,168.826 291.323,168.700 291.700 C 168.424 292.528,115.016 292.633,113.757 291.808 C 113.020 291.326,111.460 291.200,106.214 291.200 L 99.600 291.200 99.600 341.800 M216.000 341.800 L 216.000 392.400 258.200 392.400 L 300.400 392.400 300.400 341.800 L 300.400 291.200 294.100 291.213 C 289.195 291.223,287.628 291.355,287.024 291.813 C 285.841 292.707,232.352 292.695,231.457 291.800 C 230.967 291.310,229.498 291.200,223.429 291.200 L 216.000 291.200 216.000 341.800 " stroke="none" fill="#549cfc" fill-rule="evenodd"></path><path id="path2" d="M144.659 7.874 C 144.508 8.025,143.263 8.298,141.892 8.482 C 138.443 8.942,137.954 9.042,136.700 9.542 C 136.095 9.783,135.600 9.891,135.600 9.781 C 135.600 9.671,135.158 9.871,134.618 10.225 C 134.077 10.579,133.447 10.753,133.218 10.611 C 132.988 10.469,132.800 10.543,132.800 10.776 C 132.800 11.009,132.339 11.200,131.776 11.200 C 131.196 11.200,130.860 11.373,131.000 11.600 C 131.139 11.826,130.815 12.000,130.257 12.000 C 129.712 12.000,129.207 12.166,129.133 12.370 C 129.060 12.573,128.737 12.798,128.416 12.870 C 128.094 12.941,127.475 13.315,127.040 13.700 C 126.605 14.085,125.923 14.400,125.525 14.400 C 125.126 14.400,124.800 14.580,124.800 14.800 C 124.800 15.020,124.530 15.200,124.200 15.200 C 123.870 15.200,123.600 15.380,123.600 15.600 C 123.600 15.820,123.330 16.000,123.000 16.000 C 122.670 16.000,122.400 16.180,122.400 16.400 C 122.400 16.620,122.175 16.801,121.900 16.802 C 121.625 16.803,120.508 17.612,119.418 18.601 C 118.327 19.589,117.112 20.501,116.718 20.626 C 116.323 20.751,115.987 21.067,115.971 21.327 C 115.955 21.587,115.082 22.520,114.031 23.400 C 112.979 24.280,112.193 25.135,112.283 25.300 C 112.373 25.465,112.299 25.600,112.118 25.600 C 111.686 25.600,108.400 29.815,108.400 30.370 C 108.400 30.606,108.220 30.800,108.000 30.800 C 107.780 30.800,107.600 31.171,107.600 31.624 C 107.600 32.077,107.420 32.336,107.200 32.200 C 106.980 32.064,106.800 32.233,106.800 32.576 C 106.800 32.919,106.620 33.200,106.400 33.200 C 106.180 33.200,106.000 33.560,106.000 34.000 C 106.000 34.440,105.820 34.800,105.600 34.800 C 105.380 34.800,105.200 35.160,105.200 35.600 C 105.200 36.040,105.020 36.400,104.800 36.400 C 104.580 36.400,104.400 36.760,104.400 37.200 C 104.400 37.640,104.220 38.000,104.000 38.000 C 103.780 38.000,103.600 38.360,103.600 38.800 C 103.600 39.240,103.420 39.600,103.200 39.600 C 102.980 39.600,102.800 39.960,102.800 40.400 C 102.800 40.840,102.620 41.200,102.400 41.200 C 102.180 41.200,102.000 41.740,102.000 42.400 C 102.000 43.060,101.820 43.600,101.600 43.600 C 101.380 43.600,101.200 44.151,101.200 44.824 C 101.200 45.497,101.038 45.947,100.840 45.825 C 100.642 45.703,100.378 46.367,100.253 47.301 C 99.705 51.390,99.494 52.418,99.158 52.626 C 98.961 52.748,98.800 54.781,98.800 57.144 C 98.800 60.001,98.636 61.604,98.310 61.930 C 97.931 62.309,97.927 62.591,98.293 63.178 C 98.596 63.663,98.786 66.108,98.821 69.968 C 98.851 73.285,99.038 76.100,99.238 76.223 C 99.437 76.346,99.600 77.607,99.600 79.024 C 99.600 80.475,99.775 81.600,100.000 81.600 C 100.220 81.600,100.400 82.374,100.400 83.320 C 100.400 84.266,100.570 85.211,100.778 85.420 C 100.985 85.629,101.198 86.645,101.251 87.678 C 101.304 88.711,101.494 89.465,101.674 89.355 C 101.853 89.244,102.000 89.883,102.000 90.776 C 102.000 91.669,102.180 92.400,102.400 92.400 C 102.620 92.400,102.800 93.120,102.800 94.000 C 102.800 94.880,102.980 95.600,103.200 95.600 C 103.420 95.600,103.600 96.140,103.600 96.800 C 103.600 97.460,103.780 98.000,104.000 98.000 C 104.220 98.000,104.400 98.540,104.400 99.200 C 104.400 99.860,104.580 100.400,104.800 100.400 C 105.020 100.400,105.200 100.925,105.200 101.567 C 105.200 102.208,105.388 102.796,105.618 102.873 C 105.848 102.949,106.065 103.402,106.101 103.878 C 106.137 104.355,106.309 104.656,106.483 104.549 C 106.657 104.441,106.800 104.914,106.800 105.600 C 106.800 106.330,106.966 106.745,107.200 106.600 C 107.427 106.460,107.600 106.796,107.600 107.376 C 107.600 107.939,107.780 108.400,108.000 108.400 C 108.220 108.400,108.400 108.850,108.400 109.400 C 108.400 109.950,108.610 110.400,108.867 110.400 C 109.123 110.400,109.220 110.514,109.081 110.653 C 108.942 110.792,109.040 111.287,109.300 111.753 C 109.559 112.219,109.786 112.690,109.804 112.800 C 109.890 113.344,112.530 118.433,112.818 118.611 C 113.284 118.899,114.400 121.209,114.400 121.885 C 114.400 122.194,114.580 122.336,114.800 122.200 C 115.020 122.064,115.200 122.308,115.200 122.743 C 115.200 123.178,115.345 123.593,115.523 123.667 C 115.883 123.815,118.400 127.410,118.400 127.776 C 118.400 127.903,118.940 128.572,119.600 129.263 C 120.260 129.954,120.800 130.762,120.800 131.059 C 120.800 131.357,120.980 131.600,121.200 131.600 C 121.420 131.600,121.600 131.971,121.600 132.424 C 121.600 132.877,121.753 133.153,121.940 133.037 C 122.127 132.922,122.517 133.271,122.807 133.814 C 123.098 134.356,123.485 134.800,123.668 134.800 C 123.850 134.800,124.000 135.148,124.000 135.573 C 124.000 135.998,124.356 136.459,124.792 136.597 C 125.227 136.736,125.543 136.973,125.493 137.124 C 125.325 137.633,127.793 140.783,128.367 140.791 C 128.678 140.796,128.820 140.914,128.681 141.053 C 128.542 141.192,128.962 141.804,129.614 142.413 C 130.266 143.022,130.800 143.707,130.800 143.934 C 130.800 144.160,131.160 144.460,131.600 144.600 C 132.040 144.740,132.400 145.173,132.400 145.563 C 132.400 145.953,132.850 146.477,133.400 146.727 C 133.950 146.978,134.400 147.357,134.400 147.569 C 134.400 148.139,139.070 152.797,139.356 152.511 C 139.490 152.377,139.600 152.597,139.600 153.000 C 139.600 153.403,139.696 153.637,139.814 153.520 C 139.931 153.402,140.898 154.137,141.962 155.153 C 145.533 158.563,148.561 161.200,148.905 161.200 C 149.093 161.200,149.144 161.367,149.018 161.571 C 148.892 161.775,149.142 162.055,149.574 162.192 C 150.269 162.412,150.920 162.915,153.700 165.379 C 154.085 165.721,154.508 166.000,154.640 166.000 C 154.771 166.000,155.383 166.540,156.000 167.200 C 156.617 167.860,157.337 168.400,157.600 168.400 C 157.863 168.400,158.578 168.934,159.187 169.586 C 159.796 170.238,160.404 170.662,160.538 170.529 C 160.672 170.395,160.895 170.581,161.033 170.943 C 161.172 171.304,161.536 171.600,161.843 171.600 C 162.149 171.600,162.400 171.780,162.400 172.000 C 162.400 172.220,162.655 172.400,162.967 172.400 C 163.278 172.400,163.593 172.550,163.667 172.733 C 163.805 173.078,167.377 175.386,169.293 176.368 C 169.895 176.676,170.742 177.259,171.177 177.664 C 171.611 178.069,172.244 178.400,172.583 178.400 C 172.922 178.400,173.200 178.550,173.200 178.732 C 173.200 178.915,173.695 179.314,174.300 179.619 C 175.787 180.369,178.968 182.528,179.133 182.900 C 179.207 183.065,179.524 183.200,179.839 183.200 C 180.517 183.200,181.848 183.926,182.955 184.900 C 183.393 185.285,184.088 185.600,184.499 185.600 C 184.911 185.600,185.136 185.780,185.000 186.000 C 184.864 186.220,185.008 186.400,185.320 186.400 C 185.997 186.400,190.942 188.869,191.134 189.302 C 191.208 189.469,191.453 189.491,191.679 189.351 C 191.905 189.212,192.243 189.346,192.430 189.649 C 192.618 189.952,192.912 190.206,193.085 190.214 C 193.258 190.222,193.781 190.441,194.247 190.700 C 194.713 190.960,195.182 191.085,195.288 190.979 C 195.394 190.873,195.955 191.032,196.534 191.332 C 197.114 191.633,197.471 191.996,197.327 192.139 C 197.184 192.283,197.536 192.400,198.110 192.400 C 198.683 192.400,199.264 192.580,199.400 192.800 C 199.536 193.020,199.997 193.200,200.424 193.200 C 200.851 193.200,201.200 193.380,201.200 193.600 C 201.200 194.313,204.277 194.024,206.062 193.143 C 207.018 192.672,208.160 192.148,208.600 191.979 C 210.246 191.348,211.006 191.068,211.200 191.020 C 211.310 190.994,211.805 190.747,212.300 190.472 C 212.795 190.197,213.203 190.113,213.206 190.286 C 213.209 190.459,213.344 190.420,213.506 190.200 C 213.914 189.645,217.153 188.000,217.838 188.000 C 218.147 188.000,218.400 187.820,218.400 187.600 C 218.400 187.380,218.760 187.200,219.200 187.200 C 219.640 187.200,220.000 187.020,220.000 186.800 C 220.000 186.580,220.371 186.400,220.824 186.400 C 221.277 186.400,221.536 186.220,221.400 186.000 C 221.264 185.780,221.478 185.594,221.876 185.587 C 222.820 185.571,224.071 184.613,223.694 184.196 C 223.532 184.018,223.610 183.992,223.868 184.140 C 224.125 184.287,224.607 184.136,224.939 183.804 C 225.271 183.472,225.826 183.200,226.171 183.200 C 226.517 183.200,226.800 183.020,226.800 182.800 C 226.800 182.580,227.083 182.400,227.429 182.400 C 227.774 182.400,228.329 182.128,228.661 181.796 C 228.993 181.464,229.458 181.312,229.694 181.458 C 229.949 181.615,230.007 181.536,229.838 181.262 C 229.669 180.988,229.807 180.800,230.176 180.800 C 230.519 180.800,230.800 180.620,230.800 180.400 C 230.800 180.180,231.160 180.000,231.600 180.000 C 232.040 180.000,232.400 179.820,232.400 179.600 C 232.400 179.380,232.636 179.200,232.925 179.200 C 233.213 179.200,233.836 178.840,234.308 178.400 C 234.780 177.960,235.404 177.600,235.695 177.600 C 235.986 177.600,236.483 177.240,236.800 176.800 C 237.117 176.360,237.685 176.000,238.061 176.000 C 238.438 176.000,238.859 175.644,238.997 175.208 C 239.136 174.773,239.373 174.434,239.524 174.455 C 240.248 174.559,240.766 174.322,241.838 173.400 C 242.477 172.851,243.182 172.401,243.404 172.400 C 243.626 172.400,244.032 172.040,244.307 171.600 C 244.582 171.160,245.176 170.800,245.627 170.800 C 246.078 170.800,246.336 170.620,246.200 170.400 C 246.064 170.180,246.194 170.000,246.488 170.000 C 246.783 170.000,247.276 169.650,247.585 169.221 C 247.893 168.793,248.263 168.516,248.407 168.605 C 248.551 168.694,249.329 168.144,250.135 167.383 C 250.942 166.622,251.901 166.000,252.268 166.000 C 252.634 166.000,252.822 165.889,252.686 165.752 C 252.382 165.449,253.379 164.400,253.971 164.400 C 254.207 164.400,254.400 164.220,254.400 164.000 C 254.400 163.780,254.681 163.600,255.024 163.600 C 255.367 163.600,255.536 163.420,255.400 163.200 C 255.264 162.980,255.404 162.800,255.712 162.800 C 256.020 162.800,257.088 161.900,258.086 160.800 C 259.083 159.700,260.203 158.800,260.574 158.800 C 260.944 158.800,261.136 158.620,261.000 158.400 C 260.864 158.180,260.950 158.000,261.191 158.000 C 261.691 158.000,261.982 157.742,267.300 152.589 C 269.445 150.511,271.200 148.628,271.200 148.405 C 271.200 148.182,271.393 148.000,271.629 148.000 C 271.864 148.000,272.327 147.730,272.657 147.400 C 272.987 147.070,273.156 146.800,273.032 146.800 C 272.909 146.800,273.311 146.305,273.927 145.700 C 274.544 145.095,275.464 144.001,275.973 143.269 C 277.026 141.754,278.800 139.899,278.800 140.311 C 278.800 140.462,279.285 139.869,279.878 138.993 C 280.471 138.117,281.146 137.197,281.378 136.949 C 281.610 136.701,282.070 136.096,282.400 135.605 C 282.730 135.114,283.494 134.173,284.098 133.515 C 284.703 132.857,285.117 132.190,285.020 132.032 C 284.923 131.875,285.193 131.493,285.621 131.185 C 286.050 130.876,286.400 130.293,286.400 129.888 C 286.400 129.484,286.580 129.264,286.800 129.400 C 287.020 129.536,287.200 129.406,287.200 129.112 C 287.200 128.817,287.560 128.317,288.000 128.000 C 288.440 127.683,288.805 127.148,288.811 126.812 C 288.817 126.475,289.352 125.500,290.000 124.644 C 290.648 123.788,291.082 122.933,290.965 122.744 C 290.848 122.555,290.932 122.400,291.151 122.400 C 291.369 122.400,291.773 121.780,292.047 121.021 C 292.321 120.263,292.693 119.734,292.873 119.845 C 293.053 119.956,293.200 119.677,293.200 119.224 C 293.200 118.771,293.380 118.400,293.600 118.400 C 293.820 118.400,294.000 118.040,294.000 117.600 C 294.000 117.160,294.180 116.800,294.400 116.800 C 294.620 116.800,294.800 116.440,294.800 116.000 C 294.800 115.560,294.980 115.200,295.200 115.200 C 295.420 115.200,295.600 114.966,295.600 114.680 C 295.600 113.944,296.541 112.007,296.900 112.003 C 297.065 112.001,297.200 111.640,297.200 111.200 C 297.200 110.760,297.380 110.400,297.600 110.400 C 297.820 110.400,298.000 110.051,298.000 109.624 C 298.000 109.197,298.180 108.736,298.400 108.600 C 298.620 108.464,298.800 108.003,298.800 107.576 C 298.800 107.149,298.980 106.800,299.200 106.800 C 299.420 106.800,299.600 106.339,299.600 105.776 C 299.600 105.196,299.773 104.860,300.000 105.000 C 300.226 105.140,300.400 104.808,300.400 104.236 C 300.400 103.679,300.760 102.583,301.200 101.800 C 301.640 101.017,302.000 99.931,302.000 99.388 C 302.000 98.845,302.180 98.400,302.400 98.400 C 302.620 98.400,302.800 97.871,302.800 97.224 C 302.800 96.577,302.980 95.936,303.200 95.800 C 303.420 95.664,303.600 95.023,303.600 94.376 C 303.600 93.729,303.791 93.200,304.024 93.200 C 304.257 93.200,304.347 93.038,304.225 92.841 C 304.028 92.522,304.373 91.076,305.625 86.972 C 305.831 86.296,306.000 85.092,306.000 84.295 C 306.000 83.499,306.135 82.764,306.300 82.662 C 306.465 82.560,306.658 81.434,306.727 80.161 C 306.797 78.888,306.996 77.566,307.170 77.223 C 308.006 75.570,307.892 53.439,307.039 52.063 C 306.856 51.767,306.716 50.822,306.728 49.963 C 306.740 49.103,306.581 48.400,306.375 48.400 C 306.169 48.400,306.000 47.770,306.000 47.000 C 306.000 46.230,305.820 45.600,305.600 45.600 C 305.380 45.600,305.200 45.168,305.200 44.641 C 305.200 44.113,304.705 42.718,304.100 41.541 C 303.495 40.363,302.939 39.040,302.863 38.600 C 302.788 38.160,302.563 37.740,302.363 37.667 C 302.164 37.593,302.000 37.216,302.000 36.829 C 302.000 36.441,301.640 35.798,301.200 35.400 C 300.760 35.002,300.400 34.344,300.400 33.938 C 300.400 33.532,300.220 33.200,300.000 33.200 C 299.780 33.200,299.600 32.964,299.600 32.675 C 299.600 32.387,299.240 31.764,298.800 31.292 C 298.360 30.820,298.000 30.262,298.000 30.052 C 298.000 29.843,297.460 29.217,296.800 28.661 C 296.140 28.106,295.600 27.449,295.600 27.202 C 295.600 26.955,295.420 26.864,295.200 27.000 C 294.980 27.136,294.800 26.877,294.800 26.424 C 294.800 25.922,294.540 25.600,294.133 25.600 C 293.767 25.600,293.574 25.493,293.704 25.362 C 293.943 25.124,289.835 20.800,289.369 20.800 C 289.233 20.800,288.617 20.260,288.000 19.600 C 287.383 18.940,286.663 18.400,286.400 18.400 C 286.137 18.400,285.417 17.860,284.800 17.200 C 284.183 16.540,283.474 16.000,283.223 16.000 C 282.972 16.000,282.380 15.640,281.908 15.200 C 281.436 14.760,280.813 14.400,280.525 14.400 C 280.236 14.400,280.000 14.209,280.000 13.976 C 280.000 13.743,279.835 13.655,279.632 13.780 C 279.430 13.905,279.021 13.781,278.723 13.504 C 278.425 13.227,277.917 12.941,277.594 12.868 C 277.272 12.795,276.916 12.615,276.804 12.468 C 276.692 12.321,276.330 12.147,276.000 12.082 C 275.670 12.017,274.770 11.666,274.000 11.302 C 273.230 10.938,272.361 10.600,272.069 10.551 C 271.777 10.502,271.237 10.331,270.869 10.171 C 270.501 10.011,269.840 9.815,269.400 9.735 C 268.960 9.656,268.330 9.478,268.000 9.340 C 267.126 8.974,266.502 8.867,263.489 8.562 C 261.998 8.412,260.683 8.134,260.566 7.944 C 260.285 7.490,244.111 7.497,243.830 7.951 C 243.711 8.145,242.575 8.402,241.306 8.523 C 238.059 8.832,237.006 9.025,236.362 9.428 C 236.053 9.622,235.501 9.731,235.135 9.671 C 234.770 9.611,234.354 9.750,234.212 9.981 C 234.069 10.211,233.513 10.400,232.976 10.400 C 232.439 10.400,232.000 10.580,232.000 10.800 C 232.000 11.020,231.550 11.200,231.000 11.200 C 230.450 11.200,230.000 11.380,230.000 11.600 C 230.000 11.820,229.728 12.000,229.395 12.000 C 228.839 12.000,227.276 12.723,226.800 13.201 C 226.690 13.311,226.060 13.671,225.400 14.001 C 224.740 14.330,223.960 14.827,223.668 15.104 C 223.375 15.381,222.942 15.488,222.706 15.342 C 222.451 15.185,222.393 15.264,222.562 15.538 C 222.731 15.812,222.593 16.000,222.224 16.000 C 221.881 16.000,221.600 16.180,221.600 16.400 C 221.600 16.620,221.229 16.800,220.776 16.800 C 220.323 16.800,220.064 16.980,220.200 17.200 C 220.336 17.420,220.206 17.600,219.912 17.600 C 219.617 17.600,219.117 17.960,218.800 18.400 C 218.483 18.840,217.983 19.200,217.688 19.200 C 217.394 19.200,217.264 19.380,217.400 19.600 C 217.536 19.820,217.266 20.000,216.800 20.000 C 216.334 20.000,216.064 20.180,216.200 20.400 C 216.336 20.620,216.273 20.800,216.060 20.800 C 215.847 20.800,214.962 21.565,214.094 22.500 C 213.226 23.435,211.594 25.190,210.467 26.400 C 209.340 27.610,208.212 29.095,207.960 29.700 C 207.709 30.305,207.367 30.800,207.200 30.800 C 207.033 30.800,206.673 31.340,206.400 32.000 C 206.127 32.660,205.745 33.200,205.551 33.200 C 205.358 33.200,205.200 33.472,205.200 33.805 C 205.200 34.361,204.478 35.922,204.000 36.400 C 203.522 36.878,202.800 38.439,202.800 38.995 C 202.800 39.780,202.154 39.785,202.067 39.000 C 202.030 38.670,201.970 38.130,201.933 37.800 C 201.897 37.470,201.717 37.200,201.533 37.200 C 201.350 37.200,201.200 36.964,201.200 36.675 C 201.200 36.387,200.840 35.764,200.400 35.292 C 199.960 34.820,199.600 34.156,199.600 33.817 C 199.600 33.478,199.420 33.200,199.200 33.200 C 198.980 33.200,198.800 32.880,198.800 32.488 C 198.800 32.097,198.440 31.517,198.000 31.200 C 197.560 30.883,197.200 30.315,197.200 29.939 C 197.200 29.562,196.840 29.140,196.400 29.000 C 195.960 28.860,195.600 28.490,195.600 28.176 C 195.600 27.863,195.240 27.382,194.800 27.107 C 194.360 26.832,194.000 26.462,194.000 26.285 C 194.000 26.107,193.119 25.081,192.043 24.005 C 190.966 22.928,190.186 21.947,190.310 21.824 C 190.433 21.701,190.203 21.600,189.800 21.600 C 189.397 21.600,189.183 21.483,189.326 21.340 C 189.623 21.043,187.611 19.201,186.988 19.200 C 186.762 19.200,186.317 18.840,186.000 18.400 C 185.683 17.960,185.183 17.600,184.888 17.600 C 184.594 17.600,184.464 17.420,184.600 17.200 C 184.736 16.980,184.516 16.800,184.112 16.800 C 183.707 16.800,183.117 16.440,182.800 16.000 C 182.483 15.560,181.903 15.200,181.512 15.200 C 181.120 15.200,180.800 15.064,180.800 14.898 C 180.800 14.731,180.215 14.341,179.500 14.030 C 178.785 13.719,178.110 13.360,178.000 13.232 C 177.541 12.699,175.954 12.000,175.205 12.000 C 174.762 12.000,174.400 11.841,174.400 11.647 C 174.400 11.297,172.895 10.668,172.284 10.762 C 172.110 10.789,171.570 10.590,171.084 10.320 C 170.598 10.049,169.930 9.819,169.600 9.808 C 169.270 9.797,168.765 9.639,168.477 9.456 C 167.867 9.069,166.681 8.850,163.494 8.532 C 162.225 8.406,161.089 8.145,160.970 7.951 C 160.717 7.541,145.066 7.467,144.659 7.874 M152.967 21.843 C 153.488 22.043,153.600 22.821,153.600 26.243 L 153.600 30.400 152.100 30.400 C 137.835 30.400,124.107 43.939,122.580 59.513 L 122.294 62.426 118.047 62.313 L 113.800 62.200 113.915 59.200 C 114.420 45.979,123.549 32.256,136.000 26.002 C 140.942 23.519,144.954 22.420,151.867 21.652 C 152.124 21.623,152.619 21.709,152.967 21.843 M293.596 65.500 C 293.556 89.404,281.469 116.678,261.826 137.186 C 255.132 144.175,251.638 147.480,246.531 151.655 C 242.998 154.544,243.365 154.573,240.436 151.177 C 237.423 147.686,237.230 148.414,242.288 144.185 C 261.257 128.327,276.343 106.629,281.214 88.200 C 281.388 87.540,281.792 86.010,282.112 84.800 C 283.354 80.093,284.296 73.884,284.628 68.200 C 284.947 62.732,284.498 63.200,289.424 63.200 L 293.600 63.200 293.596 65.500 " stroke="none" fill="#fc4c6c" fill-rule="evenodd"></path><path id="path3" d="M148.579 22.033 C 130.508 24.145,114.603 41.198,113.915 59.200 L 113.800 62.200 118.047 62.313 L 122.294 62.426 122.580 59.513 C 124.107 43.939,137.835 30.400,152.100 30.400 L 153.600 30.400 153.600 26.243 C 153.600 22.000,153.404 21.481,151.867 21.652 C 151.610 21.680,150.131 21.852,148.579 22.033 M285.066 63.500 C 284.966 63.665,284.769 65.780,284.628 68.200 C 284.296 73.884,283.354 80.093,282.112 84.800 C 281.792 86.010,281.388 87.540,281.214 88.200 C 276.343 106.629,261.257 128.327,242.288 144.185 C 239.930 146.157,238.000 147.902,238.000 148.062 C 238.000 148.545,242.839 154.000,243.267 154.000 C 244.013 154.000,252.674 146.569,256.800 142.390 C 274.634 124.324,284.300 108.873,289.947 89.400 C 291.766 83.128,293.587 71.203,293.596 65.500 L 293.600 63.200 289.424 63.200 C 287.127 63.200,285.166 63.335,285.066 63.500 " stroke="none" fill="#fc6b84" fill-rule="evenodd"></path><path id="path4" d="M231.200 291.512 C 231.200 292.376,232.831 292.421,259.800 292.307 L 286.600 292.194 259.380 292.097 C 238.852 292.024,232.042 291.882,231.680 291.520 C 231.315 291.155,231.200 291.153,231.200 291.512 M127.729 292.300 C 135.170 292.361,147.230 292.361,154.529 292.300 C 161.828 292.239,155.740 292.189,141.000 292.189 C 126.260 292.189,120.288 292.239,127.729 292.300 " stroke="none" fill="#78ccb0" fill-rule="evenodd"></path><path id="path5" d="" stroke="none" fill="#1007470" fill-rule="evenodd"></path></g></svg>