<svg id="svg" version="1.1" xmlns="http://www.w3.org/2000/svg" xmlns:xlink="http://www.w3.org/1999/xlink" width="400" height="400" viewBox="0, 0, 400,400"><g id="svgg"><path id="path0" d="M240.400 98.990 C 212.559 103.704,193.854 128.460,197.271 156.069 C 197.918 161.294,197.842 161.382,193.014 161.014 C 159.908 158.488,126.629 143.057,102.919 119.238 C 93.644 109.920,89.498 110.988,86.606 123.440 C 82.812 139.776,87.918 157.071,100.206 169.509 C 102.513 171.844,104.400 173.885,104.400 174.044 C 104.400 175.907,102.594 176.043,97.039 174.600 C 91.081 173.052,88.661 173.575,86.847 176.802 C 85.670 178.896,85.770 180.075,87.592 185.626 C 93.941 204.960,104.210 215.005,121.541 218.835 C 129.676 220.633,126.008 222.787,114.794 222.797 C 106.143 222.805,104.348 227.988,110.222 236.000 C 118.123 246.778,130.839 254.718,143.200 256.592 C 149.571 257.557,149.670 258.533,143.800 262.511 C 132.862 269.924,117.826 275.726,103.334 278.125 C 94.848 279.530,92.228 282.345,94.652 287.453 C 96.880 292.148,120.903 299.089,141.600 301.019 C 225.693 308.859,297.539 243.417,299.386 157.298 L 299.564 149.000 300.868 148.000 C 309.333 141.505,319.193 131.368,319.199 129.154 C 319.206 126.085,316.889 125.871,308.206 128.139 C 301.786 129.816,301.864 129.807,301.029 128.971 C 300.038 127.980,300.198 127.712,303.828 124.282 C 312.138 116.431,316.212 109.375,313.818 106.982 C 312.479 105.642,311.970 105.712,306.742 107.956 C 301.489 110.210,293.490 112.841,288.873 113.833 L 285.684 114.518 282.505 111.717 C 270.647 101.268,254.956 96.525,240.400 98.990 " stroke="none" fill="#fbfbfc" fill-rule="evenodd"></path><path id="path1" d="M309.795 0.297 C 310.672 0.386,311.572 0.601,311.795 0.774 C 312.018 0.947,313.550 1.491,315.200 1.982 C 349.819 12.282,366.254 50.110,349.965 82.000 C 343.493 94.671,330.900 105.577,318.239 109.475 C 315.671 110.266,315.410 110.526,312.292 115.400 C 311.095 117.270,308.361 120.505,305.712 123.185 C 299.601 129.367,299.872 129.733,308.817 127.381 C 316.501 125.360,316.660 125.340,317.895 126.254 C 319.691 127.583,320.142 128.886,319.411 130.635 C 318.677 132.391,307.996 143.188,303.600 146.617 C 299.775 149.600,299.940 149.317,300.119 152.600 C 300.674 162.747,298.284 181.014,294.624 194.600 C 294.268 195.920,293.352 198.555,292.589 200.456 C 291.825 202.356,291.200 204.031,291.200 204.177 C 291.200 204.324,290.105 207.179,288.766 210.522 C 273.310 249.124,243.264 278.933,206.000 292.634 C 203.910 293.402,201.570 294.314,200.800 294.660 C 197.939 295.948,190.947 297.856,184.200 299.193 C 182.880 299.454,181.440 299.753,181.000 299.858 C 170.181 302.427,144.464 302.691,130.800 300.373 C 129.370 300.130,127.390 299.792,126.400 299.622 C 117.002 298.008,98.972 292.214,95.736 289.769 C 91.023 286.208,93.448 279.201,99.790 278.057 C 100.895 277.857,103.970 277.319,106.622 276.860 C 118.896 274.737,132.262 269.332,143.743 261.849 C 148.792 258.558,148.701 258.102,142.800 257.079 C 133.100 255.399,123.683 250.712,116.519 244.000 C 102.795 231.142,102.626 222.699,116.079 222.123 C 125.834 221.705,127.802 220.864,122.000 219.595 C 105.940 216.081,96.307 208.054,89.459 192.480 C 82.737 177.191,85.159 171.057,96.800 173.891 C 105.017 175.891,105.302 175.541,99.908 170.064 C 92.615 162.657,88.756 155.737,85.990 145.100 C 85.357 142.665,85.522 142.627,80.055 146.488 C 42.584 172.953,15.376 212.799,5.277 256.000 C 5.045 256.990,4.665 258.610,4.431 259.600 C 3.307 264.355,1.883 273.142,1.189 279.600 C 0.941 281.910,0.572 285.004,0.369 286.477 C -0.115 289.987,-0.101 315.621,0.385 316.389 C 0.623 316.766,0.606 317.073,0.338 317.239 C 0.057 317.412,0.047 317.747,0.308 318.249 C 0.523 318.662,0.659 319.450,0.610 320.000 C 0.561 320.550,0.715 321.126,0.951 321.280 C 1.188 321.433,1.403 322.063,1.429 322.680 C 1.538 325.223,1.616 325.637,1.950 325.431 C 2.143 325.311,2.255 325.759,2.198 326.426 C 2.141 327.096,2.363 327.906,2.695 328.238 C 3.025 328.568,3.185 328.948,3.051 329.082 C 2.917 329.217,3.030 329.603,3.303 329.940 C 3.697 330.426,3.697 330.492,3.305 330.256 C 2.968 330.054,2.885 330.157,3.046 330.577 C 3.177 330.917,3.457 331.088,3.669 330.958 C 3.880 330.827,4.020 330.963,3.979 331.260 C 3.825 332.381,4.013 333.239,4.365 333.022 C 4.566 332.898,4.684 333.108,4.628 333.490 C 4.572 333.871,4.769 334.427,5.067 334.724 C 5.364 335.021,5.500 335.438,5.369 335.650 C 5.238 335.862,5.333 336.279,5.581 336.577 C 5.828 336.875,6.106 337.511,6.198 337.991 C 6.501 339.564,6.886 340.590,7.403 341.200 C 7.682 341.530,8.036 342.387,8.188 343.103 C 8.340 343.820,8.630 344.305,8.833 344.180 C 9.035 344.055,9.200 344.424,9.200 345.000 C 9.200 345.596,9.372 345.941,9.600 345.800 C 9.828 345.659,10.000 346.004,10.000 346.600 C 10.000 347.196,10.172 347.541,10.400 347.400 C 10.620 347.264,10.800 347.523,10.800 347.976 C 10.800 348.429,10.974 348.800,11.186 348.800 C 11.398 348.800,11.776 349.182,12.026 349.648 C 12.392 350.332,12.375 350.443,11.940 350.219 C 11.643 350.066,11.749 350.224,12.176 350.570 C 12.604 350.917,13.121 351.200,13.325 351.200 C 13.530 351.200,13.474 351.470,13.200 351.800 C 12.829 352.247,12.822 352.400,13.175 352.400 C 13.435 352.400,13.548 352.561,13.426 352.758 C 13.304 352.955,13.485 353.224,13.828 353.355 C 14.170 353.487,14.346 353.765,14.217 353.973 C 14.088 354.181,14.302 354.536,14.692 354.763 C 15.081 354.990,15.261 355.181,15.091 355.188 C 14.921 355.195,15.075 355.648,15.435 356.197 C 15.794 356.745,16.226 357.108,16.395 357.003 C 16.564 356.899,16.810 357.350,16.941 358.006 C 17.086 358.728,17.430 359.200,17.814 359.200 C 18.162 359.200,18.336 359.380,18.200 359.600 C 18.064 359.820,18.154 360.000,18.400 360.000 C 18.646 360.000,18.737 360.178,18.603 360.395 C 18.462 360.623,18.624 360.689,18.984 360.551 C 19.438 360.377,19.541 360.487,19.362 360.955 C 19.191 361.401,19.344 361.610,19.857 361.632 C 20.306 361.651,20.396 361.745,20.083 361.870 C 19.719 362.017,19.859 362.348,20.559 362.997 C 21.104 363.502,21.435 364.032,21.293 364.174 C 21.151 364.316,21.430 364.535,21.913 364.661 C 22.396 364.788,22.699 365.039,22.587 365.221 C 22.475 365.402,22.702 365.736,23.092 365.963 C 23.481 366.190,23.673 366.381,23.518 366.388 C 23.363 366.395,23.633 366.822,24.118 367.338 C 24.603 367.854,26.046 369.474,27.325 370.938 C 29.327 373.230,31.040 374.559,30.162 373.138 C 29.984 372.850,30.052 372.785,30.345 372.966 C 30.602 373.125,30.722 373.402,30.611 373.582 C 30.500 373.762,30.677 374.132,31.004 374.404 C 31.332 374.676,31.607 374.741,31.616 374.549 C 31.625 374.357,31.925 374.740,32.282 375.400 C 32.668 376.113,33.002 376.390,33.105 376.083 C 33.237 375.688,33.409 375.676,33.834 376.029 C 34.141 376.283,34.298 376.641,34.184 376.825 C 34.071 377.009,34.388 377.375,34.889 377.637 C 35.390 377.900,36.266 378.629,36.835 379.256 C 37.404 379.884,37.989 380.278,38.135 380.132 C 38.281 379.986,38.400 380.077,38.400 380.333 C 38.400 380.590,38.681 380.800,39.024 380.800 C 39.367 380.800,39.536 380.980,39.400 381.200 C 39.198 381.527,39.733 381.781,40.100 381.532 C 40.468 381.284,42.001 382.556,42.006 383.114 C 42.011 383.703,42.067 383.715,42.400 383.200 C 42.686 382.757,42.789 382.738,42.794 383.129 C 42.802 383.854,43.808 384.800,44.571 384.800 C 44.917 384.800,45.200 384.980,45.200 385.200 C 45.200 385.420,45.476 385.600,45.813 385.600 C 46.149 385.600,46.528 385.869,46.654 386.198 C 46.781 386.526,47.038 386.700,47.227 386.583 C 47.416 386.466,47.944 386.744,48.400 387.200 C 48.856 387.656,49.394 387.928,49.595 387.803 C 49.795 387.679,50.155 387.943,50.394 388.389 C 50.654 388.875,51.233 389.200,51.838 389.200 C 52.500 389.200,52.749 389.359,52.561 389.663 C 52.364 389.982,52.551 390.054,53.162 389.894 C 53.730 389.745,54.127 389.867,54.267 390.231 C 54.387 390.544,54.736 390.800,55.043 390.800 C 55.349 390.800,55.600 391.001,55.600 391.247 C 55.600 391.496,55.953 391.601,56.400 391.484 C 56.840 391.369,57.200 391.418,57.200 391.592 C 57.200 392.075,60.083 393.370,61.089 393.338 C 61.579 393.323,61.883 393.466,61.766 393.655 C 61.583 393.952,62.775 394.193,63.700 394.047 C 63.865 394.021,63.955 394.225,63.900 394.500 C 63.842 394.789,64.113 394.946,64.540 394.873 C 64.962 394.801,65.173 394.921,65.029 395.152 C 64.882 395.391,65.112 395.494,65.589 395.402 C 66.035 395.316,66.400 395.410,66.400 395.610 C 66.400 395.811,66.700 395.860,67.066 395.719 C 67.477 395.562,67.632 395.624,67.473 395.882 C 67.310 396.145,67.660 396.263,68.413 396.199 C 69.073 396.143,69.728 396.283,69.868 396.510 C 70.026 396.766,69.925 396.801,69.600 396.600 C 69.269 396.396,69.173 396.433,69.340 396.703 C 69.485 396.937,69.917 397.078,70.302 397.016 C 70.686 396.954,71.360 397.099,71.800 397.338 C 72.240 397.576,72.915 397.801,73.300 397.836 C 73.685 397.871,74.135 397.942,74.300 397.994 C 74.465 398.046,75.005 398.056,75.500 398.016 C 75.995 397.976,76.400 398.130,76.400 398.359 C 76.400 398.588,76.670 398.671,77.000 398.545 C 77.330 398.418,77.600 398.524,77.600 398.781 C 77.600 399.037,77.768 399.144,77.972 399.017 C 78.177 398.891,78.441 398.943,78.559 399.134 C 78.677 399.324,79.454 399.444,80.287 399.400 C 81.119 399.355,81.998 399.472,82.240 399.659 C 82.712 400.023,318.055 399.879,320.400 399.512 C 321.170 399.392,322.295 399.097,322.900 398.857 C 323.505 398.616,324.000 398.527,324.000 398.659 C 324.000 398.790,324.255 398.686,324.567 398.428 C 324.879 398.169,325.778 397.922,326.567 397.879 C 327.355 397.835,328.000 397.635,328.000 397.433 C 328.000 397.232,328.118 397.185,328.263 397.330 C 328.408 397.475,328.768 397.393,329.063 397.148 C 329.358 396.903,329.600 396.836,329.600 397.000 C 329.600 397.164,329.839 397.099,330.131 396.857 C 330.424 396.614,331.009 396.349,331.431 396.268 C 331.854 396.187,332.531 395.978,332.935 395.804 C 333.340 395.630,333.970 395.468,334.335 395.444 C 335.271 395.382,339.747 393.527,340.055 393.074 C 340.196 392.867,340.538 392.838,340.817 393.011 C 341.147 393.214,341.224 393.162,341.038 392.862 C 340.852 392.560,341.096 392.400,341.743 392.400 C 342.288 392.400,342.794 392.218,342.868 391.996 C 342.942 391.774,343.451 391.506,344.000 391.400 C 344.549 391.294,345.058 391.026,345.132 390.804 C 345.206 390.582,345.612 390.400,346.033 390.400 C 346.455 390.400,346.800 390.220,346.800 390.000 C 346.800 389.780,347.138 389.600,347.551 389.600 C 347.964 389.600,348.521 389.336,348.789 389.013 C 349.057 388.690,349.394 388.441,349.538 388.460 C 350.329 388.565,350.817 388.350,350.597 387.995 C 350.458 387.770,350.892 387.482,351.573 387.345 C 352.248 387.210,352.800 386.943,352.800 386.750 C 352.800 386.558,353.000 386.400,353.244 386.400 C 353.862 386.400,357.600 383.940,357.600 383.533 C 357.600 383.350,357.870 383.200,358.200 383.200 C 358.530 383.200,358.800 383.020,358.800 382.800 C 358.800 382.580,359.076 382.400,359.413 382.400 C 359.749 382.400,360.129 382.130,360.255 381.800 C 360.382 381.470,360.723 381.200,361.014 381.200 C 361.304 381.200,362.023 380.615,362.612 379.900 C 363.200 379.185,363.565 378.870,363.422 379.200 C 363.280 379.530,363.463 379.395,363.830 378.900 C 364.197 378.405,364.712 378.000,364.973 378.000 C 365.234 378.000,366.325 377.055,367.396 375.900 C 368.466 374.745,369.186 374.070,368.995 374.400 C 368.695 374.916,368.740 374.924,369.319 374.455 C 369.689 374.155,369.893 373.750,369.772 373.555 C 369.651 373.360,369.709 373.200,369.899 373.200 C 370.427 373.200,374.214 369.548,374.100 369.149 C 374.045 368.957,374.300 368.800,374.667 368.800 C 375.033 368.800,375.231 368.698,375.107 368.573 C 374.982 368.449,375.498 367.729,376.253 366.973 C 377.009 366.218,377.486 365.595,377.313 365.588 C 377.141 365.581,377.315 365.392,377.700 365.168 C 378.085 364.944,378.400 364.511,378.400 364.207 C 378.400 363.903,378.950 363.263,379.623 362.784 C 380.296 362.305,380.747 361.814,380.626 361.692 C 380.504 361.571,380.767 361.218,381.209 360.909 C 381.652 360.599,381.910 360.178,381.783 359.973 C 381.656 359.768,381.754 359.600,382.000 359.600 C 382.246 359.600,382.336 359.420,382.200 359.200 C 382.064 358.980,382.253 358.800,382.619 358.800 C 383.047 358.800,383.203 358.585,383.055 358.200 C 382.917 357.839,383.053 357.600,383.398 357.600 C 383.984 357.600,385.085 356.010,384.514 355.988 C 384.341 355.981,384.519 355.790,384.908 355.563 C 385.298 355.336,385.524 355.001,385.411 354.817 C 385.297 354.634,385.492 354.373,385.844 354.239 C 386.195 354.104,386.392 353.757,386.281 353.468 C 386.171 353.179,386.429 352.725,386.855 352.458 C 387.282 352.192,387.515 351.786,387.373 351.556 C 387.231 351.327,387.506 350.774,387.984 350.329 C 388.947 349.432,392.306 342.831,392.586 341.286 C 392.685 340.745,393.060 339.975,393.422 339.576 C 393.783 339.177,393.969 338.674,393.836 338.457 C 393.702 338.241,393.876 337.781,394.222 337.435 C 394.568 337.089,394.752 336.645,394.630 336.448 C 394.508 336.252,394.685 335.861,395.023 335.581 C 395.360 335.301,395.546 334.836,395.436 334.549 C 395.325 334.261,395.410 333.917,395.624 333.785 C 395.838 333.653,395.909 333.377,395.783 333.172 C 395.656 332.968,395.763 332.800,396.019 332.800 C 396.276 332.800,396.384 332.536,396.260 332.213 C 396.136 331.890,396.210 331.517,396.424 331.385 C 396.638 331.253,396.709 330.977,396.583 330.772 C 396.456 330.568,396.540 330.400,396.769 330.400 C 396.997 330.400,397.122 329.867,397.046 329.215 C 396.971 328.564,397.066 327.978,397.258 327.914 C 397.451 327.850,397.686 327.392,397.781 326.897 C 397.877 326.402,398.082 325.791,398.238 325.539 C 398.393 325.287,398.579 324.523,398.650 323.840 C 398.788 322.512,399.090 321.000,399.216 321.000 C 399.258 321.000,399.340 320.280,399.398 319.400 C 399.455 318.520,399.616 317.530,399.755 317.200 C 400.014 316.584,399.832 82.922,399.570 80.400 C 399.491 79.630,399.244 78.874,399.022 78.720 C 398.800 78.567,398.597 77.937,398.571 77.320 C 398.462 74.777,398.384 74.363,398.050 74.569 C 397.857 74.689,397.745 74.241,397.802 73.574 C 397.859 72.908,397.677 72.134,397.399 71.856 C 397.120 71.577,396.896 71.000,396.901 70.575 C 396.918 69.078,396.798 68.754,396.332 69.042 C 396.025 69.232,395.945 69.119,396.100 68.715 C 396.230 68.377,396.092 67.627,395.792 67.050 C 395.493 66.472,395.340 66.000,395.452 66.000 C 395.565 66.000,395.373 65.715,395.025 65.368 C 394.677 65.020,394.512 64.543,394.657 64.307 C 394.803 64.071,394.590 63.636,394.185 63.339 C 393.779 63.043,393.652 62.800,393.901 62.800 C 394.190 62.800,394.054 62.075,393.528 60.807 C 393.072 59.712,392.538 58.915,392.340 59.037 C 392.142 59.159,392.021 59.111,392.071 58.930 C 392.275 58.191,391.532 55.595,391.180 55.812 C 390.971 55.942,390.800 55.677,390.800 55.224 C 390.800 54.771,390.620 54.400,390.400 54.400 C 390.180 54.400,390.000 53.939,390.000 53.376 C 390.000 52.796,389.827 52.460,389.600 52.600 C 389.380 52.736,389.200 52.477,389.200 52.024 C 389.200 51.571,389.009 51.200,388.776 51.200 C 388.543 51.200,388.481 50.992,388.638 50.738 C 388.808 50.464,388.749 50.385,388.493 50.542 C 388.010 50.841,386.689 48.503,387.030 47.951 C 387.149 47.758,387.046 47.600,386.800 47.600 C 386.554 47.600,386.456 47.433,386.582 47.229 C 386.708 47.025,386.449 46.743,386.006 46.602 C 385.563 46.461,385.200 46.168,385.200 45.949 C 385.200 45.731,385.399 45.676,385.641 45.826 C 385.884 45.976,385.775 45.628,385.398 45.053 C 385.021 44.477,384.573 44.093,384.401 44.199 C 384.230 44.305,384.115 44.134,384.145 43.819 C 384.175 43.504,384.059 43.243,383.886 43.238 C 383.245 43.219,382.330 41.960,382.547 41.395 C 382.670 41.073,382.643 40.852,382.486 40.905 C 382.329 40.957,382.171 40.836,382.136 40.636 C 382.101 40.436,381.786 40.112,381.436 39.916 C 381.086 39.720,380.800 39.299,380.800 38.980 C 380.800 38.661,380.616 38.400,380.390 38.400 C 380.165 38.400,379.809 37.950,379.600 37.400 C 379.391 36.850,379.025 36.400,378.786 36.400 C 378.548 36.400,378.449 36.244,378.567 36.053 C 378.861 35.577,377.416 34.325,377.003 34.699 C 376.821 34.865,376.801 34.775,376.959 34.500 C 377.143 34.181,376.985 33.989,376.524 33.968 C 376.126 33.951,375.999 33.855,376.241 33.755 C 376.758 33.541,374.134 30.630,373.100 30.269 C 372.715 30.135,372.403 29.794,372.406 29.513 C 372.410 29.149,372.520 29.171,372.784 29.588 C 372.989 29.912,373.265 30.069,373.397 29.937 C 373.757 29.577,368.319 24.803,367.867 25.082 C 367.652 25.215,367.561 25.161,367.665 24.962 C 367.769 24.763,367.408 24.150,366.864 23.600 C 366.319 23.050,366.006 22.870,366.167 23.200 C 366.348 23.572,366.243 23.536,365.890 23.106 C 365.577 22.725,365.220 22.513,365.097 22.636 C 364.974 22.760,364.754 22.487,364.609 22.030 C 364.464 21.573,363.976 21.001,363.525 20.760 C 362.885 20.417,362.772 20.431,363.014 20.822 C 363.214 21.147,363.161 21.223,362.862 21.038 C 362.608 20.881,362.400 20.483,362.400 20.153 C 362.400 19.823,362.220 19.664,362.000 19.800 C 361.780 19.936,361.600 19.846,361.600 19.600 C 361.600 19.354,361.420 19.264,361.200 19.400 C 360.980 19.536,360.797 19.322,360.794 18.924 C 360.789 18.310,360.729 18.291,360.400 18.800 C 360.069 19.313,360.011 19.298,360.006 18.700 C 360.003 18.315,359.719 18.000,359.376 18.000 C 359.007 18.000,358.869 17.812,359.038 17.538 C 359.214 17.254,359.148 17.185,358.868 17.358 C 358.612 17.516,357.887 17.103,357.219 16.420 C 356.564 15.749,355.841 15.200,355.613 15.200 C 355.386 15.200,355.200 15.001,355.200 14.757 C 355.200 14.514,354.964 14.405,354.675 14.516 C 354.387 14.626,353.712 14.380,353.175 13.967 C 352.639 13.555,351.986 13.214,351.724 13.209 C 351.462 13.204,351.137 13.022,351.003 12.805 C 350.863 12.578,351.023 12.511,351.379 12.647 C 351.721 12.778,352.000 12.783,352.000 12.658 C 352.000 12.533,351.275 12.235,350.388 11.997 C 349.367 11.722,348.878 11.398,349.054 11.113 C 349.236 10.818,349.098 10.753,348.650 10.925 C 348.240 11.083,347.885 10.966,347.756 10.630 C 347.486 9.925,345.254 8.982,344.200 9.126 C 343.540 9.217,343.505 9.164,344.000 8.824 C 344.480 8.495,344.386 8.411,343.529 8.406 C 342.939 8.403,342.166 8.109,341.810 7.752 C 341.453 7.396,341.053 7.213,340.921 7.346 C 340.788 7.479,340.423 7.275,340.110 6.894 C 339.797 6.512,339.655 6.425,339.794 6.700 C 339.933 6.975,339.857 7.200,339.624 7.200 C 339.391 7.200,339.200 6.947,339.200 6.637 C 339.200 6.273,338.920 6.148,338.405 6.283 C 337.910 6.412,337.520 6.257,337.372 5.871 C 337.241 5.530,336.879 5.348,336.567 5.468 C 336.250 5.589,335.997 5.446,335.994 5.143 C 335.989 4.696,335.928 4.694,335.652 5.130 C 335.378 5.561,335.203 5.546,334.706 5.049 C 334.370 4.713,333.970 4.563,333.818 4.716 C 333.665 4.868,333.373 4.696,333.170 4.332 C 332.950 3.938,332.403 3.714,331.821 3.778 C 331.282 3.837,330.753 3.655,330.646 3.374 C 330.538 3.093,330.123 2.915,329.725 2.979 C 329.326 3.043,328.500 2.841,327.888 2.531 C 327.277 2.221,326.590 2.082,326.363 2.223 C 326.136 2.363,325.646 2.213,325.275 1.889 C 324.904 1.565,324.246 1.357,323.814 1.427 C 323.381 1.497,322.812 1.376,322.549 1.158 C 322.231 0.894,321.984 0.902,321.810 1.184 C 321.639 1.460,321.332 1.389,320.923 0.980 C 320.579 0.636,320.048 0.449,319.745 0.566 C 319.441 0.682,318.745 0.607,318.197 0.399 C 317.542 0.150,317.200 0.159,317.200 0.424 C 317.200 0.693,316.941 0.689,316.426 0.414 C 316.001 0.186,313.976 0.030,311.926 0.067 C 309.877 0.104,308.918 0.208,309.795 0.297 M45.698 13.866 C 45.421 13.977,45.292 14.225,45.410 14.417 C 45.670 14.836,46.800 14.462,46.800 13.957 C 46.800 13.572,46.490 13.546,45.698 13.866 M42.545 16.200 C 42.418 16.530,42.034 16.800,41.691 16.800 C 41.347 16.800,41.173 16.906,41.303 17.037 C 41.655 17.388,43.246 16.798,43.003 16.405 C 42.889 16.220,43.021 15.977,43.298 15.866 C 43.694 15.706,43.692 15.657,43.287 15.632 C 43.006 15.614,42.671 15.870,42.545 16.200 M23.812 32.786 C 23.430 33.208,23.212 33.789,23.327 34.077 C 23.462 34.412,23.548 34.344,23.568 33.887 C 23.586 33.495,23.991 33.030,24.468 32.853 C 24.955 32.673,25.155 32.419,24.922 32.275 C 24.694 32.134,24.194 32.364,23.812 32.786 M16.832 41.556 C 16.814 41.862,16.503 42.329,16.139 42.595 C 15.588 42.998,15.572 43.132,16.039 43.403 C 16.348 43.582,16.468 43.582,16.306 43.404 C 16.145 43.225,16.304 42.866,16.661 42.605 C 17.018 42.344,17.210 41.876,17.087 41.565 C 16.900 41.092,16.858 41.090,16.832 41.556 M3.000 70.000 C 2.850 70.473,2.817 70.950,2.927 71.060 C 3.037 71.170,3.250 70.873,3.400 70.400 C 3.550 69.927,3.583 69.450,3.473 69.340 C 3.363 69.230,3.150 69.527,3.000 70.000 M0.775 78.046 C 0.423 78.705,0.434 78.855,0.826 78.725 C 1.103 78.632,1.375 78.251,1.430 77.878 C 1.564 76.962,1.322 77.025,0.775 78.046 M178.800 112.834 C 163.558 113.554,151.530 115.498,136.800 119.622 C 127.533 122.216,115.264 126.611,114.084 127.759 C 112.413 129.384,134.099 142.984,148.600 149.406 C 161.668 155.194,185.300 160.801,194.611 160.323 C 196.999 160.200,197.000 160.199,196.894 159.000 C 195.897 147.681,196.716 138.336,199.249 132.135 C 200.498 129.076,200.955 128.046,201.879 126.200 C 203.931 122.101,206.664 118.205,209.918 114.736 C 210.674 113.931,211.171 113.076,211.022 112.836 C 210.710 112.330,189.487 112.329,178.800 112.834 M285.298 112.666 C 284.466 113.001,285.167 113.600,286.391 113.600 C 288.059 113.600,289.015 113.182,288.334 112.750 C 287.757 112.385,286.108 112.339,285.298 112.666 M28.602 371.500 L 29.700 373.000 28.450 371.722 C 27.306 370.552,26.954 370.000,27.353 370.000 C 27.436 370.000,27.999 370.675,28.602 371.500 " stroke="none" fill="#0c9cfc" fill-rule="evenodd"></path><path id="path2" d="M82.400 0.387 C 82.400 0.628,81.692 0.688,80.600 0.538 C 79.300 0.360,78.800 0.429,78.800 0.788 C 78.800 1.066,78.535 1.184,78.200 1.055 C 77.870 0.929,77.600 0.954,77.600 1.113 C 77.600 1.271,77.015 1.437,76.300 1.482 C 74.116 1.619,72.396 2.070,72.628 2.445 C 72.866 2.830,72.391 2.923,70.740 2.816 C 70.104 2.775,69.361 3.090,68.882 3.604 C 68.400 4.122,67.984 4.297,67.829 4.048 C 67.689 3.821,67.311 3.736,66.989 3.859 C 66.668 3.983,66.505 4.246,66.627 4.443 C 66.749 4.641,66.433 4.731,65.924 4.644 C 65.416 4.557,64.595 4.741,64.100 5.052 C 63.605 5.364,63.200 5.511,63.200 5.381 C 63.200 5.250,62.907 5.436,62.548 5.794 C 62.190 6.153,61.650 6.351,61.348 6.236 C 61.047 6.120,60.800 6.199,60.800 6.413 C 60.800 6.626,60.665 6.771,60.500 6.736 C 60.104 6.653,58.738 7.217,58.061 7.743 C 57.765 7.974,57.138 8.221,56.670 8.293 C 56.201 8.364,55.633 8.624,55.409 8.870 C 55.117 9.189,55.161 9.225,55.562 8.997 C 55.946 8.778,56.030 8.828,55.828 9.154 C 55.666 9.417,55.188 9.523,54.766 9.389 C 54.321 9.248,54.000 9.335,54.000 9.597 C 54.000 9.844,53.835 9.945,53.632 9.820 C 53.430 9.695,53.021 9.819,52.723 10.096 C 52.425 10.373,51.915 10.653,51.590 10.717 C 51.266 10.781,50.726 11.155,50.392 11.548 C 50.058 11.940,49.584 12.195,49.338 12.113 C 49.093 12.031,48.615 12.242,48.275 12.582 C 47.935 12.922,47.464 13.200,47.229 13.200 C 46.993 13.200,46.800 13.470,46.800 13.800 C 46.800 14.379,46.353 14.567,45.300 14.430 C 45.025 14.394,44.800 14.553,44.800 14.782 C 44.800 15.012,44.607 15.200,44.371 15.200 C 43.782 15.200,42.782 16.248,43.083 16.550 C 43.218 16.684,42.759 16.908,42.064 17.047 C 41.369 17.186,40.800 17.417,40.800 17.559 C 40.800 17.702,40.178 18.153,39.418 18.562 C 38.658 18.972,38.049 19.418,38.065 19.553 C 38.159 20.339,37.948 20.815,37.601 20.600 C 37.125 20.307,36.255 20.888,33.302 23.469 C 28.680 27.509,26.400 29.718,26.400 30.155 C 26.400 30.404,26.025 30.842,25.567 31.128 C 25.094 31.423,24.829 31.898,24.954 32.224 C 25.086 32.568,24.933 32.800,24.575 32.800 C 24.244 32.800,23.811 33.205,23.612 33.700 C 23.413 34.195,23.239 34.351,23.225 34.046 C 23.202 33.542,21.820 34.950,21.625 35.677 C 21.584 35.829,20.834 36.714,19.958 37.644 C 18.955 38.710,18.454 39.564,18.604 39.955 C 18.735 40.296,18.721 40.455,18.574 40.307 C 18.213 39.947,17.200 40.993,17.200 41.725 C 17.200 42.046,16.750 42.603,16.200 42.963 C 15.650 43.324,15.200 43.884,15.200 44.209 C 15.200 44.534,15.032 44.800,14.827 44.800 C 14.622 44.800,14.330 45.191,14.178 45.669 C 14.026 46.147,13.560 46.906,13.141 47.355 C 12.723 47.804,12.177 48.853,11.927 49.686 C 11.678 50.519,11.322 51.200,11.137 51.200 C 10.952 51.200,10.800 51.470,10.800 51.800 C 10.800 52.130,10.599 52.400,10.353 52.400 C 10.104 52.400,9.999 52.753,10.116 53.200 C 10.252 53.720,10.128 54.000,9.763 54.000 C 9.453 54.000,9.200 54.360,9.200 54.800 C 9.200 55.240,9.020 55.600,8.800 55.600 C 8.580 55.600,8.400 55.866,8.400 56.191 C 8.400 56.516,7.860 57.780,7.200 59.000 C 6.540 60.220,5.994 61.529,5.986 61.909 C 5.979 62.289,5.638 63.309,5.228 64.175 C 4.818 65.042,4.565 65.964,4.664 66.224 C 4.764 66.484,4.580 66.799,4.254 66.924 C 3.885 67.066,3.743 67.461,3.878 67.976 C 3.998 68.434,3.901 68.800,3.659 68.800 C 3.420 68.800,3.329 69.071,3.457 69.403 C 3.584 69.735,3.379 70.477,3.002 71.052 C 2.625 71.628,2.486 71.994,2.692 71.867 C 2.898 71.739,3.067 71.880,3.067 72.179 C 3.067 72.479,2.849 72.640,2.582 72.538 C 2.052 72.334,1.633 73.919,1.477 76.721 C 1.424 77.667,1.157 78.579,0.884 78.748 C 0.572 78.941,0.456 79.602,0.573 80.516 C 0.676 81.320,0.589 82.083,0.380 82.212 C 0.141 82.360,0.017 120.682,0.047 185.324 C 0.072 241.906,0.229 287.300,0.394 286.200 C 0.559 285.100,0.906 282.220,1.163 279.800 C 1.840 273.447,3.248 264.679,4.375 259.800 C 7.848 244.757,12.290 231.987,18.587 218.945 C 32.737 189.639,53.334 165.361,80.055 146.488 C 85.522 142.627,85.357 142.665,85.990 145.100 C 88.756 155.737,92.615 162.657,99.908 170.064 C 105.302 175.541,105.017 175.891,96.800 173.891 C 85.159 171.057,82.737 177.191,89.459 192.480 C 96.307 208.054,105.940 216.081,122.000 219.595 C 127.802 220.864,125.834 221.705,116.079 222.123 C 102.626 222.699,102.795 231.142,116.519 244.000 C 123.683 250.712,133.100 255.399,142.800 257.079 C 148.701 258.102,148.792 258.558,143.743 261.849 C 132.262 269.332,118.896 274.737,106.622 276.860 C 103.970 277.319,100.895 277.857,99.790 278.057 C 93.448 279.201,91.023 286.208,95.736 289.769 C 98.972 292.214,117.002 298.008,126.400 299.622 C 127.390 299.792,129.370 300.130,130.800 300.373 C 144.464 302.691,170.181 302.427,181.000 299.858 C 181.440 299.753,182.880 299.454,184.200 299.193 C 190.743 297.897,198.781 295.718,200.313 294.825 C 201.355 294.217,200.315 294.323,198.350 295.025 C 184.422 299.998,159.213 302.661,141.600 301.019 C 120.903 299.089,96.880 292.148,94.652 287.453 C 92.228 282.345,94.848 279.530,103.334 278.125 C 117.826 275.726,132.862 269.924,143.800 262.511 C 149.670 258.533,149.571 257.557,143.200 256.592 C 130.839 254.718,118.123 246.778,110.222 236.000 C 104.348 227.988,106.143 222.805,114.794 222.797 C 126.008 222.787,129.676 220.633,121.541 218.835 C 106.854 215.590,97.522 208.075,90.951 194.203 C 83.213 177.869,85.185 171.520,97.039 174.600 C 102.594 176.043,104.400 175.907,104.400 174.044 C 104.400 173.885,102.513 171.844,100.206 169.509 C 87.918 157.071,82.812 139.776,86.606 123.440 C 89.498 110.988,93.644 109.920,102.919 119.238 C 126.629 143.057,159.908 158.488,193.014 161.014 C 197.842 161.382,197.918 161.294,197.271 156.069 C 195.350 140.550,200.326 125.639,211.233 114.230 C 230.429 94.151,261.333 93.061,282.505 111.717 L 285.684 114.518 288.873 113.833 C 293.490 112.841,301.489 110.210,306.742 107.956 C 311.970 105.712,312.479 105.642,313.818 106.982 C 316.212 109.375,312.138 116.431,303.828 124.282 C 300.198 127.712,300.038 127.980,301.029 128.971 C 301.864 129.807,301.786 129.816,308.206 128.139 C 316.889 125.871,319.206 126.085,319.199 129.154 C 319.193 131.368,309.333 141.505,300.868 148.000 L 299.564 149.000 299.386 157.298 C 299.075 171.785,296.308 188.922,292.625 199.162 C 291.721 201.678,292.132 201.639,293.140 199.114 C 295.065 194.293,297.730 182.591,298.814 174.200 C 299.444 169.328,300.279 155.513,300.119 152.600 C 299.940 149.317,299.775 149.600,303.600 146.617 C 307.996 143.188,318.677 132.391,319.411 130.635 C 320.142 128.886,319.691 127.583,317.895 126.254 C 316.660 125.340,316.501 125.360,308.817 127.381 C 299.872 129.733,299.601 129.367,305.712 123.185 C 308.361 120.505,311.095 117.270,312.292 115.400 C 315.410 110.526,315.671 110.266,318.239 109.475 C 330.900 105.577,343.493 94.671,349.965 82.000 C 366.254 50.110,349.819 12.282,315.200 1.982 C 313.550 1.491,311.947 0.889,311.639 0.645 C 310.889 0.051,82.400 -0.205,82.400 0.387 M351.001 12.801 C 351.136 13.021,351.434 13.200,351.662 13.200 C 351.890 13.200,352.599 13.572,353.238 14.027 C 353.877 14.482,354.400 14.706,354.400 14.523 C 354.400 14.134,353.156 13.315,351.750 12.781 C 351.095 12.532,350.839 12.539,351.001 12.801 M358.000 17.200 C 358.550 17.630,359.159 17.986,359.354 17.991 C 359.549 17.996,359.250 17.640,358.691 17.200 C 358.131 16.760,357.522 16.404,357.337 16.409 C 357.152 16.414,357.450 16.770,358.000 17.200 M382.097 41.285 C 382.373 41.771,382.825 42.414,383.100 42.713 C 383.945 43.632,383.691 42.341,382.823 41.300 C 381.861 40.148,381.444 40.139,382.097 41.285 M386.800 48.085 C 386.800 48.190,387.081 48.841,387.425 49.531 C 388.118 50.919,388.944 51.662,388.527 50.521 C 388.260 49.790,386.800 47.731,386.800 48.085 M211.022 112.836 C 211.171 113.076,210.674 113.931,209.918 114.736 C 206.664 118.205,203.931 122.101,201.879 126.200 C 200.955 128.046,200.498 129.076,199.249 132.135 C 196.716 138.336,195.897 147.681,196.894 159.000 C 197.264 163.200,165.497 156.889,148.600 149.406 C 134.099 142.984,112.413 129.384,114.084 127.759 C 115.264 126.611,127.533 122.216,136.800 119.622 C 151.530 115.498,163.558 113.554,178.800 112.834 C 189.487 112.329,210.710 112.330,211.022 112.836 M288.334 112.750 C 288.759 113.020,288.732 113.140,288.201 113.344 C 287.217 113.722,285.281 113.655,285.021 113.234 C 284.573 112.509,287.320 112.108,288.334 112.750 M285.872 216.619 C 284.932 218.589,285.064 218.924,286.047 217.062 C 286.493 216.216,286.787 215.454,286.701 215.367 C 286.614 215.281,286.241 215.844,285.872 216.619 M280.800 226.800 C 280.351 227.680,280.074 228.400,280.184 228.400 C 280.294 228.400,280.751 227.680,281.200 226.800 C 281.649 225.920,281.926 225.200,281.816 225.200 C 281.706 225.200,281.249 225.920,280.800 226.800 M276.553 234.100 C 275.176 236.436,275.086 236.635,275.787 235.800 C 276.600 234.832,277.300 233.600,277.038 233.600 C 276.933 233.600,276.715 233.825,276.553 234.100 M271.600 241.600 C 271.130 242.260,270.836 242.800,270.946 242.800 C 271.056 242.800,271.530 242.260,272.000 241.600 C 272.470 240.940,272.764 240.400,272.654 240.400 C 272.544 240.400,272.070 240.940,271.600 241.600 M266.555 248.281 C 265.707 249.316,265.222 250.034,265.477 249.876 C 266.021 249.540,268.555 246.400,268.282 246.400 C 268.180 246.400,267.403 247.247,266.555 248.281 M261.600 254.200 C 260.628 255.190,259.923 256.000,260.033 256.000 C 260.143 256.000,261.028 255.190,262.000 254.200 C 262.972 253.210,263.677 252.400,263.567 252.400 C 263.457 252.400,262.572 253.210,261.600 254.200 M255.592 260.700 L 251.800 264.600 255.700 260.808 C 259.322 257.286,259.782 256.800,259.492 256.800 C 259.433 256.800,257.678 258.555,255.592 260.700 M249.381 266.500 L 247.800 268.200 249.500 266.619 C 250.435 265.749,251.200 264.984,251.200 264.919 C 251.200 264.616,250.852 264.919,249.381 266.500 M240.000 274.049 C 238.606 275.271,238.605 275.272,239.888 274.419 C 240.596 273.948,241.282 273.391,241.412 273.181 C 241.797 272.557,241.477 272.754,240.000 274.049 M231.700 279.646 C 230.337 280.519,229.895 281.106,231.100 280.443 C 232.018 279.939,233.456 278.827,233.200 278.819 C 233.090 278.816,232.415 279.188,231.700 279.646 M223.900 284.229 C 222.405 285.040,222.496 285.378,224.000 284.600 C 224.660 284.259,225.200 283.894,225.200 283.790 C 225.200 283.532,225.157 283.547,223.900 284.229 M215.200 288.600 C 214.650 288.914,214.380 289.172,214.600 289.172 C 214.820 289.172,215.450 288.914,216.000 288.600 C 216.550 288.286,216.820 288.028,216.600 288.028 C 216.380 288.028,215.750 288.286,215.200 288.600 M27.200 370.222 C 27.200 370.344,27.762 371.019,28.450 371.722 L 29.700 373.000 28.602 371.500 C 27.550 370.061,27.200 369.742,27.200 370.222 M40.400 381.986 C 40.400 382.214,40.655 382.400,40.967 382.400 C 41.278 382.400,41.624 382.625,41.735 382.900 C 41.887 383.277,41.945 383.280,41.968 382.914 C 41.986 382.647,41.640 382.235,41.200 382.000 C 40.658 381.710,40.400 381.705,40.400 381.986 M75.200 398.400 C 75.976 398.901,76.400 398.901,76.400 398.400 C 76.400 398.180,75.995 398.003,75.500 398.006 C 74.772 398.011,74.715 398.086,75.200 398.400 " stroke="none" fill="#04b4fc" fill-rule="evenodd"></path></g></svg>