<svg id="svg" version="1.1" xmlns="http://www.w3.org/2000/svg" xmlns:xlink="http://www.w3.org/1999/xlink" width="400" height="400" viewBox="0, 0, 400,400"><g id="svgg"><path id="path0" d="M334.000 41.885 C 333.036 42.242,328.613 44.971,328.467 45.300 C 328.393 45.465,328.078 45.600,327.767 45.600 C 327.455 45.600,327.200 45.750,327.200 45.932 C 327.200 46.115,326.708 46.520,326.107 46.832 C 325.506 47.145,324.489 47.895,323.848 48.500 C 323.206 49.105,322.478 49.600,322.229 49.600 C 321.980 49.600,321.517 49.960,321.200 50.400 C 320.883 50.840,320.391 51.200,320.108 51.200 C 319.825 51.200,319.028 51.740,318.337 52.400 C 317.646 53.060,316.878 53.600,316.629 53.600 C 316.380 53.600,315.917 53.960,315.600 54.400 C 315.283 54.840,314.820 55.200,314.571 55.200 C 314.322 55.200,313.554 55.740,312.863 56.400 C 312.172 57.060,311.488 57.600,311.343 57.600 C 310.993 57.600,307.953 59.866,306.110 61.500 C 305.303 62.215,304.481 62.800,304.282 62.800 C 304.084 62.800,303.417 63.340,302.800 64.000 C 302.183 64.660,301.503 65.200,301.288 65.200 C 301.073 65.200,300.155 65.920,299.248 66.800 C 298.341 67.680,297.441 68.400,297.248 68.400 C 297.055 68.400,296.155 69.120,295.248 70.000 C 294.341 70.880,293.495 71.600,293.368 71.600 C 293.241 71.600,292.468 72.296,291.651 73.147 C 290.833 73.998,289.623 74.974,288.963 75.316 C 288.302 75.658,287.005 76.671,286.080 77.569 C 285.156 78.466,284.235 79.200,284.034 79.200 C 283.834 79.200,282.573 80.280,281.232 81.600 C 279.892 82.920,278.682 84.000,278.545 84.000 C 278.408 84.000,277.045 85.260,275.518 86.800 C 273.990 88.340,272.568 89.600,272.358 89.600 C 271.984 89.600,271.279 90.215,267.087 94.200 C 265.930 95.300,264.357 96.671,263.592 97.246 C 262.826 97.821,261.390 99.145,260.400 100.187 C 255.926 104.897,254.913 105.883,253.600 106.802 C 252.830 107.341,251.825 108.147,251.368 108.591 C 250.910 109.036,249.398 110.454,248.009 111.742 C 246.449 113.187,245.390 114.522,245.241 115.228 C 245.072 116.031,241.770 119.634,234.189 127.287 C 224.438 137.130,216.492 145.462,211.576 151.000 C 210.599 152.100,209.704 153.090,209.587 153.200 C 207.986 154.700,194.147 170.599,185.562 180.800 C 181.107 186.094,167.702 202.733,164.000 207.564 C 162.548 209.459,161.583 210.380,161.161 210.271 C 160.524 210.107,157.639 208.120,135.000 192.242 C 132.580 190.545,127.090 186.708,122.800 183.715 C 110.742 175.305,102.182 169.327,97.800 166.255 C 88.999 160.088,86.364 158.346,86.018 158.470 C 85.819 158.542,80.414 163.793,74.007 170.139 L 62.357 181.679 63.809 183.739 C 64.608 184.873,66.971 188.140,69.060 191.000 C 75.256 199.483,80.480 206.690,82.400 209.407 C 85.767 214.170,96.926 229.792,98.396 231.800 C 99.201 232.900,101.121 235.600,102.662 237.800 C 104.204 240.000,106.994 243.960,108.863 246.600 C 110.732 249.240,113.189 252.750,114.324 254.400 C 115.458 256.050,119.732 262.260,123.821 268.200 C 138.035 288.850,149.392 306.151,157.496 319.500 C 159.800 323.295,161.814 326.400,161.971 326.400 C 162.128 326.400,163.144 324.846,164.228 322.947 C 166.936 318.206,167.028 318.048,170.368 312.400 C 174.609 305.231,182.067 292.945,186.394 286.000 C 187.560 284.130,188.997 281.790,189.589 280.800 C 190.181 279.810,192.432 276.210,194.592 272.800 C 196.752 269.390,199.362 265.250,200.393 263.600 C 201.423 261.950,203.669 258.440,205.383 255.800 C 207.097 253.160,209.416 249.560,210.537 247.800 C 214.680 241.289,234.465 211.853,241.812 201.269 C 245.985 195.256,250.106 189.316,250.969 188.069 C 252.659 185.626,261.536 173.303,265.139 168.400 C 273.663 156.798,277.060 152.437,277.462 152.581 C 277.910 152.741,279.200 151.616,279.200 151.065 C 279.200 150.915,279.740 150.228,280.400 149.537 C 281.060 148.846,281.600 148.110,281.600 147.901 C 281.600 147.692,282.140 147.017,282.800 146.400 C 283.460 145.783,284.000 145.063,284.000 144.800 C 284.000 144.537,284.540 143.817,285.200 143.200 C 285.860 142.583,286.400 141.948,286.400 141.788 C 286.400 141.628,286.985 140.834,287.700 140.024 C 289.585 137.888,291.312 135.651,292.000 134.457 C 292.330 133.884,293.095 132.934,293.700 132.347 C 294.305 131.760,294.800 131.103,294.800 130.888 C 294.800 130.673,295.520 129.755,296.400 128.848 C 297.280 127.941,298.000 127.005,298.000 126.768 C 298.000 126.531,298.720 125.646,299.600 124.800 C 300.480 123.954,301.200 123.141,301.200 122.992 C 301.200 122.843,301.702 122.244,302.315 121.660 C 302.929 121.077,303.870 119.970,304.407 119.200 C 304.943 118.430,305.747 117.404,306.191 116.919 C 307.609 115.375,308.000 114.843,308.000 114.457 C 308.000 114.250,308.900 113.162,310.000 112.039 C 311.100 110.915,312.000 109.834,312.000 109.637 C 312.000 109.439,312.900 108.415,314.000 107.361 C 315.100 106.307,316.000 105.304,316.000 105.132 C 316.000 104.960,317.170 103.621,318.600 102.155 C 320.030 100.689,321.200 99.350,321.200 99.178 C 321.200 99.006,321.875 98.138,322.700 97.248 C 325.611 94.111,326.800 92.622,326.800 92.114 C 326.800 91.831,326.986 91.600,327.214 91.600 C 327.700 91.600,333.200 86.017,333.200 85.524 C 333.200 85.340,334.685 83.685,336.500 81.848 C 338.315 80.011,340.700 77.474,341.800 76.211 C 343.349 74.432,352.674 64.775,358.707 58.703 C 360.357 57.042,362.954 54.800,363.228 54.800 C 363.392 54.800,365.437 52.910,367.772 50.600 C 370.107 48.290,372.109 46.400,372.220 46.400 C 372.579 46.400,376.000 42.832,376.000 42.457 C 376.000 41.657,336.086 41.113,334.000 41.885 M152.900 358.287 C 153.505 358.378,154.495 358.378,155.100 358.287 C 155.705 358.195,155.210 358.120,154.000 358.120 C 152.790 358.120,152.295 358.195,152.900 358.287 M165.700 358.287 C 166.305 358.378,167.295 358.378,167.900 358.287 C 168.505 358.195,168.010 358.120,166.800 358.120 C 165.590 358.120,165.095 358.195,165.700 358.287 " stroke="none" fill="#049444" fill-rule="evenodd"></path><path id="path1" d="M148.000 86.000 C 148.000 86.235,146.600 86.400,144.600 86.400 C 142.600 86.400,141.200 86.565,141.200 86.800 C 141.200 87.025,140.075 87.200,138.624 87.200 C 137.207 87.200,135.936 87.380,135.800 87.600 C 135.664 87.820,134.663 88.000,133.576 88.000 C 132.489 88.000,131.600 88.180,131.600 88.400 C 131.600 88.620,130.880 88.800,130.000 88.800 C 129.120 88.800,128.400 88.980,128.400 89.200 C 128.400 89.420,127.770 89.600,127.000 89.600 C 126.230 89.600,125.600 89.780,125.600 90.000 C 125.600 90.220,124.880 90.400,124.000 90.400 C 123.120 90.400,122.400 90.580,122.400 90.800 C 122.400 91.020,121.871 91.200,121.224 91.200 C 120.577 91.200,119.946 91.363,119.823 91.563 C 119.700 91.762,118.700 92.049,117.600 92.200 C 116.500 92.351,115.500 92.638,115.377 92.837 C 115.254 93.037,114.801 93.200,114.371 93.200 C 113.941 93.200,113.232 93.380,112.795 93.600 C 112.358 93.820,111.642 94.180,111.205 94.400 C 110.768 94.620,110.138 94.800,109.805 94.800 C 109.472 94.800,109.200 94.980,109.200 95.200 C 109.200 95.420,108.660 95.600,108.000 95.600 C 107.340 95.600,106.800 95.780,106.800 96.000 C 106.800 96.220,106.440 96.400,106.000 96.400 C 105.560 96.400,105.200 96.580,105.200 96.800 C 105.200 97.020,104.840 97.200,104.400 97.200 C 103.960 97.200,103.600 97.380,103.600 97.600 C 103.600 97.820,103.344 98.000,103.031 98.000 C 102.352 98.000,95.858 101.259,95.667 101.696 C 95.593 101.863,95.188 102.000,94.767 102.000 C 94.345 102.000,94.000 102.180,94.000 102.400 C 94.000 102.620,93.730 102.800,93.400 102.800 C 93.070 102.800,92.800 102.980,92.800 103.200 C 92.800 103.420,92.480 103.600,92.088 103.600 C 91.697 103.600,91.117 103.960,90.800 104.400 C 90.483 104.840,89.903 105.200,89.512 105.200 C 89.120 105.200,88.800 105.380,88.800 105.600 C 88.800 105.820,88.564 106.000,88.275 106.000 C 87.987 106.000,87.364 106.360,86.892 106.800 C 86.420 107.240,85.756 107.600,85.417 107.600 C 85.078 107.600,84.800 107.758,84.800 107.951 C 84.800 108.145,84.295 108.512,83.679 108.767 C 83.062 109.023,82.080 109.675,81.496 110.216 C 80.913 110.757,80.292 111.203,80.117 111.207 C 79.718 111.216,77.496 112.996,75.755 114.700 C 75.024 115.415,74.229 116.000,73.987 116.000 C 73.746 116.000,72.705 116.855,71.674 117.900 C 70.643 118.945,69.080 120.337,68.200 120.993 C 66.326 122.390,60.772 127.982,59.253 130.000 C 58.674 130.770,57.345 132.243,56.300 133.274 C 55.255 134.305,54.400 135.358,54.400 135.614 C 54.400 135.870,53.860 136.583,53.200 137.200 C 52.540 137.817,52.000 138.492,52.000 138.701 C 52.000 138.910,51.460 139.646,50.800 140.337 C 50.140 141.028,49.600 141.682,49.600 141.792 C 49.600 141.994,48.609 143.258,47.700 144.216 C 47.425 144.506,47.200 144.936,47.200 145.171 C 47.200 145.407,47.020 145.600,46.800 145.600 C 46.580 145.600,46.400 145.836,46.400 146.125 C 46.400 146.413,46.040 147.036,45.600 147.508 C 45.160 147.980,44.800 148.644,44.800 148.983 C 44.800 149.322,44.635 149.600,44.434 149.600 C 44.233 149.600,43.558 150.680,42.935 152.000 C 42.311 153.320,41.666 154.400,41.501 154.400 C 41.335 154.400,41.200 154.760,41.200 155.200 C 41.200 155.640,41.020 156.000,40.800 156.000 C 40.580 156.000,40.400 156.360,40.400 156.800 C 40.400 157.240,40.254 157.600,40.075 157.600 C 39.896 157.600,39.502 158.230,39.200 159.000 C 38.898 159.770,38.504 160.400,38.325 160.400 C 38.146 160.400,38.000 160.760,38.000 161.200 C 38.000 161.640,37.820 162.000,37.600 162.000 C 37.380 162.000,37.200 162.360,37.200 162.800 C 37.200 163.240,37.020 163.600,36.800 163.600 C 36.580 163.600,36.400 163.960,36.400 164.400 C 36.400 164.840,36.220 165.200,36.000 165.200 C 35.780 165.200,35.600 165.560,35.600 166.000 C 35.600 166.440,35.420 166.800,35.200 166.800 C 34.980 166.800,34.800 167.239,34.800 167.776 C 34.800 168.313,34.620 168.864,34.400 169.000 C 34.180 169.136,34.000 169.597,34.000 170.024 C 34.000 170.451,33.820 170.800,33.600 170.800 C 33.380 170.800,33.200 171.340,33.200 172.000 C 33.200 172.660,33.020 173.200,32.800 173.200 C 32.580 173.200,32.400 173.560,32.400 174.000 C 32.400 174.440,32.220 174.800,32.000 174.800 C 31.780 174.800,31.600 175.340,31.600 176.000 C 31.600 176.660,31.420 177.200,31.200 177.200 C 30.980 177.200,30.800 177.639,30.800 178.176 C 30.800 178.713,30.620 179.264,30.400 179.400 C 30.180 179.536,30.000 180.076,30.000 180.600 C 30.000 181.124,29.820 181.664,29.600 181.800 C 29.380 181.936,29.200 182.667,29.200 183.424 C 29.200 184.181,29.040 184.800,28.844 184.800 C 28.648 184.800,28.386 185.385,28.263 186.100 C 28.139 186.815,27.927 188.030,27.792 188.800 C 27.656 189.570,27.389 190.560,27.198 191.000 C 27.006 191.440,26.744 192.520,26.614 193.400 C 26.485 194.280,26.206 195.990,25.995 197.200 C 25.181 201.862,24.834 205.122,24.818 208.276 C 24.808 210.078,24.620 211.664,24.400 211.800 C 23.857 212.136,23.857 231.864,24.400 232.200 C 24.620 232.336,24.806 233.922,24.813 235.724 C 24.825 238.746,25.000 240.344,26.046 247.000 C 26.254 248.320,26.527 250.076,26.654 250.903 C 26.781 251.729,27.045 252.505,27.242 252.626 C 27.439 252.748,27.600 253.546,27.600 254.400 C 27.600 255.254,27.780 256.064,28.000 256.200 C 28.220 256.336,28.400 256.977,28.400 257.624 C 28.400 258.271,28.580 258.800,28.800 258.800 C 29.020 258.800,29.200 259.520,29.200 260.400 C 29.200 261.280,29.380 262.000,29.600 262.000 C 29.820 262.000,30.000 262.540,30.000 263.200 C 30.000 263.860,30.180 264.400,30.400 264.400 C 30.620 264.400,30.800 264.940,30.800 265.600 C 30.800 266.260,30.980 266.800,31.200 266.800 C 31.420 266.800,31.600 267.340,31.600 268.000 C 31.600 268.660,31.780 269.200,32.000 269.200 C 32.220 269.200,32.400 269.560,32.400 270.000 C 32.400 270.440,32.580 270.800,32.800 270.800 C 33.020 270.800,33.200 271.162,33.200 271.605 C 33.200 272.048,33.380 272.768,33.600 273.205 C 33.820 273.642,34.180 274.358,34.400 274.795 C 34.620 275.232,34.800 275.862,34.800 276.195 C 34.800 276.528,34.980 276.800,35.200 276.800 C 35.420 276.800,35.600 277.160,35.600 277.600 C 35.600 278.040,35.780 278.400,36.000 278.400 C 36.220 278.400,36.400 278.760,36.400 279.200 C 36.400 279.640,36.580 280.000,36.800 280.000 C 37.020 280.000,37.200 280.360,37.200 280.800 C 37.200 281.240,37.380 281.600,37.600 281.600 C 37.820 281.600,38.000 281.960,38.000 282.400 C 38.000 282.840,38.180 283.200,38.400 283.200 C 38.620 283.200,38.800 283.560,38.800 284.000 C 38.800 284.440,38.980 284.800,39.200 284.800 C 39.420 284.800,39.600 285.160,39.600 285.600 C 39.600 286.040,39.780 286.400,40.000 286.400 C 40.220 286.400,40.400 286.760,40.400 287.200 C 40.400 287.640,40.543 288.000,40.718 288.000 C 40.893 288.000,41.370 288.810,41.778 289.800 C 42.187 290.790,42.673 291.600,42.860 291.600 C 43.047 291.600,43.200 291.960,43.200 292.400 C 43.200 292.840,43.358 293.200,43.551 293.200 C 43.745 293.200,44.127 293.740,44.400 294.400 C 44.673 295.060,45.055 295.600,45.249 295.600 C 45.442 295.600,45.600 295.836,45.600 296.125 C 45.600 296.413,45.960 297.036,46.400 297.508 C 46.840 297.980,47.200 298.509,47.201 298.683 C 47.201 298.857,47.741 299.630,48.400 300.400 C 49.059 301.170,49.599 301.985,49.599 302.212 C 49.600 302.438,49.960 302.883,50.400 303.200 C 50.840 303.517,51.200 303.915,51.200 304.084 C 51.200 304.424,52.123 305.607,53.500 307.032 C 53.995 307.544,54.400 308.074,54.400 308.208 C 54.400 308.342,55.300 309.329,56.400 310.400 C 57.500 311.471,58.400 312.498,58.400 312.682 C 58.400 313.668,68.587 324.000,69.559 324.000 C 69.723 324.000,70.667 324.765,71.656 325.700 C 72.646 326.635,74.253 328.023,75.228 328.785 C 76.203 329.547,77.060 330.312,77.133 330.485 C 77.207 330.658,77.433 330.800,77.637 330.800 C 77.841 330.800,78.572 331.340,79.263 332.000 C 79.954 332.660,80.696 333.200,80.912 333.200 C 81.129 333.200,81.597 333.516,81.953 333.903 C 82.309 334.289,83.095 334.860,83.700 335.170 C 84.305 335.481,84.800 335.885,84.800 336.068 C 84.800 336.250,85.078 336.400,85.417 336.400 C 85.756 336.400,86.420 336.760,86.892 337.200 C 87.364 337.640,87.987 338.000,88.275 338.000 C 88.564 338.000,88.800 338.135,88.800 338.301 C 88.800 338.466,90.195 339.321,91.900 340.201 C 93.605 341.080,95.090 341.904,95.200 342.032 C 95.310 342.160,95.985 342.519,96.700 342.830 C 97.415 343.141,98.000 343.531,98.000 343.698 C 98.000 343.864,98.360 344.000,98.800 344.000 C 99.240 344.000,99.600 344.180,99.600 344.400 C 99.600 344.620,99.960 344.800,100.400 344.800 C 100.840 344.800,101.200 344.980,101.200 345.200 C 101.200 345.420,101.639 345.600,102.176 345.600 C 102.713 345.600,103.264 345.780,103.400 346.000 C 103.536 346.220,103.997 346.400,104.424 346.400 C 104.851 346.400,105.200 346.580,105.200 346.800 C 105.200 347.020,105.560 347.200,106.000 347.200 C 106.440 347.200,106.800 347.380,106.800 347.600 C 106.800 347.820,107.072 348.000,107.405 348.000 C 107.738 348.000,108.323 348.159,108.705 348.353 C 109.087 348.548,109.895 348.908,110.500 349.153 C 111.105 349.399,112.095 349.801,112.700 350.047 C 113.305 350.292,114.113 350.652,114.495 350.847 C 114.877 351.041,115.541 351.200,115.971 351.200 C 116.401 351.200,116.864 351.380,117.000 351.600 C 117.136 351.820,117.676 352.000,118.200 352.000 C 118.724 352.000,119.264 352.180,119.400 352.400 C 119.536 352.620,120.267 352.800,121.024 352.800 C 121.781 352.800,122.400 352.980,122.400 353.200 C 122.400 353.420,122.929 353.600,123.576 353.600 C 124.223 353.600,124.864 353.780,125.000 354.000 C 125.136 354.220,125.856 354.400,126.600 354.400 C 127.344 354.400,128.064 354.580,128.200 354.800 C 128.336 355.020,129.146 355.200,130.000 355.200 C 130.854 355.200,131.664 355.380,131.800 355.600 C 131.936 355.820,132.811 356.000,133.744 356.000 C 134.677 356.000,135.611 356.164,135.820 356.365 C 136.029 356.565,137.190 356.827,138.400 356.947 C 139.610 357.066,142.310 357.364,144.400 357.609 C 146.490 357.853,153.690 358.055,160.400 358.057 C 171.803 358.059,176.399 357.797,182.800 356.779 C 184.230 356.551,186.255 356.265,187.300 356.144 C 188.345 356.022,189.200 355.760,189.200 355.561 C 189.200 355.363,189.909 355.200,190.776 355.200 C 191.643 355.200,192.464 355.020,192.600 354.800 C 192.736 354.580,193.467 354.400,194.224 354.400 C 194.981 354.400,195.600 354.220,195.600 354.000 C 195.600 353.780,196.219 353.600,196.976 353.600 C 197.733 353.600,198.464 353.420,198.600 353.200 C 198.736 352.980,199.377 352.800,200.024 352.800 C 200.671 352.800,201.200 352.620,201.200 352.400 C 201.200 352.180,201.740 352.000,202.400 352.000 C 203.060 352.000,203.600 351.820,203.600 351.600 C 203.600 351.380,204.140 351.200,204.800 351.200 C 205.460 351.200,206.000 351.020,206.000 350.800 C 206.000 350.580,206.450 350.400,207.000 350.400 C 207.550 350.400,208.000 350.220,208.000 350.000 C 208.000 349.780,208.540 349.600,209.200 349.600 C 209.860 349.600,210.400 349.420,210.400 349.200 C 210.400 348.980,210.760 348.800,211.200 348.800 C 211.640 348.800,212.000 348.620,212.000 348.400 C 212.000 348.180,212.540 348.000,213.200 348.000 C 213.860 348.000,214.400 347.820,214.400 347.600 C 214.400 347.380,214.760 347.200,215.200 347.200 C 215.640 347.200,216.000 347.020,216.000 346.800 C 216.000 346.580,216.360 346.400,216.800 346.400 C 217.240 346.400,217.600 346.220,217.600 346.000 C 217.600 345.780,217.960 345.600,218.400 345.600 C 218.840 345.600,219.200 345.420,219.200 345.200 C 219.200 344.980,219.560 344.800,220.000 344.800 C 220.440 344.800,220.800 344.620,220.800 344.400 C 220.800 344.180,221.160 344.000,221.600 344.000 C 222.040 344.000,222.400 343.820,222.400 343.600 C 222.400 343.380,222.760 343.200,223.200 343.200 C 223.640 343.200,224.000 343.020,224.000 342.800 C 224.000 342.580,224.270 342.400,224.600 342.400 C 224.930 342.400,225.200 342.220,225.200 342.000 C 225.200 341.780,225.491 341.600,225.846 341.600 C 226.418 341.600,230.282 339.730,230.800 339.202 C 230.910 339.090,231.495 338.744,232.100 338.432 C 232.705 338.120,233.200 337.715,233.200 337.532 C 233.200 337.350,233.560 337.200,234.000 337.200 C 234.440 337.200,234.800 337.050,234.800 336.868 C 234.800 336.685,235.295 336.281,235.900 335.970 C 236.505 335.660,237.270 335.133,237.600 334.800 C 237.930 334.467,238.695 333.940,239.300 333.630 C 239.905 333.319,240.400 332.915,240.400 332.732 C 240.400 332.550,240.598 332.400,240.840 332.400 C 241.081 332.400,241.783 331.860,242.400 331.200 C 243.017 330.540,243.733 330.000,243.992 330.000 C 244.251 330.000,245.154 329.280,246.000 328.400 C 246.846 327.520,247.688 326.800,247.872 326.800 C 248.337 326.800,251.561 323.949,254.953 320.538 C 260.572 314.888,265.200 309.971,265.200 309.652 C 265.200 309.473,265.920 308.593,266.800 307.695 C 267.680 306.797,268.400 305.957,268.400 305.828 C 268.400 305.698,268.940 305.028,269.600 304.337 C 270.260 303.646,270.800 302.922,270.800 302.726 C 270.800 302.531,271.166 301.973,271.614 301.486 C 272.497 300.526,273.864 298.451,274.768 296.700 C 275.080 296.095,275.485 295.600,275.668 295.600 C 275.850 295.600,276.000 295.240,276.000 294.800 C 276.000 294.360,276.180 294.000,276.400 294.000 C 276.620 294.000,276.800 293.706,276.800 293.347 C 276.800 292.988,277.116 292.403,277.503 292.047 C 277.889 291.691,278.474 290.860,278.802 290.200 C 279.130 289.540,279.489 288.910,279.599 288.800 C 279.851 288.550,281.347 285.742,282.903 282.600 C 283.557 281.280,284.251 279.887,284.446 279.505 C 284.641 279.123,284.800 278.538,284.800 278.205 C 284.800 277.872,284.980 277.600,285.200 277.600 C 285.420 277.600,285.600 277.240,285.600 276.800 C 285.600 276.360,285.780 276.000,286.000 276.000 C 286.220 276.000,286.400 275.728,286.400 275.395 C 286.400 275.062,286.559 274.477,286.753 274.095 C 286.948 273.713,287.308 272.905,287.553 272.300 C 287.799 271.695,288.170 270.795,288.379 270.300 C 289.457 267.735,291.189 261.944,291.430 260.100 C 291.580 258.945,291.860 258.000,292.052 258.000 C 292.243 258.000,292.400 257.370,292.400 256.600 C 292.400 255.830,292.580 255.200,292.800 255.200 C 293.020 255.200,293.200 254.480,293.200 253.600 C 293.200 252.720,293.380 252.000,293.600 252.000 C 293.820 252.000,294.000 251.100,294.000 250.000 C 294.000 248.900,294.180 248.000,294.400 248.000 C 294.622 248.000,294.800 246.933,294.800 245.600 C 294.800 244.267,294.978 243.200,295.200 243.200 C 295.429 243.200,295.600 242.000,295.600 240.400 C 295.600 238.800,295.771 237.600,296.000 237.600 C 296.249 237.600,296.400 235.341,296.400 231.624 C 296.400 228.071,296.562 225.547,296.800 225.400 C 297.020 225.264,297.200 223.644,297.200 221.800 C 297.200 219.956,297.020 218.336,296.800 218.200 C 296.563 218.054,296.400 215.604,296.400 212.200 C 296.400 208.796,296.237 206.346,296.000 206.200 C 295.780 206.064,295.600 204.703,295.600 203.176 C 295.600 201.592,295.428 200.400,295.200 200.400 C 294.980 200.400,294.800 199.421,294.800 198.224 C 294.800 197.027,294.620 195.936,294.400 195.800 C 294.180 195.664,294.000 194.753,294.000 193.776 C 294.000 192.799,293.820 192.000,293.600 192.000 C 293.380 192.000,293.200 191.280,293.200 190.400 C 293.200 189.520,293.020 188.800,292.800 188.800 C 292.580 188.800,292.400 188.080,292.400 187.200 C 292.400 186.320,292.244 185.600,292.054 185.600 C 291.864 185.600,291.595 184.745,291.455 183.700 C 291.148 181.394,289.473 176.106,288.353 173.905 C 288.159 173.523,288.000 172.848,288.000 172.405 C 288.000 171.962,287.820 171.600,287.600 171.600 C 287.380 171.600,287.200 171.251,287.200 170.824 C 287.200 170.397,287.020 169.936,286.800 169.800 C 286.580 169.664,286.400 169.113,286.400 168.576 C 286.400 168.039,286.220 167.600,286.000 167.600 C 285.780 167.600,285.600 167.240,285.600 166.800 C 285.600 166.360,285.420 166.000,285.200 166.000 C 284.980 166.000,284.800 165.640,284.800 165.200 C 284.800 164.760,284.620 164.400,284.400 164.400 C 284.180 164.400,284.000 164.166,284.000 163.880 C 284.000 163.144,283.059 161.207,282.700 161.203 C 282.535 161.201,282.400 160.840,282.400 160.400 C 282.400 159.960,282.254 159.600,282.075 159.600 C 281.896 159.600,281.502 158.970,281.200 158.200 C 280.898 157.430,280.504 156.800,280.325 156.800 C 280.146 156.800,280.000 156.440,280.000 156.000 C 280.000 155.560,279.820 155.200,279.600 155.200 C 279.380 155.200,279.200 154.840,279.200 154.400 C 279.200 153.960,279.020 153.600,278.800 153.600 C 278.580 153.600,278.400 153.368,278.400 153.085 C 278.400 151.288,276.661 152.922,272.171 158.934 C 264.619 169.047,254.653 182.742,250.969 188.069 C 250.106 189.316,245.985 195.256,241.812 201.269 C 234.465 211.853,214.680 241.289,210.537 247.800 C 209.416 249.560,207.097 253.160,205.383 255.800 C 203.669 258.440,201.423 261.950,200.393 263.600 C 199.362 265.250,196.752 269.390,194.592 272.800 C 192.432 276.210,190.181 279.810,189.589 280.800 C 188.997 281.790,187.560 284.130,186.394 286.000 C 182.067 292.945,174.609 305.231,170.368 312.400 C 167.028 318.048,166.936 318.206,164.228 322.947 C 163.144 324.846,162.128 326.400,161.971 326.400 C 161.814 326.400,159.800 323.295,157.496 319.500 C 149.392 306.151,138.035 288.850,123.821 268.200 C 119.732 262.260,115.458 256.050,114.324 254.400 C 113.189 252.750,110.732 249.240,108.863 246.600 C 106.994 243.960,104.204 240.000,102.662 237.800 C 101.121 235.600,99.201 232.900,98.396 231.800 C 96.926 229.792,85.767 214.170,82.400 209.407 C 80.480 206.690,75.256 199.483,69.060 191.000 C 66.971 188.140,64.608 184.873,63.809 183.739 L 62.357 181.679 74.007 170.139 C 80.414 163.793,85.819 158.542,86.018 158.470 C 86.364 158.346,88.999 160.088,97.800 166.255 C 102.182 169.327,110.742 175.305,122.800 183.715 C 127.090 186.708,132.580 190.545,135.000 192.242 C 157.639 208.120,160.524 210.107,161.161 210.271 C 161.583 210.380,162.548 209.459,164.000 207.564 C 167.702 202.733,181.107 186.094,185.562 180.800 C 194.147 170.599,207.986 154.700,209.587 153.200 C 209.704 153.090,210.599 152.100,211.576 151.000 C 216.503 145.451,224.441 137.127,234.189 127.290 C 244.460 116.926,245.947 115.109,244.757 114.374 C 244.475 114.199,243.694 113.589,243.022 113.018 C 240.801 111.132,236.821 108.400,236.295 108.400 C 236.010 108.400,235.517 108.040,235.200 107.600 C 234.883 107.160,234.343 106.800,234.000 106.800 C 233.657 106.800,233.117 106.440,232.800 106.000 C 232.483 105.560,231.903 105.200,231.512 105.200 C 231.120 105.200,230.800 105.020,230.800 104.800 C 230.800 104.580,230.480 104.400,230.088 104.400 C 229.697 104.400,229.117 104.040,228.800 103.600 C 228.483 103.160,227.903 102.800,227.512 102.800 C 227.120 102.800,226.800 102.620,226.800 102.400 C 226.800 102.180,226.440 102.000,226.000 102.000 C 225.560 102.000,225.200 101.854,225.200 101.675 C 225.200 101.496,224.570 101.102,223.800 100.800 C 223.030 100.498,222.400 100.104,222.400 99.925 C 222.400 99.746,222.040 99.600,221.600 99.600 C 221.160 99.600,220.800 99.420,220.800 99.200 C 220.800 98.980,220.440 98.800,220.000 98.800 C 219.560 98.800,219.200 98.620,219.200 98.400 C 219.200 98.180,218.840 98.000,218.400 98.000 C 217.960 98.000,217.600 97.820,217.600 97.600 C 217.600 97.380,217.328 97.200,216.995 97.200 C 216.662 97.200,216.032 97.020,215.595 96.800 C 215.158 96.580,214.442 96.220,214.005 96.000 C 213.568 95.780,212.938 95.600,212.605 95.600 C 212.272 95.600,212.000 95.420,212.000 95.200 C 212.000 94.980,211.638 94.800,211.195 94.800 C 210.752 94.800,210.077 94.641,209.695 94.447 C 207.319 93.238,203.519 92.000,202.186 92.000 C 201.644 92.000,201.200 91.820,201.200 91.600 C 201.200 91.380,200.581 91.200,199.824 91.200 C 199.067 91.200,198.336 91.020,198.200 90.800 C 198.064 90.580,197.423 90.400,196.776 90.400 C 196.129 90.400,195.600 90.220,195.600 90.000 C 195.600 89.780,194.880 89.600,194.000 89.600 C 193.120 89.600,192.400 89.420,192.400 89.200 C 192.400 88.980,191.691 88.800,190.824 88.800 C 189.957 88.800,189.136 88.620,189.000 88.400 C 188.864 88.180,187.863 88.000,186.776 88.000 C 185.689 88.000,184.800 87.820,184.800 87.600 C 184.800 87.378,183.733 87.200,182.400 87.200 C 181.067 87.200,180.000 87.022,180.000 86.800 C 180.000 86.563,178.533 86.400,176.400 86.400 C 174.267 86.400,172.800 86.237,172.800 86.000 C 172.800 85.742,168.400 85.600,160.400 85.600 C 152.400 85.600,148.000 85.742,148.000 86.000 " stroke="none" fill="#b3ec8c" fill-rule="evenodd"></path></g></svg>