<svg id="svg" version="1.1" xmlns="http://www.w3.org/2000/svg" xmlns:xlink="http://www.w3.org/1999/xlink" width="400" height="400" viewBox="0, 0, 400,400"><g id="svgg"><path id="path0" d="M99.015 17.900 C 99.139 27.745,99.408 36.430,99.612 37.200 C 99.817 37.970,100.043 42.200,100.116 46.600 C 100.367 61.798,106.261 70.627,118.392 73.974 C 121.910 74.945,200.795 75.293,205.280 74.358 C 212.094 72.937,218.761 67.841,221.973 61.600 C 224.754 56.197,224.988 53.719,225.431 25.027 C 225.537 18.222,225.753 12.462,225.911 12.227 C 226.070 11.992,226.146 9.145,226.079 5.900 L 225.959 0.000 162.375 0.000 L 98.790 0.000 99.015 17.900 M18.316 11.818 C 18.196 11.937,17.581 12.128,16.949 12.242 C 15.739 12.459,14.904 13.037,15.271 13.405 C 15.391 13.524,16.009 13.407,16.645 13.145 C 17.280 12.882,17.926 12.652,18.080 12.634 C 18.568 12.575,19.385 11.600,18.947 11.600 C 18.719 11.600,18.435 11.698,18.316 11.818 M13.600 13.690 C 13.600 13.887,13.420 13.936,13.200 13.800 C 12.980 13.664,12.800 13.754,12.800 14.000 C 12.800 14.246,12.592 14.319,12.338 14.162 C 12.067 13.994,11.984 14.051,12.139 14.301 C 12.450 14.805,13.806 14.516,14.381 13.823 C 14.670 13.474,14.617 13.333,14.194 13.333 C 13.867 13.333,13.600 13.494,13.600 13.690 M312.959 14.866 C 312.791 15.139,312.853 15.214,313.114 15.053 C 313.354 14.905,313.736 15.102,313.963 15.492 C 314.190 15.881,314.384 16.020,314.394 15.800 C 314.404 15.580,314.587 15.670,314.800 16.000 C 315.013 16.330,315.191 16.396,315.194 16.146 C 315.204 15.415,313.296 14.322,312.959 14.866 M7.213 17.747 C 6.986 17.974,6.800 18.394,6.800 18.680 C 6.800 18.966,6.620 19.200,6.400 19.200 C 6.180 19.200,6.000 19.374,6.000 19.587 C 6.000 20.206,6.925 19.639,7.875 18.439 C 8.742 17.344,8.192 16.768,7.213 17.747 M323.165 25.500 C 323.492 26.136,323.500 26.400,323.190 26.400 C 322.950 26.400,322.864 26.580,323.000 26.800 C 323.136 27.020,323.406 27.200,323.601 27.200 C 324.071 27.200,323.741 25.573,323.160 25.029 C 322.821 24.712,322.822 24.834,323.165 25.500 M325.900 88.138 C 325.956 116.552,326.047 148.890,326.104 160.000 C 326.161 171.110,326.248 148.070,326.298 108.800 C 326.347 69.530,326.256 37.192,326.094 36.938 C 325.932 36.684,325.845 59.724,325.900 88.138 M25.372 293.245 C 24.966 293.903,106.260 375.100,106.792 374.568 C 107.070 374.290,107.171 361.004,107.102 333.578 L 107.000 293.000 66.325 292.898 C 36.584 292.824,25.575 292.917,25.372 293.245 M3.300 389.831 C 3.685 390.289,4.000 390.846,4.000 391.070 C 4.000 391.553,5.311 392.800,5.820 392.800 C 6.017 392.800,5.778 392.520,5.289 392.177 C 4.800 391.835,4.400 391.323,4.400 391.039 C 4.400 390.756,3.995 390.181,3.500 389.762 C 2.601 389.001,2.601 389.001,3.300 389.831 " stroke="none" fill="#e9ac7f" fill-rule="evenodd"></path><path id="path1" d="M277.200 175.805 C 189.409 184.630,145.311 284.418,198.012 355.000 C 216.128 379.262,244.350 395.487,274.200 398.800 C 276.620 399.068,279.122 399.448,279.760 399.644 C 281.287 400.113,293.177 400.103,295.323 399.631 C 296.245 399.428,298.800 399.059,301.000 398.811 C 303.200 398.562,306.032 398.165,307.293 397.929 C 309.228 397.566,309.740 397.599,310.571 398.144 C 311.581 398.806,313.035 398.793,314.800 398.105 C 315.350 397.890,316.025 397.794,316.300 397.891 C 316.575 397.988,316.800 397.902,316.800 397.700 C 316.800 397.347,317.056 397.271,318.800 397.105 C 319.240 397.063,319.600 396.917,319.600 396.781 C 319.600 396.645,319.825 396.518,320.100 396.499 C 320.999 396.437,322.334 396.064,323.074 395.667 C 323.473 395.454,323.934 395.257,324.098 395.230 C 325.965 394.923,326.800 394.630,326.800 394.283 C 326.800 394.054,326.918 393.985,327.063 394.130 C 327.208 394.275,327.568 394.193,327.863 393.948 C 328.158 393.703,328.400 393.620,328.400 393.765 C 328.400 393.910,328.805 393.803,329.300 393.528 C 329.795 393.253,330.290 393.007,330.400 392.982 C 331.899 392.631,332.800 392.246,332.800 391.957 C 332.800 391.760,332.935 391.641,333.100 391.692 C 333.569 391.836,336.702 390.483,336.994 390.010 C 337.138 389.777,337.423 389.691,337.628 389.817 C 337.832 389.944,338.000 389.846,338.000 389.600 C 338.000 389.354,338.165 389.255,338.368 389.380 C 338.570 389.505,338.999 389.344,339.320 389.023 C 339.642 388.701,340.016 388.550,340.152 388.686 C 340.289 388.822,340.400 388.693,340.400 388.400 C 340.400 388.107,340.503 387.970,340.630 388.096 C 340.857 388.324,346.416 385.352,346.800 384.797 C 346.910 384.638,347.373 384.392,347.829 384.249 C 348.286 384.107,349.091 383.588,349.620 383.095 C 350.149 382.603,350.675 382.199,350.791 382.198 C 351.234 382.195,356.000 378.666,356.000 378.342 C 356.000 378.154,356.210 378.000,356.466 378.000 C 356.723 378.000,357.218 377.730,357.566 377.399 C 357.915 377.069,359.235 375.979,360.500 374.977 C 361.765 373.976,362.800 372.986,362.800 372.778 C 362.800 372.570,362.971 372.445,363.179 372.500 C 363.684 372.633,374.307 361.723,374.614 360.756 C 374.746 360.340,374.999 360.000,375.177 360.000 C 375.355 360.000,376.614 358.560,377.976 356.800 C 379.337 355.040,380.358 353.600,380.245 353.600 C 380.131 353.600,380.480 353.124,381.019 352.542 C 381.559 351.959,382.007 351.284,382.016 351.042 C 382.025 350.799,382.565 349.977,383.216 349.215 C 383.867 348.453,384.400 347.598,384.400 347.315 C 384.400 347.032,384.547 346.800,384.726 346.800 C 385.089 346.800,386.585 343.972,386.472 343.500 C 386.432 343.335,386.591 343.200,386.824 343.200 C 387.057 343.200,387.145 343.035,387.021 342.834 C 386.897 342.633,386.953 342.408,387.147 342.334 C 387.442 342.221,389.685 338.218,389.799 337.600 C 389.820 337.490,390.260 336.590,390.777 335.600 C 391.295 334.610,391.713 333.710,391.707 333.600 C 391.701 333.490,391.854 332.983,392.048 332.474 C 392.242 331.965,392.400 331.380,392.400 331.174 C 392.400 330.968,392.542 330.800,392.715 330.800 C 392.888 330.800,393.059 330.411,393.095 329.936 C 393.131 329.461,393.394 328.924,393.680 328.742 C 393.966 328.561,394.055 328.409,393.877 328.406 C 393.700 328.403,393.828 327.905,394.162 327.300 C 394.821 326.108,395.961 322.800,396.261 321.212 C 396.363 320.669,396.592 320.039,396.769 319.812 C 396.946 319.586,397.115 319.085,397.145 318.700 C 397.272 317.073,397.352 316.800,397.700 316.800 C 397.902 316.800,397.985 316.575,397.885 316.300 C 397.786 316.025,397.928 315.247,398.202 314.571 C 398.476 313.895,398.726 312.860,398.758 312.271 C 398.864 310.332,398.930 310.000,399.212 310.000 C 399.671 310.000,399.729 307.660,399.765 287.500 C 399.800 268.347,399.695 265.670,398.828 263.445 C 398.580 262.809,398.466 262.200,398.575 262.092 C 398.683 261.984,398.595 261.565,398.380 261.162 C 398.164 260.760,397.911 259.928,397.817 259.315 C 397.533 257.465,396.954 255.435,396.430 254.456 C 396.158 253.948,396.040 253.426,396.169 253.298 C 396.298 253.169,396.128 252.644,395.792 252.132 C 395.456 251.619,395.280 251.200,395.401 251.200 C 395.522 251.200,395.341 250.660,395.000 250.000 C 394.659 249.340,394.484 248.800,394.612 248.800 C 394.740 248.800,394.579 248.305,394.254 247.700 C 393.682 246.636,393.378 245.834,393.231 245.000 C 393.193 244.780,392.896 244.195,392.571 243.700 C 392.247 243.205,392.079 242.800,392.199 242.800 C 392.318 242.800,392.026 242.035,391.549 241.100 C 391.072 240.165,390.715 239.352,390.755 239.293 C 391.098 238.789,382.770 224.356,381.969 224.067 C 381.766 223.993,381.600 223.747,381.600 223.520 C 381.600 223.023,378.917 219.263,377.914 218.353 C 377.521 217.997,377.200 217.512,377.200 217.276 C 377.200 217.039,376.864 216.610,376.454 216.323 C 376.043 216.035,375.722 215.710,375.741 215.600 C 375.778 215.376,374.540 213.936,372.300 211.598 C 371.475 210.737,370.799 209.890,370.798 209.716 C 370.795 209.388,368.142 206.844,364.210 203.400 C 362.955 202.300,361.453 200.905,360.874 200.300 C 360.296 199.695,359.635 199.200,359.407 199.200 C 359.179 199.200,358.768 198.840,358.493 198.400 C 358.218 197.960,357.726 197.600,357.400 197.600 C 357.074 197.600,356.582 197.240,356.307 196.800 C 356.032 196.360,355.581 196.000,355.304 196.000 C 355.027 196.000,354.800 195.820,354.800 195.600 C 354.800 195.380,354.575 195.197,354.300 195.193 C 354.025 195.189,353.387 194.751,352.883 194.219 C 352.379 193.687,351.434 193.016,350.783 192.728 C 350.132 192.440,349.600 192.058,349.600 191.879 C 349.600 191.699,349.439 191.652,349.242 191.774 C 349.045 191.896,348.771 191.701,348.632 191.340 C 348.494 190.980,348.276 190.790,348.148 190.919 C 348.020 191.047,347.547 190.809,347.097 190.390 C 346.647 189.971,346.126 189.722,345.939 189.837 C 345.753 189.953,345.600 189.857,345.600 189.624 C 345.600 189.391,345.330 189.200,345.000 189.200 C 344.670 189.200,344.400 189.009,344.400 188.776 C 344.400 188.543,344.220 188.464,344.000 188.600 C 343.780 188.736,343.600 188.646,343.600 188.400 C 343.600 188.154,343.420 188.064,343.200 188.200 C 342.980 188.336,342.800 188.290,342.800 188.097 C 342.800 187.608,339.776 185.958,339.459 186.274 C 339.317 186.417,339.200 186.313,339.200 186.043 C 339.200 185.773,339.020 185.664,338.800 185.800 C 338.580 185.936,338.400 185.846,338.400 185.600 C 338.400 185.354,338.220 185.264,338.000 185.400 C 337.780 185.536,337.600 185.446,337.600 185.200 C 337.600 184.954,337.420 184.864,337.200 185.000 C 336.980 185.136,336.800 185.046,336.800 184.800 C 336.800 184.554,336.620 184.464,336.400 184.600 C 336.180 184.736,336.000 184.677,336.000 184.470 C 336.000 184.263,334.965 183.691,333.700 183.200 C 332.435 182.710,330.680 181.992,329.800 181.606 C 327.051 180.400,326.493 180.321,325.472 180.989 C 324.699 181.496,324.279 181.533,323.354 181.177 C 311.699 176.693,291.621 174.356,277.200 175.805 M333.928 252.998 C 340.643 256.657,342.764 265.777,338.273 271.683 C 336.895 273.495,262.643 335.600,261.855 335.600 C 260.948 335.600,235.713 309.878,234.777 308.000 C 230.399 299.215,238.647 288.136,248.203 289.966 C 251.888 290.672,253.255 291.556,258.281 296.480 C 261.591 299.722,263.334 301.165,263.684 300.951 C 263.968 300.778,276.530 290.363,291.600 277.807 C 322.470 252.087,321.318 253.014,323.436 252.206 C 326.105 251.188,331.330 251.583,333.928 252.998 " stroke="none" fill="#4ccbeb" fill-rule="evenodd"></path><path id="path2" d="M226.159 5.600 C 226.159 8.790,226.221 10.095,226.297 8.500 C 226.373 6.905,226.373 4.295,226.297 2.700 C 226.221 1.105,226.159 2.410,226.159 5.600 M75.294 112.500 L 75.400 124.600 87.500 124.706 L 99.600 124.812 99.600 112.606 L 99.600 100.400 87.394 100.400 L 75.188 100.400 75.294 112.500 M132.932 101.234 C 124.188 104.609,122.748 116.811,130.436 122.380 C 133.966 124.937,131.114 124.822,188.282 124.706 L 240.200 124.600 242.308 123.647 C 251.788 119.363,252.010 106.483,242.689 101.502 L 241.000 100.600 188.000 100.518 C 135.891 100.437,134.965 100.449,132.932 101.234 M75.294 162.500 L 75.400 174.600 87.500 174.706 L 99.600 174.812 99.600 162.606 L 99.600 150.400 87.394 150.400 L 75.188 150.400 75.294 162.500 M132.932 151.237 C 122.340 155.310,123.204 170.986,134.196 174.182 C 137.406 175.115,212.594 175.115,215.804 174.182 C 227.019 170.921,227.535 154.788,216.543 151.042 C 213.306 149.939,135.837 150.120,132.932 151.237 M75.294 212.500 L 75.400 224.600 87.500 224.706 L 99.600 224.812 99.600 212.606 L 99.600 200.400 87.394 200.400 L 75.188 200.400 75.294 212.500 M132.932 201.237 C 122.340 205.310,123.204 220.986,134.196 224.182 C 137.318 225.089,162.682 225.089,165.804 224.182 C 177.019 220.921,177.535 204.788,166.543 201.042 C 163.404 199.973,135.803 200.133,132.932 201.237 M75.294 262.500 L 75.400 274.600 87.500 274.706 L 99.600 274.812 99.600 262.606 L 99.600 250.400 87.394 250.400 L 75.188 250.400 75.294 262.500 " stroke="none" fill="#74949c" fill-rule="evenodd"></path><path id="path3" d="M25.200 164.798 L 25.200 292.000 65.800 292.000 C 105.959 292.000,106.409 292.009,107.206 292.806 C 108.003 293.603,108.011 294.041,107.994 334.106 L 107.977 374.600 161.777 374.701 L 215.576 374.803 208.457 367.701 C 150.255 309.647,170.068 212.810,246.368 182.413 C 260.179 176.911,274.034 174.553,290.701 174.870 L 300.002 175.047 299.901 106.424 L 299.800 37.800 262.600 37.800 L 225.400 37.800 225.166 46.600 C 225.038 51.440,224.735 56.106,224.493 56.970 C 222.201 65.145,214.660 72.446,206.280 74.603 C 202.701 75.524,122.257 75.496,118.692 74.572 C 105.937 71.267,100.076 62.602,99.634 46.400 L 99.400 37.800 62.300 37.698 L 25.200 37.596 25.200 164.798 M99.957 100.148 C 100.280 100.538,100.381 104.215,100.306 112.848 L 100.200 125.000 87.600 125.000 L 75.000 125.000 74.894 112.804 C 74.836 106.096,74.875 100.381,74.981 100.104 C 75.277 99.334,99.316 99.376,99.957 100.148 M242.857 100.908 C 251.078 104.946,252.762 115.401,246.216 121.764 C 242.388 125.485,247.263 125.201,187.285 125.196 L 134.600 125.192 132.544 124.235 C 121.610 119.144,122.429 103.773,133.821 100.260 C 135.558 99.724,142.217 99.659,188.200 99.725 L 240.600 99.800 242.857 100.908 M99.957 150.148 C 100.280 150.538,100.381 154.215,100.306 162.848 L 100.200 175.000 87.600 175.000 L 75.000 175.000 74.894 162.804 C 74.836 156.096,74.875 150.381,74.981 150.104 C 75.277 149.334,99.316 149.376,99.957 150.148 M217.688 150.872 C 227.672 155.552,227.738 169.276,217.800 174.047 L 215.400 175.199 175.000 175.196 L 134.600 175.192 132.544 174.235 C 121.610 169.144,122.428 153.778,133.821 150.259 C 135.547 149.726,140.883 149.658,175.600 149.724 L 215.400 149.800 217.688 150.872 M99.957 200.148 C 100.280 200.538,100.381 204.215,100.306 212.848 L 100.200 225.000 87.600 225.000 L 75.000 225.000 74.894 212.804 C 74.836 206.096,74.875 200.381,74.981 200.104 C 75.277 199.334,99.316 199.376,99.957 200.148 M167.688 200.872 C 177.672 205.552,177.738 219.276,167.800 224.047 L 165.400 225.199 150.000 225.196 L 134.600 225.192 132.544 224.235 C 121.608 219.143,122.425 203.804,133.821 200.254 C 135.476 199.738,138.225 199.651,150.600 199.719 L 165.400 199.800 167.688 200.872 M99.957 250.148 C 100.280 250.538,100.381 254.215,100.306 262.848 L 100.200 275.000 87.600 275.000 L 75.000 275.000 74.894 262.804 C 74.836 256.096,74.875 250.381,74.981 250.104 C 75.277 249.334,99.316 249.376,99.957 250.148 M324.000 252.635 C 321.590 253.500,323.050 252.333,291.840 278.340 C 276.683 290.971,263.940 301.395,263.523 301.504 C 262.962 301.651,261.446 300.411,257.683 296.728 C 251.715 290.888,250.130 290.105,245.118 290.526 C 236.744 291.228,231.566 300.522,235.383 308.000 C 236.721 310.622,260.453 334.800,261.688 334.800 C 262.552 334.800,335.610 274.085,337.518 271.780 C 344.963 262.793,335.003 248.687,324.000 252.635 M6.488 393.813 C 7.086 394.443,7.647 394.877,7.735 394.779 C 7.823 394.680,7.333 394.165,6.647 393.634 L 5.400 392.669 6.488 393.813 " stroke="none" fill="#ececec" fill-rule="evenodd"></path><path id="path4" d="M74.981 100.104 C 74.875 100.381,74.836 106.096,74.894 112.804 L 75.000 125.000 87.600 125.000 L 100.200 125.000 100.306 112.848 C 100.381 104.215,100.280 100.538,99.957 100.148 C 99.316 99.376,75.277 99.334,74.981 100.104 M133.821 100.260 C 122.429 103.773,121.610 119.144,132.544 124.235 L 134.600 125.192 187.285 125.196 C 247.263 125.201,242.388 125.485,246.216 121.764 C 252.762 115.401,251.078 104.946,242.857 100.908 L 240.600 99.800 188.200 99.725 C 142.217 99.659,135.558 99.724,133.821 100.260 M99.600 112.606 L 99.600 124.812 87.500 124.706 L 75.400 124.600 75.294 112.500 L 75.188 100.400 87.394 100.400 L 99.600 100.400 99.600 112.606 M242.689 101.502 C 252.010 106.483,251.788 119.363,242.308 123.647 L 240.200 124.600 188.282 124.706 C 131.114 124.822,133.966 124.937,130.436 122.380 C 124.233 117.887,123.645 109.037,129.192 103.654 C 132.782 100.170,128.008 100.425,188.000 100.518 L 241.000 100.600 242.689 101.502 M74.981 150.104 C 74.875 150.381,74.836 156.096,74.894 162.804 L 75.000 175.000 87.600 175.000 L 100.200 175.000 100.306 162.848 C 100.381 154.215,100.280 150.538,99.957 150.148 C 99.316 149.376,75.277 149.334,74.981 150.104 M133.821 150.259 C 122.428 153.778,121.610 169.144,132.544 174.235 L 134.600 175.192 175.000 175.196 L 215.400 175.199 217.800 174.047 C 227.738 169.276,227.672 155.552,217.688 150.872 L 215.400 149.800 175.600 149.724 C 140.883 149.658,135.547 149.726,133.821 150.259 M99.600 162.606 L 99.600 174.812 87.500 174.706 L 75.400 174.600 75.294 162.500 L 75.188 150.400 87.394 150.400 L 99.600 150.400 99.600 162.606 M216.543 151.042 C 227.535 154.788,227.019 170.921,215.804 174.182 C 212.594 175.115,137.406 175.115,134.196 174.182 C 123.204 170.986,122.340 155.310,132.932 151.237 C 135.837 150.120,213.306 149.939,216.543 151.042 M276.000 175.232 C 258.241 177.507,244.028 182.111,231.000 189.808 C 154.309 235.121,156.476 345.322,234.880 387.175 C 247.370 393.842,269.059 400.149,278.879 399.968 C 281.568 399.919,279.418 399.383,274.200 398.801 C 227.478 393.597,187.650 357.517,177.939 311.600 C 161.267 232.769,228.297 163.277,307.600 177.175 C 311.887 177.927,320.758 180.178,323.326 181.167 C 324.109 181.468,324.688 181.474,325.226 181.186 C 326.246 180.640,326.204 180.472,325.100 180.682 C 324.605 180.776,322.760 180.401,321.000 179.849 C 309.931 176.379,299.155 174.786,287.200 174.852 C 282.470 174.878,277.430 175.049,276.000 175.232 M74.981 200.104 C 74.875 200.381,74.836 206.096,74.894 212.804 L 75.000 225.000 87.600 225.000 L 100.200 225.000 100.306 212.848 C 100.381 204.215,100.280 200.538,99.957 200.148 C 99.316 199.376,75.277 199.334,74.981 200.104 M133.821 200.254 C 122.425 203.804,121.608 219.143,132.544 224.235 L 134.600 225.192 150.000 225.196 L 165.400 225.199 167.800 224.047 C 177.738 219.276,177.672 205.552,167.688 200.872 L 165.400 199.800 150.600 199.719 C 138.225 199.651,135.476 199.738,133.821 200.254 M99.600 212.606 L 99.600 224.812 87.500 224.706 L 75.400 224.600 75.294 212.500 L 75.188 200.400 87.394 200.400 L 99.600 200.400 99.600 212.606 M166.543 201.042 C 177.535 204.788,177.019 220.921,165.804 224.182 C 162.682 225.089,137.318 225.089,134.196 224.182 C 123.204 220.986,122.340 205.310,132.932 201.237 C 135.803 200.133,163.404 199.973,166.543 201.042 M74.981 250.104 C 74.875 250.381,74.836 256.096,74.894 262.804 L 75.000 275.000 87.600 275.000 L 100.200 275.000 100.306 262.848 C 100.381 254.215,100.280 250.538,99.957 250.148 C 99.316 249.376,75.277 249.334,74.981 250.104 M99.600 262.606 L 99.600 274.812 87.500 274.706 L 75.400 274.600 75.294 262.500 L 75.188 250.400 87.394 250.400 L 99.600 250.400 99.600 262.606 M323.436 252.206 C 321.318 253.014,322.470 252.087,291.600 277.807 C 276.530 290.363,263.968 300.778,263.684 300.951 C 263.334 301.165,261.591 299.722,258.281 296.480 C 253.255 291.556,251.888 290.672,248.203 289.966 C 238.647 288.136,230.399 299.215,234.777 308.000 C 235.713 309.878,260.948 335.600,261.855 335.600 C 262.643 335.600,336.895 273.495,338.273 271.683 C 345.630 262.008,334.849 247.855,323.436 252.206 M333.357 253.362 C 340.051 256.637,342.197 266.133,337.518 271.780 C 335.610 274.085,262.552 334.800,261.688 334.800 C 260.453 334.800,236.721 310.622,235.383 308.000 C 231.566 300.522,236.744 291.228,245.118 290.526 C 250.130 290.105,251.715 290.888,257.683 296.728 C 261.446 300.411,262.962 301.651,263.523 301.504 C 263.940 301.395,276.683 290.971,291.840 278.340 C 306.998 265.709,320.030 254.903,320.800 254.328 C 324.260 251.741,329.259 251.356,333.357 253.362 M307.962 397.772 C 307.867 397.866,305.452 398.234,302.595 398.589 C 295.755 399.438,293.058 400.028,297.000 399.813 C 298.540 399.729,301.767 399.427,304.170 399.141 C 307.441 398.753,308.579 398.738,308.694 399.082 C 308.807 399.421,309.172 399.429,310.085 399.110 C 311.243 398.707,311.275 398.644,310.585 398.139 C 309.881 397.625,308.326 397.407,307.962 397.772 " stroke="none" fill="#a4d4dc" fill-rule="evenodd"></path><path id="path5" d="M22.036 11.569 C 21.726 11.765,21.231 11.833,20.936 11.720 C 20.641 11.607,20.397 11.759,20.394 12.057 C 20.389 12.485,20.310 12.477,20.018 12.016 C 19.703 11.518,19.521 11.548,18.782 12.216 C 18.306 12.647,17.800 12.977,17.658 12.948 C 17.516 12.919,16.970 13.059,16.445 13.259 C 15.919 13.459,15.394 13.527,15.277 13.410 C 15.160 13.294,14.742 13.490,14.347 13.848 C 13.953 14.205,13.391 14.405,13.098 14.293 C 12.398 14.024,11.047 15.028,11.381 15.569 C 11.537 15.822,11.402 15.899,11.041 15.760 C 10.711 15.634,10.207 15.732,9.921 15.979 C 9.634 16.225,9.040 16.704,8.600 17.043 C 8.160 17.382,8.070 17.527,8.400 17.365 C 8.730 17.203,8.550 17.594,8.000 18.234 C 7.450 18.874,6.845 19.465,6.655 19.547 C 6.465 19.630,6.020 20.035,5.666 20.448 C 5.312 20.862,4.782 21.200,4.487 21.200 C 4.193 21.200,4.065 21.381,4.202 21.603 C 4.339 21.824,4.169 22.114,3.825 22.246 C 3.481 22.378,3.200 22.826,3.200 23.243 C 3.200 23.659,3.063 24.000,2.896 24.000 C 2.729 24.000,2.356 24.379,2.067 24.842 C 1.631 25.539,1.632 25.630,2.070 25.373 C 2.362 25.202,2.285 25.423,1.900 25.863 C 1.515 26.303,1.200 26.874,1.200 27.131 C 1.200 27.389,1.059 27.600,0.886 27.600 C 0.295 27.600,0.288 29.271,0.144 206.254 C -0.005 389.792,-0.032 386.216,1.500 385.701 C 1.775 385.609,2.000 385.728,2.000 385.967 C 2.000 386.205,1.818 386.400,1.597 386.400 C 1.074 386.400,1.876 387.806,3.298 389.383 C 3.902 390.052,4.397 390.781,4.398 391.001 C 4.399 391.222,4.976 391.942,5.679 392.601 C 6.383 393.261,6.805 393.547,6.618 393.238 C 6.386 392.856,6.424 392.768,6.738 392.962 C 6.992 393.119,7.200 393.415,7.200 393.621 C 7.200 394.311,8.879 395.933,9.844 396.175 C 10.370 396.307,10.800 396.601,10.800 396.828 C 10.800 397.056,11.340 397.430,12.000 397.660 C 12.660 397.890,13.200 398.235,13.200 398.427 C 13.200 398.618,13.515 398.662,13.900 398.524 C 14.285 398.386,14.462 398.424,14.293 398.610 C 14.125 398.795,14.561 399.188,15.263 399.483 C 16.294 399.917,16.603 399.922,16.864 399.510 C 17.115 399.115,17.189 399.112,17.194 399.496 C 17.199 399.891,43.858 399.986,146.700 399.960 L 276.200 399.927 269.800 398.826 C 251.094 395.611,234.200 388.499,220.400 378.030 C 218.750 376.779,217.130 375.585,216.800 375.377 C 216.436 375.148,194.932 374.921,162.089 374.800 L 107.977 374.600 107.994 334.106 C 108.011 294.040,108.003 293.603,107.206 292.806 C 106.409 292.009,105.959 292.000,65.800 292.000 L 25.200 292.000 25.200 164.798 L 25.200 37.596 62.300 37.698 L 99.400 37.800 99.634 46.400 C 100.076 62.602,105.937 71.267,118.692 74.572 C 122.257 75.496,202.701 75.524,206.280 74.603 C 214.660 72.446,222.201 65.145,224.493 56.970 C 224.735 56.106,225.038 51.440,225.166 46.600 L 225.400 37.800 262.600 37.800 L 299.800 37.800 299.901 106.624 L 300.002 175.447 303.701 175.968 C 309.330 176.761,315.477 178.146,321.645 180.008 C 323.320 180.514,324.988 180.813,325.352 180.674 C 326.258 180.326,326.344 32.384,325.440 31.633 C 325.149 31.391,324.960 30.744,325.020 30.195 C 325.081 29.646,324.966 29.298,324.765 29.422 C 324.420 29.635,324.228 28.798,324.370 27.700 C 324.406 27.425,324.168 27.200,323.841 27.200 C 323.514 27.200,323.117 26.989,322.958 26.732 C 322.772 26.432,322.876 26.343,323.247 26.486 C 323.693 26.657,323.642 26.315,323.025 24.984 C 322.586 24.036,322.085 23.347,321.913 23.454 C 321.741 23.560,321.600 23.282,321.600 22.836 C 321.600 22.244,321.420 22.094,320.934 22.281 C 320.492 22.450,320.364 22.382,320.553 22.076 C 320.903 21.509,320.093 19.895,319.609 20.195 C 319.416 20.314,319.138 20.035,318.992 19.576 C 318.846 19.116,318.634 18.832,318.521 18.946 C 318.229 19.238,317.246 18.263,317.466 17.899 C 317.566 17.734,317.187 17.423,316.624 17.209 C 316.061 16.995,315.600 16.625,315.600 16.386 C 315.600 16.148,315.420 16.064,315.200 16.200 C 314.980 16.336,314.800 16.246,314.800 16.000 C 314.800 15.754,314.639 15.652,314.442 15.774 C 314.245 15.896,313.988 15.746,313.871 15.442 C 313.617 14.778,311.200 13.502,311.200 14.031 C 311.200 14.234,311.026 14.400,310.813 14.400 C 310.599 14.400,310.541 14.099,310.682 13.731 C 310.874 13.231,310.775 13.124,310.295 13.308 C 309.941 13.444,309.594 13.383,309.525 13.174 C 309.455 12.964,308.992 12.714,308.497 12.619 C 308.002 12.523,307.424 12.339,307.213 12.208 C 306.417 11.716,303.200 11.654,303.188 12.130 C 303.181 12.389,302.992 12.285,302.768 11.900 C 302.384 11.241,300.133 11.200,264.448 11.200 L 226.535 11.200 226.068 12.100 C 225.754 12.704,225.541 17.010,225.420 25.200 C 225.001 53.576,224.752 56.200,221.973 61.600 C 218.761 67.841,212.094 72.937,205.280 74.358 C 200.795 75.293,121.910 74.945,118.392 73.974 C 110.464 71.787,104.095 65.735,101.353 57.785 C 100.122 54.219,99.889 50.467,99.262 24.200 C 99.094 17.160,98.921 11.355,98.878 11.300 C 98.645 11.001,22.513 11.267,22.036 11.569 M107.102 333.578 C 107.171 361.004,107.070 374.290,106.792 374.568 C 106.260 375.100,24.966 293.903,25.372 293.245 C 25.575 292.917,36.584 292.824,66.325 292.898 L 107.000 293.000 107.102 333.578 M301.800 399.403 L 298.600 399.904 303.700 399.911 C 307.804 399.917,308.800 399.809,308.800 399.359 C 308.800 398.668,306.389 398.683,301.800 399.403 " stroke="none" fill="#e4c0b0" fill-rule="evenodd"></path></g></svg>