<svg id="svg" version="1.1" xmlns="http://www.w3.org/2000/svg" xmlns:xlink="http://www.w3.org/1999/xlink" width="400" height="400" viewBox="0, 0, 400,400"><g id="svgg"><path id="path0" d="M109.400 243.600 C 109.264 243.820,108.623 244.000,107.976 244.000 C 107.329 244.000,106.800 244.180,106.800 244.400 C 106.800 244.620,106.525 244.800,106.189 244.800 C 105.396 244.800,102.000 248.196,102.000 248.989 C 102.000 249.325,101.820 249.600,101.600 249.600 C 101.380 249.600,101.200 250.140,101.200 250.800 C 101.200 251.460,101.020 252.000,100.800 252.000 C 100.535 252.000,100.400 273.867,100.400 316.800 C 100.400 359.733,100.535 381.600,100.800 381.600 C 101.020 381.600,101.200 382.140,101.200 382.800 C 101.200 383.460,101.380 384.000,101.600 384.000 C 101.820 384.000,102.000 384.275,102.000 384.611 C 102.000 385.404,105.396 388.800,106.189 388.800 C 106.525 388.800,106.800 388.980,106.800 389.200 C 106.800 389.420,107.329 389.600,107.976 389.600 C 108.623 389.600,109.264 389.780,109.400 390.000 C 109.739 390.549,146.661 390.549,147.000 390.000 C 147.136 389.780,147.777 389.600,148.424 389.600 C 149.071 389.600,149.600 389.420,149.600 389.200 C 149.600 388.980,149.856 388.800,150.168 388.800 C 150.908 388.800,154.400 385.308,154.400 384.568 C 154.400 384.256,154.535 384.000,154.700 384.000 C 154.865 384.000,155.000 353.760,155.000 316.800 C 155.000 279.840,154.865 249.600,154.700 249.600 C 154.535 249.600,154.400 249.359,154.400 249.064 C 154.400 248.288,150.996 244.800,150.240 244.800 C 149.888 244.800,149.600 244.620,149.600 244.400 C 149.600 244.180,149.071 244.000,148.424 244.000 C 147.777 244.000,147.136 243.820,147.000 243.600 C 146.841 243.343,140.137 243.200,128.200 243.200 C 116.263 243.200,109.559 243.343,109.400 243.600 " stroke="none" fill="#3e9ffc" fill-rule="evenodd"></path><path id="path1" d="M124.900 7.010 C 124.405 7.539,124.000 8.428,124.000 8.986 C 124.000 9.544,123.820 10.000,123.600 10.000 C 123.345 10.000,123.200 13.200,123.200 18.800 C 123.200 24.400,123.345 27.600,123.600 27.600 C 123.820 27.600,124.000 28.074,124.000 28.653 C 124.000 30.308,125.797 31.599,128.100 31.600 C 129.145 31.600,130.000 31.420,130.000 31.200 C 130.000 30.980,130.283 30.800,130.629 30.800 C 132.306 30.800,132.400 30.162,132.400 18.800 C 132.400 10.451,132.281 7.834,131.885 7.471 C 129.926 5.680,126.365 5.445,124.900 7.010 M126.800 53.600 C 126.800 54.040,126.641 54.400,126.447 54.400 C 126.252 54.400,125.993 54.805,125.871 55.300 C 125.410 57.169,124.593 59.200,124.302 59.200 C 124.136 59.200,124.000 59.560,124.000 60.000 C 124.000 60.440,123.820 60.800,123.600 60.800 C 123.380 60.800,123.200 61.160,123.200 61.600 C 123.200 62.040,123.020 62.400,122.800 62.400 C 122.580 62.400,122.400 62.850,122.400 63.400 C 122.400 63.950,122.220 64.400,122.000 64.400 C 121.780 64.400,121.600 64.760,121.600 65.200 C 121.600 65.640,121.420 66.000,121.200 66.000 C 120.980 66.000,120.800 66.360,120.800 66.800 C 120.800 67.240,120.620 67.600,120.400 67.600 C 120.180 67.600,120.000 67.960,120.000 68.400 C 120.000 68.840,119.820 69.200,119.600 69.200 C 119.380 69.200,119.200 69.560,119.200 70.000 C 119.200 70.440,119.020 70.800,118.800 70.800 C 118.580 70.800,118.400 71.160,118.400 71.600 C 118.400 72.040,118.220 72.400,118.000 72.400 C 117.780 72.400,117.600 72.760,117.600 73.200 C 117.600 73.640,117.420 74.000,117.200 74.000 C 116.980 74.000,116.800 74.349,116.800 74.776 C 116.800 75.203,116.620 75.664,116.400 75.800 C 116.180 75.936,116.000 76.397,116.000 76.824 C 116.000 77.251,115.820 77.600,115.600 77.600 C 115.380 77.600,115.200 77.960,115.200 78.400 C 115.200 78.840,115.020 79.200,114.800 79.200 C 114.580 79.200,114.400 79.560,114.400 80.000 C 114.400 80.440,114.220 80.800,114.000 80.800 C 113.780 80.800,113.600 81.160,113.600 81.600 C 113.600 82.040,113.420 82.400,113.200 82.400 C 112.980 82.400,112.800 82.760,112.800 83.200 C 112.800 83.640,112.620 84.000,112.400 84.000 C 112.180 84.000,112.000 84.242,112.000 84.539 C 112.000 84.835,111.741 85.600,111.425 86.239 C 111.108 86.877,110.662 87.895,110.434 88.500 C 110.067 89.474,109.815 89.600,108.234 89.600 C 107.251 89.600,106.336 89.780,106.200 90.000 C 106.064 90.220,104.703 90.400,103.176 90.400 C 101.649 90.400,100.400 90.553,100.400 90.739 C 100.400 90.926,98.195 91.200,95.500 91.349 C 92.805 91.498,89.880 91.791,89.000 92.001 C 88.120 92.210,86.196 92.385,84.724 92.390 C 83.252 92.396,81.936 92.580,81.800 92.800 C 81.664 93.020,80.314 93.200,78.800 93.200 C 77.286 93.200,75.936 93.380,75.800 93.600 C 75.664 93.820,74.303 94.000,72.776 94.000 C 70.005 94.000,69.785 94.121,69.979 95.539 C 70.055 96.093,77.275 103.349,80.588 106.200 C 81.611 107.080,84.411 109.690,86.811 112.000 C 89.211 114.310,92.879 117.820,94.963 119.800 C 98.781 123.429,100.011 126.004,98.400 127.000 C 98.180 127.136,98.000 128.047,98.000 129.024 C 98.000 130.001,97.820 130.800,97.600 130.800 C 97.380 130.800,97.200 131.664,97.200 132.720 C 97.200 133.776,97.037 134.811,96.839 135.020 C 96.640 135.229,96.370 136.255,96.239 137.300 C 96.107 138.345,95.893 140.055,95.761 141.100 C 95.630 142.145,95.360 143.171,95.161 143.380 C 94.963 143.589,94.800 144.498,94.800 145.400 C 94.800 146.302,94.637 147.211,94.439 147.420 C 94.240 147.629,93.981 148.610,93.862 149.600 C 93.744 150.590,93.464 152.300,93.239 153.400 C 92.497 157.040,91.783 162.189,91.922 162.900 C 92.067 163.645,94.000 163.924,94.000 163.200 C 94.000 162.980,94.360 162.800,94.800 162.800 C 95.240 162.800,95.600 162.620,95.600 162.400 C 95.600 162.180,95.960 162.000,96.400 162.000 C 96.840 162.000,97.200 161.820,97.200 161.600 C 97.200 161.380,97.436 161.200,97.725 161.200 C 98.013 161.200,98.636 160.840,99.108 160.400 C 99.580 159.960,100.244 159.600,100.583 159.600 C 100.922 159.600,101.200 159.420,101.200 159.200 C 101.200 158.980,101.456 158.800,101.768 158.800 C 102.591 158.800,108.000 155.989,108.000 155.561 C 108.000 155.363,108.360 155.200,108.800 155.200 C 109.240 155.200,109.600 155.020,109.600 154.800 C 109.600 154.580,109.960 154.400,110.400 154.400 C 110.840 154.400,111.200 154.220,111.200 154.000 C 111.200 153.780,111.560 153.600,112.000 153.600 C 112.440 153.600,112.800 153.420,112.800 153.200 C 112.800 152.980,113.036 152.800,113.325 152.800 C 113.613 152.800,114.236 152.440,114.708 152.000 C 115.180 151.560,115.844 151.200,116.183 151.200 C 116.522 151.200,116.800 151.020,116.800 150.800 C 116.800 150.580,117.160 150.400,117.600 150.400 C 118.040 150.400,118.400 150.220,118.400 150.000 C 118.400 149.780,118.760 149.600,119.200 149.600 C 119.640 149.600,120.000 149.441,120.000 149.247 C 120.000 149.052,120.315 148.793,120.700 148.671 C 121.636 148.375,123.766 147.076,123.933 146.700 C 124.007 146.535,124.322 146.400,124.633 146.400 C 124.945 146.400,125.200 146.220,125.200 146.000 C 125.200 145.780,125.560 145.600,126.000 145.600 C 126.440 145.600,126.800 145.420,126.800 145.200 C 126.800 144.980,127.340 144.800,128.000 144.800 C 128.660 144.800,129.200 144.980,129.200 145.200 C 129.200 145.420,129.560 145.600,130.000 145.600 C 130.440 145.600,130.800 145.780,130.800 146.000 C 130.800 146.220,131.160 146.400,131.600 146.400 C 132.040 146.400,132.400 146.580,132.400 146.800 C 132.400 147.020,132.636 147.200,132.925 147.200 C 133.213 147.200,133.836 147.560,134.308 148.000 C 134.780 148.440,135.444 148.800,135.783 148.800 C 136.122 148.800,136.400 148.980,136.400 149.200 C 136.400 149.420,136.760 149.600,137.200 149.600 C 137.640 149.600,138.000 149.780,138.000 150.000 C 138.000 150.220,138.360 150.400,138.800 150.400 C 139.240 150.400,139.600 150.580,139.600 150.800 C 139.600 151.020,139.836 151.200,140.125 151.200 C 140.413 151.200,140.998 151.515,141.425 151.901 C 141.851 152.286,143.100 153.051,144.200 153.601 C 145.300 154.150,146.260 154.735,146.333 154.900 C 146.407 155.065,146.797 155.200,147.200 155.200 C 147.603 155.200,147.993 155.344,148.067 155.521 C 148.251 155.963,153.931 158.800,154.632 158.800 C 154.944 158.800,155.200 158.980,155.200 159.200 C 155.200 159.420,155.436 159.600,155.725 159.600 C 156.013 159.600,156.636 159.960,157.108 160.400 C 157.580 160.840,158.244 161.200,158.583 161.200 C 158.922 161.200,159.200 161.380,159.200 161.600 C 159.200 161.820,159.470 162.000,159.800 162.000 C 160.130 162.000,160.400 162.180,160.400 162.400 C 160.400 162.620,160.760 162.800,161.200 162.800 C 161.640 162.800,162.000 162.980,162.000 163.200 C 162.000 163.420,162.540 163.600,163.200 163.600 C 164.356 163.600,164.400 163.533,164.400 161.800 C 164.400 160.810,164.220 160.000,164.000 160.000 C 163.780 160.000,163.600 159.100,163.600 158.000 C 163.600 156.900,163.420 156.000,163.200 156.000 C 162.980 156.000,162.800 155.100,162.800 154.000 C 162.800 152.900,162.620 152.000,162.400 152.000 C 162.180 152.000,162.000 151.021,162.000 149.824 C 162.000 148.627,161.820 147.536,161.600 147.400 C 161.380 147.264,161.200 146.364,161.200 145.400 C 161.200 144.436,161.020 143.536,160.800 143.400 C 160.580 143.264,160.400 142.353,160.400 141.376 C 160.400 140.399,160.220 139.600,160.000 139.600 C 159.780 139.600,159.600 138.700,159.600 137.600 C 159.600 136.500,159.420 135.600,159.200 135.600 C 158.980 135.600,158.794 134.745,158.786 133.700 C 158.778 132.655,158.515 130.630,158.200 129.200 C 157.041 123.929,157.123 123.668,161.225 119.597 C 163.218 117.619,165.017 116.000,165.221 116.000 C 165.426 116.000,168.129 113.480,171.228 110.400 C 174.327 107.320,177.009 104.800,177.187 104.800 C 177.366 104.800,179.512 102.832,181.956 100.426 C 187.619 94.852,187.837 94.000,183.600 94.000 C 182.000 94.000,180.800 93.829,180.800 93.600 C 180.800 93.367,179.467 93.200,177.600 93.200 C 175.733 93.200,174.400 93.033,174.400 92.800 C 174.400 92.578,173.288 92.392,171.900 92.383 C 170.525 92.373,168.590 92.202,167.600 92.003 C 166.610 91.804,163.685 91.514,161.100 91.360 C 158.515 91.206,156.400 90.927,156.400 90.740 C 156.400 90.553,154.870 90.400,153.000 90.400 C 151.000 90.400,149.600 90.235,149.600 90.000 C 149.600 89.780,148.700 89.600,147.600 89.600 C 145.867 89.600,145.600 89.493,145.600 88.800 C 145.600 88.360,145.420 88.000,145.200 88.000 C 144.980 88.000,144.800 87.460,144.800 86.800 C 144.800 86.140,144.620 85.600,144.400 85.600 C 144.180 85.600,144.000 85.240,144.000 84.800 C 144.000 84.360,143.820 84.000,143.600 84.000 C 143.380 84.000,143.200 83.640,143.200 83.200 C 143.200 82.760,143.020 82.400,142.800 82.400 C 142.580 82.400,142.400 82.040,142.400 81.600 C 142.400 81.160,142.220 80.800,142.000 80.800 C 141.780 80.800,141.600 80.513,141.600 80.162 C 141.600 79.810,140.970 78.196,140.200 76.573 C 139.430 74.950,138.800 73.427,138.800 73.188 C 138.800 72.949,138.658 72.840,138.485 72.948 C 138.312 73.055,138.130 72.660,138.081 72.071 C 138.033 71.482,137.815 70.940,137.597 70.867 C 137.378 70.793,137.200 70.388,137.200 69.967 C 137.200 69.545,137.020 69.200,136.800 69.200 C 136.580 69.200,136.400 68.840,136.400 68.400 C 136.400 67.960,136.220 67.600,136.000 67.600 C 135.780 67.600,135.600 67.240,135.600 66.800 C 135.600 66.360,135.420 66.000,135.200 66.000 C 134.980 66.000,134.800 65.640,134.800 65.200 C 134.800 64.760,134.620 64.400,134.400 64.400 C 134.180 64.400,134.000 64.040,134.000 63.600 C 134.000 63.160,133.820 62.800,133.600 62.800 C 133.380 62.800,133.200 62.440,133.200 62.000 C 133.200 61.560,133.020 61.200,132.800 61.200 C 132.580 61.200,132.400 60.750,132.400 60.200 C 132.400 59.650,132.220 59.200,132.000 59.200 C 131.780 59.200,131.600 58.840,131.600 58.400 C 131.600 57.960,131.420 57.600,131.200 57.600 C 130.980 57.600,130.800 57.240,130.800 56.800 C 130.800 56.360,130.620 56.000,130.400 56.000 C 130.180 56.000,130.000 55.640,130.000 55.200 C 130.000 54.760,129.820 54.400,129.600 54.400 C 129.380 54.400,129.200 54.040,129.200 53.600 C 129.200 52.978,128.933 52.800,128.000 52.800 C 127.067 52.800,126.800 52.978,126.800 53.600 M38.800 57.200 C 38.800 57.420,38.337 57.600,37.771 57.600 C 36.717 57.600,35.600 58.408,35.600 59.171 C 35.600 59.407,35.420 59.600,35.200 59.600 C 34.980 59.600,34.800 60.500,34.800 61.600 C 34.800 62.700,34.980 63.600,35.200 63.600 C 35.420 63.600,35.600 63.883,35.600 64.229 C 35.600 65.037,36.563 66.000,37.371 66.000 C 37.717 66.000,38.000 66.180,38.000 66.400 C 38.000 66.620,38.360 66.800,38.800 66.800 C 39.240 66.800,39.600 66.958,39.600 67.151 C 39.600 67.345,40.140 67.727,40.800 68.000 C 41.460 68.273,42.000 68.611,42.000 68.751 C 42.000 68.890,42.585 69.259,43.300 69.570 C 44.015 69.881,44.690 70.240,44.800 70.368 C 45.133 70.754,47.353 72.034,48.100 72.271 C 48.485 72.393,48.800 72.652,48.800 72.847 C 48.800 73.041,49.160 73.200,49.600 73.200 C 50.040 73.200,50.400 73.344,50.400 73.520 C 50.400 74.121,53.260 74.878,54.589 74.628 C 57.073 74.163,58.890 71.167,58.196 68.683 C 57.752 67.092,57.074 66.000,56.532 66.000 C 56.240 66.000,56.000 65.820,56.000 65.600 C 56.000 65.380,55.730 65.200,55.400 65.200 C 55.070 65.200,54.800 65.020,54.800 64.800 C 54.800 64.580,54.530 64.400,54.200 64.400 C 53.870 64.400,53.600 64.220,53.600 64.000 C 53.600 63.780,53.240 63.600,52.800 63.600 C 52.360 63.600,52.000 63.420,52.000 63.200 C 52.000 62.980,51.722 62.800,51.383 62.800 C 51.044 62.800,50.380 62.440,49.908 62.000 C 49.436 61.560,48.813 61.200,48.525 61.200 C 48.236 61.200,48.000 61.020,48.000 60.800 C 48.000 60.580,47.640 60.400,47.200 60.400 C 46.760 60.400,46.400 60.253,46.400 60.074 C 46.400 59.676,43.799 58.400,42.986 58.400 C 42.664 58.400,42.400 58.220,42.400 58.000 C 42.400 57.780,41.860 57.600,41.200 57.600 C 40.540 57.600,40.000 57.420,40.000 57.200 C 40.000 56.980,39.730 56.800,39.400 56.800 C 39.070 56.800,38.800 56.980,38.800 57.200 M215.100 57.518 C 214.275 57.589,213.600 57.817,213.600 58.024 C 213.600 58.231,213.326 58.400,212.992 58.400 C 212.658 58.400,211.671 58.850,210.800 59.400 C 209.929 59.950,209.032 60.400,208.808 60.400 C 208.584 60.400,208.400 60.580,208.400 60.800 C 208.400 61.020,208.040 61.200,207.600 61.200 C 207.160 61.200,206.800 61.358,206.800 61.551 C 206.800 61.745,206.260 62.127,205.600 62.400 C 204.940 62.673,204.400 63.055,204.400 63.249 C 204.400 63.442,204.040 63.600,203.600 63.600 C 203.160 63.600,202.800 63.780,202.800 64.000 C 202.800 64.220,202.440 64.400,202.000 64.400 C 201.560 64.400,201.200 64.550,201.200 64.732 C 201.200 64.915,200.705 65.320,200.100 65.632 C 198.201 66.612,198.000 67.012,198.000 69.800 C 198.000 72.652,198.224 73.075,200.300 74.148 C 202.083 75.070,205.824 74.351,207.200 72.822 C 207.548 72.436,209.771 71.160,210.500 70.929 C 210.885 70.807,211.200 70.548,211.200 70.353 C 211.200 70.159,211.560 70.000,212.000 70.000 C 212.440 70.000,212.800 69.820,212.800 69.600 C 212.800 69.380,213.036 69.200,213.325 69.200 C 213.613 69.200,214.236 68.840,214.708 68.400 C 215.180 67.960,215.844 67.600,216.183 67.600 C 216.522 67.600,216.800 67.420,216.800 67.200 C 216.800 66.980,217.160 66.800,217.600 66.800 C 218.040 66.800,218.400 66.650,218.400 66.468 C 218.400 66.285,218.853 65.893,219.406 65.597 C 221.075 64.703,222.583 60.000,221.200 60.000 C 220.980 60.000,220.800 59.717,220.800 59.371 C 220.800 57.920,218.620 57.211,215.100 57.518 M51.200 151.600 C 51.200 151.820,50.922 152.000,50.583 152.000 C 50.244 152.000,49.580 152.360,49.108 152.800 C 48.636 153.240,48.013 153.600,47.725 153.600 C 47.436 153.600,47.200 153.780,47.200 154.000 C 47.200 154.220,46.840 154.400,46.400 154.400 C 45.960 154.400,45.600 154.580,45.600 154.800 C 45.600 155.020,45.364 155.200,45.075 155.200 C 44.787 155.200,44.164 155.560,43.692 156.000 C 43.220 156.440,42.646 156.800,42.417 156.800 C 42.188 156.800,42.000 156.980,42.000 157.200 C 42.000 157.420,41.640 157.600,41.200 157.600 C 40.760 157.600,40.400 157.780,40.400 158.000 C 40.400 158.220,40.053 158.400,39.629 158.400 C 39.204 158.400,38.619 158.625,38.329 158.900 C 38.038 159.175,37.305 159.655,36.700 159.968 C 36.095 160.280,35.600 160.865,35.600 161.268 C 35.600 161.670,35.420 162.000,35.200 162.000 C 34.980 162.000,34.800 162.900,34.800 164.000 C 34.800 165.100,34.980 166.000,35.200 166.000 C 35.420 166.000,35.601 166.315,35.603 166.700 C 35.611 168.406,41.673 169.164,42.800 167.600 C 43.117 167.160,43.697 166.800,44.088 166.800 C 44.480 166.800,44.800 166.620,44.800 166.400 C 44.800 166.180,45.160 166.000,45.600 166.000 C 46.040 166.000,46.400 165.820,46.400 165.600 C 46.400 165.380,46.720 165.200,47.112 165.200 C 47.503 165.200,48.083 164.840,48.400 164.400 C 48.717 163.960,49.297 163.600,49.688 163.600 C 50.080 163.600,50.400 163.420,50.400 163.200 C 50.400 162.980,50.760 162.800,51.200 162.800 C 51.640 162.800,52.000 162.620,52.000 162.400 C 52.000 162.180,52.270 162.000,52.600 162.000 C 52.930 162.000,53.200 161.820,53.200 161.600 C 53.200 161.380,53.470 161.200,53.800 161.200 C 54.130 161.200,54.400 161.020,54.400 160.800 C 54.400 160.580,54.760 160.400,55.200 160.400 C 55.640 160.400,56.000 160.220,56.000 160.000 C 56.000 159.780,56.250 159.600,56.557 159.600 C 58.561 159.600,58.753 153.391,56.792 151.994 C 55.595 151.142,51.200 150.832,51.200 151.600 M198.900 152.210 C 197.298 153.921,197.912 159.589,199.700 159.597 C 200.085 159.599,200.400 159.780,200.400 160.000 C 200.400 160.220,200.720 160.400,201.112 160.400 C 201.503 160.400,202.083 160.760,202.400 161.200 C 202.717 161.640,203.297 162.000,203.688 162.000 C 204.080 162.000,204.400 162.180,204.400 162.400 C 204.400 162.620,204.760 162.800,205.200 162.800 C 205.640 162.800,206.000 162.980,206.000 163.200 C 206.000 163.420,206.236 163.600,206.525 163.600 C 206.813 163.600,207.398 163.925,207.825 164.322 C 208.251 164.720,209.185 165.303,209.900 165.620 C 210.615 165.936,211.200 166.331,211.200 166.498 C 211.200 166.664,211.425 166.804,211.700 166.809 C 211.975 166.814,212.650 167.170,213.200 167.600 C 213.932 168.173,214.835 168.385,216.572 168.391 C 222.366 168.413,223.495 161.916,218.169 159.203 C 217.086 158.651,216.140 158.065,216.067 157.900 C 215.993 157.735,215.588 157.600,215.167 157.600 C 214.745 157.600,214.400 157.420,214.400 157.200 C 214.400 156.980,214.080 156.800,213.688 156.800 C 213.297 156.800,212.717 156.440,212.400 156.000 C 212.083 155.560,211.503 155.200,211.112 155.200 C 210.720 155.200,210.400 155.020,210.400 154.800 C 210.400 154.580,210.040 154.400,209.600 154.400 C 209.160 154.400,208.800 154.220,208.800 154.000 C 208.800 153.780,208.530 153.600,208.200 153.600 C 207.870 153.600,207.600 153.420,207.600 153.200 C 207.600 152.980,207.330 152.800,207.000 152.800 C 206.670 152.800,206.400 152.620,206.400 152.400 C 206.400 152.180,206.130 152.000,205.800 152.000 C 205.470 152.000,205.200 151.820,205.200 151.600 C 205.200 150.675,199.853 151.192,198.900 152.210 M124.900 195.010 C 124.405 195.539,124.000 196.327,124.000 196.762 C 124.000 197.197,123.820 197.664,123.600 197.800 C 123.353 197.953,123.200 201.471,123.200 207.024 C 123.200 212.741,123.345 216.000,123.600 216.000 C 123.820 216.000,124.000 216.463,124.000 217.029 C 124.000 218.186,124.827 219.200,125.771 219.200 C 126.117 219.200,126.400 219.380,126.400 219.600 C 126.400 219.820,127.210 220.000,128.200 220.000 C 129.190 220.000,130.000 219.820,130.000 219.600 C 130.000 219.380,130.230 219.200,130.511 219.200 C 132.234 219.200,132.400 218.106,132.400 206.742 L 132.400 195.893 131.300 194.947 C 129.723 193.591,126.197 193.625,124.900 195.010 " stroke="none" fill="#fcbb1e" fill-rule="evenodd"></path><path id="path2" d="M259.600 142.396 C 259.600 142.524,259.285 142.659,258.900 142.696 C 257.809 142.802,256.200 143.089,256.200 143.179 C 256.200 143.223,255.778 143.337,255.263 143.433 C 252.719 143.904,252.607 144.687,254.985 145.378 C 260.049 146.851,270.400 156.334,270.400 159.502 C 270.400 159.739,270.535 159.993,270.700 160.067 C 270.970 160.187,272.057 162.082,273.414 164.800 C 273.906 165.787,274.898 168.054,275.687 170.000 C 275.911 170.550,276.252 171.313,276.447 171.695 C 276.641 172.077,276.800 172.741,276.800 173.171 C 276.800 173.601,276.959 174.051,277.154 174.171 C 277.349 174.292,277.610 174.887,277.736 175.495 C 277.861 176.103,278.166 177.500,278.413 178.600 C 279.783 184.699,279.776 196.890,278.398 204.600 C 278.162 205.920,277.867 207.720,277.743 208.600 C 277.619 209.480,277.356 210.371,277.159 210.580 C 276.962 210.789,276.800 211.723,276.800 212.656 C 276.800 213.589,276.620 214.464,276.400 214.600 C 276.180 214.736,276.000 215.456,276.000 216.200 C 276.000 216.944,275.820 217.664,275.600 217.800 C 275.380 217.936,275.200 218.746,275.200 219.600 C 275.200 220.454,275.020 221.264,274.800 221.400 C 274.580 221.536,274.400 222.321,274.400 223.144 C 274.400 223.967,274.237 224.811,274.039 225.020 C 273.840 225.229,273.579 226.210,273.459 227.200 C 273.338 228.190,273.024 230.350,272.760 232.000 C 272.497 233.650,272.263 235.990,272.240 237.200 L 272.200 239.400 278.747 239.510 C 283.235 239.586,285.468 239.476,285.847 239.161 C 286.272 238.808,286.401 238.829,286.406 239.251 C 286.411 239.699,286.474 239.703,286.746 239.273 C 286.930 238.983,287.055 237.408,287.024 235.773 C 286.986 233.774,287.118 232.800,287.426 232.800 C 287.712 232.800,287.877 232.037,287.867 230.770 C 287.857 229.495,288.049 228.617,288.383 228.410 C 288.743 228.188,288.849 227.579,288.709 226.537 C 288.569 225.489,288.686 224.822,289.077 224.457 C 289.393 224.162,289.614 223.443,289.568 222.860 C 289.521 222.277,289.694 221.281,289.952 220.647 C 290.209 220.013,290.314 219.158,290.183 218.747 C 290.053 218.336,290.122 218.000,290.338 218.000 C 290.553 218.000,290.679 217.685,290.618 217.300 C 290.556 216.915,290.741 215.970,291.028 215.200 C 291.315 214.430,291.651 212.990,291.774 212.000 C 292.201 208.570,292.489 207.200,292.782 207.200 C 292.944 207.200,293.110 206.177,293.151 204.926 C 293.192 203.675,293.387 202.456,293.586 202.217 C 293.784 201.978,293.940 200.135,293.931 198.121 C 293.923 196.107,294.036 194.266,294.182 194.030 C 294.328 193.793,294.319 193.392,294.162 193.138 C 293.985 192.852,294.052 192.785,294.338 192.962 C 294.615 193.133,294.800 192.987,294.800 192.600 C 294.800 192.244,294.636 192.054,294.435 192.178 C 294.029 192.429,294.092 191.375,294.508 190.959 C 294.653 190.814,294.580 190.336,294.345 189.897 C 294.110 189.457,294.071 188.986,294.259 188.849 C 294.808 188.448,294.837 187.611,294.295 187.820 C 293.920 187.965,293.832 187.218,293.933 184.740 C 294.005 182.941,293.883 181.093,293.660 180.634 C 293.262 179.816,292.974 178.498,292.535 175.500 C 292.415 174.675,292.155 174.000,291.958 174.000 C 291.761 174.000,291.600 173.471,291.600 172.824 C 291.600 172.177,291.420 171.536,291.200 171.400 C 290.980 171.264,290.800 170.818,290.800 170.410 C 290.800 170.001,290.612 169.604,290.382 169.527 C 290.152 169.451,289.935 168.998,289.899 168.522 C 289.863 168.045,289.710 167.732,289.559 167.825 C 289.408 167.919,289.177 167.717,289.046 167.377 C 288.886 166.960,288.970 166.853,289.305 167.048 C 289.577 167.207,289.485 166.977,289.100 166.537 C 288.715 166.097,288.400 165.436,288.400 165.069 C 288.400 164.701,288.201 164.400,287.957 164.400 C 287.714 164.400,287.613 164.143,287.733 163.829 C 287.963 163.231,287.120 162.266,286.660 162.600 C 286.513 162.706,286.571 162.582,286.789 162.324 C 287.158 161.887,285.727 159.470,284.670 158.745 C 284.465 158.604,284.438 158.262,284.611 157.983 C 284.819 157.645,284.763 157.576,284.441 157.775 C 284.127 157.969,283.795 157.640,283.491 156.837 C 283.235 156.156,282.884 155.600,282.712 155.600 C 282.541 155.600,282.398 155.375,282.396 155.100 C 282.394 154.825,281.854 154.175,281.196 153.655 C 280.538 153.135,280.000 152.492,280.000 152.225 C 280.000 151.571,278.211 149.923,277.870 150.263 C 277.722 150.412,277.600 150.203,277.600 149.800 C 277.600 149.397,277.481 149.186,277.336 149.331 C 277.191 149.476,276.820 149.236,276.513 148.797 C 276.206 148.359,275.684 148.000,275.354 148.000 C 275.023 148.000,274.852 147.839,274.974 147.642 C 275.185 147.300,274.611 146.919,273.836 146.887 C 273.636 146.878,273.310 146.582,273.111 146.227 C 272.913 145.873,272.581 145.688,272.373 145.817 C 272.165 145.946,271.891 145.782,271.766 145.454 C 271.640 145.126,271.205 144.922,270.800 145.000 C 270.395 145.078,269.958 144.866,269.828 144.529 C 269.692 144.175,269.333 144.017,268.976 144.154 C 268.636 144.284,268.455 144.234,268.573 144.043 C 268.833 143.623,264.640 142.524,263.115 142.612 C 262.518 142.647,262.128 142.516,262.248 142.323 C 262.367 142.129,261.821 142.014,261.033 142.067 C 260.245 142.120,259.600 142.268,259.600 142.396 M325.800 239.200 C 325.936 239.420,326.397 239.600,326.824 239.600 C 327.251 239.600,327.600 239.780,327.600 240.000 C 327.600 240.220,327.858 240.400,328.173 240.400 C 330.233 240.400,334.420 248.714,336.210 256.358 C 336.551 257.811,336.995 259.630,337.198 260.400 C 337.401 261.170,337.673 262.430,337.802 263.200 C 337.931 263.970,338.217 265.590,338.438 266.800 C 342.542 289.262,342.153 328.636,337.593 352.200 C 337.338 353.520,336.974 355.410,336.784 356.400 C 334.567 367.975,329.997 379.918,325.600 385.628 C 323.281 388.639,318.854 392.400,317.628 392.400 C 317.393 392.400,317.200 392.580,317.200 392.800 C 317.200 393.020,316.660 393.200,316.000 393.200 C 315.340 393.200,314.800 393.390,314.800 393.623 C 314.800 394.108,325.931 394.033,326.612 393.543 C 326.839 393.381,328.324 393.209,329.912 393.163 C 331.501 393.117,332.800 392.950,332.800 392.792 C 332.800 392.634,333.559 392.404,334.486 392.279 C 335.413 392.155,336.385 391.762,336.646 391.405 C 337.010 390.907,337.168 390.878,337.329 391.279 C 337.500 391.704,337.609 391.701,337.914 391.266 C 338.121 390.972,338.404 390.747,338.545 390.766 C 339.478 390.891,340.013 390.745,339.813 390.421 C 339.684 390.212,339.952 390.114,340.409 390.202 C 340.885 390.293,341.335 390.115,341.462 389.783 C 341.584 389.465,341.845 389.304,342.042 389.426 C 342.239 389.548,342.400 389.457,342.400 389.224 C 342.400 388.991,342.625 388.845,342.900 388.900 C 343.175 388.955,343.355 388.775,343.300 388.500 C 343.245 388.225,343.335 388.021,343.500 388.047 C 344.246 388.165,344.741 387.924,345.928 386.864 C 346.628 386.240,347.200 385.520,347.200 385.264 C 347.200 385.009,347.352 384.800,347.539 384.800 C 348.170 384.800,349.600 383.310,349.600 382.653 C 349.600 382.294,349.774 382.000,349.987 382.000 C 350.201 382.000,350.272 381.732,350.146 381.403 C 350.015 381.063,350.192 380.701,350.558 380.561 C 350.911 380.425,351.200 379.974,351.200 379.557 C 351.200 379.141,351.353 378.800,351.539 378.800 C 351.726 378.800,351.894 378.248,351.913 377.572 C 351.932 376.897,352.119 376.132,352.327 375.872 C 352.975 375.066,352.879 371.200,352.211 371.200 C 351.785 371.200,351.684 370.831,351.819 369.772 C 351.938 368.846,351.797 368.140,351.418 367.761 C 351.097 367.440,350.947 366.883,351.085 366.523 C 351.253 366.085,351.181 365.965,350.868 366.158 C 350.446 366.419,350.190 365.665,350.363 364.670 C 350.394 364.489,350.235 364.455,350.010 364.594 C 349.647 364.818,349.431 364.320,349.545 363.523 C 349.603 363.117,347.579 361.600,346.979 361.600 C 346.190 361.600,346.054 360.658,346.765 360.113 C 347.114 359.845,347.890 359.620,348.488 359.613 C 349.895 359.596,354.274 357.207,353.788 356.721 C 353.674 356.607,353.890 356.263,354.267 355.957 C 354.721 355.588,354.852 355.569,354.653 355.900 C 354.488 356.175,354.543 356.400,354.776 356.400 C 355.009 356.400,355.200 356.139,355.200 355.820 C 355.200 355.501,355.425 355.096,355.700 354.920 C 356.526 354.392,357.555 352.958,356.800 353.388 C 356.470 353.575,356.628 353.259,357.151 352.685 C 357.740 352.038,358.004 351.388,357.846 350.976 C 357.656 350.479,357.755 350.374,358.240 350.560 C 358.702 350.737,358.823 350.638,358.662 350.216 C 358.536 349.890,358.696 349.361,359.017 349.040 C 359.338 348.719,359.600 348.005,359.600 347.452 C 359.600 346.899,359.780 346.336,360.000 346.200 C 360.220 346.064,360.397 345.738,360.394 345.476 C 360.390 345.190,360.233 345.239,360.000 345.600 C 359.767 345.961,359.610 346.010,359.606 345.724 C 359.603 345.462,359.788 345.131,360.018 344.989 C 360.283 344.825,360.408 342.629,360.359 338.978 C 360.317 335.814,360.128 333.321,359.941 333.436 C 359.753 333.552,359.600 332.917,359.600 332.024 C 359.600 331.131,359.420 330.400,359.200 330.400 C 358.980 330.400,358.800 330.164,358.800 329.875 C 358.800 328.494,356.374 324.559,355.848 325.086 C 355.711 325.222,355.600 325.033,355.600 324.667 C 355.600 324.300,355.409 324.000,355.176 324.000 C 354.943 324.000,354.867 323.816,355.006 323.590 C 355.145 323.365,355.082 323.230,354.866 323.290 C 354.650 323.351,353.916 322.783,353.236 322.028 C 352.556 321.273,352.000 320.875,352.000 321.142 C 352.000 321.501,351.795 321.518,351.215 321.208 C 350.220 320.676,350.549 319.730,351.716 319.770 C 352.280 319.789,352.556 319.594,352.477 319.232 C 352.376 318.763,352.463 318.754,352.977 319.181 C 353.431 319.558,353.600 319.570,353.600 319.225 C 353.600 318.965,353.794 318.873,354.031 319.019 C 354.267 319.165,354.818 318.902,355.254 318.434 C 355.691 317.965,356.203 317.678,356.392 317.795 C 356.581 317.912,357.091 317.556,357.526 317.004 C 357.960 316.452,358.514 316.000,358.758 316.000 C 359.001 316.000,359.200 315.736,359.200 315.413 C 359.200 315.053,359.434 314.915,359.805 315.057 C 360.236 315.223,360.339 315.106,360.163 314.648 C 360.013 314.258,360.168 313.910,360.558 313.761 C 360.911 313.625,361.200 313.253,361.200 312.934 C 361.200 312.596,361.394 312.473,361.662 312.638 C 361.924 312.800,362.016 312.749,361.875 312.521 C 361.738 312.299,361.884 311.776,362.200 311.359 C 362.516 310.942,362.780 310.285,362.787 309.900 C 362.794 309.515,363.001 309.200,363.247 309.200 C 363.505 309.200,363.614 308.787,363.506 308.220 C 363.398 307.657,363.528 307.160,363.812 307.051 C 364.091 306.944,364.315 306.115,364.329 305.139 C 364.342 304.191,364.543 303.352,364.776 303.275 C 365.009 303.197,365.200 302.598,365.200 301.943 C 365.200 301.097,365.055 300.840,364.700 301.053 C 364.324 301.279,364.306 301.211,364.629 300.777 C 365.213 299.993,365.257 298.400,364.695 298.400 C 364.369 298.400,364.376 298.264,364.720 297.920 C 365.302 297.338,365.353 295.742,364.800 295.400 C 364.580 295.264,364.400 294.438,364.400 293.564 C 364.400 292.523,364.194 291.896,363.802 291.746 C 363.474 291.619,363.307 291.351,363.431 291.150 C 363.678 290.751,362.018 286.800,361.603 286.800 C 361.464 286.800,361.108 286.186,360.814 285.435 C 360.519 284.684,359.862 283.847,359.353 283.575 C 358.844 283.302,358.522 282.927,358.637 282.740 C 358.753 282.553,358.537 282.400,358.157 282.400 C 357.777 282.400,357.584 282.283,357.727 282.140 C 358.096 281.771,356.750 280.828,355.833 280.813 C 355.412 280.806,355.184 280.683,355.327 280.539 C 355.685 280.182,353.710 279.200,352.634 279.200 C 352.153 279.200,351.544 278.984,351.280 278.720 C 350.907 278.347,350.800 278.347,350.800 278.720 C 350.800 278.984,350.609 279.200,350.376 279.200 C 350.143 279.200,350.060 279.026,350.192 278.814 C 350.341 278.571,349.498 278.518,347.929 278.672 C 345.607 278.899,345.474 278.869,346.085 278.258 C 346.447 277.896,347.096 277.600,347.529 277.600 C 347.961 277.600,348.422 277.319,348.554 276.975 C 348.686 276.631,348.931 276.432,349.097 276.533 C 349.490 276.771,350.428 275.761,350.109 275.443 C 349.976 275.309,350.090 275.200,350.362 275.200 C 351.082 275.200,352.094 274.075,351.800 273.600 C 351.662 273.377,351.830 273.087,352.172 272.955 C 352.515 272.824,352.696 272.555,352.574 272.358 C 352.452 272.161,352.623 272.000,352.953 272.000 C 353.333 272.000,353.499 271.714,353.404 271.223 C 353.302 270.691,353.429 270.513,353.808 270.658 C 354.207 270.812,354.338 270.557,354.280 269.735 C 354.230 269.027,354.382 268.636,354.686 268.695 C 354.972 268.751,355.075 268.539,354.935 268.176 C 354.802 267.828,355.009 267.335,355.415 267.039 C 355.823 266.740,356.028 266.250,355.893 265.897 C 355.762 265.557,355.766 265.167,355.901 265.032 C 356.506 264.427,356.909 254.800,356.330 254.800 C 356.123 254.800,356.069 254.612,356.211 254.382 C 356.353 254.153,356.296 253.748,356.086 253.482 C 355.875 253.217,355.752 252.697,355.812 252.328 C 355.872 251.958,355.657 251.554,355.335 251.430 C 355.013 251.307,354.853 251.038,354.980 250.833 C 355.258 250.382,354.408 248.400,353.936 248.400 C 353.751 248.400,353.600 248.068,353.600 247.662 C 353.600 246.777,352.272 245.474,351.803 245.899 C 351.621 246.065,351.586 245.999,351.726 245.753 C 352.052 245.183,350.590 243.835,350.025 244.184 C 349.791 244.329,349.600 244.172,349.600 243.836 C 349.600 243.472,349.370 243.313,349.031 243.444 C 348.705 243.569,348.271 243.307,348.017 242.831 C 347.772 242.374,347.229 242.000,346.810 242.000 C 346.390 242.000,345.936 241.820,345.800 241.600 C 345.664 241.380,345.203 241.200,344.776 241.200 C 344.349 241.200,344.000 241.065,344.000 240.900 C 344.000 240.735,343.343 240.564,342.540 240.520 C 341.737 240.476,340.891 240.251,340.660 240.020 C 340.427 239.787,338.591 239.600,336.544 239.600 C 334.511 239.600,332.736 239.420,332.600 239.200 C 332.464 238.980,330.823 238.800,328.953 238.800 C 326.788 238.800,325.643 238.945,325.800 239.200 M155.599 253.390 C 155.598 253.725,155.597 282.260,155.597 316.800 C 155.597 351.340,155.598 379.870,155.599 380.200 C 155.600 380.712,156.552 380.788,162.100 380.715 L 168.600 380.631 162.200 380.400 L 155.800 380.169 162.076 380.085 C 165.923 380.033,168.448 380.155,168.600 380.400 C 168.927 380.928,170.682 380.914,171.012 380.381 C 171.189 380.094,171.450 380.109,171.836 380.430 C 172.267 380.788,172.400 380.787,172.400 380.425 C 172.400 380.160,172.610 380.083,172.879 380.249 C 173.142 380.411,174.583 380.609,176.081 380.689 L 178.805 380.833 178.798 317.186 C 178.794 282.180,178.887 253.383,179.005 253.192 C 179.124 252.999,173.976 252.830,167.410 252.812 C 157.075 252.783,155.600 252.855,155.599 253.390 M172.900 253.499 C 169.765 253.567,164.635 253.567,161.500 253.499 C 158.365 253.432,160.930 253.376,167.200 253.376 C 173.470 253.376,176.035 253.432,172.900 253.499 " stroke="none" fill="#e4b47c" fill-rule="evenodd"></path><path id="path3" d="M264.433 142.544 C 264.525 142.623,265.140 142.808,265.800 142.956 C 266.676 143.152,266.838 143.115,266.400 142.818 C 265.860 142.453,264.032 142.198,264.433 142.544 M250.609 146.737 C 250.292 147.322,250.025 147.658,250.016 147.484 C 250.007 147.311,249.749 147.401,249.442 147.684 C 249.135 147.968,248.965 148.333,249.064 148.497 C 249.162 148.660,248.809 149.227,248.279 149.757 C 247.750 150.287,247.213 151.233,247.087 151.860 C 246.961 152.487,246.644 153.540,246.382 154.200 C 246.120 154.860,245.846 155.980,245.773 156.689 C 245.700 157.397,245.445 158.342,245.206 158.789 C 244.875 159.408,244.894 159.601,245.286 159.606 C 245.620 159.610,245.653 159.715,245.380 159.906 C 245.148 160.068,244.909 161.820,244.849 163.800 C 244.788 165.780,244.572 167.571,244.369 167.780 C 243.861 168.303,243.903 170.000,244.424 170.000 C 244.667 170.000,244.711 170.213,244.526 170.500 C 244.350 170.775,244.180 173.476,244.150 176.503 C 244.114 180.005,243.925 182.209,243.630 182.564 C 243.275 182.991,243.288 183.163,243.683 183.296 C 244.090 183.432,244.104 183.761,243.751 184.835 C 243.504 185.586,243.272 187.624,243.235 189.364 C 243.198 191.105,243.043 192.725,242.891 192.964 C 242.739 193.204,242.596 194.314,242.574 195.431 C 242.551 196.548,242.385 197.701,242.204 197.993 C 241.977 198.361,242.030 198.429,242.378 198.214 C 242.771 197.971,242.782 198.086,242.430 198.744 C 242.183 199.206,241.945 200.771,241.902 202.223 C 241.859 203.674,241.684 204.948,241.512 205.054 C 241.340 205.160,241.192 205.732,241.182 206.324 C 241.163 207.528,240.356 210.749,239.895 211.466 C 239.730 211.722,239.821 212.023,240.098 212.134 C 240.497 212.295,240.497 212.343,240.100 212.368 C 239.825 212.386,239.600 212.839,239.600 213.376 C 239.600 213.913,239.420 214.464,239.200 214.600 C 238.980 214.736,238.800 215.467,238.800 216.224 C 238.800 216.981,238.620 217.600,238.400 217.600 C 238.180 217.600,238.000 218.140,238.000 218.800 C 238.000 219.460,237.847 220.000,237.661 220.000 C 237.474 220.000,237.305 220.581,237.285 221.292 C 237.265 222.003,237.057 222.648,236.824 222.725 C 236.591 222.803,236.400 223.203,236.400 223.615 C 236.400 224.600,235.568 226.400,235.112 226.400 C 234.915 226.400,234.856 226.568,234.983 226.772 C 235.109 226.977,235.018 227.265,234.779 227.413 C 234.541 227.560,234.439 227.923,234.552 228.220 C 234.669 228.524,234.420 228.867,233.980 229.006 C 233.482 229.165,233.200 229.614,233.200 230.251 C 233.200 230.799,233.057 231.159,232.883 231.051 C 232.709 230.944,232.539 231.218,232.505 231.661 C 232.472 232.105,232.075 232.788,231.622 233.181 C 231.170 233.573,230.800 234.166,230.800 234.498 C 230.800 235.238,229.833 236.100,229.442 235.709 C 229.286 235.552,229.288 235.763,229.447 236.178 C 229.654 236.717,229.597 236.845,229.247 236.629 C 228.926 236.430,228.598 236.751,228.291 237.563 C 228.035 238.244,227.594 238.800,227.312 238.800 C 227.031 238.800,226.845 239.025,226.900 239.300 C 226.955 239.575,226.775 239.755,226.500 239.700 C 226.225 239.645,226.000 239.782,226.000 240.004 C 226.000 240.542,223.780 242.847,223.516 242.582 C 223.402 242.468,223.001 242.845,222.624 243.419 C 222.238 244.008,221.702 244.371,221.392 244.252 C 221.090 244.137,220.429 244.479,219.922 245.014 C 219.415 245.549,218.769 245.989,218.487 245.993 C 218.206 245.997,217.871 246.270,217.745 246.600 C 217.612 246.946,217.014 247.200,216.334 247.200 C 215.648 247.200,215.257 247.368,215.400 247.600 C 215.536 247.820,215.367 248.000,215.024 248.000 C 214.681 248.000,214.397 248.225,214.394 248.500 C 214.390 248.833,214.258 248.800,214.000 248.400 C 213.742 248.000,213.610 247.967,213.606 248.300 C 213.603 248.575,213.229 248.800,212.776 248.800 C 212.323 248.800,212.040 248.941,212.147 249.114 C 212.254 249.287,211.994 249.467,211.571 249.514 C 211.147 249.561,210.440 249.639,210.000 249.686 C 209.560 249.733,209.200 249.913,209.200 250.086 C 209.200 250.259,208.739 250.400,208.176 250.400 C 207.596 250.400,207.260 250.573,207.400 250.800 C 207.620 251.157,206.660 251.314,204.309 251.308 C 203.929 251.307,203.715 251.462,203.833 251.653 C 204.008 251.937,201.425 252.225,200.300 252.047 C 200.135 252.021,200.000 252.202,200.000 252.449 C 200.000 252.742,199.764 252.707,199.323 252.349 C 198.863 251.976,198.743 251.960,198.947 252.300 C 199.183 252.694,197.180 252.817,189.524 252.880 C 181.777 252.943,180.735 253.008,184.400 253.200 L 189.000 253.440 184.300 253.520 C 180.940 253.577,179.600 253.467,179.600 253.133 C 179.600 252.877,179.509 252.758,179.398 252.869 C 179.252 253.014,179.118 339.071,179.199 380.643 C 179.200 381.050,179.420 381.201,179.800 381.055 C 180.130 380.929,180.400 380.964,180.400 381.134 C 180.400 381.304,181.158 381.488,182.085 381.543 C 183.011 381.598,184.036 381.858,184.361 382.121 C 184.844 382.512,184.892 382.489,184.618 382.000 C 184.345 381.512,184.383 381.493,184.821 381.900 C 185.118 382.175,185.759 382.400,186.247 382.400 C 186.734 382.400,187.193 382.571,187.267 382.780 C 187.340 382.989,188.165 383.204,189.100 383.258 C 190.035 383.312,190.800 383.462,190.800 383.591 C 190.800 383.720,191.295 383.866,191.900 383.916 C 192.505 383.966,193.060 384.185,193.133 384.403 C 193.207 384.622,193.712 384.800,194.257 384.800 C 194.802 384.800,195.142 384.971,195.013 385.179 C 194.884 385.388,195.134 385.490,195.569 385.406 C 196.004 385.322,196.818 385.614,197.378 386.054 C 198.328 386.802,200.215 387.566,201.600 387.763 C 201.930 387.811,202.593 388.063,203.074 388.325 C 203.554 388.586,204.274 388.803,204.674 388.806 C 205.223 388.811,205.270 388.895,204.868 389.150 C 204.363 389.470,206.442 390.217,207.342 390.039 C 207.530 390.002,207.930 390.176,208.231 390.426 C 208.925 391.002,211.673 391.642,211.374 391.157 C 211.252 390.961,211.333 390.800,211.553 390.800 C 211.773 390.800,212.064 390.980,212.200 391.200 C 212.336 391.420,213.067 391.600,213.824 391.600 C 214.655 391.600,215.202 391.798,215.206 392.100 C 215.210 392.447,215.323 392.424,215.576 392.026 C 215.850 391.593,216.072 391.562,216.480 391.900 C 216.778 392.147,218.216 392.403,219.677 392.468 C 221.137 392.533,222.247 392.724,222.143 392.893 C 221.977 393.161,226.881 393.421,228.340 393.221 C 228.667 393.176,228.763 393.337,228.583 393.628 C 228.263 394.145,231.818 393.988,233.400 393.414 C 234.041 393.182,234.081 393.210,233.600 393.556 C 233.169 393.866,244.303 393.989,273.100 393.994 C 299.571 393.998,313.200 393.864,313.200 393.600 C 313.200 393.380,313.602 393.200,314.093 393.200 C 319.210 393.200,326.335 385.519,330.606 375.400 C 330.978 374.520,331.436 373.440,331.624 373.000 C 333.055 369.657,335.337 361.272,336.742 354.200 C 337.879 348.470,338.289 345.780,339.394 336.800 C 341.305 321.274,341.224 292.225,339.224 275.292 C 338.126 265.994,336.259 256.958,334.206 251.000 C 332.301 245.472,328.083 239.600,326.017 239.600 C 325.788 239.600,325.597 239.375,325.594 239.100 C 325.590 238.751,325.499 238.734,325.294 239.044 C 325.085 239.359,317.288 239.533,298.400 239.644 L 271.800 239.800 271.893 236.728 C 272.007 232.960,272.646 229.229,275.013 218.504 C 278.090 204.564,278.616 201.336,279.002 194.000 C 279.866 177.618,273.480 160.708,262.526 150.375 C 258.031 146.134,251.946 144.277,250.609 146.737 " stroke="none" fill="#fbc393" fill-rule="evenodd"></path><path id="path4" d="M155.043 253.433 C 154.622 254.530,154.775 379.743,155.199 380.400 C 155.448 380.787,155.587 358.270,155.590 316.900 C 155.593 281.645,155.525 252.800,155.440 252.800 C 155.355 252.800,155.176 253.085,155.043 253.433 " stroke="none" fill="#acaca4" fill-rule="evenodd"></path><path id="path5" d="M252.400 145.363 C 252.400 145.755,253.039 145.976,254.500 146.089 C 255.655 146.179,256.960 146.403,257.400 146.585 C 257.957 146.817,258.078 146.789,257.800 146.495 C 257.437 146.111,253.512 144.800,252.727 144.800 C 252.547 144.800,252.400 145.053,252.400 145.363 M259.200 147.514 C 262.906 150.003,268.003 156.035,271.311 161.846 C 279.166 175.642,280.920 189.458,277.220 208.365 C 276.987 209.555,276.883 210.616,276.989 210.722 C 277.239 210.973,277.489 210.181,277.783 208.200 C 277.914 207.320,278.203 205.610,278.424 204.400 C 279.776 197.014,279.771 184.643,278.413 178.600 C 278.166 177.500,277.861 176.103,277.736 175.495 C 277.610 174.887,277.349 174.292,277.154 174.171 C 276.959 174.051,276.800 173.601,276.800 173.171 C 276.800 172.741,276.641 172.077,276.447 171.695 C 276.252 171.313,275.911 170.550,275.687 170.000 C 274.898 168.054,273.906 165.787,273.414 164.800 C 272.057 162.082,270.970 160.187,270.700 160.067 C 270.535 159.993,270.400 159.744,270.400 159.513 C 270.400 157.627,260.231 146.724,258.562 146.821 C 258.363 146.833,258.650 147.144,259.200 147.514 M276.073 213.600 C 275.783 215.030,275.442 216.632,275.315 217.160 C 275.155 217.822,275.226 218.031,275.542 217.836 C 275.794 217.680,276.000 216.969,276.000 216.256 C 276.000 215.543,276.192 214.768,276.427 214.533 C 276.662 214.298,276.797 213.407,276.727 212.553 C 276.608 211.095,276.568 211.160,276.073 213.600 M274.859 219.000 C 274.820 219.440,274.677 220.250,274.540 220.800 C 274.348 221.570,274.402 221.697,274.775 221.351 C 275.044 221.101,275.185 220.303,275.093 219.551 C 275.002 218.808,274.897 218.560,274.859 219.000 M274.059 222.600 C 274.020 223.040,273.877 223.850,273.740 224.400 C 273.548 225.170,273.602 225.297,273.975 224.951 C 274.244 224.701,274.385 223.903,274.293 223.151 C 274.202 222.408,274.097 222.160,274.059 222.600 M273.041 227.527 C 272.865 228.477,272.820 229.353,272.941 229.474 C 273.271 229.805,273.688 227.817,273.514 226.741 C 273.402 226.046,273.278 226.252,273.041 227.527 M272.219 232.518 C 272.045 233.793,272.002 234.935,272.122 235.055 C 272.422 235.355,272.917 231.871,272.706 230.947 C 272.612 230.536,272.393 231.243,272.219 232.518 M286.800 233.400 C 286.800 233.730,286.961 234.000,287.157 234.000 C 287.354 234.000,287.618 233.730,287.745 233.400 C 287.885 233.035,287.745 232.800,287.387 232.800 C 287.064 232.800,286.800 233.070,286.800 233.400 M271.747 237.800 L 271.800 239.800 278.200 239.914 C 284.853 240.033,286.400 239.888,286.400 239.143 C 286.400 238.830,286.239 238.835,285.847 239.161 C 285.468 239.476,283.235 239.586,278.747 239.510 L 272.200 239.400 271.947 237.600 L 271.694 235.800 271.747 237.800 M286.800 239.200 C 286.800 239.461,293.467 239.600,306.000 239.600 C 318.533 239.600,325.200 239.461,325.200 239.200 C 325.200 238.939,318.533 238.800,306.000 238.800 C 293.467 238.800,286.800 238.939,286.800 239.200 M326.803 239.900 C 326.804 240.065,327.316 240.491,327.941 240.846 C 330.497 242.300,333.906 248.760,335.410 255.000 C 335.569 255.660,335.781 255.975,335.882 255.701 C 336.702 253.475,330.114 240.400,328.173 240.400 C 327.858 240.400,327.600 240.220,327.600 240.000 C 327.600 239.780,327.420 239.600,327.200 239.600 C 326.980 239.600,326.801 239.735,326.803 239.900 M167.200 253.200 L 155.800 253.419 167.076 253.509 C 174.262 253.567,178.442 253.455,178.600 253.200 C 178.736 252.980,178.792 252.841,178.724 252.891 C 178.656 252.940,173.470 253.080,167.200 253.200 M181.700 253.496 C 182.965 253.575,185.035 253.575,186.300 253.496 C 187.565 253.416,186.530 253.351,184.000 253.351 C 181.470 253.351,180.435 253.416,181.700 253.496 M178.724 253.900 C 178.656 254.065,178.691 282.460,178.802 317.000 L 179.004 379.800 179.102 316.700 C 179.156 281.995,179.121 253.600,179.024 253.600 C 178.927 253.600,178.792 253.735,178.724 253.900 M336.056 257.000 C 336.056 257.440,336.211 258.160,336.400 258.600 L 336.744 259.400 336.744 258.600 C 336.744 258.160,336.589 257.440,336.400 257.000 L 336.056 256.200 336.056 257.000 M336.846 260.600 C 336.915 262.231,337.515 263.587,337.554 262.200 C 337.573 261.540,337.413 260.730,337.200 260.400 C 336.881 259.906,336.818 259.941,336.846 260.600 M337.646 264.800 C 337.709 266.680,338.314 268.046,338.354 266.400 C 338.373 265.630,338.213 264.730,338.000 264.400 C 337.695 263.928,337.619 264.014,337.646 264.800 M354.455 268.420 C 354.157 269.094,354.017 269.751,354.145 269.878 C 354.415 270.148,355.282 268.047,355.112 267.536 C 355.049 267.348,354.754 267.746,354.455 268.420 M338.429 269.200 C 338.438 269.750,338.595 270.920,338.777 271.800 L 339.108 273.400 339.148 271.400 C 339.170 270.300,339.013 269.130,338.800 268.800 C 338.494 268.327,338.416 268.411,338.429 269.200 M339.241 275.400 C 339.257 276.060,339.410 277.500,339.582 278.600 L 339.893 280.600 339.940 278.000 C 339.966 276.570,339.813 275.130,339.600 274.800 C 339.304 274.342,339.219 274.485,339.241 275.400 M346.084 278.215 C 345.642 278.717,345.784 278.793,347.084 278.754 C 347.918 278.728,348.285 278.625,347.900 278.524 C 347.515 278.424,347.200 278.175,347.200 277.971 C 347.200 277.429,346.676 277.544,346.084 278.215 M340.273 286.600 C 340.400 289.240,340.570 291.475,340.651 291.567 C 340.957 291.909,340.707 283.760,340.382 282.800 C 340.184 282.215,340.139 283.790,340.273 286.600 M340.913 306.600 C 340.913 313.923,341.037 318.099,341.217 316.800 C 341.384 315.590,341.521 311.000,341.521 306.600 C 341.521 302.200,341.384 297.610,341.217 296.400 C 341.037 295.101,340.913 299.277,340.913 306.600 M350.658 320.194 C 350.524 320.543,350.753 320.961,351.215 321.208 C 351.752 321.496,352.000 321.497,352.000 321.214 C 352.000 320.986,351.736 320.800,351.413 320.800 C 351.055 320.800,350.915 320.565,351.055 320.200 C 351.182 319.870,351.196 319.600,351.086 319.600 C 350.976 319.600,350.783 319.867,350.658 320.194 M340.484 322.639 C 340.438 323.540,340.311 325.970,340.202 328.039 C 340.046 330.982,340.093 331.515,340.416 330.491 C 340.642 329.770,340.769 327.340,340.698 325.091 C 340.627 322.841,340.531 321.737,340.484 322.639 M339.674 333.800 C 339.629 334.460,339.500 335.990,339.386 337.200 C 339.218 338.987,339.260 339.216,339.607 338.419 C 339.842 337.880,339.971 336.350,339.894 335.019 C 339.817 333.689,339.718 333.140,339.674 333.800 M338.664 342.534 C 338.482 343.817,338.430 344.963,338.548 345.081 C 338.909 345.443,339.263 343.409,339.125 341.762 C 339.003 340.305,338.972 340.357,338.664 342.534 M337.818 348.326 C 337.653 349.495,337.613 350.546,337.729 350.662 C 338.014 350.947,338.531 347.387,338.300 346.725 C 338.200 346.436,337.982 347.157,337.818 348.326 M337.019 352.727 C 336.855 353.677,336.817 354.550,336.934 354.668 C 337.226 354.959,337.726 352.173,337.500 351.521 C 337.400 351.235,337.184 351.777,337.019 352.727 M336.255 356.600 C 335.426 360.986,332.827 370.190,331.624 373.000 C 331.436 373.440,330.978 374.520,330.606 375.400 C 326.963 384.031,322.713 389.434,317.650 391.873 C 315.978 392.678,315.602 392.999,316.185 393.124 C 316.616 393.216,317.036 393.091,317.118 392.846 C 317.200 392.601,317.444 392.400,317.661 392.400 C 320.828 392.400,327.383 384.242,330.998 375.800 C 333.455 370.065,337.065 357.361,336.709 355.703 C 336.626 355.316,336.422 355.720,336.255 356.600 M346.765 360.113 C 346.108 360.616,346.169 361.600,346.857 361.600 C 347.072 361.600,347.131 361.412,346.989 361.182 C 346.847 360.953,346.949 360.503,347.215 360.182 C 347.798 359.480,347.625 359.453,346.765 360.113 M349.853 364.800 C 350.095 365.130,350.374 365.661,350.473 365.980 C 350.589 366.352,350.748 366.407,350.917 366.134 C 351.062 365.899,350.783 365.368,350.297 364.953 C 349.811 364.539,349.612 364.470,349.853 364.800 M158.000 380.270 C 163.357 380.560,168.711 380.575,168.539 380.300 C 168.437 380.135,165.528 380.034,162.076 380.076 C 158.624 380.117,156.790 380.205,158.000 380.270 M220.400 392.880 C 220.400 393.056,220.749 393.200,221.176 393.200 C 221.603 393.200,222.042 393.056,222.151 392.880 C 222.259 392.704,221.910 392.560,221.374 392.560 C 220.838 392.560,220.400 392.704,220.400 392.880 M313.200 393.600 C 313.200 393.820,313.560 394.000,314.000 394.000 C 314.440 394.000,314.800 393.820,314.800 393.600 C 314.800 393.380,314.440 393.200,314.000 393.200 C 313.560 393.200,313.200 393.380,313.200 393.600 " stroke="none" fill="#ecb47c" fill-rule="evenodd"></path></g></svg>