<svg id="svg" version="1.1" xmlns="http://www.w3.org/2000/svg" xmlns:xlink="http://www.w3.org/1999/xlink" width="400" height="400" viewBox="0, 0, 400,400"><g id="svgg"><path id="path0" d="M334.000 41.885 C 333.036 42.242,328.613 44.971,328.467 45.300 C 328.393 45.465,328.078 45.600,327.767 45.600 C 327.455 45.600,327.200 45.750,327.200 45.932 C 327.200 46.115,326.708 46.520,326.107 46.832 C 325.506 47.145,324.489 47.895,323.848 48.500 C 323.206 49.105,322.478 49.600,322.229 49.600 C 321.980 49.600,321.517 49.960,321.200 50.400 C 320.883 50.840,320.391 51.200,320.108 51.200 C 319.825 51.200,319.028 51.740,318.337 52.400 C 317.646 53.060,316.878 53.600,316.629 53.600 C 316.380 53.600,315.917 53.960,315.600 54.400 C 315.283 54.840,314.820 55.200,314.571 55.200 C 314.322 55.200,313.554 55.740,312.863 56.400 C 312.172 57.060,311.488 57.600,311.343 57.600 C 310.993 57.600,307.953 59.866,306.110 61.500 C 305.303 62.215,304.481 62.800,304.282 62.800 C 304.084 62.800,303.417 63.340,302.800 64.000 C 302.183 64.660,301.503 65.200,301.288 65.200 C 301.073 65.200,300.155 65.920,299.248 66.800 C 298.341 67.680,297.441 68.400,297.248 68.400 C 297.055 68.400,296.155 69.120,295.248 70.000 C 294.341 70.880,293.495 71.600,293.368 71.600 C 293.241 71.600,292.468 72.296,291.651 73.147 C 290.833 73.998,289.623 74.974,288.963 75.316 C 288.302 75.658,287.005 76.671,286.080 77.569 C 285.156 78.466,284.235 79.200,284.034 79.200 C 283.834 79.200,282.573 80.280,281.232 81.600 C 279.892 82.920,278.682 84.000,278.545 84.000 C 278.408 84.000,277.045 85.260,275.518 86.800 C 273.990 88.340,272.568 89.600,272.358 89.600 C 271.984 89.600,271.279 90.215,267.087 94.200 C 265.930 95.300,264.357 96.671,263.592 97.246 C 262.826 97.821,261.390 99.151,260.400 100.201 C 256.706 104.118,253.918 106.800,253.541 106.800 C 253.328 106.800,253.281 107.008,253.438 107.262 C 253.605 107.532,253.549 107.616,253.302 107.463 C 253.071 107.320,252.349 107.697,251.699 108.302 C 251.049 108.906,249.388 110.450,248.009 111.733 C 246.196 113.419,245.500 114.349,245.500 115.087 C 245.500 115.861,244.231 117.384,240.250 121.390 C 227.646 134.072,211.971 150.680,204.565 159.200 C 203.704 160.190,202.904 161.090,202.787 161.200 C 202.670 161.310,200.243 164.100,197.395 167.400 C 194.547 170.700,192.118 173.490,191.996 173.600 C 191.874 173.710,189.088 177.040,185.804 181.000 C 182.520 184.960,179.731 188.290,179.606 188.400 C 179.481 188.510,178.759 189.410,178.000 190.400 C 177.241 191.390,176.517 192.290,176.391 192.400 C 176.119 192.638,170.112 200.141,168.985 201.652 C 165.289 206.604,161.833 210.800,161.450 210.800 C 161.008 210.800,158.022 208.943,157.600 208.406 C 157.490 208.266,155.690 206.980,153.600 205.547 C 151.510 204.114,146.855 200.885,143.255 198.371 C 139.656 195.857,134.886 192.531,132.655 190.980 C 130.425 189.429,125.540 186.019,121.800 183.402 C 118.060 180.784,113.560 177.653,111.800 176.443 C 110.040 175.233,108.510 174.132,108.400 173.996 C 108.290 173.860,105.500 171.906,102.200 169.654 C 98.900 167.402,94.040 164.045,91.400 162.194 C 88.760 160.344,86.420 158.826,86.200 158.821 C 85.980 158.817,80.605 163.943,74.255 170.212 L 62.710 181.611 64.182 183.706 C 64.992 184.858,66.911 187.510,68.446 189.600 C 69.982 191.690,71.976 194.463,72.876 195.762 C 73.777 197.061,74.747 198.411,75.031 198.762 C 75.967 199.917,78.156 202.920,82.204 208.600 C 84.399 211.680,86.736 214.939,87.397 215.842 C 88.059 216.745,89.352 218.545,90.270 219.842 C 91.189 221.139,94.440 225.710,97.494 230.000 C 103.444 238.356,106.359 242.511,107.000 243.551 C 107.220 243.908,107.505 244.290,107.632 244.400 C 107.873 244.607,108.711 245.813,116.812 257.600 C 119.457 261.450,121.926 264.960,122.297 265.400 C 123.118 266.374,150.274 307.167,152.800 311.221 C 153.790 312.809,154.873 314.588,155.206 315.173 C 155.539 315.758,156.437 317.210,157.200 318.400 C 158.802 320.896,159.732 322.475,160.668 324.282 C 161.551 325.990,162.185 326.161,162.839 324.868 C 163.136 324.281,164.059 322.657,164.890 321.259 C 165.720 319.862,166.400 318.660,166.400 318.588 C 166.400 318.517,168.470 314.997,171.000 310.766 C 173.530 306.535,175.600 302.921,175.600 302.736 C 175.600 302.551,175.735 302.399,175.900 302.397 C 176.065 302.395,176.397 301.990,176.638 301.497 C 177.026 300.703,181.339 293.578,186.382 285.400 C 187.332 283.860,188.483 281.970,188.941 281.200 C 189.399 280.430,189.915 279.740,190.087 279.667 C 190.259 279.593,190.400 279.358,190.400 279.145 C 190.400 278.931,191.120 277.696,192.000 276.400 C 192.880 275.104,193.600 273.854,193.600 273.622 C 193.600 273.390,193.767 273.200,193.971 273.200 C 194.175 273.200,194.400 272.969,194.471 272.686 C 194.615 272.113,197.670 267.251,204.100 257.362 C 206.465 253.725,208.400 250.581,208.400 250.375 C 208.400 250.169,208.580 250.000,208.800 250.000 C 209.020 250.000,209.200 249.803,209.200 249.563 C 209.200 248.941,243.246 198.079,245.327 195.591 C 245.607 195.256,246.444 194.086,247.186 192.991 C 250.316 188.373,257.970 177.683,259.426 175.895 C 259.742 175.508,260.000 175.104,260.000 174.997 C 260.000 174.891,261.050 173.408,262.333 171.702 C 263.616 169.996,266.332 166.302,268.368 163.493 C 270.405 160.685,272.286 158.165,272.549 157.893 C 272.811 157.622,273.466 156.770,274.002 156.000 C 274.539 155.230,275.298 154.251,275.689 153.825 C 276.080 153.398,276.400 152.915,276.400 152.751 C 276.400 152.587,276.877 152.396,277.460 152.327 C 278.042 152.257,278.717 151.854,278.960 151.431 C 279.202 151.008,279.895 150.126,280.500 149.472 C 281.105 148.817,281.600 148.110,281.600 147.901 C 281.600 147.692,282.140 147.017,282.800 146.400 C 283.460 145.783,284.000 145.063,284.000 144.800 C 284.000 144.537,284.540 143.817,285.200 143.200 C 285.860 142.583,286.400 141.948,286.400 141.788 C 286.400 141.628,286.985 140.834,287.700 140.024 C 289.585 137.888,291.312 135.651,292.000 134.457 C 292.330 133.884,293.095 132.934,293.700 132.347 C 294.305 131.760,294.800 131.103,294.800 130.888 C 294.800 130.673,295.520 129.755,296.400 128.848 C 297.280 127.941,298.000 127.005,298.000 126.768 C 298.000 126.531,298.720 125.646,299.600 124.800 C 300.480 123.954,301.200 123.141,301.200 122.992 C 301.200 122.843,301.702 122.244,302.315 121.660 C 302.929 121.077,303.870 119.970,304.407 119.200 C 304.943 118.430,305.747 117.404,306.191 116.919 C 307.609 115.375,308.000 114.843,308.000 114.457 C 308.000 114.250,308.900 113.162,310.000 112.039 C 311.100 110.915,312.000 109.834,312.000 109.637 C 312.000 109.439,312.900 108.415,314.000 107.361 C 315.100 106.307,316.000 105.304,316.000 105.132 C 316.000 104.960,317.170 103.621,318.600 102.155 C 320.030 100.689,321.200 99.350,321.200 99.178 C 321.200 99.006,321.875 98.138,322.700 97.248 C 325.611 94.111,326.800 92.622,326.800 92.114 C 326.800 91.831,326.986 91.600,327.214 91.600 C 327.700 91.600,333.200 86.017,333.200 85.524 C 333.200 85.340,334.685 83.685,336.500 81.848 C 338.315 80.011,340.700 77.474,341.800 76.211 C 343.349 74.432,352.674 64.775,358.707 58.703 C 360.357 57.042,362.954 54.800,363.228 54.800 C 363.392 54.800,365.437 52.910,367.772 50.600 C 370.107 48.290,372.109 46.400,372.220 46.400 C 372.579 46.400,376.000 42.832,376.000 42.457 C 376.000 41.657,336.086 41.113,334.000 41.885 M152.900 358.287 C 153.505 358.378,154.495 358.378,155.100 358.287 C 155.705 358.195,155.210 358.120,154.000 358.120 C 152.790 358.120,152.295 358.195,152.900 358.287 M165.700 358.287 C 166.305 358.378,167.295 358.378,167.900 358.287 C 168.505 358.195,168.010 358.120,166.800 358.120 C 165.590 358.120,165.095 358.195,165.700 358.287 " stroke="none" fill="#049444" fill-rule="evenodd"></path><path id="path1" d="M148.000 86.000 C 148.000 86.235,146.600 86.400,144.600 86.400 C 142.600 86.400,141.200 86.565,141.200 86.800 C 141.200 87.025,140.075 87.200,138.624 87.200 C 137.207 87.200,135.936 87.380,135.800 87.600 C 135.664 87.820,134.663 88.000,133.576 88.000 C 132.489 88.000,131.600 88.180,131.600 88.400 C 131.600 88.620,130.869 88.800,129.976 88.800 C 128.996 88.800,128.451 88.958,128.600 89.200 C 128.749 89.442,128.204 89.600,127.224 89.600 C 126.331 89.600,125.600 89.780,125.600 90.000 C 125.600 90.220,124.880 90.400,124.000 90.400 C 123.120 90.400,122.400 90.580,122.400 90.800 C 122.400 91.020,121.871 91.200,121.224 91.200 C 120.577 91.200,119.949 91.359,119.829 91.554 C 119.708 91.748,118.753 92.035,117.705 92.191 C 116.657 92.347,115.620 92.606,115.400 92.765 C 115.180 92.925,114.190 93.300,113.200 93.598 C 112.210 93.895,111.229 94.288,111.020 94.470 C 110.811 94.651,110.316 94.800,109.920 94.800 C 109.524 94.800,109.200 94.980,109.200 95.200 C 109.200 95.420,108.660 95.600,108.000 95.600 C 107.340 95.600,106.800 95.780,106.800 96.000 C 106.800 96.220,106.440 96.400,106.000 96.400 C 105.560 96.400,105.200 96.580,105.200 96.800 C 105.200 97.020,104.840 97.200,104.400 97.200 C 103.960 97.200,103.600 97.380,103.600 97.600 C 103.600 97.820,103.344 98.000,103.031 98.000 C 102.352 98.000,95.858 101.259,95.667 101.696 C 95.593 101.863,95.178 102.000,94.743 102.000 C 94.308 102.000,94.064 102.180,94.200 102.400 C 94.336 102.620,94.077 102.800,93.624 102.800 C 93.171 102.800,92.800 102.980,92.800 103.200 C 92.800 103.420,92.564 103.600,92.275 103.600 C 91.987 103.600,91.364 103.960,90.892 104.400 C 90.420 104.840,89.756 105.200,89.417 105.200 C 89.078 105.200,88.800 105.380,88.800 105.600 C 88.800 105.820,88.564 106.000,88.275 106.000 C 87.987 106.000,87.402 106.315,86.975 106.700 C 86.549 107.085,85.525 107.756,84.700 108.191 C 83.875 108.626,83.200 109.132,83.200 109.315 C 83.200 109.498,83.053 109.556,82.873 109.445 C 82.693 109.334,82.071 109.683,81.490 110.221 C 80.910 110.760,80.292 111.203,80.117 111.207 C 79.718 111.216,77.496 112.996,75.755 114.700 C 75.024 115.415,74.229 116.000,73.987 116.000 C 73.746 116.000,72.705 116.855,71.674 117.900 C 70.643 118.945,69.110 120.316,68.266 120.946 C 66.889 121.976,61.859 126.800,62.163 126.800 C 62.289 126.800,60.499 128.758,56.579 132.906 C 55.380 134.174,54.400 135.406,54.400 135.645 C 54.400 135.884,53.860 136.583,53.200 137.200 C 52.540 137.817,52.000 138.474,52.000 138.660 C 51.999 138.847,51.594 139.471,51.100 140.047 C 50.605 140.622,49.750 141.686,49.200 142.410 C 48.650 143.134,47.962 143.968,47.671 144.263 C 47.381 144.559,47.291 144.806,47.471 144.813 C 47.652 144.820,47.530 145.045,47.200 145.313 C 46.870 145.581,46.345 146.295,46.032 146.900 C 45.720 147.505,45.315 148.000,45.132 148.000 C 44.950 148.000,44.800 148.278,44.800 148.617 C 44.800 148.956,44.446 149.613,44.014 150.077 C 43.581 150.541,43.309 151.053,43.409 151.215 C 43.509 151.377,43.325 151.730,43.000 152.000 C 42.675 152.270,42.491 152.623,42.591 152.785 C 42.691 152.947,42.419 153.459,41.986 153.923 C 41.554 154.387,41.200 155.044,41.200 155.383 C 41.200 155.722,41.020 156.000,40.800 156.000 C 40.580 156.000,40.400 156.360,40.400 156.800 C 40.400 157.240,40.265 157.601,40.100 157.603 C 39.741 157.607,38.800 159.544,38.800 160.280 C 38.800 160.566,38.620 160.800,38.400 160.800 C 38.180 160.800,38.000 161.070,38.000 161.400 C 38.000 161.730,37.820 162.000,37.600 162.000 C 37.380 162.000,37.200 162.234,37.200 162.520 C 37.200 163.256,36.259 165.193,35.900 165.197 C 35.735 165.199,35.600 165.560,35.600 166.000 C 35.600 166.440,35.409 166.800,35.176 166.800 C 34.943 166.800,34.844 166.948,34.956 167.129 C 35.068 167.309,34.898 167.960,34.580 168.574 C 34.261 169.189,34.000 169.941,34.000 170.246 C 34.000 170.551,33.859 170.800,33.687 170.800 C 33.515 170.800,33.334 171.295,33.284 171.900 C 33.234 172.505,33.015 173.060,32.797 173.133 C 32.578 173.207,32.400 173.612,32.400 174.033 C 32.400 174.455,32.220 174.800,32.000 174.800 C 31.780 174.800,31.600 175.340,31.600 176.000 C 31.600 176.660,31.420 177.200,31.200 177.200 C 30.980 177.200,30.800 177.740,30.800 178.400 C 30.800 179.060,30.620 179.600,30.400 179.600 C 30.180 179.600,30.000 180.039,30.000 180.576 C 30.000 181.113,29.820 181.664,29.600 181.800 C 29.380 181.936,29.200 182.667,29.200 183.424 C 29.200 184.181,29.040 184.800,28.844 184.800 C 28.648 184.800,28.386 185.385,28.263 186.100 C 28.139 186.815,27.927 188.030,27.792 188.800 C 27.656 189.570,27.389 190.560,27.198 191.000 C 27.006 191.440,26.755 192.430,26.640 193.200 C 26.525 193.970,26.226 195.770,25.975 197.200 C 25.725 198.630,25.475 200.658,25.421 201.706 C 25.366 202.755,25.204 203.730,25.060 203.873 C 24.917 204.016,24.800 205.803,24.800 207.843 C 24.800 209.885,24.620 211.664,24.400 211.800 C 23.907 212.105,23.846 231.858,24.338 232.161 C 24.523 232.276,24.785 234.762,24.919 237.685 C 25.054 240.608,25.348 243.540,25.574 244.200 C 25.800 244.860,26.078 246.210,26.191 247.200 C 26.629 251.027,26.898 252.413,27.242 252.626 C 27.439 252.748,27.600 253.546,27.600 254.400 C 27.600 255.254,27.780 256.064,28.000 256.200 C 28.220 256.336,28.400 256.977,28.400 257.624 C 28.400 258.271,28.580 258.800,28.800 258.800 C 29.020 258.800,29.200 259.520,29.200 260.400 C 29.200 261.280,29.380 262.000,29.600 262.000 C 29.820 262.000,30.000 262.540,30.000 263.200 C 30.000 263.860,30.180 264.400,30.400 264.400 C 30.620 264.400,30.800 264.951,30.800 265.624 C 30.800 266.337,30.967 266.744,31.200 266.600 C 31.439 266.453,31.600 266.937,31.600 267.800 C 31.600 268.663,31.761 269.147,32.000 269.000 C 32.220 268.864,32.400 269.113,32.400 269.553 C 32.400 269.993,32.580 270.464,32.800 270.600 C 33.020 270.736,33.200 271.199,33.200 271.629 C 33.200 272.059,33.380 272.768,33.600 273.205 C 33.820 273.642,34.180 274.358,34.400 274.795 C 34.620 275.232,34.800 275.862,34.800 276.195 C 34.800 276.528,34.980 276.800,35.200 276.800 C 35.420 276.800,35.600 277.160,35.600 277.600 C 35.600 278.040,35.780 278.400,36.000 278.400 C 36.220 278.400,36.400 278.760,36.400 279.200 C 36.400 279.640,36.580 280.000,36.800 280.000 C 37.020 280.000,37.200 280.360,37.200 280.800 C 37.200 281.240,37.380 281.600,37.600 281.600 C 37.820 281.600,38.000 281.960,38.000 282.400 C 38.000 282.840,38.180 283.200,38.400 283.200 C 38.620 283.200,38.800 283.560,38.800 284.000 C 38.800 284.440,38.980 284.800,39.200 284.800 C 39.420 284.800,39.600 285.160,39.600 285.600 C 39.600 286.040,39.735 286.400,39.900 286.401 C 40.065 286.401,40.734 287.571,41.386 289.001 C 42.039 290.430,42.714 291.600,42.886 291.600 C 43.059 291.600,43.200 291.960,43.200 292.400 C 43.200 292.840,43.358 293.200,43.551 293.200 C 43.745 293.200,44.127 293.740,44.400 294.400 C 44.673 295.060,45.055 295.600,45.249 295.600 C 45.442 295.600,45.600 295.836,45.600 296.125 C 45.600 296.413,45.960 297.036,46.400 297.508 C 46.840 297.980,47.200 298.509,47.201 298.683 C 47.201 298.857,47.741 299.630,48.400 300.400 C 49.059 301.170,49.599 301.985,49.599 302.212 C 49.600 302.438,49.960 302.883,50.400 303.200 C 50.840 303.517,51.200 303.915,51.200 304.084 C 51.200 304.472,52.328 305.868,53.500 306.929 C 53.995 307.377,54.400 307.903,54.400 308.098 C 54.400 308.293,55.300 309.329,56.400 310.400 C 57.500 311.471,58.401 312.495,58.402 312.674 C 58.403 312.853,59.168 313.845,60.102 314.878 C 61.036 315.910,62.065 317.125,62.388 317.578 C 62.712 318.030,63.237 318.400,63.555 318.400 C 63.873 318.400,64.022 318.511,63.887 318.647 C 63.593 318.940,68.983 324.000,69.590 324.000 C 69.737 324.000,70.667 324.765,71.656 325.700 C 72.646 326.635,74.253 328.023,75.228 328.785 C 76.203 329.547,77.060 330.312,77.133 330.485 C 77.207 330.658,77.440 330.800,77.652 330.800 C 77.863 330.800,78.472 331.236,79.005 331.769 C 79.538 332.302,80.340 332.854,80.787 332.996 C 81.234 333.138,81.600 333.422,81.600 333.627 C 81.600 333.832,81.881 334.000,82.224 334.000 C 82.567 334.000,82.736 334.180,82.600 334.400 C 82.464 334.620,82.599 334.800,82.901 334.800 C 83.202 334.800,83.836 335.160,84.308 335.600 C 84.780 336.040,85.362 336.400,85.600 336.400 C 85.838 336.400,86.420 336.760,86.892 337.200 C 87.364 337.640,87.987 338.000,88.275 338.000 C 88.564 338.000,88.800 338.147,88.800 338.326 C 88.800 338.624,91.325 340.006,91.817 339.977 C 91.933 339.970,92.496 340.332,93.068 340.782 C 93.640 341.232,94.354 341.600,94.654 341.600 C 94.954 341.600,95.200 341.746,95.200 341.925 C 95.200 342.104,95.830 342.498,96.600 342.800 C 97.370 343.102,98.000 343.496,98.000 343.675 C 98.000 343.854,98.360 344.000,98.800 344.000 C 99.240 344.000,99.600 344.180,99.600 344.400 C 99.600 344.620,99.960 344.800,100.400 344.800 C 100.840 344.800,101.200 344.980,101.200 345.200 C 101.200 345.420,101.639 345.600,102.176 345.600 C 102.713 345.600,103.264 345.780,103.400 346.000 C 103.536 346.220,103.997 346.400,104.424 346.400 C 104.851 346.400,105.200 346.580,105.200 346.800 C 105.200 347.020,105.560 347.200,106.000 347.200 C 106.440 347.200,106.800 347.380,106.800 347.600 C 106.800 347.820,107.072 348.000,107.405 348.000 C 107.738 348.000,108.323 348.159,108.705 348.353 C 109.087 348.548,109.895 348.908,110.500 349.153 C 111.105 349.399,112.095 349.801,112.700 350.047 C 113.305 350.292,114.113 350.652,114.495 350.847 C 114.877 351.041,115.541 351.200,115.971 351.200 C 116.401 351.200,116.864 351.380,117.000 351.600 C 117.136 351.820,117.676 352.000,118.200 352.000 C 118.724 352.000,119.264 352.180,119.400 352.400 C 119.536 352.620,120.267 352.800,121.024 352.800 C 121.781 352.800,122.400 352.980,122.400 353.200 C 122.400 353.420,122.929 353.600,123.576 353.600 C 124.223 353.600,124.864 353.780,125.000 354.000 C 125.136 354.220,125.856 354.400,126.600 354.400 C 127.344 354.400,128.064 354.580,128.200 354.800 C 128.336 355.020,129.146 355.200,130.000 355.200 C 130.854 355.200,131.664 355.380,131.800 355.600 C 131.936 355.820,132.811 356.000,133.744 356.000 C 134.677 356.000,135.611 356.164,135.820 356.365 C 136.029 356.565,137.280 356.839,138.600 356.972 C 139.920 357.105,141.720 357.300,142.600 357.405 C 150.864 358.391,178.101 358.327,179.734 357.317 C 180.093 357.095,183.253 356.604,187.300 356.140 C 188.345 356.021,189.200 355.760,189.200 355.561 C 189.200 355.363,189.909 355.200,190.776 355.200 C 191.643 355.200,192.464 355.020,192.600 354.800 C 192.736 354.580,193.467 354.400,194.224 354.400 C 194.981 354.400,195.600 354.220,195.600 354.000 C 195.600 353.780,196.219 353.600,196.976 353.600 C 197.733 353.600,198.464 353.420,198.600 353.200 C 198.736 352.980,199.377 352.800,200.024 352.800 C 200.671 352.800,201.200 352.620,201.200 352.400 C 201.200 352.180,201.740 352.000,202.400 352.000 C 203.060 352.000,203.600 351.820,203.600 351.600 C 203.600 351.380,204.140 351.200,204.800 351.200 C 205.460 351.200,206.000 351.020,206.000 350.800 C 206.000 350.580,206.450 350.400,207.000 350.400 C 207.550 350.400,208.000 350.220,208.000 350.000 C 208.000 349.780,208.540 349.600,209.200 349.600 C 209.860 349.600,210.400 349.420,210.400 349.200 C 210.400 348.980,210.760 348.800,211.200 348.800 C 211.640 348.800,212.000 348.620,212.000 348.400 C 212.000 348.180,212.540 348.000,213.200 348.000 C 213.860 348.000,214.400 347.820,214.400 347.600 C 214.400 347.380,214.760 347.200,215.200 347.200 C 215.640 347.200,216.000 347.020,216.000 346.800 C 216.000 346.580,216.360 346.400,216.800 346.400 C 217.240 346.400,217.600 346.220,217.600 346.000 C 217.600 345.780,217.960 345.600,218.400 345.600 C 218.840 345.600,219.200 345.420,219.200 345.200 C 219.200 344.980,219.560 344.800,220.000 344.800 C 220.440 344.800,220.800 344.620,220.800 344.400 C 220.800 344.180,221.160 344.000,221.600 344.000 C 222.040 344.000,222.400 343.820,222.400 343.600 C 222.400 343.380,222.760 343.200,223.200 343.200 C 223.640 343.200,224.000 343.020,224.000 342.800 C 224.000 342.580,224.270 342.400,224.600 342.400 C 224.930 342.400,225.200 342.220,225.200 342.000 C 225.200 341.780,225.491 341.600,225.846 341.600 C 226.625 341.600,230.295 339.676,231.375 338.700 C 231.802 338.315,232.387 338.000,232.675 338.000 C 232.964 338.000,233.200 337.820,233.200 337.600 C 233.200 337.380,233.478 337.200,233.817 337.200 C 234.156 337.200,234.820 336.840,235.292 336.400 C 235.764 335.960,236.368 335.600,236.633 335.600 C 236.898 335.600,237.213 335.344,237.333 335.030 C 237.453 334.717,238.193 334.156,238.976 333.785 C 239.759 333.413,240.400 332.949,240.400 332.754 C 240.400 332.559,240.598 332.400,240.840 332.400 C 241.081 332.400,241.783 331.860,242.400 331.200 C 243.017 330.540,243.712 330.000,243.945 330.000 C 244.178 330.000,245.082 329.280,245.953 328.400 C 246.824 327.520,247.688 326.800,247.872 326.800 C 248.057 326.800,249.081 326.035,250.148 325.100 C 253.094 322.519,257.762 318.000,257.482 318.000 C 257.345 318.000,259.026 316.201,261.217 314.003 C 263.408 311.804,265.200 309.853,265.200 309.666 C 265.200 309.480,265.920 308.593,266.800 307.695 C 267.680 306.797,268.400 305.957,268.400 305.828 C 268.400 305.698,268.940 305.028,269.600 304.337 C 270.260 303.646,270.800 302.922,270.800 302.726 C 270.800 302.531,271.166 301.973,271.614 301.486 C 272.497 300.526,273.864 298.451,274.768 296.700 C 275.080 296.095,275.485 295.600,275.668 295.600 C 275.850 295.600,276.000 295.240,276.000 294.800 C 276.000 294.360,276.180 294.000,276.400 294.000 C 276.620 294.000,276.800 293.706,276.800 293.347 C 276.800 292.988,277.116 292.403,277.503 292.047 C 277.889 291.691,278.474 290.860,278.802 290.200 C 279.130 289.540,279.489 288.910,279.599 288.800 C 279.851 288.550,281.347 285.742,282.903 282.600 C 283.557 281.280,284.251 279.887,284.446 279.505 C 284.641 279.123,284.800 278.538,284.800 278.205 C 284.800 277.872,284.980 277.600,285.200 277.600 C 285.420 277.600,285.600 277.240,285.600 276.800 C 285.600 276.360,285.780 276.000,286.000 276.000 C 286.220 276.000,286.400 275.728,286.400 275.395 C 286.400 275.062,286.559 274.477,286.753 274.095 C 286.948 273.713,287.308 272.905,287.553 272.300 C 287.799 271.695,288.169 270.795,288.376 270.300 C 289.440 267.749,291.185 261.904,291.427 260.077 C 291.579 258.935,291.860 258.000,292.052 258.000 C 292.243 258.000,292.400 257.370,292.400 256.600 C 292.400 255.830,292.580 255.200,292.800 255.200 C 293.020 255.200,293.200 254.480,293.200 253.600 C 293.200 252.720,293.380 252.000,293.600 252.000 C 293.820 252.000,294.000 251.010,294.000 249.800 C 294.000 248.590,294.180 247.600,294.400 247.600 C 294.620 247.600,294.800 246.610,294.800 245.400 C 294.800 244.190,294.980 243.200,295.200 243.200 C 295.429 243.200,295.600 242.000,295.600 240.400 C 295.600 238.800,295.771 237.600,296.000 237.600 C 296.249 237.600,296.400 235.341,296.400 231.624 C 296.400 228.071,296.562 225.547,296.800 225.400 C 297.020 225.264,297.200 223.644,297.200 221.800 C 297.200 219.956,297.020 218.336,296.800 218.200 C 296.563 218.054,296.400 215.604,296.400 212.200 C 296.400 208.796,296.237 206.346,296.000 206.200 C 295.780 206.064,295.600 204.703,295.600 203.176 C 295.600 201.592,295.428 200.400,295.200 200.400 C 294.980 200.400,294.800 199.421,294.800 198.224 C 294.800 197.027,294.620 195.936,294.400 195.800 C 294.180 195.664,294.000 194.753,294.000 193.776 C 294.000 192.799,293.820 192.000,293.600 192.000 C 293.380 192.000,293.200 191.280,293.200 190.400 C 293.200 189.520,293.020 188.800,292.800 188.800 C 292.580 188.800,292.400 188.080,292.400 187.200 C 292.400 186.320,292.240 185.600,292.044 185.600 C 291.848 185.600,291.583 184.925,291.455 184.100 C 291.034 181.384,290.930 180.940,290.207 178.759 C 289.321 176.087,289.049 175.365,288.272 173.616 C 287.933 172.855,287.744 172.090,287.852 171.916 C 287.959 171.742,287.857 171.600,287.624 171.600 C 287.391 171.600,287.200 171.251,287.200 170.824 C 287.200 170.397,287.020 169.936,286.800 169.800 C 286.580 169.664,286.400 169.113,286.400 168.576 C 286.400 168.039,286.220 167.600,286.000 167.600 C 285.780 167.600,285.600 167.240,285.600 166.800 C 285.600 166.360,285.420 166.000,285.200 166.000 C 284.980 166.000,284.800 165.640,284.800 165.200 C 284.800 164.760,284.620 164.400,284.400 164.400 C 284.180 164.400,284.000 164.128,284.000 163.795 C 284.000 163.234,283.270 161.663,282.795 161.200 C 282.682 161.090,282.142 160.100,281.595 159.000 C 281.048 157.900,280.465 156.940,280.300 156.867 C 280.135 156.793,280.000 156.388,280.000 155.967 C 280.000 155.545,279.820 155.200,279.600 155.200 C 279.380 155.200,279.200 154.917,279.200 154.571 C 279.200 154.226,278.943 153.686,278.629 153.371 C 278.013 152.756,276.800 152.593,276.800 153.125 C 276.800 153.303,276.480 153.798,276.089 154.225 C 275.698 154.651,274.942 155.630,274.408 156.400 C 273.875 157.170,273.331 157.890,273.200 158.000 C 273.069 158.110,272.523 158.830,271.986 159.600 C 271.450 160.370,270.793 161.270,270.525 161.600 C 270.257 161.930,267.949 165.080,265.394 168.600 C 262.840 172.120,260.364 175.508,259.892 176.130 C 259.421 176.751,258.487 178.039,257.817 178.991 C 257.148 179.944,255.594 182.135,254.365 183.862 C 253.136 185.588,250.384 189.520,248.249 192.600 C 246.115 195.680,244.147 198.470,243.877 198.800 C 243.312 199.489,233.203 214.316,230.241 218.800 C 229.151 220.450,228.111 221.860,227.930 221.933 C 227.748 222.007,227.600 222.288,227.600 222.558 C 227.600 222.828,227.285 223.398,226.900 223.825 C 226.515 224.251,225.945 225.095,225.632 225.700 C 225.320 226.305,224.915 226.800,224.732 226.800 C 224.550 226.800,224.400 227.070,224.400 227.400 C 224.400 227.730,224.220 228.000,224.000 228.000 C 223.780 228.000,223.600 228.270,223.600 228.600 C 223.600 228.930,223.420 229.200,223.200 229.200 C 222.980 229.200,222.800 229.448,222.800 229.751 C 222.800 230.054,222.510 230.543,222.155 230.837 C 221.801 231.131,221.395 231.648,221.254 231.986 C 221.113 232.324,219.217 235.300,217.041 238.600 C 210.549 248.442,203.935 258.643,200.182 264.600 C 198.242 267.680,195.518 271.961,194.127 274.114 C 192.737 276.266,191.600 278.124,191.600 278.242 C 191.600 278.360,191.086 279.208,190.458 280.128 C 189.829 281.048,188.601 282.970,187.728 284.400 C 186.854 285.830,184.376 289.880,182.220 293.400 C 180.065 296.920,177.942 300.430,177.504 301.200 C 177.065 301.970,176.367 303.078,175.953 303.662 C 175.539 304.246,175.200 304.906,175.200 305.128 C 175.200 305.351,175.065 305.593,174.900 305.667 C 174.524 305.834,173.225 307.964,172.929 308.900 C 172.807 309.285,172.548 309.600,172.353 309.600 C 172.159 309.600,172.000 309.774,172.000 309.986 C 172.000 310.199,170.853 312.314,169.452 314.686 C 168.051 317.059,165.880 320.755,164.629 322.900 C 163.377 325.045,162.196 326.800,162.004 326.800 C 161.584 326.800,160.000 324.644,160.000 324.072 C 160.000 323.849,159.865 323.607,159.700 323.533 C 159.324 323.366,158.025 321.236,157.729 320.300 C 157.607 319.915,157.348 319.600,157.153 319.600 C 156.959 319.600,156.800 319.417,156.800 319.194 C 156.800 318.970,156.197 317.845,155.460 316.694 C 154.723 315.542,152.527 312.080,150.579 309.000 C 148.632 305.920,146.811 303.040,146.533 302.600 C 143.634 298.021,126.199 272.168,125.941 272.067 C 125.753 271.993,125.600 271.712,125.600 271.442 C 125.600 271.172,125.279 270.602,124.887 270.175 C 124.495 269.749,121.855 265.980,119.020 261.800 C 116.185 257.620,113.757 254.110,113.624 254.000 C 113.491 253.890,112.225 252.090,110.812 250.000 C 109.399 247.910,108.098 246.140,107.921 246.067 C 107.745 245.993,107.600 245.693,107.600 245.400 C 107.600 245.107,107.457 244.807,107.283 244.733 C 107.109 244.660,105.971 243.160,104.755 241.400 C 99.989 234.502,95.819 228.591,95.585 228.400 C 95.450 228.290,94.557 227.030,93.600 225.600 C 92.643 224.170,91.743 222.910,91.600 222.800 C 91.457 222.690,90.557 221.430,89.600 220.000 C 88.643 218.570,87.749 217.310,87.613 217.200 C 87.476 217.090,86.549 215.830,85.552 214.400 C 82.507 210.035,75.435 200.212,75.184 200.000 C 75.054 199.890,74.345 198.915,73.609 197.834 C 72.873 196.753,70.905 194.023,69.236 191.767 C 63.073 183.439,62.400 182.451,62.400 181.730 C 62.400 181.087,84.313 159.148,85.803 158.299 C 86.411 157.954,87.600 158.313,87.600 158.843 C 87.600 159.039,87.790 159.200,88.021 159.200 C 88.253 159.200,89.018 159.646,89.721 160.191 C 90.425 160.736,94.780 163.803,99.400 167.006 C 104.020 170.209,108.084 173.048,108.432 173.315 C 108.779 173.582,109.342 173.980,109.683 174.200 C 110.363 174.639,116.503 178.912,125.800 185.415 C 129.100 187.724,133.420 190.725,135.400 192.084 C 137.379 193.443,139.179 194.714,139.400 194.909 C 139.620 195.104,142.410 197.051,145.600 199.236 C 148.790 201.422,151.675 203.432,152.011 203.705 C 152.347 203.977,153.787 205.001,155.211 205.979 C 156.635 206.957,157.890 207.858,158.000 207.980 C 158.110 208.101,158.695 208.456,159.300 208.768 C 159.905 209.080,160.400 209.485,160.400 209.668 C 160.400 210.108,161.896 210.097,162.067 209.656 C 162.140 209.466,162.681 208.701,163.270 207.956 C 170.904 198.280,175.772 192.163,175.966 192.000 C 176.097 191.890,176.696 191.141,177.296 190.335 C 177.897 189.529,178.617 188.629,178.896 188.335 C 179.175 188.041,180.786 186.090,182.474 184.000 C 184.163 181.910,185.872 179.834,186.272 179.387 C 186.672 178.939,187.990 177.409,189.200 175.987 C 190.410 174.564,191.786 172.950,192.259 172.400 C 192.731 171.850,194.441 169.855,196.059 167.968 C 200.083 163.272,204.337 158.454,208.037 154.400 C 209.745 152.530,211.481 150.606,211.897 150.124 C 215.331 146.141,228.272 132.630,238.666 122.175 C 246.011 114.786,246.143 114.210,241.104 111.556 C 240.607 111.295,240.110 110.971,240.000 110.838 C 239.437 110.156,236.783 108.400,236.315 108.400 C 236.019 108.400,235.517 108.040,235.200 107.600 C 234.883 107.160,234.343 106.800,234.000 106.800 C 233.657 106.800,233.117 106.440,232.800 106.000 C 232.483 105.560,231.903 105.200,231.512 105.200 C 231.120 105.200,230.800 105.020,230.800 104.800 C 230.800 104.580,230.480 104.400,230.088 104.400 C 229.697 104.400,229.117 104.040,228.800 103.600 C 228.483 103.160,227.991 102.800,227.706 102.800 C 227.190 102.800,225.579 102.008,225.200 101.568 C 225.090 101.440,224.415 101.081,223.700 100.770 C 222.985 100.459,222.400 100.069,222.400 99.902 C 222.400 99.736,222.040 99.600,221.600 99.600 C 221.160 99.600,220.800 99.420,220.800 99.200 C 220.800 98.980,220.440 98.800,220.000 98.800 C 219.560 98.800,219.200 98.620,219.200 98.400 C 219.200 98.180,218.840 98.000,218.400 98.000 C 217.960 98.000,217.600 97.858,217.600 97.685 C 217.600 97.512,217.198 97.340,216.706 97.303 C 216.214 97.266,215.749 97.048,215.673 96.818 C 215.596 96.588,215.199 96.400,214.790 96.400 C 214.382 96.400,213.936 96.220,213.800 96.000 C 213.664 95.780,213.203 95.600,212.776 95.600 C 212.349 95.600,212.000 95.420,212.000 95.200 C 212.000 94.980,211.638 94.800,211.195 94.800 C 210.752 94.800,210.077 94.641,209.695 94.447 C 207.319 93.238,203.519 92.000,202.186 92.000 C 201.644 92.000,201.200 91.820,201.200 91.600 C 201.200 91.380,200.581 91.200,199.824 91.200 C 199.067 91.200,198.336 91.020,198.200 90.800 C 198.064 90.580,197.423 90.400,196.776 90.400 C 196.129 90.400,195.600 90.220,195.600 90.000 C 195.600 89.780,194.880 89.600,194.000 89.600 C 193.120 89.600,192.400 89.420,192.400 89.200 C 192.400 88.980,191.691 88.800,190.824 88.800 C 189.957 88.800,189.136 88.620,189.000 88.400 C 188.864 88.180,187.874 88.000,186.800 88.000 C 185.726 88.000,184.736 87.820,184.600 87.600 C 184.464 87.380,183.373 87.200,182.176 87.200 C 180.979 87.200,180.000 87.020,180.000 86.800 C 180.000 86.563,178.533 86.400,176.400 86.400 C 174.267 86.400,172.800 86.237,172.800 86.000 C 172.800 85.742,168.400 85.600,160.400 85.600 C 152.400 85.600,148.000 85.742,148.000 86.000 " stroke="none" fill="#b3ec8c" fill-rule="evenodd"></path><path id="path2" d="M227.800 133.200 C 225.167 135.840,223.103 138.000,223.213 138.000 C 223.323 138.000,225.567 135.840,228.200 133.200 C 230.833 130.560,232.897 128.400,232.787 128.400 C 232.677 128.400,230.433 130.560,227.800 133.200 M220.100 141.219 C 218.725 142.671,217.600 143.963,217.600 144.090 C 217.600 144.218,218.800 143.079,220.266 141.561 C 221.733 140.042,222.858 138.750,222.766 138.689 C 222.675 138.629,221.475 139.767,220.100 141.219 M214.615 147.188 L 212.231 149.800 214.797 147.315 C 216.208 145.948,217.281 144.772,217.181 144.702 C 217.082 144.633,215.927 145.751,214.615 147.188 M210.418 151.734 L 209.037 153.400 210.718 151.819 C 211.643 150.949,212.400 150.184,212.400 150.119 C 212.400 149.659,211.594 150.316,210.418 151.734 M204.900 157.780 C 203.305 159.606,202.000 161.213,202.000 161.351 C 202.000 161.489,202.665 160.837,203.478 159.901 C 204.290 158.966,205.769 157.345,206.763 156.300 C 207.757 155.255,208.397 154.413,208.185 154.430 C 207.973 154.446,206.495 155.954,204.900 157.780 M78.464 165.242 C 74.649 168.992,71.598 172.131,71.683 172.216 C 71.768 172.301,74.977 169.227,78.815 165.385 C 82.652 161.543,85.703 158.405,85.596 158.411 C 85.488 158.417,82.279 161.491,78.464 165.242 M88.000 159.354 C 88.000 159.439,88.495 159.827,89.100 160.216 L 90.200 160.924 89.438 160.062 C 88.764 159.299,88.000 158.923,88.000 159.354 M198.673 164.900 C 197.239 166.495,196.142 167.875,196.233 167.967 C 196.325 168.058,196.452 168.058,196.516 167.967 C 196.579 167.875,197.768 166.495,199.157 164.900 C 200.546 163.305,201.592 162.000,201.481 162.000 C 201.370 162.000,200.106 163.305,198.673 164.900 M94.123 163.475 C 94.261 163.699,95.775 164.836,97.487 166.001 C 99.199 167.166,100.330 167.852,100.000 167.526 C 99.098 166.635,93.833 163.006,94.123 163.475 M267.944 164.700 C 266.793 166.089,266.306 166.800,266.504 166.800 C 266.614 166.800,267.186 166.170,267.773 165.400 C 268.863 163.971,268.995 163.432,267.944 164.700 M263.035 171.300 C 261.371 173.555,260.007 175.554,260.005 175.742 C 260.002 175.930,261.003 174.686,262.229 172.978 C 263.455 171.269,264.916 169.270,265.476 168.536 C 266.037 167.801,266.397 167.200,266.277 167.200 C 266.158 167.200,264.699 169.045,263.035 171.300 M194.575 169.700 L 193.400 171.000 194.700 169.825 C 195.912 168.730,196.184 168.400,195.875 168.400 C 195.806 168.400,195.221 168.985,194.575 169.700 M104.800 170.978 C 104.800 171.250,108.433 173.700,108.596 173.538 C 108.673 173.461,107.850 172.812,106.768 172.096 C 105.685 171.380,104.800 170.877,104.800 170.978 M190.986 173.787 C 190.774 174.089,189.818 175.251,188.863 176.368 C 187.907 177.486,187.205 178.400,187.303 178.400 C 187.611 178.400,191.699 173.565,191.532 173.398 C 191.444 173.310,191.198 173.485,190.986 173.787 M64.577 178.906 C 63.270 180.273,62.899 180.763,63.752 179.996 C 66.288 177.717,67.257 176.724,67.101 176.568 C 67.020 176.487,65.885 177.539,64.577 178.906 M115.334 178.293 C 115.484 178.536,116.705 179.484,118.047 180.400 C 119.390 181.317,120.388 181.904,120.266 181.706 C 120.143 181.508,118.922 180.560,117.552 179.599 C 116.182 178.638,115.184 178.050,115.334 178.293 M184.668 181.254 C 183.606 182.544,182.827 183.600,182.937 183.600 C 183.246 183.600,186.935 179.199,186.757 179.044 C 186.671 178.969,185.731 179.963,184.668 181.254 M256.575 180.268 C 255.959 181.076,255.659 181.611,255.909 181.456 C 256.421 181.140,258.153 178.800,257.875 178.800 C 257.776 178.800,257.191 179.461,256.575 180.268 M62.400 182.261 C 62.400 182.464,62.960 183.253,63.644 184.015 C 64.936 185.453,64.777 185.039,63.272 183.046 C 62.792 182.411,62.400 182.058,62.400 182.261 M124.055 184.484 C 125.538 185.772,132.775 190.638,131.800 189.691 C 131.360 189.263,129.200 187.711,127.000 186.240 C 124.800 184.770,123.475 183.979,124.055 184.484 M181.759 184.900 C 180.007 186.921,179.487 187.600,179.690 187.600 C 179.807 187.600,180.567 186.790,181.379 185.800 C 182.881 183.966,183.179 183.263,181.759 184.900 M253.315 184.900 C 251.581 187.167,250.666 188.520,251.009 188.313 C 251.481 188.027,254.137 184.400,253.874 184.400 C 253.777 184.400,253.526 184.625,253.315 184.900 M66.816 188.563 C 68.595 191.040,69.306 191.479,67.657 189.082 C 66.960 188.069,66.178 187.110,65.920 186.950 C 65.661 186.791,66.065 187.516,66.816 188.563 M70.208 193.158 C 71.014 194.280,71.851 195.308,72.066 195.441 C 72.282 195.574,71.799 194.765,70.992 193.642 C 70.186 192.520,69.349 191.492,69.134 191.359 C 68.918 191.226,69.401 192.035,70.208 193.158 M248.319 191.900 C 247.341 193.031,243.519 198.854,243.666 198.989 C 243.740 199.057,244.998 197.332,246.463 195.156 C 249.092 191.251,249.503 190.530,248.319 191.900 M135.324 192.277 C 135.685 192.861,139.200 195.267,139.193 194.925 C 139.189 194.746,138.269 194.001,137.150 193.268 C 136.030 192.536,135.208 192.090,135.324 192.277 M174.834 193.353 L 173.869 194.600 175.013 193.512 C 175.643 192.914,176.077 192.353,175.979 192.265 C 175.880 192.177,175.365 192.667,174.834 193.353 M74.096 198.595 C 74.593 199.362,75.144 199.992,75.320 199.995 C 75.497 199.998,75.160 199.370,74.573 198.600 C 73.200 196.800,72.932 196.797,74.096 198.595 M144.542 198.706 C 144.861 199.222,152.013 204.125,152.178 203.940 C 152.247 203.863,150.502 202.564,148.299 201.054 C 146.097 199.543,144.406 198.487,144.542 198.706 M169.932 199.500 C 168.116 201.649,166.257 204.121,166.621 203.902 C 167.102 203.614,170.940 198.800,170.689 198.800 C 170.598 198.800,170.258 199.115,169.932 199.500 M77.616 203.363 C 78.368 204.409,79.156 205.373,79.367 205.503 C 79.578 205.633,79.135 204.884,78.384 203.837 C 77.632 202.791,76.844 201.827,76.633 201.697 C 76.422 201.567,76.865 202.316,77.616 203.363 M237.517 207.500 C 236.602 208.554,231.010 217.092,231.687 216.400 C 232.398 215.673,238.487 206.800,238.274 206.800 C 238.192 206.800,237.851 207.115,237.517 207.500 M81.616 208.963 C 82.368 210.009,83.156 210.973,83.367 211.103 C 83.578 211.233,83.135 210.484,82.384 209.437 C 81.632 208.391,80.844 207.427,80.633 207.297 C 80.422 207.167,80.865 207.916,81.616 208.963 M159.256 209.166 C 159.775 209.587,160.277 209.855,160.371 209.761 C 160.576 209.557,159.144 208.431,158.656 208.413 C 158.466 208.406,158.736 208.745,159.256 209.166 M86.096 215.168 C 86.812 216.250,87.461 217.073,87.538 216.996 C 87.700 216.833,85.250 213.200,84.978 213.200 C 84.877 213.200,85.380 214.085,86.096 215.168 M229.054 219.922 C 228.474 220.758,228.000 221.608,228.000 221.811 C 228.000 222.173,228.394 221.663,229.785 219.500 C 230.853 217.839,230.261 218.181,229.054 219.922 M90.097 220.793 C 90.814 221.889,91.535 222.789,91.699 222.793 C 91.864 222.797,91.352 221.900,90.562 220.800 C 88.708 218.220,88.412 218.215,90.097 220.793 M226.832 223.139 C 226.179 224.360,226.314 224.700,227.041 223.663 C 227.393 223.160,227.588 222.654,227.473 222.540 C 227.359 222.425,227.070 222.695,226.832 223.139 M225.045 225.788 C 224.680 226.344,224.522 226.800,224.695 226.800 C 225.084 226.800,226.119 225.186,225.882 224.949 C 225.786 224.853,225.410 225.231,225.045 225.788 M94.496 226.995 C 94.993 227.762,95.544 228.392,95.720 228.395 C 95.897 228.398,95.560 227.770,94.973 227.000 C 93.600 225.200,93.332 225.197,94.496 226.995 M221.806 230.688 L 221.104 231.800 222.030 230.911 C 222.539 230.422,222.855 229.922,222.732 229.799 C 222.609 229.676,222.192 230.076,221.806 230.688 M99.401 233.835 C 100.464 235.356,101.600 236.870,101.926 237.200 C 102.252 237.530,101.566 236.399,100.401 234.687 C 99.236 232.975,98.099 231.461,97.875 231.323 C 97.651 231.184,98.337 232.315,99.401 233.835 M218.599 235.487 C 215.417 240.270,213.411 243.481,213.906 243.000 C 214.577 242.349,221.206 232.273,221.060 232.126 C 220.986 232.052,219.879 233.565,218.599 235.487 M105.697 242.793 C 106.414 243.889,107.135 244.789,107.299 244.793 C 107.464 244.797,106.952 243.900,106.162 242.800 C 104.308 240.220,104.012 240.215,105.697 242.793 M210.586 247.865 C 207.480 252.619,206.885 253.608,207.493 253.000 C 207.991 252.503,212.503 245.725,213.151 244.500 C 214.167 242.582,213.259 243.773,210.586 247.865 M112.067 251.934 C 112.800 253.047,113.546 253.966,113.725 253.978 C 114.071 254.001,111.651 250.478,111.076 250.123 C 110.888 250.007,111.334 250.822,112.067 251.934 M120.295 263.653 C 122.443 266.871,124.265 269.446,124.345 269.375 C 124.518 269.218,118.811 260.706,117.389 258.999 C 116.839 258.340,118.147 260.434,120.295 263.653 M202.653 259.991 C 201.521 261.702,201.225 262.718,202.243 261.400 C 202.982 260.444,204.085 258.400,203.863 258.400 C 203.777 258.400,203.232 259.116,202.653 259.991 M199.046 265.800 C 198.691 266.350,198.109 267.295,197.753 267.900 L 197.105 269.000 197.910 268.026 C 198.860 266.876,200.121 264.800,199.869 264.800 C 199.771 264.800,199.401 265.250,199.046 265.800 M195.046 272.200 C 194.691 272.750,194.109 273.695,193.753 274.300 L 193.105 275.400 193.910 274.426 C 194.860 273.276,196.121 271.200,195.869 271.200 C 195.771 271.200,195.401 271.650,195.046 272.200 M190.770 278.866 C 190.498 279.380,190.013 280.205,189.692 280.700 C 189.371 281.195,189.195 281.600,189.301 281.600 C 189.636 281.600,191.669 278.336,191.462 278.129 C 191.354 278.020,191.042 278.352,190.770 278.866 M133.802 283.437 C 136.423 287.243,137.706 288.918,136.992 287.600 C 136.244 286.220,131.871 279.968,131.489 279.731 C 131.260 279.590,132.301 281.258,133.802 283.437 M187.400 284.400 C 187.059 285.060,186.869 285.600,186.979 285.600 C 187.089 285.600,187.459 285.060,187.800 284.400 C 188.141 283.740,188.331 283.200,188.221 283.200 C 188.111 283.200,187.741 283.740,187.400 284.400 M184.308 289.300 C 183.433 290.649,182.648 292.256,183.087 291.800 C 183.648 291.217,185.298 288.400,185.079 288.400 C 184.976 288.400,184.629 288.805,184.308 289.300 M182.153 292.900 C 180.776 295.236,180.686 295.435,181.387 294.600 C 182.200 293.632,182.900 292.400,182.638 292.400 C 182.533 292.400,182.315 292.625,182.153 292.900 M179.952 296.500 C 179.690 296.995,179.215 297.850,178.896 298.400 C 178.339 299.359,178.343 299.367,178.988 298.600 C 179.786 297.652,180.905 295.600,180.624 295.600 C 180.516 295.600,180.214 296.005,179.952 296.500 M145.404 300.800 C 146.288 302.453,148.940 306.394,149.075 306.258 C 149.237 306.096,146.196 301.302,145.487 300.600 C 145.215 300.331,145.188 300.397,145.404 300.800 M176.653 302.100 L 175.933 303.400 176.758 302.400 C 177.489 301.513,177.814 300.800,177.486 300.800 C 177.424 300.800,177.049 301.385,176.653 302.100 M151.409 310.226 C 151.781 310.901,152.441 311.891,152.876 312.426 L 153.667 313.400 152.991 312.174 C 152.619 311.499,151.959 310.509,151.524 309.974 L 150.733 309.000 151.409 310.226 M170.214 312.635 C 169.841 313.204,169.627 313.761,169.739 313.872 C 169.850 313.983,170.229 313.518,170.581 312.837 C 171.359 311.333,171.144 311.215,170.214 312.635 M154.394 315.100 C 154.859 315.925,155.612 317.050,156.067 317.600 L 156.895 318.600 156.195 317.435 C 155.811 316.794,155.141 315.669,154.708 314.935 C 153.625 313.098,153.348 313.244,154.394 315.100 M167.800 316.800 C 167.459 317.460,167.269 318.000,167.379 318.000 C 167.489 318.000,167.859 317.460,168.200 316.800 C 168.541 316.140,168.731 315.600,168.621 315.600 C 168.511 315.600,168.141 316.140,167.800 316.800 M166.200 319.600 C 165.859 320.260,165.669 320.800,165.779 320.800 C 165.889 320.800,166.259 320.260,166.600 319.600 C 166.941 318.940,167.131 318.400,167.021 318.400 C 166.911 318.400,166.541 318.940,166.200 319.600 M163.778 323.700 C 161.976 326.786,162.158 326.618,161.310 325.979 C 160.685 325.508,160.688 325.537,161.336 326.222 C 162.063 326.991,162.079 326.989,162.736 326.031 C 163.824 324.442,165.631 321.200,165.427 321.200 C 165.323 321.200,164.581 322.325,163.778 323.700 " stroke="none" fill="#6bca72" fill-rule="evenodd"></path><path id="path3" d="M230.000 131.400 C 227.257 134.150,225.189 136.375,225.406 136.343 C 225.807 136.286,235.521 126.400,235.176 126.400 C 235.073 126.400,232.743 128.650,230.000 131.400 M222.010 139.748 L 219.421 142.600 222.310 139.811 C 223.900 138.277,225.200 136.972,225.200 136.911 C 225.200 136.441,224.231 137.303,222.010 139.748 M213.930 148.427 C 211.879 150.642,210.136 152.635,210.057 152.856 C 209.978 153.077,210.780 152.300,211.839 151.129 C 212.897 149.958,214.756 147.965,215.969 146.700 C 217.182 145.435,218.059 144.400,217.918 144.400 C 217.776 144.400,215.982 146.212,213.930 148.427 M206.981 156.100 L 205.400 157.800 207.100 156.219 C 208.681 154.748,208.984 154.400,208.681 154.400 C 208.616 154.400,207.851 155.165,206.981 156.100 M271.531 159.133 C 270.943 159.940,269.892 161.365,269.196 162.300 C 268.500 163.235,268.015 164.000,268.117 164.000 C 268.391 164.000,272.891 157.958,272.734 157.801 C 272.660 157.727,272.119 158.327,271.531 159.133 M204.175 159.300 L 203.000 160.600 204.300 159.425 C 205.015 158.779,205.600 158.194,205.600 158.125 C 205.600 157.816,205.270 158.088,204.175 159.300 M80.594 163.700 L 75.400 169.000 80.606 163.900 C 86.615 158.012,85.796 158.360,88.822 160.415 C 90.130 161.303,91.200 161.940,91.200 161.830 C 91.200 161.555,86.523 158.400,86.116 158.400 C 85.936 158.400,83.451 160.785,80.594 163.700 M200.975 162.900 L 199.800 164.200 201.100 163.025 C 201.815 162.379,202.400 161.794,202.400 161.725 C 202.400 161.416,202.070 161.688,200.975 162.900 M198.575 165.700 L 197.400 167.000 198.700 165.825 C 199.415 165.179,200.000 164.594,200.000 164.525 C 200.000 164.216,199.670 164.488,198.575 165.700 M266.627 165.800 C 266.040 166.570,265.703 167.198,265.880 167.195 C 266.056 167.192,266.607 166.562,267.104 165.795 C 268.268 163.997,268.000 164.000,266.627 165.800 M96.000 165.279 C 97.036 166.292,100.979 169.013,100.657 168.492 C 100.488 168.219,99.237 167.253,97.875 166.344 C 96.514 165.436,95.670 164.956,96.000 165.279 M194.500 170.234 C 193.125 171.831,192.000 173.248,192.000 173.382 C 192.000 173.516,193.191 172.260,194.646 170.592 C 196.101 168.923,197.226 167.507,197.146 167.443 C 197.066 167.380,195.875 168.636,194.500 170.234 M260.598 174.002 C 260.198 174.444,259.966 174.899,260.082 175.015 C 260.197 175.130,260.590 174.769,260.955 174.212 C 261.752 172.996,261.593 172.902,260.598 174.002 M108.433 174.135 C 109.293 174.833,112.400 176.793,112.400 176.638 C 112.400 176.376,108.943 174.000,108.561 174.000 C 108.399 174.000,108.342 174.061,108.433 174.135 M189.349 176.284 C 188.277 177.540,187.609 178.439,187.864 178.283 C 188.423 177.939,191.754 174.000,191.486 174.000 C 191.382 174.000,190.420 175.028,189.349 176.284 M186.368 179.900 C 184.230 182.295,183.421 183.317,183.864 183.063 C 184.119 182.917,185.081 181.898,186.001 180.799 C 187.768 178.688,188.037 178.030,186.368 179.900 M256.729 179.500 C 255.778 180.618,254.328 182.800,254.535 182.800 C 254.640 182.800,255.372 181.900,256.162 180.800 C 257.585 178.819,257.877 178.150,256.729 179.500 M116.800 179.754 C 116.800 179.855,117.982 180.765,119.427 181.775 C 120.872 182.785,121.941 183.428,121.802 183.204 C 121.508 182.728,116.800 179.481,116.800 179.754 M62.615 182.000 C 63.199 183.052,66.017 186.800,66.225 186.800 C 66.335 186.800,65.674 185.765,64.755 184.500 C 62.988 182.067,62.034 180.952,62.615 182.000 M181.401 185.819 C 180.358 187.040,179.572 188.096,179.653 188.166 C 179.734 188.236,180.669 187.237,181.732 185.946 C 184.185 182.967,183.924 182.867,181.401 185.819 M251.025 187.427 C 250.015 188.872,249.372 189.941,249.596 189.802 C 250.072 189.508,253.319 184.800,253.046 184.800 C 252.945 184.800,252.035 185.982,251.025 187.427 M127.323 187.075 C 127.461 187.299,128.975 188.436,130.687 189.601 C 132.399 190.766,133.530 191.452,133.200 191.126 C 132.298 190.235,127.033 186.606,127.323 187.075 M67.543 188.918 C 68.240 189.931,69.022 190.890,69.280 191.050 C 69.539 191.209,69.135 190.484,68.384 189.437 C 66.605 186.960,65.894 186.521,67.543 188.918 M71.140 193.916 C 71.633 194.609,72.244 195.304,72.497 195.460 C 72.750 195.617,72.554 195.177,72.060 194.484 C 71.567 193.791,70.956 193.096,70.703 192.940 C 70.450 192.783,70.646 193.223,71.140 193.916 M137.000 193.897 C 137.985 194.851,144.836 199.543,144.000 198.692 C 143.670 198.355,141.780 196.965,139.800 195.601 C 137.820 194.238,136.560 193.471,137.000 193.897 M243.270 198.478 C 242.098 200.242,241.290 201.591,241.475 201.477 C 241.978 201.166,245.729 195.595,245.552 195.421 C 245.469 195.338,244.441 196.714,243.270 198.478 M168.744 201.500 C 167.475 203.032,167.019 203.742,167.481 203.465 C 167.993 203.158,169.769 200.800,169.489 200.800 C 169.398 200.800,169.063 201.115,168.744 201.500 M78.620 204.165 C 79.627 205.606,80.622 206.890,80.831 207.019 C 81.040 207.148,80.387 206.075,79.380 204.635 C 78.373 203.194,77.378 201.910,77.169 201.781 C 76.960 201.652,77.613 202.725,78.620 204.165 M148.497 201.833 C 148.627 202.044,149.591 202.832,150.637 203.584 C 151.684 204.335,152.433 204.778,152.303 204.567 C 152.173 204.356,151.209 203.568,150.163 202.816 C 149.116 202.065,148.367 201.622,148.497 201.833 M163.529 208.200 C 161.529 210.761,161.445 210.780,159.260 209.197 C 158.347 208.536,157.600 208.131,157.601 208.297 C 157.602 208.662,160.918 210.800,161.483 210.800 C 161.702 210.800,162.730 209.720,163.768 208.400 C 164.805 207.080,165.562 206.000,165.450 206.000 C 165.338 206.000,164.474 206.990,163.529 208.200 M82.386 209.380 C 83.059 210.358,83.801 211.277,84.034 211.421 C 84.268 211.565,83.799 210.765,82.992 209.642 C 81.190 207.134,80.693 206.919,82.386 209.380 M234.753 210.900 C 233.831 212.275,232.432 214.292,231.644 215.382 C 230.856 216.472,230.417 217.237,230.667 217.082 C 231.197 216.755,236.940 208.400,236.635 208.400 C 236.522 208.400,235.675 209.525,234.753 210.900 M86.975 215.732 C 87.591 216.539,88.176 217.200,88.275 217.200 C 88.553 217.200,86.821 214.860,86.309 214.544 C 86.059 214.389,86.359 214.924,86.975 215.732 M223.934 226.900 C 217.074 237.201,216.055 238.787,216.677 238.200 C 217.435 237.485,230.573 217.600,230.288 217.600 C 230.200 217.600,227.341 221.785,223.934 226.900 M91.408 221.958 C 92.215 223.081,92.957 224.000,93.057 224.000 C 93.332 224.000,90.852 220.480,90.366 220.179 C 90.132 220.035,90.601 220.835,91.408 221.958 M96.400 229.000 C 97.081 229.990,97.728 230.800,97.838 230.800 C 97.948 230.800,97.481 229.990,96.800 229.000 C 96.119 228.010,95.472 227.200,95.362 227.200 C 95.252 227.200,95.719 228.010,96.400 229.000 M101.216 235.763 C 101.968 236.809,102.756 237.773,102.967 237.903 C 103.178 238.033,102.735 237.284,101.984 236.237 C 101.232 235.191,100.444 234.227,100.233 234.097 C 100.022 233.967,100.465 234.716,101.216 235.763 M106.206 242.912 C 106.592 243.524,107.009 243.924,107.132 243.801 C 107.255 243.678,106.939 243.178,106.430 242.689 L 105.504 241.800 106.206 242.912 M107.602 244.633 C 107.603 244.835,108.068 245.540,108.635 246.200 L 109.666 247.400 108.763 246.000 C 107.604 244.204,107.600 244.199,107.602 244.633 M210.657 246.994 C 209.855 248.200,209.200 249.322,209.200 249.487 C 209.200 249.764,210.044 248.592,211.782 245.900 C 212.172 245.295,212.407 244.800,212.303 244.800 C 212.198 244.800,211.458 245.787,210.657 246.994 M113.990 253.906 C 115.368 255.944,116.674 257.722,116.893 257.857 C 117.359 258.145,112.948 251.682,112.076 250.800 C 111.750 250.470,112.611 251.868,113.990 253.906 M204.325 256.900 C 201.795 260.728,201.506 261.200,201.697 261.200 C 201.864 261.200,202.959 259.623,205.377 255.900 C 205.770 255.295,206.007 254.800,205.903 254.800 C 205.798 254.800,205.089 255.745,204.325 256.900 M199.952 263.700 C 199.690 264.195,199.215 265.050,198.896 265.600 C 198.339 266.559,198.343 266.567,198.988 265.800 C 199.786 264.852,200.905 262.800,200.624 262.800 C 200.516 262.800,200.214 263.205,199.952 263.700 M122.487 266.000 C 122.757 266.755,127.188 273.200,127.437 273.200 C 127.606 273.200,122.944 266.055,122.477 265.600 C 122.365 265.490,122.369 265.670,122.487 266.000 M195.014 271.435 C 194.641 272.004,194.405 272.538,194.489 272.622 C 194.573 272.707,194.958 272.241,195.344 271.588 C 196.206 270.128,195.948 270.009,195.014 271.435 M191.014 277.835 C 190.641 278.404,190.405 278.938,190.489 279.022 C 190.573 279.107,190.958 278.641,191.344 277.988 C 192.206 276.528,191.948 276.409,191.014 277.835 M187.846 283.000 C 187.491 283.550,186.909 284.495,186.553 285.100 L 185.905 286.200 186.710 285.226 C 187.660 284.076,188.921 282.000,188.669 282.000 C 188.571 282.000,188.201 282.450,187.846 283.000 M184.953 287.700 C 183.576 290.036,183.486 290.235,184.187 289.400 C 185.000 288.432,185.700 287.200,185.438 287.200 C 185.333 287.200,185.115 287.425,184.953 287.700 M181.800 292.800 C 181.459 293.460,181.269 294.000,181.379 294.000 C 181.489 294.000,181.859 293.460,182.200 292.800 C 182.541 292.140,182.731 291.600,182.621 291.600 C 182.511 291.600,182.141 292.140,181.800 292.800 M143.823 297.900 C 146.241 301.623,147.336 303.200,147.503 303.200 C 147.607 303.200,147.370 302.705,146.977 302.100 C 144.559 298.377,143.464 296.800,143.297 296.800 C 143.193 296.800,143.430 297.295,143.823 297.900 M177.014 300.635 C 176.641 301.204,176.405 301.738,176.489 301.822 C 176.573 301.907,176.958 301.441,177.344 300.788 C 178.206 299.328,177.948 299.209,177.014 300.635 M150.600 308.400 C 150.941 309.060,151.311 309.600,151.421 309.600 C 151.531 309.600,151.341 309.060,151.000 308.400 C 150.659 307.740,150.289 307.200,150.179 307.200 C 150.069 307.200,150.259 307.740,150.600 308.400 M172.553 308.100 C 171.176 310.436,171.086 310.635,171.787 309.800 C 172.600 308.832,173.300 307.600,173.038 307.600 C 172.933 307.600,172.715 307.825,172.553 308.100 M170.253 312.100 L 169.533 313.400 170.358 312.400 C 171.089 311.513,171.414 310.800,171.086 310.800 C 171.024 310.800,170.649 311.385,170.253 312.100 M168.752 314.500 C 168.490 314.995,168.015 315.850,167.696 316.400 C 167.139 317.359,167.143 317.367,167.788 316.600 C 168.586 315.652,169.705 313.600,169.424 313.600 C 169.316 313.600,169.014 314.005,168.752 314.500 M157.560 319.400 C 158.234 320.705,158.788 321.428,158.785 321.000 C 158.783 320.780,158.414 320.150,157.964 319.600 C 157.421 318.936,157.285 318.869,157.560 319.400 M164.600 321.600 C 164.259 322.260,164.069 322.800,164.179 322.800 C 164.289 322.800,164.659 322.260,165.000 321.600 C 165.341 320.940,165.531 320.400,165.421 320.400 C 165.311 320.400,164.941 320.940,164.600 321.600 " stroke="none" fill="#50bc68" fill-rule="evenodd"></path><path id="path4" d="M237.785 123.300 L 235.800 125.400 237.900 123.415 C 239.851 121.571,240.183 121.200,239.885 121.200 C 239.822 121.200,238.877 122.145,237.785 123.300 " stroke="none" fill="#5cbc6c" fill-rule="evenodd"></path></g></svg>