<svg id="svg" version="1.1" xmlns="http://www.w3.org/2000/svg" xmlns:xlink="http://www.w3.org/1999/xlink" width="400" height="400" viewBox="0, 0, 400,400"><g id="svgg"><path id="path0" d="M226.200 67.852 C 199.307 69.644,179.626 86.042,173.956 111.379 C 172.290 118.827,172.007 123.561,172.003 144.067 C 172.002 154.774,171.891 163.819,171.757 164.167 C 171.540 164.733,169.391 164.800,151.604 164.800 L 131.693 164.800 131.452 165.700 C 131.138 166.873,131.137 209.524,131.451 210.696 L 131.691 211.593 151.746 211.696 L 171.800 211.800 172.000 272.000 L 172.200 332.200 195.848 332.303 C 215.363 332.388,219.576 332.311,219.947 331.864 C 220.275 331.468,220.425 315.128,220.499 271.561 L 220.600 211.800 240.584 211.696 C 251.575 211.639,260.699 211.459,260.860 211.296 C 261.132 211.022,261.440 208.996,262.399 201.200 C 262.602 199.550,262.961 196.760,263.197 195.000 C 263.703 191.233,264.849 182.360,265.987 173.411 C 266.434 169.897,266.800 166.524,266.800 165.915 L 266.800 164.806 243.700 164.703 L 220.600 164.600 220.600 146.000 C 220.600 125.789,220.662 125.095,222.867 120.688 C 224.411 117.602,226.805 115.347,230.200 113.781 C 234.908 111.609,235.751 111.517,252.700 111.315 L 268.400 111.129 268.400 90.396 L 268.400 69.664 267.300 69.437 C 262.736 68.499,233.444 67.369,226.200 67.852 " stroke="none" fill="#fbfbfb" fill-rule="evenodd"></path><path id="path1" d="M269.200 90.520 C 269.200 105.947,269.081 111.159,268.720 111.520 C 268.364 111.876,264.502 112.000,253.820 112.000 C 222.862 112.001,221.099 113.871,221.296 146.495 L 221.400 163.800 244.400 164.000 L 267.400 164.200 267.385 166.600 C 267.377 167.920,267.151 170.620,266.884 172.600 C 266.425 176.002,266.249 177.348,265.187 185.600 C 264.946 187.470,264.592 190.170,264.400 191.600 C 264.208 193.030,263.854 195.730,263.613 197.600 C 263.373 199.470,263.000 202.350,262.785 204.000 C 262.570 205.650,262.284 207.990,262.150 209.200 C 261.772 212.607,263.146 212.400,240.924 212.400 L 221.200 212.400 221.194 272.100 C 221.190 309.011,221.043 332.029,220.809 332.400 C 220.481 332.919,217.197 333.027,196.588 333.200 L 172.746 333.400 202.373 362.987 C 218.668 379.259,232.000 392.785,232.000 393.044 C 232.000 393.747,233.152 394.054,234.029 393.584 C 234.453 393.358,234.803 393.313,234.806 393.486 C 234.809 393.659,234.987 393.530,235.200 393.200 C 235.530 392.690,235.589 392.687,235.594 393.180 C 235.598 393.609,235.717 393.643,236.049 393.311 C 236.296 393.064,236.772 392.968,237.107 393.096 C 237.453 393.229,237.950 393.010,238.258 392.589 C 238.758 391.904,238.800 391.901,238.800 392.547 C 238.800 392.932,238.983 393.134,239.207 392.996 C 239.430 392.858,239.523 392.598,239.412 392.420 C 239.302 392.241,239.884 392.067,240.706 392.034 C 241.528 392.001,242.695 391.954,243.300 391.930 C 243.905 391.905,244.400 391.731,244.400 391.543 C 244.400 391.354,244.749 391.200,245.176 391.200 C 245.603 391.200,246.065 391.018,246.203 390.795 C 246.361 390.540,246.697 390.526,247.110 390.758 C 247.573 391.017,247.928 390.930,248.313 390.463 C 248.694 390.001,248.769 389.982,248.561 390.400 C 248.346 390.833,248.491 390.800,249.081 390.283 C 249.531 389.889,250.057 389.595,250.250 389.631 C 251.163 389.798,252.022 389.559,251.800 389.200 C 251.664 388.980,251.728 388.800,251.943 388.800 C 252.158 388.800,252.409 389.025,252.502 389.300 C 252.635 389.696,252.800 389.693,253.296 389.283 C 253.808 388.861,253.960 388.861,254.130 389.283 C 254.244 389.567,254.354 389.350,254.375 388.800 C 254.397 388.208,254.533 387.989,254.707 388.264 C 255.085 388.857,257.157 388.753,256.926 388.153 C 256.832 387.906,257.125 387.608,257.578 387.490 C 258.088 387.357,258.304 387.432,258.145 387.689 C 257.999 387.925,258.128 388.017,258.444 387.902 C 258.750 387.791,258.942 387.452,258.871 387.150 C 258.775 386.739,258.859 386.714,259.205 387.054 C 259.713 387.552,261.200 387.322,261.200 386.746 C 261.200 386.547,261.639 386.464,262.177 386.561 C 262.729 386.662,263.358 386.491,263.626 386.169 C 263.885 385.856,264.532 385.600,265.062 385.600 C 265.591 385.600,266.129 385.330,266.255 385.000 C 266.382 384.670,266.657 384.400,266.866 384.400 C 267.076 384.400,267.125 384.598,266.975 384.840 C 266.784 385.149,266.956 385.145,267.552 384.826 C 268.018 384.576,268.400 384.209,268.400 384.009 C 268.400 383.809,268.792 383.721,269.270 383.814 C 269.749 383.906,270.383 383.780,270.680 383.534 C 270.977 383.287,271.327 383.193,271.458 383.325 C 271.589 383.456,272.335 383.129,273.115 382.599 C 273.895 382.069,274.684 381.728,274.867 381.841 C 275.050 381.955,275.200 381.862,275.200 381.636 C 275.200 381.410,275.501 381.341,275.869 381.482 C 276.389 381.682,276.477 381.579,276.264 381.022 C 276.035 380.425,276.157 380.337,276.994 380.497 C 277.670 380.626,278.000 380.511,278.000 380.145 C 278.000 379.830,278.423 379.600,279.000 379.600 C 279.550 379.600,280.000 379.420,280.000 379.200 C 280.000 378.980,280.191 378.800,280.424 378.800 C 280.657 378.800,280.736 378.980,280.600 379.200 C 280.173 379.890,280.645 379.641,281.997 378.461 C 282.796 377.762,283.669 377.362,284.251 377.425 C 284.773 377.483,285.200 377.399,285.200 377.239 C 285.200 376.852,288.320 375.200,289.050 375.200 C 289.366 375.200,289.714 374.968,289.823 374.684 C 289.932 374.401,290.396 374.140,290.855 374.106 C 291.314 374.071,292.060 373.718,292.514 373.321 C 293.103 372.806,293.252 372.771,293.039 373.200 C 292.857 373.566,292.962 373.530,293.310 373.106 C 293.623 372.725,293.996 372.530,294.140 372.673 C 294.283 372.816,294.400 372.653,294.400 372.309 C 294.400 371.966,294.670 371.582,295.000 371.455 C 295.330 371.329,295.600 371.399,295.600 371.613 C 295.600 371.826,295.390 372.000,295.133 372.000 C 294.877 372.000,294.794 372.128,294.950 372.283 C 295.106 372.439,295.787 371.944,296.463 371.183 C 297.139 370.423,297.571 370.025,297.423 370.300 C 297.274 370.575,297.343 370.800,297.576 370.800 C 297.809 370.800,298.000 370.536,298.000 370.213 C 298.000 369.855,298.235 369.715,298.600 369.855 C 298.930 369.982,299.200 369.876,299.200 369.619 C 299.200 369.363,299.367 369.256,299.571 369.382 C 299.775 369.508,300.057 369.249,300.198 368.806 C 300.339 368.363,300.667 367.973,300.927 367.939 C 301.187 367.906,301.580 367.836,301.800 367.785 C 302.020 367.734,302.436 367.672,302.724 367.646 C 303.012 367.621,303.137 367.422,303.003 367.205 C 302.863 366.978,303.023 366.911,303.379 367.047 C 303.721 367.178,304.000 367.086,304.000 366.843 C 304.000 366.599,304.135 366.419,304.300 366.443 C 304.985 366.542,306.374 365.882,306.172 365.555 C 306.051 365.360,306.368 365.197,306.876 365.194 C 307.619 365.189,307.683 365.112,307.200 364.800 C 306.607 364.417,307.065 364.189,308.100 364.353 C 308.265 364.379,308.355 364.175,308.300 363.900 C 308.242 363.608,308.586 363.415,309.130 363.435 C 309.866 363.463,310.016 363.305,309.852 362.677 C 309.696 362.082,309.759 361.999,310.102 362.342 C 310.666 362.906,311.339 362.949,311.000 362.400 C 310.864 362.180,311.035 362.000,311.380 362.000 C 311.725 362.000,312.308 361.649,312.675 361.220 C 313.042 360.792,313.518 360.550,313.733 360.682 C 313.957 360.821,313.995 360.715,313.822 360.435 C 313.629 360.124,313.825 359.866,314.360 359.726 C 314.822 359.606,315.200 359.348,315.200 359.153 C 315.200 358.959,315.605 358.787,316.100 358.772 C 316.959 358.745,316.963 358.728,316.200 358.400 C 315.480 358.090,315.505 358.053,316.451 358.028 C 317.576 357.998,318.586 357.130,318.097 356.614 C 317.933 356.441,318.190 356.421,318.668 356.567 C 319.321 356.768,319.598 356.637,319.788 356.037 C 319.941 355.556,320.268 355.328,320.615 355.461 C 320.979 355.601,321.332 355.304,321.582 354.648 C 321.824 354.012,322.188 353.697,322.530 353.828 C 322.882 353.964,323.275 353.585,323.603 352.794 C 323.977 351.889,324.211 351.691,324.454 352.073 C 324.707 352.473,324.789 352.479,324.794 352.100 C 324.797 351.825,325.087 351.600,325.437 351.600 C 325.788 351.600,326.169 351.240,326.284 350.800 C 326.399 350.360,326.753 350.000,327.070 350.000 C 327.388 350.000,327.536 349.820,327.400 349.600 C 327.264 349.380,327.390 349.200,327.680 349.200 C 327.970 349.200,328.437 348.833,328.717 348.384 C 328.997 347.936,329.393 347.672,329.596 347.798 C 329.799 347.923,330.248 347.480,330.593 346.813 C 330.938 346.146,331.317 345.600,331.434 345.600 C 331.551 345.600,331.536 345.780,331.400 346.000 C 331.264 346.220,331.343 346.400,331.576 346.400 C 331.809 346.400,332.000 346.124,332.000 345.787 C 332.000 345.451,332.269 345.072,332.598 344.946 C 332.926 344.819,333.096 344.555,332.974 344.358 C 332.776 344.038,333.358 343.847,333.758 344.100 C 334.044 344.281,335.700 342.623,336.456 341.400 C 336.863 340.740,337.198 340.438,337.199 340.729 C 337.200 341.135,337.339 341.119,337.800 340.657 C 338.130 340.327,338.400 339.744,338.400 339.362 C 338.400 338.980,338.505 338.772,338.634 338.900 C 339.030 339.297,342.040 336.627,343.200 334.849 C 344.046 333.552,345.598 331.897,345.609 332.279 C 345.614 332.456,345.905 332.018,346.256 331.306 C 346.607 330.594,347.065 330.117,347.274 330.246 C 347.483 330.375,347.753 330.102,347.874 329.640 C 347.994 329.178,348.347 328.800,348.657 328.800 C 348.966 328.800,349.393 328.345,349.604 327.790 C 349.815 327.234,350.271 326.671,350.617 326.538 C 350.963 326.405,351.149 326.044,351.031 325.736 C 350.898 325.390,351.196 325.030,351.808 324.797 C 352.353 324.590,352.800 324.315,352.800 324.186 C 352.800 324.058,352.575 324.088,352.300 324.253 C 351.956 324.460,351.970 324.344,352.345 323.881 C 352.645 323.511,353.078 323.325,353.307 323.466 C 353.549 323.616,353.604 323.530,353.438 323.262 C 353.281 323.008,353.354 322.800,353.600 322.800 C 353.846 322.800,353.944 322.633,353.818 322.429 C 353.692 322.225,353.954 321.942,354.400 321.800 C 354.846 321.658,355.108 321.375,354.982 321.171 C 354.856 320.967,354.954 320.800,355.200 320.800 C 355.446 320.800,355.536 320.620,355.400 320.400 C 355.264 320.180,355.428 320.000,355.764 320.000 C 356.153 320.000,356.288 319.774,356.135 319.376 C 355.976 318.959,356.179 318.678,356.748 318.529 C 357.217 318.407,357.600 317.995,357.600 317.615 C 357.600 316.834,358.961 315.095,359.304 315.437 C 359.427 315.560,359.646 315.287,359.790 314.830 C 359.935 314.374,360.222 314.000,360.427 314.000 C 360.632 314.000,360.800 313.808,360.800 313.573 C 360.800 313.117,362.728 310.395,363.398 309.906 C 363.646 309.725,363.603 309.610,363.284 309.606 C 362.863 309.601,362.863 309.497,363.284 309.042 C 363.568 308.735,363.966 308.585,364.168 308.708 C 364.370 308.831,364.421 308.632,364.281 308.266 C 364.140 307.900,364.203 307.600,364.421 307.600 C 364.639 307.600,365.036 307.105,365.302 306.500 C 365.569 305.895,366.105 305.165,366.494 304.877 C 366.882 304.590,367.200 303.994,367.200 303.554 C 367.200 303.060,367.374 302.860,367.652 303.032 C 367.926 303.202,368.030 303.093,367.917 302.756 C 367.814 302.450,368.016 301.962,368.365 301.670 C 368.714 301.379,368.762 301.263,368.470 301.412 C 368.032 301.637,368.031 301.539,368.467 300.842 C 368.756 300.379,369.129 300.000,369.296 300.000 C 369.463 300.000,369.600 299.719,369.600 299.376 C 369.600 299.033,369.761 298.852,369.958 298.974 C 370.388 299.240,370.897 298.081,370.578 297.564 C 370.454 297.364,370.526 297.200,370.737 297.200 C 370.948 297.200,371.288 296.525,371.493 295.700 C 371.704 294.849,372.080 294.248,372.362 294.310 C 372.636 294.370,372.745 294.235,372.606 294.010 C 372.467 293.784,372.554 293.600,372.800 293.600 C 373.046 293.600,373.136 293.420,373.000 293.200 C 372.864 292.980,372.914 292.800,373.111 292.800 C 373.503 292.800,375.996 287.564,376.006 286.721 C 376.011 286.341,376.128 286.363,376.437 286.800 C 376.769 287.267,376.823 287.152,376.682 286.277 C 376.548 285.442,376.643 285.208,377.051 285.364 C 377.384 285.492,377.602 285.305,377.605 284.887 C 377.607 284.509,378.051 283.429,378.590 282.486 C 379.129 281.543,379.395 280.879,379.182 281.011 C 378.491 281.438,378.262 279.937,378.795 278.464 C 379.446 276.663,380.161 275.933,380.970 276.244 C 381.543 276.464,381.824 275.821,381.647 274.700 C 381.621 274.535,381.799 274.400,382.043 274.400 C 382.286 274.400,382.382 274.130,382.255 273.800 C 382.129 273.470,382.172 273.200,382.352 273.200 C 382.827 273.200,384.025 269.963,383.728 269.483 C 383.584 269.251,383.674 269.199,383.938 269.362 C 384.240 269.548,384.400 269.304,384.400 268.657 C 384.400 268.112,384.588 267.604,384.817 267.528 C 385.046 267.451,385.276 266.727,385.328 265.917 C 385.379 265.107,385.581 264.300,385.775 264.122 C 385.977 263.938,385.989 264.041,385.802 264.362 C 385.593 264.722,385.629 264.829,385.903 264.660 C 386.137 264.515,386.278 264.083,386.216 263.698 C 386.154 263.314,386.282 262.775,386.500 262.500 C 386.719 262.225,386.764 262.000,386.600 262.000 C 386.436 262.000,386.520 261.738,386.785 261.418 C 387.051 261.097,387.153 260.647,387.011 260.418 C 386.869 260.188,386.973 260.000,387.243 260.000 C 387.513 260.000,387.615 259.882,387.470 259.737 C 387.325 259.592,387.374 259.273,387.578 259.027 C 387.782 258.781,388.022 258.135,388.113 257.590 C 388.203 257.046,388.404 256.312,388.558 255.960 C 388.713 255.608,388.786 255.068,388.720 254.760 C 388.654 254.452,388.819 254.243,389.086 254.295 C 389.353 254.348,389.480 254.154,389.369 253.864 C 389.258 253.575,389.379 252.812,389.638 252.169 C 389.897 251.526,390.184 250.375,390.275 249.611 C 390.366 248.847,390.567 248.127,390.720 248.011 C 390.984 247.812,391.049 247.497,391.280 245.300 C 391.332 244.805,391.494 244.400,391.641 244.400 C 391.787 244.400,391.923 243.905,391.943 243.300 C 392.040 240.328,392.229 239.200,392.632 239.200 C 392.875 239.200,393.086 238.525,393.101 237.700 C 393.140 235.528,393.330 234.400,393.656 234.400 C 393.813 234.400,393.872 233.852,393.788 233.182 C 393.703 232.512,393.831 231.477,394.072 230.882 C 394.313 230.287,394.562 228.770,394.625 227.510 C 394.688 226.251,394.875 225.002,395.041 224.734 C 395.206 224.467,395.382 222.747,395.431 220.913 C 395.487 218.832,395.724 217.327,396.060 216.912 C 396.387 216.509,396.412 216.359,396.124 216.532 C 395.816 216.717,395.669 216.542,395.707 216.036 C 395.740 215.607,395.874 215.322,396.006 215.404 C 396.138 215.485,396.283 211.063,396.328 205.576 C 396.406 195.996,396.379 195.600,395.646 195.600 C 395.163 195.600,371.905 172.517,332.369 132.800 C 297.988 98.260,269.709 70.000,269.529 70.000 C 269.348 70.000,269.200 79.234,269.200 90.520 M151.400 232.000 C 162.178 242.780,171.043 251.600,171.098 251.600 C 171.154 251.600,171.200 242.780,171.200 232.000 L 171.200 212.400 151.502 212.400 L 131.803 212.400 151.400 232.000 M342.000 336.173 C 342.000 336.268,341.415 336.733,340.700 337.206 L 339.400 338.066 340.600 337.035 C 341.831 335.978,342.000 335.873,342.000 336.173 " stroke="none" fill="#1c55a1" fill-rule="evenodd"></path><path id="path2" d="M183.046 3.887 C 182.658 4.275,181.769 4.381,178.500 4.431 C 176.905 4.455,175.600 4.597,175.600 4.746 C 175.600 4.896,174.391 5.073,172.914 5.139 C 171.436 5.205,170.068 5.358,169.874 5.478 C 169.679 5.598,168.413 5.855,167.060 6.048 C 161.809 6.797,161.200 6.912,161.199 7.152 C 161.199 7.288,160.524 7.446,159.699 7.503 C 156.948 7.692,148.565 9.809,148.195 10.409 C 148.073 10.605,147.732 10.672,147.436 10.559 C 146.908 10.356,140.477 12.058,139.508 12.657 C 139.236 12.825,138.741 12.991,138.407 13.025 C 137.380 13.133,130.722 15.566,130.145 16.046 C 129.845 16.295,129.600 16.399,129.600 16.277 C 129.600 15.997,124.772 17.939,124.100 18.489 C 123.825 18.714,123.600 18.796,123.600 18.672 C 123.600 18.547,122.205 19.080,120.500 19.855 C 118.795 20.630,116.770 21.550,116.000 21.899 C 115.230 22.248,114.285 22.802,113.900 23.129 C 113.515 23.456,113.200 23.612,113.200 23.476 C 113.200 23.160,108.683 25.606,108.355 26.100 C 108.221 26.303,108.035 26.408,107.942 26.334 C 107.649 26.100,104.400 27.705,104.400 28.084 C 104.400 28.284,104.219 28.335,103.997 28.198 C 103.776 28.061,103.487 28.230,103.355 28.572 C 103.224 28.915,102.955 29.096,102.758 28.974 C 102.561 28.852,102.400 28.913,102.400 29.110 C 102.400 29.306,102.175 29.469,101.900 29.473 C 101.154 29.482,95.200 33.197,95.200 33.654 C 95.200 33.870,95.047 33.953,94.861 33.837 C 94.674 33.722,94.174 33.936,93.750 34.314 C 93.325 34.691,92.338 35.327,91.556 35.727 C 90.774 36.127,89.661 36.892,89.084 37.427 C 88.507 37.962,87.932 38.400,87.806 38.400 C 87.372 38.400,80.198 43.655,79.341 44.601 C 78.869 45.122,78.394 45.461,78.287 45.353 C 78.179 45.246,77.735 45.611,77.299 46.165 C 76.863 46.719,76.421 47.088,76.318 46.985 C 76.214 46.881,75.065 47.811,73.765 49.051 C 72.464 50.290,71.356 51.236,71.301 51.152 C 71.202 51.000,64.229 57.413,60.811 60.800 C 55.160 66.400,43.600 79.805,43.600 80.758 C 43.600 81.001,43.453 81.200,43.272 81.200 C 43.092 81.200,41.877 82.775,40.572 84.700 C 39.268 86.625,38.095 88.290,37.966 88.400 C 36.612 89.559,27.095 105.362,27.505 105.771 C 27.630 105.897,27.513 106.000,27.243 106.000 C 26.973 106.000,26.855 106.165,26.979 106.366 C 27.103 106.567,27.042 106.792,26.842 106.866 C 26.294 107.069,19.577 120.839,19.829 121.246 C 19.949 121.441,19.878 121.600,19.670 121.600 C 19.463 121.600,19.162 122.005,19.000 122.500 C 18.839 122.995,18.669 123.490,18.621 123.600 C 18.574 123.710,18.144 124.671,17.666 125.736 C 17.188 126.801,16.899 127.836,17.022 128.036 C 17.146 128.236,17.074 128.400,16.863 128.400 C 16.427 128.400,15.489 130.797,15.921 130.806 C 16.074 130.809,16.004 130.944,15.763 131.106 C 14.637 131.864,9.530 148.911,8.006 157.000 C 7.757 158.320,7.391 159.940,7.193 160.600 C 6.995 161.260,6.790 162.565,6.738 163.500 C 6.686 164.435,6.515 165.200,6.359 165.200 C 6.202 165.200,5.973 166.145,5.850 167.300 C 5.728 168.455,5.436 170.750,5.203 172.400 C 4.970 174.050,4.690 176.750,4.580 178.400 C 4.471 180.050,4.211 181.908,4.002 182.529 C 3.536 183.911,3.479 216.800,3.942 216.800 C 4.122 216.800,4.314 217.925,4.369 219.300 C 4.424 220.675,4.539 222.430,4.624 223.200 C 5.122 227.690,5.496 230.271,5.725 230.800 C 5.868 231.130,6.073 232.210,6.181 233.200 C 6.421 235.420,7.012 238.795,7.302 239.600 C 7.420 239.930,7.744 241.505,8.023 243.100 C 8.301 244.695,8.690 246.000,8.888 246.000 C 9.085 246.000,9.127 246.194,8.980 246.432 C 8.834 246.669,8.935 247.704,9.206 248.732 C 11.383 257.002,14.190 265.891,14.841 266.580 C 15.038 266.789,15.200 267.374,15.200 267.880 C 15.200 268.386,15.410 268.800,15.667 268.800 C 15.923 268.800,16.028 268.905,15.899 269.034 C 15.565 269.369,16.403 271.600,16.863 271.600 C 17.074 271.600,17.146 271.764,17.022 271.964 C 16.899 272.164,17.188 273.199,17.666 274.264 C 18.144 275.329,18.560 276.290,18.592 276.400 C 18.623 276.510,18.953 277.297,19.324 278.149 C 19.696 279.001,20.000 279.834,20.000 280.000 C 20.000 280.166,20.274 280.530,20.610 280.808 C 20.945 281.086,21.139 281.395,21.040 281.493 C 20.796 281.737,26.399 292.965,26.848 293.134 C 27.045 293.208,27.103 293.433,26.979 293.634 C 26.855 293.835,26.973 294.000,27.243 294.000 C 27.513 294.000,27.630 294.103,27.505 294.229 C 27.092 294.641,35.732 308.983,38.090 311.800 C 38.274 312.020,39.783 314.146,41.442 316.524 C 43.101 318.902,44.715 320.946,45.027 321.066 C 45.340 321.186,45.514 321.416,45.414 321.577 C 45.314 321.739,46.125 322.837,47.216 324.018 C 48.307 325.198,49.200 326.294,49.200 326.453 C 49.200 326.612,49.659 327.103,50.221 327.545 C 50.782 327.986,51.230 328.494,51.217 328.674 C 51.203 328.853,52.885 330.800,54.954 333.000 C 57.023 335.200,59.294 337.675,60.000 338.500 C 60.705 339.325,61.545 340.000,61.865 340.000 C 62.185 340.000,62.336 340.180,62.200 340.400 C 62.064 340.620,62.122 340.800,62.330 340.800 C 62.537 340.800,63.949 342.015,65.469 343.500 C 66.988 344.985,68.764 346.664,69.415 347.231 C 74.361 351.534,76.402 353.193,76.412 352.919 C 76.419 352.743,76.602 352.905,76.819 353.277 C 77.287 354.079,84.543 359.600,85.129 359.600 C 85.352 359.600,85.593 359.735,85.667 359.900 C 86.061 360.788,94.588 366.479,94.962 366.104 C 95.093 365.974,95.200 366.061,95.200 366.299 C 95.200 366.835,99.032 369.235,99.361 368.906 C 99.492 368.774,99.600 368.844,99.600 369.060 C 99.600 369.532,102.797 371.393,102.806 370.926 C 102.809 370.747,102.944 370.801,103.106 371.046 C 103.528 371.686,107.999 374.143,108.006 373.738 C 108.009 373.552,108.144 373.597,108.306 373.838 C 108.766 374.524,116.439 378.423,116.841 378.175 C 117.038 378.053,117.200 378.119,117.200 378.322 C 117.200 378.610,122.692 381.278,123.600 381.432 C 123.710 381.450,124.610 381.830,125.600 382.275 C 127.108 382.953,128.689 383.562,129.600 383.816 C 129.710 383.847,130.520 384.193,131.400 384.585 C 132.280 384.977,133.405 385.298,133.900 385.299 C 134.395 385.299,134.800 385.451,134.800 385.635 C 134.800 385.929,137.520 386.908,138.600 387.002 C 138.820 387.021,139.360 387.225,139.800 387.455 C 140.240 387.685,142.130 388.283,144.000 388.785 C 145.870 389.287,148.570 390.015,150.000 390.403 C 154.237 391.552,158.098 392.376,159.700 392.473 C 160.525 392.523,161.200 392.689,161.200 392.841 C 161.200 392.994,162.055 393.226,163.100 393.355 C 167.529 393.906,168.230 394.016,168.800 394.253 C 169.558 394.568,174.481 395.168,178.400 395.423 C 180.050 395.531,181.910 395.790,182.533 396.000 C 183.997 396.493,216.253 396.507,217.173 396.015 C 217.550 395.813,219.375 395.554,221.229 395.440 C 226.945 395.088,234.960 393.804,232.500 393.634 C 232.225 393.615,232.000 393.368,232.000 393.085 C 232.000 392.802,218.413 379.003,201.806 362.422 L 171.611 332.273 171.506 292.138 L 171.400 252.003 151.100 231.700 L 130.800 211.397 130.800 188.179 C 130.800 170.653,130.918 164.842,131.280 164.480 C 131.640 164.120,136.665 164.000,151.433 164.000 L 171.107 164.000 171.348 163.100 C 171.481 162.605,171.592 153.004,171.595 141.765 C 171.599 126.217,171.735 120.429,172.166 117.561 C 176.714 87.266,195.708 69.774,226.883 67.174 C 233.972 66.583,255.120 67.360,266.800 68.641 C 268.593 68.837,268.855 69.094,331.800 132.237 C 369.236 169.790,395.287 195.628,395.705 195.618 C 396.484 195.598,396.742 184.187,395.995 182.792 C 395.804 182.434,395.547 180.625,395.423 178.771 C 394.995 172.344,394.730 170.000,394.434 170.000 C 394.271 170.000,394.096 168.979,394.045 167.730 C 393.995 166.482,393.784 165.143,393.577 164.756 C 393.369 164.369,393.200 163.509,393.200 162.845 C 393.200 162.181,393.039 161.224,392.841 160.719 C 392.644 160.213,392.260 158.540,391.987 157.000 C 391.212 152.622,389.199 145.014,388.777 144.866 C 388.567 144.792,388.502 144.558,388.633 144.346 C 388.936 143.857,385.604 133.600,385.142 133.600 C 384.954 133.600,384.800 133.082,384.800 132.449 C 384.800 131.816,384.522 131.067,384.182 130.785 C 383.842 130.503,383.654 130.036,383.765 129.747 C 383.875 129.459,383.712 128.969,383.402 128.659 C 383.092 128.349,382.924 128.009,383.029 127.904 C 383.134 127.799,382.826 126.833,382.345 125.757 C 381.863 124.680,381.499 123.665,381.535 123.500 C 381.571 123.335,381.420 123.200,381.200 123.200 C 380.980 123.200,380.800 122.840,380.800 122.400 C 380.800 121.960,380.658 121.600,380.485 121.600 C 380.312 121.600,380.142 121.220,380.107 120.755 C 380.072 120.291,379.735 119.571,379.359 119.155 C 378.984 118.740,378.795 118.400,378.941 118.400 C 379.918 118.400,366.387 93.788,365.123 93.267 C 364.945 93.193,364.800 92.878,364.800 92.567 C 364.800 92.255,364.620 92.000,364.400 92.000 C 364.180 92.000,364.000 91.756,364.000 91.458 C 364.000 91.161,363.555 90.436,363.010 89.849 C 362.466 89.262,362.054 88.740,362.094 88.690 C 362.254 88.495,357.020 81.200,356.720 81.200 C 356.544 81.200,356.400 80.943,356.400 80.629 C 356.400 80.315,355.956 79.709,355.414 79.282 C 354.871 78.855,354.516 78.418,354.624 78.310 C 354.732 78.201,353.919 77.153,352.818 75.980 C 351.717 74.807,350.767 73.708,350.708 73.537 C 350.571 73.142,347.182 69.297,342.731 64.487 C 338.986 60.440,333.805 55.522,328.399 50.884 C 326.529 49.280,324.634 47.615,324.186 47.184 C 323.738 46.753,323.243 46.400,323.086 46.400 C 322.929 46.400,322.465 46.085,322.056 45.700 C 320.270 44.019,315.200 40.208,315.200 40.546 C 315.200 40.665,314.705 40.299,314.100 39.733 C 311.415 37.223,299.536 29.820,298.987 30.316 C 298.813 30.472,298.781 30.407,298.915 30.172 C 299.056 29.924,297.444 28.846,295.079 27.607 C 286.298 23.007,281.844 20.849,281.529 21.044 C 281.348 21.156,281.200 21.046,281.200 20.800 C 281.200 20.554,281.020 20.464,280.800 20.600 C 280.580 20.736,280.400 20.693,280.400 20.506 C 280.400 20.233,277.244 18.702,276.404 18.567 C 276.292 18.549,275.300 18.129,274.200 17.632 C 272.073 16.673,268.107 15.123,265.292 14.152 C 264.352 13.828,263.380 13.689,263.130 13.843 C 262.881 13.997,262.784 13.950,262.915 13.737 C 263.189 13.294,258.930 11.872,258.369 12.219 C 258.166 12.345,258.000 12.286,258.000 12.089 C 258.000 11.635,253.280 10.304,252.776 10.615 C 252.569 10.743,252.400 10.681,252.400 10.478 C 252.400 10.138,250.754 9.681,244.200 8.201 C 239.704 7.185,237.359 6.772,235.500 6.668 C 235.115 6.646,234.800 6.508,234.800 6.361 C 234.800 6.215,234.125 6.074,233.300 6.050 C 231.740 6.004,231.015 5.881,230.000 5.489 C 229.466 5.283,227.914 5.082,223.200 4.609 C 222.430 4.532,220.756 4.422,219.481 4.365 C 218.205 4.308,217.072 4.117,216.963 3.940 C 216.724 3.553,183.432 3.501,183.046 3.887 M388.934 253.829 C 388.682 254.363,388.619 254.888,388.795 254.997 C 388.971 255.106,389.233 254.724,389.377 254.150 C 389.722 252.773,389.506 252.616,388.934 253.829 M379.752 276.542 C 378.329 278.170,378.033 281.935,379.418 280.785 C 379.753 280.507,379.961 280.084,379.881 279.844 C 379.801 279.604,379.975 279.168,380.268 278.875 C 380.561 278.582,380.800 277.996,380.800 277.571 C 380.800 277.147,381.025 276.797,381.300 276.794 C 381.633 276.790,381.600 276.658,381.200 276.400 C 380.436 275.906,380.297 275.920,379.752 276.542 M372.104 294.100 C 371.888 294.375,371.595 295.140,371.454 295.800 L 371.197 297.000 371.759 296.000 C 372.068 295.450,372.323 294.840,372.326 294.645 C 372.329 294.449,372.572 294.137,372.866 293.951 C 373.187 293.747,373.220 293.610,372.949 293.606 C 372.701 293.603,372.321 293.825,372.104 294.100 M358.300 316.087 C 357.915 316.568,357.604 317.151,357.609 317.381 C 357.619 317.840,359.177 315.987,359.191 315.500 C 359.205 315.041,359.059 315.136,358.300 316.087 M344.762 332.805 C 343.588 334.040,343.477 334.614,344.625 333.512 C 345.248 332.914,345.677 332.359,345.579 332.279 C 345.480 332.199,345.113 332.436,344.762 332.805 M340.600 336.988 C 339.940 337.529,339.542 337.978,339.716 337.986 C 339.889 337.994,339.799 338.251,339.516 338.558 C 339.232 338.865,338.865 339.034,338.700 338.934 C 338.535 338.835,338.400 339.067,338.400 339.451 C 338.400 340.016,338.629 339.931,339.596 339.004 C 340.254 338.374,340.711 337.778,340.613 337.680 C 340.514 337.581,340.831 337.169,341.317 336.764 C 341.803 336.358,342.110 336.022,342.000 336.015 C 341.890 336.009,341.260 336.447,340.600 336.988 M333.188 344.016 C 332.865 344.220,332.780 344.396,333.000 344.406 C 333.220 344.416,333.085 344.608,332.700 344.832 C 332.315 345.056,332.000 345.452,332.000 345.711 C 332.000 345.970,332.485 345.696,333.079 345.103 C 334.181 344.001,334.247 343.346,333.188 344.016 M328.800 348.200 C 328.517 348.541,328.376 348.909,328.486 349.019 C 328.596 349.129,328.917 348.941,329.200 348.600 C 329.483 348.259,329.624 347.891,329.514 347.781 C 329.404 347.671,329.083 347.859,328.800 348.200 M323.656 352.655 C 323.176 353.727,323.186 353.758,323.818 353.139 C 324.189 352.776,324.420 352.260,324.331 351.994 C 324.242 351.727,323.939 352.025,323.656 352.655 M313.362 360.462 L 312.600 361.324 313.700 360.616 C 314.834 359.886,315.049 359.600,314.462 359.600 C 314.276 359.600,313.781 359.988,313.362 360.462 M307.656 364.013 C 306.936 364.612,306.865 364.800,307.356 364.800 C 307.710 364.800,308.000 364.609,308.000 364.376 C 308.000 364.143,308.160 364.051,308.355 364.172 C 308.550 364.293,308.932 364.123,309.204 363.796 C 309.961 362.883,308.820 363.044,307.656 364.013 M302.962 367.138 C 303.119 367.392,303.102 367.615,302.924 367.633 C 302.746 367.652,302.178 367.713,301.663 367.769 C 301.148 367.826,300.566 368.126,300.369 368.436 C 299.840 369.272,299.924 369.604,300.600 369.345 C 300.930 369.218,301.200 368.954,301.200 368.757 C 301.200 368.561,301.436 368.400,301.724 368.400 C 302.692 368.400,303.786 367.362,303.199 366.999 C 302.854 366.786,302.773 366.833,302.962 367.138 M299.200 369.643 C 299.200 369.886,298.930 369.982,298.600 369.855 C 298.231 369.714,298.000 369.856,298.000 370.227 C 298.000 370.704,298.165 370.740,298.800 370.400 C 299.512 370.019,299.921 369.200,299.400 369.200 C 299.290 369.200,299.200 369.399,299.200 369.643 M296.689 370.805 C 295.797 371.846,295.814 372.123,296.733 371.549 C 297.137 371.297,297.467 370.845,297.467 370.545 C 297.467 369.862,297.507 369.849,296.689 370.805 M294.900 371.488 C 294.625 371.586,294.400 371.935,294.400 372.262 C 294.400 372.767,294.498 372.759,295.048 372.210 C 295.752 371.506,295.690 371.206,294.900 371.488 M289.819 374.694 C 289.659 375.113,289.798 375.125,290.509 374.755 C 291.763 374.103,291.799 374.035,290.856 374.106 C 290.397 374.140,289.930 374.405,289.819 374.694 M286.700 376.106 C 285.875 376.565,285.200 377.117,285.200 377.332 C 285.200 377.548,285.560 377.398,286.000 377.000 C 286.440 376.602,286.800 376.422,286.800 376.600 C 286.800 376.778,287.179 376.581,287.642 376.162 C 288.105 375.743,288.570 375.460,288.675 375.533 C 288.781 375.607,288.972 375.562,289.100 375.433 C 289.634 374.899,288.091 375.331,286.700 376.106 M282.381 378.096 C 281.889 378.494,281.589 378.923,281.715 379.048 C 281.840 379.173,282.262 378.903,282.653 378.447 C 283.078 377.950,283.465 377.782,283.617 378.027 C 283.780 378.292,284.028 378.248,284.313 377.905 C 285.006 377.070,283.459 377.223,282.381 378.096 M280.000 379.200 C 280.000 379.420,279.550 379.600,279.000 379.600 C 278.405 379.600,278.000 379.829,278.000 380.165 C 278.000 380.627,278.219 380.648,279.200 380.278 C 279.860 380.028,280.400 379.673,280.400 379.489 C 280.400 379.304,280.608 379.281,280.862 379.438 C 281.148 379.615,281.215 379.548,281.038 379.262 C 280.688 378.695,280.000 378.654,280.000 379.200 M276.246 380.975 C 276.367 381.291,276.721 381.452,277.033 381.332 C 277.868 381.012,277.723 380.400,276.813 380.400 C 276.292 380.400,276.100 380.595,276.246 380.975 M272.940 382.020 C 272.984 382.262,273.150 382.447,273.310 382.430 C 273.470 382.413,273.870 382.400,274.200 382.400 C 274.530 382.400,274.800 382.214,274.800 381.986 C 274.800 381.702,274.559 381.701,274.032 381.983 C 273.513 382.261,273.199 382.262,273.062 381.987 C 272.941 381.743,272.892 381.756,272.940 382.020 M268.400 384.090 C 268.400 384.287,268.175 384.320,267.900 384.165 C 267.534 383.958,267.516 384.009,267.833 384.354 C 268.071 384.614,268.566 384.711,268.933 384.570 C 269.763 384.252,269.804 383.733,269.000 383.733 C 268.670 383.733,268.400 383.894,268.400 384.090 M266.255 385.000 C 266.129 385.330,266.199 385.600,266.413 385.600 C 266.626 385.600,266.800 385.409,266.800 385.176 C 266.800 384.943,267.008 384.881,267.262 385.038 C 267.548 385.215,267.615 385.148,267.438 384.862 C 267.044 384.224,266.530 384.284,266.255 385.000 M257.607 387.496 C 257.281 387.624,256.741 388.005,256.407 388.342 C 255.864 388.891,255.877 388.926,256.533 388.678 C 256.936 388.525,257.411 388.400,257.590 388.400 C 257.768 388.400,258.018 388.130,258.145 387.800 C 258.271 387.470,258.336 387.214,258.287 387.232 C 258.239 387.249,257.933 387.368,257.607 387.496 M251.800 389.200 C 251.936 389.420,251.722 389.621,251.324 389.646 C 250.572 389.694,250.014 389.799,249.500 389.989 C 249.335 390.050,249.035 390.123,248.833 390.150 C 248.632 390.178,248.340 390.327,248.184 390.482 C 247.915 390.751,248.883 390.651,251.300 390.160 C 252.330 389.951,252.903 388.800,251.976 388.800 C 251.743 388.800,251.664 388.980,251.800 389.200 M246.189 390.817 C 246.059 391.028,245.558 391.214,245.076 391.232 C 244.594 391.249,244.431 391.356,244.713 391.469 C 244.995 391.583,245.535 391.540,245.913 391.375 C 246.291 391.209,246.825 391.110,247.100 391.154 C 247.788 391.265,247.730 390.935,247.013 390.660 C 246.690 390.536,246.319 390.607,246.189 390.817 M242.000 392.000 C 241.467 392.345,241.467 392.388,242.000 392.388 C 242.330 392.388,242.870 392.213,243.200 392.000 C 243.733 391.655,243.733 391.612,243.200 391.612 C 242.870 391.612,242.330 391.787,242.000 392.000 " stroke="none" fill="#1b74f3" fill-rule="evenodd"></path><path id="path3" d="M224.600 67.382 C 194.652 70.736,176.602 88.010,172.166 117.561 C 171.735 120.429,171.599 126.217,171.595 141.765 C 171.592 153.004,171.481 162.605,171.348 163.100 L 171.107 164.000 151.433 164.000 C 136.665 164.000,131.640 164.120,131.280 164.480 C 130.587 165.173,130.587 211.227,131.280 211.920 C 131.640 212.280,136.661 212.400,151.414 212.400 L 171.068 212.400 171.334 242.700 C 171.480 259.365,171.600 286.436,171.600 302.857 C 171.600 329.714,171.664 332.739,172.233 332.957 C 173.861 333.582,219.928 333.214,220.571 332.571 C 221.137 332.006,221.200 325.976,221.200 272.171 L 221.200 212.400 240.924 212.400 C 263.146 212.400,261.772 212.607,262.150 209.200 C 262.284 207.990,262.570 205.650,262.785 204.000 C 263.000 202.350,263.373 199.470,263.613 197.600 C 263.854 195.730,264.208 193.030,264.400 191.600 C 264.592 190.170,264.946 187.470,265.187 185.600 C 266.249 177.348,266.425 176.002,266.884 172.600 C 267.151 170.620,267.377 167.920,267.385 166.600 L 267.400 164.200 244.400 164.000 L 221.400 163.800 221.296 146.495 C 221.099 113.871,222.862 112.001,253.820 112.000 C 264.502 112.000,268.364 111.876,268.720 111.520 C 269.507 110.733,269.402 69.865,268.611 69.209 C 266.926 67.811,233.253 66.413,224.600 67.382 M258.600 68.620 C 262.780 68.945,266.695 69.313,267.300 69.437 L 268.400 69.664 268.400 90.396 L 268.400 111.129 252.700 111.315 C 235.751 111.517,234.908 111.609,230.200 113.781 C 226.805 115.347,224.411 117.602,222.867 120.688 C 220.662 125.095,220.600 125.789,220.600 146.000 L 220.600 164.600 243.700 164.703 L 266.800 164.806 266.800 165.915 C 266.800 166.524,266.434 169.897,265.987 173.411 C 264.849 182.360,263.703 191.233,263.197 195.000 C 262.961 196.760,262.602 199.550,262.399 201.200 C 261.440 208.996,261.132 211.022,260.860 211.296 C 260.699 211.459,251.575 211.639,240.584 211.696 L 220.600 211.800 220.499 271.561 C 220.425 315.128,220.275 331.468,219.947 331.864 C 219.576 332.311,215.363 332.388,195.848 332.303 L 172.200 332.200 172.000 272.000 L 171.800 211.800 151.746 211.696 L 131.691 211.593 131.451 210.696 C 131.137 209.524,131.138 166.873,131.452 165.700 L 131.693 164.800 151.604 164.800 C 169.391 164.800,171.540 164.733,171.757 164.167 C 171.891 163.819,172.002 154.774,172.003 144.067 C 172.010 109.165,175.282 97.334,188.653 83.872 C 202.812 69.618,220.861 65.682,258.600 68.620 " stroke="none" fill="#6d8ebc" fill-rule="evenodd"></path></g></svg>