<svg id="svg" version="1.1" xmlns="http://www.w3.org/2000/svg" xmlns:xlink="http://www.w3.org/1999/xlink" width="400" height="400" viewBox="0, 0, 400,400"><g id="svgg"><path id="path0" d="M363.400 54.739 C 360.540 56.220,356.670 58.227,354.800 59.200 C 346.152 63.699,325.288 76.308,324.867 77.289 C 324.793 77.460,324.523 77.600,324.267 77.599 C 322.882 77.597,311.645 85.769,310.968 87.271 C 310.488 88.335,309.438 89.414,307.634 90.696 C 290.344 102.985,275.745 114.950,259.466 130.172 C 252.203 136.962,251.171 140.446,255.507 143.534 C 258.849 145.914,260.909 145.077,267.936 138.486 C 284.672 122.788,308.467 103.680,310.732 104.120 C 311.600 104.289,312.735 103.665,316.800 100.785 C 319.550 98.837,324.343 95.569,327.450 93.522 C 331.950 90.558,333.174 89.556,333.463 88.600 C 333.852 87.314,335.930 85.890,347.400 79.045 C 354.758 74.654,355.413 74.338,356.547 74.622 C 357.482 74.857,362.283 72.792,362.845 71.914 C 362.979 71.704,363.205 71.548,363.346 71.568 C 364.418 71.719,375.672 65.444,376.899 64.010 C 379.493 60.979,379.275 56.836,376.367 53.929 L 374.438 52.000 371.519 52.024 C 368.717 52.046,368.391 52.156,363.400 54.739 M383.183 69.619 C 382.862 69.822,382.150 69.995,381.600 70.004 C 379.855 70.033,373.147 72.432,368.400 74.724 C 366.750 75.521,365.304 76.147,365.186 76.115 C 364.818 76.016,360.991 78.193,361.168 78.402 C 361.589 78.900,360.216 80.477,358.687 81.251 C 356.606 82.305,346.050 88.664,342.049 91.274 C 339.072 93.217,337.427 93.633,336.421 92.700 C 336.125 92.425,335.994 92.399,336.129 92.642 C 336.268 92.892,335.251 93.846,333.788 94.839 C 332.364 95.804,331.200 96.730,331.200 96.897 C 331.200 97.064,331.003 97.200,330.763 97.200 C 330.096 97.200,315.600 107.979,315.600 108.474 C 315.600 108.654,315.401 108.800,315.158 108.800 C 314.242 108.800,311.715 111.215,311.022 112.752 C 310.462 113.993,308.493 115.829,302.196 120.979 C 272.951 144.899,234.643 181.588,217.400 202.191 C 216.300 203.506,214.095 206.110,212.500 207.978 C 210.905 209.846,209.600 211.651,209.600 211.988 C 209.600 213.091,257.408 260.548,258.116 260.148 C 261.292 258.357,283.205 238.083,297.563 223.653 C 307.376 213.790,309.933 211.426,310.795 211.414 C 311.941 211.399,315.803 207.539,326.600 195.620 C 335.532 185.760,349.114 169.835,353.910 163.600 C 354.502 162.830,356.336 160.490,357.986 158.400 C 359.635 156.310,362.912 151.990,365.267 148.800 C 367.622 145.610,369.930 142.509,370.397 141.909 C 378.053 132.068,392.313 108.045,396.063 98.670 C 397.801 94.326,398.800 91.373,398.800 90.582 C 398.800 90.130,399.025 89.535,399.300 89.260 C 399.660 88.900,399.800 86.891,399.800 82.080 C 399.800 73.627,398.714 71.545,393.346 69.704 C 391.806 69.176,383.987 69.110,383.183 69.619 M164.500 273.700 C 163.298 275.210,157.449 285.506,154.882 290.630 C 149.455 301.461,144.460 316.125,143.353 324.473 L 143.097 326.400 144.448 326.393 C 149.777 326.364,164.133 322.476,173.200 318.606 C 180.037 315.688,196.218 306.540,196.682 305.331 C 196.894 304.779,165.904 273.200,165.151 273.200 C 165.012 273.200,164.719 273.425,164.500 273.700 " stroke="none" fill="#435b6b" fill-rule="evenodd"></path><path id="path1" d="M0.097 194.700 C 0.204 396.916,0.167 392.285,1.654 391.367 C 1.839 391.252,1.884 391.438,1.753 391.779 C 1.622 392.121,1.714 392.400,1.957 392.400 C 2.201 392.400,2.400 392.659,2.400 392.976 C 2.400 393.293,2.608 393.681,2.862 393.838 C 3.167 394.027,3.214 393.946,3.000 393.600 C 2.784 393.251,2.833 393.173,3.145 393.366 C 3.402 393.525,3.505 393.831,3.372 394.046 C 3.046 394.573,6.654 398.138,7.182 397.811 C 7.412 397.669,7.600 397.795,7.600 398.090 C 7.600 398.386,8.123 398.936,8.762 399.314 C 10.102 400.106,10.562 400.186,10.175 399.560 C 9.978 399.240,10.128 399.240,10.725 399.560 C 11.318 399.877,43.125 400.000,124.474 400.000 L 237.400 400.000 237.287 372.940 C 237.224 358.057,237.339 344.367,237.542 342.518 C 238.348 335.186,243.100 329.633,250.183 327.747 C 253.444 326.878,309.145 326.955,310.224 327.830 C 310.651 328.176,310.775 328.345,310.500 328.206 C 310.225 328.067,310.000 328.107,310.000 328.295 C 310.000 329.052,304.848 334.625,302.045 336.900 C 301.300 337.505,300.841 338.000,301.024 338.000 C 301.357 338.000,295.291 343.913,293.481 345.354 C 292.960 345.769,292.189 346.623,291.767 347.253 C 291.345 347.883,290.775 348.398,290.500 348.399 C 290.225 348.399,290.000 348.588,290.000 348.818 C 290.000 349.401,288.139 351.205,287.842 350.909 C 287.709 350.776,287.600 350.885,287.600 351.151 C 287.600 351.791,282.507 356.774,282.184 356.450 C 282.046 356.313,281.993 356.470,282.067 356.800 C 282.140 357.130,281.975 357.355,281.700 357.300 C 281.425 357.245,281.200 357.384,281.200 357.609 C 281.200 358.052,276.985 362.400,276.556 362.400 C 276.198 362.400,274.800 364.041,274.800 364.461 C 274.800 364.648,274.530 364.800,274.200 364.800 C 273.870 364.800,273.645 364.942,273.700 365.115 C 273.841 365.559,271.737 367.604,271.442 367.309 C 271.309 367.176,271.200 367.271,271.200 367.521 C 271.200 367.771,268.770 370.420,265.800 373.407 C 262.830 376.395,260.400 378.726,260.400 378.589 C 260.400 378.451,259.905 378.936,259.300 379.665 C 257.571 381.750,256.074 383.141,255.827 382.894 C 255.702 382.769,255.600 382.866,255.600 383.110 C 255.600 383.555,245.869 393.380,242.834 396.000 C 241.942 396.770,241.209 397.625,241.206 397.900 C 241.203 398.175,240.930 398.400,240.600 398.400 C 240.270 398.400,240.000 398.655,240.000 398.967 C 240.000 399.278,239.775 399.624,239.500 399.735 C 239.225 399.846,239.180 399.951,239.401 399.968 C 239.621 399.986,255.911 383.890,275.601 364.199 L 311.400 328.398 311.504 270.199 C 311.594 219.886,311.530 212.000,311.035 212.000 C 310.719 212.000,304.642 217.820,297.531 224.933 C 281.841 240.625,261.767 259.051,257.366 261.800 C 255.542 262.939,246.400 270.517,246.400 270.889 C 246.400 271.060,255.544 271.200,266.720 271.200 C 281.991 271.200,287.159 271.319,287.520 271.680 C 288.329 272.489,288.187 287.043,287.367 287.357 C 287.019 287.491,272.690 287.600,255.525 287.600 L 224.316 287.600 218.458 291.742 C 215.236 294.020,209.540 297.908,205.800 300.381 C 202.060 302.854,198.640 305.205,198.200 305.606 C 192.727 310.593,170.325 321.490,160.000 324.186 C 147.121 327.550,142.709 327.958,142.465 325.809 C 141.970 321.460,147.267 304.651,152.854 292.840 C 154.144 290.112,155.200 287.817,155.200 287.740 C 155.200 287.663,147.385 287.600,137.833 287.600 C 128.281 287.600,120.181 287.491,119.833 287.357 C 118.879 286.991,118.879 271.809,119.833 271.443 C 120.181 271.309,130.486 271.197,142.733 271.194 C 154.980 271.191,165.196 271.056,165.436 270.894 C 165.675 270.732,167.182 268.530,168.785 266.000 C 177.785 251.790,193.451 230.236,204.400 217.000 C 205.855 215.240,207.624 212.953,208.331 211.917 C 209.037 210.882,210.959 208.452,212.602 206.517 C 214.244 204.583,215.591 202.865,215.594 202.700 C 215.597 202.535,194.315 202.398,168.300 202.395 C 142.285 202.392,120.591 202.280,120.092 202.146 L 119.183 201.902 119.292 194.051 L 119.400 186.200 175.200 186.000 L 231.000 185.800 239.800 176.844 C 259.103 157.199,281.877 136.413,302.846 119.300 C 311.723 112.056,311.600 112.215,311.600 108.014 C 311.600 105.011,311.545 104.800,310.756 104.800 C 308.338 104.800,283.058 125.416,266.687 140.739 C 260.388 146.634,256.139 147.127,253.198 142.304 C 250.427 137.760,252.004 135.494,267.600 121.604 C 269.910 119.547,271.860 117.715,271.933 117.532 C 272.007 117.349,237.976 117.200,196.310 117.200 C 136.227 117.200,120.411 117.096,119.867 116.699 C 119.254 116.251,119.193 115.391,119.291 108.599 L 119.400 101.000 203.600 101.000 L 287.800 101.000 287.924 102.500 C 288.085 104.439,287.993 104.468,292.200 101.142 C 294.180 99.576,298.999 95.957,302.909 93.100 C 306.818 90.242,310.373 87.451,310.809 86.898 C 311.586 85.910,311.600 85.129,311.600 42.946 L 311.600 0.000 309.994 -0.000 C 308.477 -0.000,308.131 0.257,303.808 4.600 C 301.290 7.130,299.074 9.200,298.884 9.200 C 298.694 9.200,297.128 10.685,295.404 12.500 C 284.364 24.123,284.704 23.841,283.409 22.409 C 283.015 21.975,282.509 21.732,282.285 21.871 C 282.060 22.010,281.992 21.936,282.134 21.707 C 282.448 21.199,281.445 20.288,281.030 20.703 C 280.867 20.867,280.793 20.812,280.867 20.583 C 281.034 20.060,269.182 8.001,268.500 8.000 C 268.225 8.000,268.000 7.814,268.000 7.586 C 268.000 5.973,260.627 0.000,258.635 0.000 L 256.587 0.000 251.993 4.683 C 249.467 7.259,247.850 9.014,248.400 8.583 L 249.400 7.800 248.647 8.691 C 248.232 9.180,247.738 9.485,247.548 9.368 C 247.073 9.074,243.600 12.386,243.600 13.132 C 243.600 13.463,243.508 13.641,243.396 13.529 C 243.099 13.233,234.979 21.600,235.110 22.067 C 235.170 22.283,235.059 22.360,234.863 22.239 C 234.667 22.118,234.168 22.417,233.753 22.903 C 233.009 23.775,233.010 23.779,233.800 23.193 C 234.547 22.639,234.562 22.648,234.032 23.323 C 233.503 23.996,233.266 23.849,230.580 21.180 C 228.993 19.604,227.613 18.469,227.513 18.657 C 227.413 18.846,227.378 18.796,227.435 18.546 C 227.580 17.918,225.423 15.918,225.008 16.294 C 224.823 16.462,224.782 16.407,224.916 16.170 C 225.231 15.617,219.469 9.874,219.014 10.288 C 218.826 10.460,218.785 10.401,218.924 10.158 C 219.156 9.749,217.553 7.864,217.170 8.096 C 217.077 8.153,217.051 8.119,217.112 8.021 C 217.354 7.637,210.633 1.255,210.229 1.484 C 209.993 1.619,209.933 1.581,210.097 1.401 C 210.771 0.656,209.434 0.000,207.242 0.000 L 204.982 0.000 201.679 3.321 C 199.862 5.147,198.516 6.796,198.688 6.985 C 198.859 7.174,198.803 7.216,198.561 7.078 C 198.009 6.764,195.880 8.936,196.294 9.392 C 196.462 9.577,196.401 9.615,196.159 9.477 C 195.657 9.191,184.141 20.643,184.310 21.259 C 184.370 21.479,184.262 21.562,184.068 21.442 C 183.727 21.232,181.698 23.094,181.900 23.432 C 182.592 24.593,181.109 23.299,176.681 18.880 C 173.755 15.961,171.280 13.623,171.181 13.686 C 171.081 13.749,171.051 13.719,171.114 13.619 C 171.326 13.284,160.257 2.441,159.917 2.651 C 159.732 2.766,159.630 2.621,159.690 2.330 C 159.751 2.038,159.575 1.845,159.300 1.900 C 159.025 1.955,158.845 1.775,158.900 1.500 C 158.955 1.225,158.775 1.045,158.500 1.100 C 158.225 1.155,158.045 0.975,158.100 0.700 C 158.327 -0.435,153.607 -0.156,152.359 1.040 C 151.737 1.635,151.325 2.279,151.444 2.471 C 151.562 2.663,151.421 2.770,151.130 2.710 C 150.838 2.649,150.645 2.825,150.700 3.100 C 150.755 3.375,150.575 3.555,150.300 3.500 C 150.025 3.445,149.849 3.638,149.910 3.930 C 149.970 4.221,149.866 4.364,149.678 4.248 C 149.296 4.012,145.232 7.973,145.212 8.600 C 145.206 8.820,145.065 9.003,144.900 9.006 C 144.224 9.020,143.605 9.686,143.858 10.128 C 144.006 10.387,143.977 10.462,143.792 10.294 C 143.400 9.939,141.200 11.920,141.200 12.629 C 141.200 12.892,140.705 13.431,140.100 13.826 C 138.147 15.100,135.214 18.099,135.475 18.556 C 135.614 18.800,135.581 18.867,135.401 18.703 C 134.980 18.322,133.936 19.173,134.234 19.655 C 134.358 19.856,134.221 19.970,133.930 19.910 C 133.636 19.849,133.460 20.068,133.533 20.400 C 133.607 20.730,133.528 20.861,133.358 20.691 C 133.188 20.521,132.294 21.123,131.371 22.028 C 130.314 23.066,129.592 23.511,129.419 23.231 C 129.268 22.987,128.973 22.893,128.762 23.023 C 128.552 23.153,128.430 23.021,128.490 22.730 C 128.551 22.438,128.362 22.249,128.070 22.310 C 127.779 22.370,127.636 22.265,127.754 22.075 C 128.046 21.602,125.026 18.707,124.641 19.092 C 124.472 19.261,124.393 19.130,124.467 18.800 C 124.540 18.470,124.375 18.245,124.100 18.300 C 123.825 18.355,123.645 18.242,123.700 18.049 C 123.816 17.642,116.465 10.200,115.947 10.200 C 115.756 10.200,115.618 10.048,115.639 9.863 C 115.702 9.319,113.511 7.208,113.129 7.444 C 112.937 7.562,112.830 7.421,112.890 7.130 C 112.951 6.838,112.762 6.649,112.470 6.710 C 112.179 6.770,112.036 6.666,112.152 6.477 C 112.445 6.004,108.627 2.306,108.243 2.690 C 108.073 2.861,107.993 2.730,108.067 2.400 C 108.140 2.068,107.964 1.849,107.670 1.910 C 107.375 1.971,107.260 1.827,107.411 1.583 C 107.563 1.336,107.317 1.051,106.845 0.928 C 106.385 0.807,106.108 0.550,106.228 0.355 C 106.349 0.160,105.398 -0.000,104.116 -0.000 L 101.784 0.000 98.079 3.720 C 96.041 5.767,94.515 7.596,94.687 7.785 C 94.859 7.974,94.795 8.011,94.545 7.869 C 93.994 7.554,93.086 8.540,93.503 9.001 C 93.667 9.181,93.607 9.219,93.372 9.085 C 92.964 8.853,85.331 16.163,85.107 17.000 C 85.048 17.220,84.852 17.351,84.670 17.290 C 84.489 17.230,84.442 17.344,84.566 17.545 C 84.690 17.745,84.489 18.155,84.119 18.455 C 83.548 18.918,83.497 18.916,83.785 18.438 C 84.015 18.057,83.975 17.968,83.662 18.162 C 83.408 18.319,83.200 18.679,83.200 18.962 C 83.200 19.245,82.809 19.819,82.331 20.238 C 81.777 20.724,81.583 20.783,81.796 20.400 C 81.979 20.070,81.656 20.231,81.077 20.758 C 80.498 21.285,80.137 21.898,80.274 22.120 C 80.411 22.342,80.340 22.410,80.115 22.271 C 79.633 21.973,78.275 23.342,78.666 23.732 C 78.813 23.880,78.794 24.000,78.624 24.000 C 78.454 24.000,77.960 23.548,77.526 22.996 C 77.091 22.444,76.543 22.112,76.306 22.258 C 76.070 22.404,75.975 22.361,76.096 22.162 C 76.360 21.728,75.390 20.743,75.043 21.091 C 74.909 21.224,74.800 21.061,74.800 20.729 C 74.800 20.144,73.507 18.695,73.168 18.899 C 73.075 18.955,73.049 18.921,73.108 18.825 C 73.316 18.489,70.267 15.635,69.925 15.846 C 69.735 15.964,69.630 15.821,69.690 15.530 C 69.751 15.238,69.562 15.049,69.270 15.110 C 68.979 15.170,68.836 15.066,68.952 14.878 C 69.068 14.690,68.156 13.561,66.925 12.368 C 65.694 11.176,64.830 10.453,65.005 10.762 C 65.218 11.138,65.171 11.229,64.862 11.038 C 64.608 10.881,64.400 10.521,64.400 10.238 C 64.400 9.538,63.008 8.325,62.634 8.699 C 62.469 8.865,62.393 8.730,62.467 8.400 C 62.540 8.068,62.364 7.849,62.070 7.910 C 61.779 7.970,61.640 7.859,61.761 7.663 C 62.053 7.191,60.621 5.912,60.234 6.299 C 60.069 6.465,59.993 6.330,60.067 6.000 C 60.140 5.670,59.975 5.445,59.700 5.500 C 59.425 5.555,59.245 5.375,59.300 5.100 C 59.355 4.825,59.175 4.645,58.900 4.700 C 58.625 4.755,58.445 4.665,58.500 4.499 C 58.679 3.962,55.903 1.213,55.445 1.474 C 55.200 1.614,55.133 1.581,55.297 1.401 C 56.752 -0.206,50.706 -0.603,49.200 1.000 C 48.683 1.550,48.404 2.000,48.579 2.000 C 48.755 2.000,48.676 2.268,48.404 2.596 C 48.132 2.923,47.780 3.111,47.622 3.014 C 47.186 2.744,43.535 6.602,43.890 6.957 C 44.061 7.127,43.930 7.207,43.600 7.133 C 43.270 7.060,43.045 7.225,43.100 7.500 C 43.155 7.775,42.975 7.955,42.700 7.900 C 42.425 7.845,42.249 8.038,42.310 8.330 C 42.370 8.621,42.259 8.760,42.063 8.639 C 41.580 8.341,40.320 9.779,40.699 10.197 C 40.865 10.379,40.801 10.415,40.558 10.276 C 40.018 9.968,38.271 11.738,38.696 12.163 C 38.863 12.330,38.730 12.407,38.400 12.333 C 38.070 12.260,37.845 12.425,37.900 12.700 C 37.955 12.975,37.775 13.155,37.500 13.100 C 37.212 13.042,37.038 13.340,37.088 13.800 C 37.137 14.240,37.073 14.362,36.945 14.071 C 36.771 13.672,36.481 13.760,35.769 14.429 C 35.250 14.917,34.922 15.475,35.042 15.668 C 35.162 15.862,35.021 15.970,34.730 15.910 C 34.438 15.849,34.249 16.038,34.310 16.330 C 34.370 16.621,34.259 16.760,34.063 16.639 C 33.580 16.341,32.320 17.779,32.699 18.197 C 32.865 18.379,32.806 18.418,32.570 18.284 C 32.056 17.992,26.653 23.320,27.055 23.722 C 27.208 23.875,27.138 24.000,26.900 24.000 C 26.662 24.000,26.407 23.837,26.333 23.638 C 26.033 22.822,17.829 14.459,17.518 14.651 C 17.332 14.766,17.230 14.621,17.290 14.330 C 17.351 14.038,17.175 13.845,16.900 13.900 C 16.625 13.955,16.445 13.775,16.500 13.500 C 16.555 13.225,16.362 13.049,16.070 13.110 C 15.779 13.170,15.640 13.059,15.761 12.863 C 16.053 12.391,14.621 11.112,14.234 11.499 C 14.069 11.665,13.993 11.620,14.067 11.400 C 14.140 11.180,14.036 10.971,13.836 10.936 C 13.636 10.901,13.310 10.582,13.111 10.227 C 12.913 9.873,12.577 9.690,12.366 9.821 C 12.154 9.952,12.030 9.886,12.090 9.675 C 12.424 8.504,3.202 0.000,1.598 0.000 L -0.006 0.000 0.097 194.700 M256.800 0.525 C 256.800 0.594,256.215 1.179,255.500 1.825 L 254.200 3.000 255.375 1.700 C 256.470 0.488,256.800 0.216,256.800 0.525 M241.200 16.115 C 241.200 16.178,240.255 17.123,239.100 18.215 L 237.000 20.200 238.985 18.100 C 240.829 16.149,241.200 15.817,241.200 16.115 M30.800 20.125 C 30.800 20.194,30.215 20.779,29.500 21.425 L 28.200 22.600 29.375 21.300 C 30.470 20.088,30.800 19.816,30.800 20.125 M359.000 76.400 C 359.859 77.280,360.652 78.000,360.762 78.000 C 360.872 78.000,360.259 77.280,359.400 76.400 C 358.541 75.520,357.748 74.800,357.638 74.800 C 357.528 74.800,358.141 75.520,359.000 76.400 M70.758 94.987 C 72.790 97.104,73.170 97.704,72.848 98.287 C 72.287 99.303,45.851 125.600,45.391 125.600 C 44.884 125.600,32.000 112.722,32.000 112.215 C 32.000 111.567,36.927 106.800,37.597 106.800 C 37.938 106.800,39.740 108.330,41.600 110.200 C 43.460 112.070,45.168 113.600,45.394 113.600 C 45.620 113.600,50.573 108.830,56.400 103.000 C 62.227 97.170,67.282 92.400,67.634 92.400 C 67.985 92.400,69.391 93.564,70.758 94.987 M70.635 179.663 C 72.181 181.149,73.200 182.458,73.200 182.961 C 73.200 183.820,46.233 211.200,45.387 211.200 C 44.287 211.200,31.530 197.679,31.928 196.935 C 32.531 195.808,37.067 191.600,37.679 191.600 C 37.975 191.600,39.740 193.130,41.600 195.000 C 43.460 196.870,45.168 198.400,45.394 198.400 C 45.620 198.400,50.573 193.630,56.400 187.800 C 62.227 181.970,67.236 177.200,67.532 177.200 C 67.827 177.200,69.224 178.309,70.635 179.663 " stroke="none" fill="#f4f4f4" fill-rule="evenodd"></path><path id="path2" d="M354.200 75.060 C 352.149 76.165,341.997 82.262,337.827 84.893 C 333.434 87.665,332.494 88.957,333.812 90.414 C 334.194 90.836,334.639 91.099,334.801 91.000 C 334.962 90.900,335.505 91.354,336.007 92.009 C 337.307 93.706,338.555 93.554,342.049 91.274 C 346.050 88.664,356.606 82.305,358.687 81.251 C 360.056 80.558,361.596 78.916,361.260 78.509 C 358.682 75.390,356.010 74.084,354.200 75.060 M205.734 216.214 C 192.543 232.187,181.303 247.761,166.248 270.919 L 165.000 272.839 181.171 288.996 C 195.875 303.688,197.417 305.112,198.171 304.709 C 199.850 303.810,211.593 295.979,218.000 291.484 C 230.746 282.543,238.251 276.793,251.213 266.039 L 257.675 260.678 233.538 236.455 C 220.262 223.132,209.370 212.165,209.334 212.083 C 209.297 212.001,207.677 213.860,205.734 216.214 " stroke="none" fill="#84dbfb" fill-rule="evenodd"></path><path id="path3" d="M255.375 1.700 L 254.200 3.000 255.500 1.825 C 256.215 1.179,256.800 0.594,256.800 0.525 C 256.800 0.216,256.470 0.488,255.375 1.700 M304.185 4.100 L 302.200 6.200 304.300 4.215 C 306.251 2.371,306.583 2.000,306.285 2.000 C 306.222 2.000,305.277 2.945,304.185 4.100 M238.985 18.100 L 237.000 20.200 239.100 18.215 C 241.051 16.371,241.383 16.000,241.085 16.000 C 241.022 16.000,240.077 16.945,238.985 18.100 M29.375 21.300 L 28.200 22.600 29.500 21.425 C 30.215 20.779,30.800 20.194,30.800 20.125 C 30.800 19.816,30.470 20.088,29.375 21.300 M310.412 87.385 C 310.145 87.707,306.748 90.294,302.863 93.133 C 298.978 95.972,294.180 99.576,292.200 101.142 C 287.993 104.468,288.085 104.439,287.924 102.500 L 287.800 101.000 203.600 101.000 L 119.400 101.000 119.291 108.599 C 119.193 115.391,119.254 116.251,119.867 116.699 C 120.411 117.096,136.227 117.200,196.310 117.200 C 237.976 117.200,272.007 117.349,271.933 117.532 C 271.860 117.715,269.910 119.547,267.600 121.604 C 252.004 135.494,250.427 137.760,253.198 142.304 C 256.139 147.127,260.388 146.634,266.687 140.739 C 283.146 125.334,308.339 104.800,310.779 104.800 C 311.257 104.800,311.536 104.620,311.400 104.400 C 310.618 103.135,308.031 104.806,296.000 114.342 C 285.735 122.478,276.879 130.097,267.936 138.486 C 264.931 141.304,261.797 143.893,260.971 144.238 C 256.174 146.242,251.339 140.759,253.766 136.066 C 254.658 134.341,269.591 120.599,280.365 111.589 C 287.066 105.985,303.552 93.390,308.526 90.076 C 309.366 89.517,310.315 88.551,310.636 87.930 C 311.273 86.698,311.177 86.464,310.412 87.385 M310.686 112.521 C 310.568 112.827,307.081 115.844,302.936 119.227 C 281.872 136.417,259.136 157.165,239.800 176.844 L 231.000 185.800 175.200 186.000 L 119.400 186.200 119.292 194.051 L 119.183 201.902 120.092 202.146 C 120.591 202.280,142.285 202.392,168.300 202.395 C 194.315 202.398,215.597 202.535,215.594 202.700 C 215.591 202.865,214.244 204.583,212.602 206.517 C 210.959 208.452,209.037 210.882,208.331 211.917 C 207.624 212.953,205.855 215.240,204.400 217.000 C 193.451 230.236,177.785 251.790,168.785 266.000 C 167.182 268.530,165.675 270.732,165.436 270.894 C 165.196 271.056,154.980 271.191,142.733 271.194 C 130.486 271.197,120.181 271.309,119.833 271.443 C 118.879 271.809,118.879 286.991,119.833 287.357 C 120.181 287.491,128.281 287.600,137.833 287.600 C 147.385 287.600,155.200 287.663,155.200 287.740 C 155.200 287.817,154.144 290.112,152.854 292.840 C 147.267 304.651,141.970 321.460,142.465 325.809 C 142.709 327.958,147.121 327.550,160.000 324.186 C 170.325 321.490,192.727 310.593,198.200 305.606 C 198.640 305.205,202.060 302.854,205.800 300.381 C 209.540 297.908,215.236 294.020,218.458 291.742 L 224.316 287.600 255.525 287.600 C 272.690 287.600,287.019 287.491,287.367 287.357 C 288.187 287.043,288.329 272.489,287.520 271.680 C 287.159 271.319,281.991 271.200,266.720 271.200 C 255.544 271.200,246.400 271.060,246.400 270.889 C 246.400 270.517,255.542 262.939,257.366 261.800 C 261.767 259.051,281.841 240.625,297.531 224.933 C 304.642 217.820,310.762 211.995,311.131 211.988 C 311.754 211.977,311.754 211.949,311.134 211.587 C 310.056 210.958,309.654 211.294,302.161 219.092 C 284.572 237.399,260.187 259.314,238.175 276.600 C 228.241 284.401,213.258 295.063,203.200 301.489 C 200.230 303.386,196.630 305.697,195.200 306.625 C 178.219 317.643,155.916 326.330,144.448 326.393 L 143.097 326.400 143.353 324.473 C 145.342 309.475,153.480 290.869,167.877 268.400 C 181.405 247.286,191.461 233.635,211.200 209.582 C 232.451 183.689,268.802 148.293,302.191 120.983 C 309.239 115.219,311.698 112.765,311.064 112.131 C 310.973 112.040,310.803 112.216,310.686 112.521 M56.400 187.800 C 50.573 193.630,45.620 198.400,45.394 198.400 C 45.168 198.400,43.460 196.870,41.600 195.000 C 39.740 193.130,37.944 191.611,37.609 191.625 C 37.195 191.643,37.256 191.759,37.800 191.990 C 38.240 192.177,40.036 193.785,41.791 195.565 C 43.545 197.344,45.167 198.800,45.394 198.800 C 45.620 198.800,50.484 194.105,56.203 188.367 C 61.921 182.629,66.960 177.780,67.400 177.592 C 67.935 177.364,68.000 177.242,67.597 177.225 C 67.266 177.211,62.227 181.970,56.400 187.800 M70.615 180.012 C 71.927 181.449,73.082 182.567,73.181 182.498 C 73.281 182.428,72.208 181.252,70.797 179.885 L 68.231 177.400 70.615 180.012 M59.400 197.200 C 51.922 204.680,45.625 210.800,45.407 210.800 C 45.188 210.800,42.037 207.875,38.404 204.300 L 31.800 197.800 38.395 204.500 C 42.023 208.185,45.174 211.200,45.398 211.200 C 45.621 211.200,52.012 204.990,59.600 197.400 C 67.188 189.810,73.306 183.600,73.196 183.600 C 73.086 183.600,66.878 189.720,59.400 197.200 M34.063 194.565 C 32.709 195.976,31.600 197.266,31.600 197.432 C 31.600 197.598,31.653 197.658,31.718 197.567 C 31.783 197.475,32.981 196.185,34.381 194.700 C 35.781 193.215,36.837 192.000,36.727 192.000 C 36.617 192.000,35.418 193.154,34.063 194.565 M250.000 327.769 C 243.074 329.684,238.337 335.284,237.545 342.495 C 237.126 346.307,237.252 399.386,237.681 399.815 C 238.150 400.283,240.000 399.627,240.000 398.992 C 240.000 398.667,240.270 398.400,240.600 398.400 C 240.930 398.400,241.203 398.175,241.206 397.900 C 241.209 397.625,241.942 396.770,242.834 396.000 C 245.869 393.380,255.600 383.555,255.600 383.110 C 255.600 382.866,255.702 382.769,255.827 382.894 C 256.074 383.141,257.571 381.750,259.300 379.665 C 259.905 378.936,260.400 378.451,260.400 378.589 C 260.400 378.726,262.830 376.395,265.800 373.407 C 268.770 370.420,271.200 367.771,271.200 367.521 C 271.200 367.271,271.309 367.176,271.442 367.309 C 271.737 367.604,273.841 365.559,273.700 365.115 C 273.645 364.942,273.870 364.800,274.200 364.800 C 274.530 364.800,274.800 364.648,274.800 364.461 C 274.800 364.041,276.198 362.400,276.556 362.400 C 276.985 362.400,281.200 358.052,281.200 357.609 C 281.200 357.384,281.335 357.245,281.500 357.299 C 281.924 357.439,287.600 351.705,287.600 351.136 C 287.600 350.878,287.709 350.776,287.842 350.909 C 288.139 351.205,290.000 349.401,290.000 348.818 C 290.000 348.588,290.225 348.399,290.500 348.399 C 290.775 348.398,291.345 347.883,291.767 347.253 C 292.189 346.623,292.960 345.769,293.481 345.354 C 295.291 343.913,301.357 338.000,301.024 338.000 C 300.841 338.000,301.300 337.505,302.045 336.900 C 304.848 334.625,310.000 329.052,310.000 328.295 C 310.000 328.107,310.225 328.067,310.500 328.206 C 310.775 328.345,310.651 328.176,310.224 327.830 C 309.189 326.991,253.020 326.934,250.000 327.769 " stroke="none" fill="#ccd4e3" fill-rule="evenodd"></path><path id="path4" d="M56.997 188.025 C 44.136 200.921,45.926 200.011,41.650 195.827 C 39.724 193.942,37.884 192.400,37.561 192.400 C 36.803 192.400,32.260 196.982,32.453 197.552 C 32.689 198.250,44.915 210.400,45.381 210.400 C 45.925 210.400,72.800 183.530,72.800 182.986 C 72.800 182.589,67.971 177.600,67.586 177.600 C 67.481 177.600,62.716 182.291,56.997 188.025 " stroke="none" fill="#fc755e" fill-rule="evenodd"></path><path id="path5" d="M56.400 103.000 C 50.573 108.830,45.620 113.600,45.394 113.600 C 45.168 113.600,43.460 112.070,41.600 110.200 C 39.740 108.330,37.938 106.800,37.597 106.800 C 36.927 106.800,32.000 111.567,32.000 112.215 C 32.000 112.722,44.884 125.600,45.391 125.600 C 45.851 125.600,72.287 99.303,72.848 98.287 C 73.300 97.469,68.810 92.400,67.634 92.400 C 67.282 92.400,62.227 97.170,56.400 103.000 M56.397 188.300 L 45.800 199.000 56.500 188.403 C 62.385 182.574,67.200 177.759,67.200 177.703 C 67.200 177.420,66.245 178.357,56.397 188.300 M70.200 180.000 C 71.506 181.320,72.665 182.400,72.775 182.400 C 72.885 182.400,71.906 181.320,70.600 180.000 C 69.294 178.680,68.135 177.600,68.025 177.600 C 67.915 177.600,68.894 178.680,70.200 180.000 M59.407 196.700 C 51.930 204.235,45.638 210.400,45.423 210.400 C 45.209 210.400,44.306 209.725,43.417 208.900 L 41.800 207.400 43.381 209.100 C 44.251 210.035,45.152 210.800,45.383 210.800 C 45.854 210.800,73.470 183.298,73.182 183.116 C 73.082 183.052,66.883 189.165,59.407 196.700 M34.587 194.500 L 32.200 197.000 34.612 194.700 C 37.662 191.791,37.535 191.772,41.592 195.700 L 45.000 199.000 41.609 195.500 C 37.565 191.326,37.612 191.333,34.587 194.500 M32.000 197.440 C 32.000 197.645,34.205 199.970,36.900 202.606 L 41.800 207.400 37.000 202.413 C 34.360 199.671,32.155 197.346,32.100 197.247 C 32.045 197.148,32.000 197.234,32.000 197.440 " stroke="none" fill="#fcd45f" fill-rule="evenodd"></path></g></svg>