<svg id="svg" version="1.1" xmlns="http://www.w3.org/2000/svg" xmlns:xlink="http://www.w3.org/1999/xlink" width="400" height="400" viewBox="0, 0, 400,400"><g id="svgg"><path id="path0" d="M134.200 50.274 C 88.534 52.614,53.536 86.897,50.421 132.341 C 49.924 139.588,50.303 264.777,50.840 270.800 C 54.343 310.113,83.883 341.542,124.030 348.672 C 128.871 349.532,260.141 350.007,269.600 349.199 C 310.393 345.714,342.290 315.706,348.681 274.800 C 349.775 267.798,349.791 131.463,348.699 124.586 C 342.091 82.992,309.363 53.200,267.200 50.397 C 262.063 50.056,140.654 49.944,134.200 50.274 M273.600 75.728 C 300.601 81.170,320.286 101.454,324.603 128.284 C 325.499 133.851,325.486 267.288,324.589 272.400 C 319.736 300.056,299.363 320.170,271.554 324.763 C 267.139 325.492,132.811 325.352,128.307 324.613 C 99.836 319.946,79.060 298.735,75.205 270.400 C 74.371 264.272,74.857 130.726,75.728 126.400 C 81.020 100.144,101.473 79.817,126.600 75.846 C 128.800 75.498,131.050 75.143,131.600 75.057 C 135.460 74.451,270.430 75.090,273.600 75.728 M273.431 107.241 C 258.820 112.266,259.630 132.657,274.600 136.656 C 284.758 139.370,295.119 129.810,293.171 119.520 C 291.354 109.919,282.200 104.226,273.431 107.241 M192.000 125.822 C 130.198 133.406,103.313 207.152,146.169 251.539 C 189.017 295.919,262.793 272.904,273.556 211.800 C 281.950 164.147,240.008 119.932,192.000 125.822 M209.455 150.576 C 248.926 158.310,263.961 207.218,235.589 235.589 C 209.106 262.072,163.476 250.959,152.024 215.238 C 140.491 179.264,172.416 143.318,209.455 150.576 " stroke="none" fill="#fbfbfb" fill-rule="evenodd"></path><path id="path1" d="M82.006 0.214 C 82.003 0.442,81.378 0.608,80.619 0.583 C 79.853 0.558,79.341 0.704,79.469 0.911 C 79.603 1.128,79.342 1.172,78.850 1.016 C 78.327 0.850,78.000 0.919,78.000 1.197 C 78.000 1.444,77.812 1.531,77.582 1.389 C 77.353 1.247,76.903 1.349,76.582 1.615 C 76.126 1.994,76.000 1.991,76.000 1.600 C 76.000 1.242,75.857 1.221,75.490 1.525 C 75.210 1.758,74.535 2.013,73.990 2.092 C 73.446 2.172,72.595 2.459,72.100 2.732 C 71.605 3.005,71.200 3.110,71.200 2.965 C 71.200 2.820,70.895 2.949,70.523 3.251 C 69.939 3.725,69.895 3.718,70.200 3.200 C 70.492 2.704,70.448 2.685,69.945 3.092 C 69.611 3.363,68.991 3.659,68.569 3.751 C 68.146 3.843,67.440 4.036,67.000 4.180 C 66.560 4.323,66.040 4.416,65.845 4.386 C 65.649 4.356,65.375 4.516,65.236 4.741 C 65.097 4.967,64.461 5.246,63.824 5.361 C 63.186 5.477,62.535 5.781,62.377 6.037 C 62.219 6.293,61.889 6.379,61.645 6.228 C 61.400 6.076,61.200 6.154,61.200 6.400 C 61.200 6.646,61.040 6.749,60.845 6.628 C 60.650 6.507,60.268 6.677,59.996 7.004 C 59.724 7.332,59.179 7.600,58.783 7.600 C 58.006 7.600,55.776 8.689,54.886 9.504 C 54.583 9.781,54.142 9.888,53.906 9.742 C 53.667 9.594,53.591 9.662,53.736 9.896 C 54.030 10.372,52.921 10.922,52.364 10.578 C 52.164 10.454,52.000 10.524,52.000 10.733 C 52.000 10.942,51.535 11.230,50.966 11.373 C 50.397 11.516,49.560 11.979,49.105 12.402 C 48.651 12.826,48.125 13.077,47.937 12.961 C 47.748 12.844,47.487 13.030,47.355 13.372 C 47.224 13.715,46.970 13.905,46.790 13.794 C 46.611 13.683,46.193 13.864,45.861 14.196 C 45.529 14.528,45.064 14.800,44.829 14.800 C 44.593 14.800,44.400 14.980,44.400 15.200 C 44.400 15.420,44.130 15.600,43.800 15.600 C 43.470 15.600,43.200 15.881,43.200 16.224 C 43.200 16.567,43.020 16.736,42.800 16.600 C 42.580 16.464,42.400 16.554,42.400 16.800 C 42.400 17.046,42.231 17.143,42.025 17.015 C 41.818 16.888,41.464 17.102,41.237 17.492 C 41.010 17.881,40.819 18.058,40.812 17.884 C 40.800 17.559,40.246 17.961,38.623 19.476 C 38.107 19.957,37.576 20.242,37.442 20.109 C 37.309 19.976,37.200 20.042,37.200 20.257 C 37.200 20.471,36.917 20.996,36.570 21.424 C 36.224 21.851,36.063 21.962,36.212 21.670 C 36.436 21.234,36.338 21.232,35.658 21.657 C 35.066 22.026,34.969 22.260,35.316 22.480 C 35.627 22.678,35.487 22.790,34.924 22.794 C 34.442 22.797,33.919 23.008,33.762 23.262 C 33.571 23.571,33.662 23.618,34.038 23.403 C 34.464 23.160,34.492 23.200,34.152 23.569 C 33.906 23.837,33.406 24.099,33.041 24.153 C 32.676 24.206,32.428 24.349,32.489 24.471 C 32.550 24.592,31.887 25.301,31.016 26.046 C 29.191 27.606,27.463 29.341,25.920 31.162 C 25.327 31.862,24.697 32.393,24.520 32.341 C 24.344 32.288,23.826 32.912,23.370 33.726 C 22.913 34.540,22.418 35.085,22.270 34.936 C 22.121 34.788,22.000 35.087,22.000 35.600 C 22.000 36.113,21.899 36.432,21.775 36.309 C 21.412 35.946,19.600 37.829,19.600 38.569 C 19.600 38.942,19.420 39.136,19.200 39.000 C 18.840 38.778,18.627 39.303,18.753 40.100 C 18.779 40.265,18.519 40.400,18.176 40.400 C 17.833 40.400,17.664 40.580,17.800 40.800 C 17.936 41.020,17.857 41.200,17.624 41.200 C 17.391 41.200,17.200 41.430,17.200 41.712 C 17.200 41.993,16.850 42.476,16.421 42.785 C 15.993 43.093,15.718 43.467,15.809 43.615 C 15.900 43.763,15.446 44.476,14.800 45.200 C 14.154 45.924,13.708 46.651,13.810 46.816 C 13.912 46.981,13.715 47.224,13.372 47.355 C 13.030 47.487,12.844 47.748,12.961 47.937 C 13.077 48.125,12.826 48.651,12.402 49.105 C 11.979 49.560,11.516 50.397,11.373 50.966 C 11.230 51.535,10.942 52.000,10.733 52.000 C 10.524 52.000,10.455 52.165,10.580 52.368 C 10.705 52.570,10.529 53.014,10.189 53.353 C 9.850 53.693,9.578 54.068,9.586 54.186 C 9.656 55.240,9.539 55.609,9.200 55.400 C 8.980 55.264,8.800 55.501,8.800 55.927 C 8.800 56.353,8.552 56.907,8.250 57.159 C 7.947 57.410,7.584 58.339,7.443 59.223 C 7.301 60.107,6.939 60.925,6.637 61.041 C 6.324 61.161,6.175 61.582,6.290 62.021 C 6.414 62.497,6.246 62.884,5.848 63.037 C 5.494 63.173,5.317 63.465,5.454 63.687 C 5.590 63.908,5.493 64.219,5.237 64.377 C 4.981 64.535,4.679 65.178,4.565 65.804 C 4.451 66.431,4.238 67.137,4.091 67.372 C 3.944 67.607,3.769 68.146,3.704 68.569 C 3.638 68.991,3.363 69.611,3.092 69.945 C 2.685 70.448,2.704 70.492,3.200 70.200 C 3.681 69.917,3.710 69.961,3.350 70.423 C 3.103 70.740,2.967 71.405,3.048 71.900 C 3.136 72.440,2.991 72.800,2.685 72.800 C 2.404 72.800,2.135 73.277,2.087 73.860 C 2.039 74.442,1.853 75.117,1.675 75.360 C 1.497 75.602,1.362 76.368,1.375 77.062 C 1.389 77.756,1.246 78.228,1.057 78.112 C 0.869 77.995,0.843 78.305,1.000 78.800 C 1.168 79.329,1.131 79.605,0.911 79.469 C 0.704 79.341,0.558 79.853,0.583 80.619 C 0.608 81.378,0.487 82.000,0.314 82.000 C 0.141 82.000,0.025 128.125,0.056 184.500 C 0.089 245.846,0.253 285.956,0.465 284.400 C 0.660 282.970,1.189 278.920,1.642 275.400 C 5.744 243.519,18.039 213.431,37.601 187.400 C 42.616 180.727,48.779 173.540,49.241 173.825 C 49.449 173.954,49.620 194.455,49.647 222.724 C 49.673 249.496,49.830 271.940,49.995 272.600 C 50.165 273.281,50.233 272.070,50.153 269.800 C 49.640 255.242,49.656 130.674,50.171 126.800 C 55.566 86.249,86.438 55.388,126.800 50.198 C 133.676 49.314,266.324 49.314,273.200 50.198 C 303.158 54.050,329.345 72.802,341.256 98.932 C 342.625 101.933,343.819 104.314,343.911 104.223 C 344.002 104.131,343.250 102.309,342.239 100.174 C 339.976 95.398,339.874 96.225,343.233 92.089 C 368.363 61.138,355.120 15.403,317.400 2.874 C 315.420 2.217,312.810 1.346,311.600 0.939 C 308.776 -0.010,82.805 -0.445,82.794 0.499 C 82.790 0.835,82.660 0.802,82.400 0.400 C 82.187 0.070,82.009 -0.014,82.006 0.214 M133.200 75.625 C 101.741 78.229,78.159 102.020,75.612 133.722 C 75.156 139.397,75.084 265.597,75.535 269.000 C 75.681 270.100,75.749 243.690,75.688 210.312 L 75.575 149.624 78.488 147.470 C 105.224 127.698,140.267 115.240,176.000 112.803 C 183.225 112.311,264.400 112.263,264.400 112.752 C 264.400 112.945,263.916 114.160,263.324 115.452 C 259.359 124.105,264.812 135.473,273.856 137.407 C 274.485 137.542,273.950 137.204,272.666 136.657 C 263.697 132.833,259.947 123.460,263.960 114.899 C 269.329 103.444,286.473 102.854,291.772 113.942 C 292.416 115.289,293.013 116.320,293.099 116.234 C 293.185 116.148,292.878 115.337,292.416 114.431 C 291.360 112.362,290.897 112.491,300.200 112.263 C 306.151 112.117,308.625 111.883,311.600 111.187 C 318.812 109.501,317.904 108.906,321.082 117.400 C 321.823 119.380,322.320 120.460,322.185 119.800 C 321.778 117.793,318.998 111.013,317.762 109.014 C 312.799 100.979,310.818 98.364,306.227 93.785 C 295.113 82.700,282.373 76.905,266.278 75.612 C 260.235 75.126,139.079 75.138,133.200 75.625 M345.061 107.600 C 345.517 109.402,346.452 111.603,346.184 110.244 C 346.059 109.608,345.698 108.528,345.382 107.844 C 344.951 106.908,344.871 106.848,345.061 107.600 M346.414 111.600 C 346.408 111.710,346.934 113.870,347.583 116.400 C 348.232 118.930,348.772 120.672,348.782 120.271 C 348.818 118.801,346.485 110.259,346.414 111.600 M293.246 117.200 C 293.265 117.530,293.424 118.250,293.600 118.800 L 293.920 119.800 293.954 118.800 C 293.973 118.250,293.813 117.530,293.600 117.200 C 293.255 116.667,293.216 116.667,293.246 117.200 M322.468 121.800 C 322.462 122.240,322.611 122.960,322.800 123.400 C 323.238 124.419,323.238 123.368,322.800 122.000 C 322.543 121.196,322.477 121.157,322.468 121.800 M349.088 123.400 C 349.211 124.720,349.376 125.875,349.456 125.967 C 349.735 126.289,349.516 122.988,349.193 122.000 C 348.989 121.379,348.949 121.909,349.088 123.400 M293.513 125.261 C 292.391 131.818,286.122 137.023,278.608 137.638 L 275.000 137.933 278.600 137.840 C 286.318 137.639,295.075 130.014,293.912 124.505 C 293.830 124.116,293.651 124.455,293.513 125.261 M197.500 124.695 C 198.655 124.776,200.545 124.776,201.700 124.695 C 202.855 124.614,201.910 124.548,199.600 124.548 C 197.290 124.548,196.345 124.614,197.500 124.695 M323.295 125.200 C 323.295 125.750,323.432 126.740,323.600 127.400 C 323.872 128.470,323.905 128.492,323.905 127.600 C 323.905 127.050,323.768 126.060,323.600 125.400 C 323.328 124.330,323.295 124.308,323.295 125.200 M189.400 125.200 C 187.073 125.617,189.540 125.633,192.200 125.218 C 194.099 124.923,194.119 124.907,192.600 124.910 C 191.720 124.912,190.280 125.042,189.400 125.200 M207.600 125.220 C 208.590 125.397,209.940 125.532,210.600 125.520 C 211.485 125.505,211.328 125.416,210.000 125.180 C 209.010 125.003,207.660 124.868,207.000 124.880 C 206.115 124.895,206.272 124.984,207.600 125.220 M181.400 126.786 C 154.203 133.914,133.787 154.372,126.770 181.527 C 126.126 184.017,125.613 186.447,125.628 186.927 C 125.643 187.407,126.077 185.982,126.591 183.761 C 133.269 154.919,154.919 133.269,183.761 126.591 C 185.982 126.077,187.350 125.651,186.800 125.644 C 186.250 125.638,183.820 126.152,181.400 126.786 M213.200 126.000 C 213.750 126.176,214.650 126.317,215.200 126.313 C 216.098 126.306,216.078 126.274,215.000 126.000 C 213.308 125.569,211.856 125.569,213.200 126.000 M217.600 126.819 C 246.044 135.137,264.506 152.976,272.433 179.800 C 273.083 182.000,273.506 183.080,273.374 182.200 C 271.846 172.080,262.852 156.047,253.403 146.597 C 243.836 137.031,227.834 128.074,217.725 126.627 L 216.200 126.409 217.600 126.819 M349.901 185.021 C 349.957 217.350,350.050 248.390,350.108 254.000 C 350.167 259.610,350.235 233.690,350.260 196.400 C 350.285 159.110,350.192 128.070,350.053 127.421 C 349.914 126.773,349.846 152.693,349.901 185.021 M324.305 159.400 C 324.362 176.120,324.460 191.330,324.522 193.200 C 324.585 195.070,324.657 182.290,324.683 164.800 C 324.709 147.310,324.611 132.100,324.465 131.000 C 324.319 129.900,324.247 142.680,324.305 159.400 M192.600 150.800 L 191.000 151.086 192.400 151.108 C 193.170 151.120,194.700 150.990,195.800 150.818 L 197.800 150.507 196.000 150.510 C 195.010 150.512,193.480 150.642,192.600 150.800 M204.000 150.817 C 205.210 150.984,206.830 151.115,207.600 151.107 C 208.722 151.096,208.603 151.031,207.000 150.782 C 205.900 150.610,204.280 150.480,203.400 150.491 C 202.007 150.510,202.084 150.552,204.000 150.817 M188.400 151.600 C 187.608 151.854,187.567 151.920,188.200 151.920 C 188.640 151.920,189.450 151.776,190.000 151.600 C 190.792 151.346,190.833 151.280,190.200 151.280 C 189.760 151.280,188.950 151.424,188.400 151.600 M210.400 151.687 C 216.890 153.569,218.608 154.169,221.488 155.566 C 233.481 161.380,243.407 172.826,246.949 184.927 C 247.476 186.727,248.098 188.830,248.331 189.600 L 248.755 191.000 248.523 189.400 C 247.007 178.923,237.841 165.381,227.728 158.679 C 222.685 155.337,212.282 151.065,209.617 151.241 C 209.278 151.263,209.630 151.464,210.400 151.687 M183.200 153.159 C 167.245 159.119,153.294 174.964,151.468 189.200 L 151.237 191.000 151.764 189.000 C 156.305 171.759,168.139 158.630,183.887 153.362 C 185.599 152.789,187.075 152.248,187.167 152.160 C 187.627 151.718,185.884 152.157,183.200 153.159 M273.687 184.800 C 273.683 185.350,273.824 186.250,274.000 186.800 C 274.431 188.144,274.431 186.692,274.000 185.000 C 273.726 183.922,273.694 183.902,273.687 184.800 M125.000 190.800 C 124.843 192.366,124.800 193.733,124.904 193.837 C 125.008 193.942,125.220 192.744,125.375 191.175 C 125.530 189.606,125.573 188.239,125.471 188.138 C 125.369 188.036,125.157 189.234,125.000 190.800 M274.485 189.400 C 274.477 190.060,274.610 191.500,274.782 192.600 C 275.036 194.235,275.097 194.345,275.117 193.200 C 275.130 192.430,274.997 190.990,274.820 190.000 C 274.588 188.691,274.496 188.528,274.485 189.400 M150.588 194.188 C 150.431 195.864,150.393 197.326,150.503 197.436 C 150.613 197.546,150.831 196.264,150.988 194.588 C 151.145 192.912,151.184 191.450,151.074 191.340 C 150.964 191.230,150.745 192.512,150.588 194.188 M248.893 192.400 C 248.885 193.170,249.016 194.790,249.183 196.000 C 249.448 197.916,249.490 197.993,249.509 196.600 C 249.520 195.720,249.390 194.100,249.218 193.000 C 248.969 191.397,248.904 191.278,248.893 192.400 M124.548 199.600 C 124.548 201.910,124.614 202.855,124.695 201.700 C 124.776 200.545,124.776 198.655,124.695 197.500 C 124.614 196.345,124.548 197.290,124.548 199.600 M275.334 199.200 C 275.334 200.850,275.405 201.525,275.491 200.700 C 275.578 199.875,275.578 198.525,275.491 197.700 C 275.405 196.875,275.334 197.550,275.334 199.200 M150.491 203.400 C 150.480 204.280,150.610 205.900,150.782 207.000 C 151.031 208.603,151.096 208.722,151.107 207.600 C 151.115 206.830,150.984 205.210,150.817 204.000 C 150.552 202.084,150.510 202.007,150.491 203.400 M249.033 205.136 C 248.871 206.971,248.826 208.559,248.932 208.666 C 249.196 208.929,249.734 203.000,249.507 202.332 C 249.408 202.039,249.194 203.301,249.033 205.136 M274.893 204.800 C 274.893 205.570,274.975 205.885,275.076 205.500 C 275.176 205.115,275.176 204.485,275.076 204.100 C 274.975 203.715,274.893 204.030,274.893 204.800 M124.885 207.000 C 124.877 207.660,125.010 209.100,125.182 210.200 C 125.436 211.835,125.497 211.945,125.517 210.800 C 125.530 210.030,125.397 208.590,125.220 207.600 C 124.988 206.291,124.896 206.128,124.885 207.000 M151.241 209.617 C 151.065 212.282,155.337 222.685,158.679 227.728 C 165.381 237.841,178.923 247.007,189.400 248.523 L 191.000 248.755 189.600 248.331 C 188.830 248.098,186.727 247.476,184.927 246.949 C 172.826 243.407,161.380 233.481,155.566 221.488 C 154.169 218.608,153.569 216.890,151.687 210.400 C 151.464 209.630,151.263 209.278,151.241 209.617 M247.872 211.820 C 247.501 213.349,247.213 214.870,247.231 215.200 C 247.249 215.530,247.606 214.450,248.025 212.800 C 248.444 211.150,248.732 209.629,248.667 209.420 C 248.601 209.212,248.243 210.292,247.872 211.820 M125.687 213.000 C 125.691 213.440,125.832 214.340,126.000 215.000 C 126.274 216.078,126.306 216.098,126.313 215.200 C 126.317 214.650,126.176 213.750,126.000 213.200 C 125.749 212.416,125.681 212.373,125.687 213.000 M126.627 217.725 C 127.695 225.185,133.905 238.012,140.629 246.644 C 150.607 259.454,169.204 271.411,182.200 273.374 C 183.080 273.506,182.000 273.083,179.800 272.433 C 152.976 264.506,135.137 246.044,126.819 217.600 L 126.409 216.200 126.627 217.725 M234.987 235.300 L 232.600 237.800 235.100 235.413 C 236.475 234.099,237.600 232.974,237.600 232.913 C 237.600 232.617,237.205 232.978,234.987 235.300 M211.405 247.922 C 210.087 248.260,209.187 248.593,209.405 248.661 C 209.622 248.730,211.150 248.444,212.800 248.025 C 214.450 247.606,215.350 247.274,214.800 247.286 C 214.250 247.298,212.722 247.585,211.405 247.922 M192.800 249.220 C 193.790 249.397,195.410 249.529,196.400 249.514 L 198.200 249.487 196.000 249.183 C 192.839 248.746,190.301 248.776,192.800 249.220 M204.000 249.200 L 202.200 249.480 203.800 249.510 C 204.680 249.527,206.210 249.397,207.200 249.220 L 209.000 248.900 207.400 248.910 C 206.520 248.916,204.990 249.046,204.000 249.200 M76.095 272.400 C 76.095 272.950,76.232 273.940,76.400 274.600 C 76.672 275.670,76.705 275.692,76.705 274.800 C 76.705 274.250,76.568 273.260,76.400 272.600 C 76.128 271.530,76.095 271.508,76.095 272.400 M185.000 274.000 C 186.692 274.431,188.144 274.431,186.800 274.000 C 186.250 273.824,185.350 273.683,184.800 273.687 C 183.902 273.694,183.922 273.726,185.000 274.000 M50.440 275.433 C 50.462 276.295,50.627 277.450,50.807 278.000 C 51.011 278.621,51.051 278.091,50.912 276.600 C 50.654 273.821,50.382 273.149,50.440 275.433 M190.000 274.820 C 190.990 274.997,192.430 275.130,193.200 275.117 C 194.345 275.097,194.235 275.036,192.600 274.782 C 189.853 274.354,187.569 274.388,190.000 274.820 M204.100 275.076 C 204.485 275.176,205.115 275.176,205.500 275.076 C 205.885 274.975,205.570 274.893,204.800 274.893 C 204.030 274.893,203.715 274.975,204.100 275.076 M197.700 275.491 C 198.525 275.578,199.875 275.578,200.700 275.491 C 201.525 275.405,200.850 275.334,199.200 275.334 C 197.550 275.334,196.875 275.405,197.700 275.491 M76.856 276.600 C 76.856 277.040,77.011 277.760,77.200 278.200 L 77.544 279.000 77.544 278.200 C 77.544 277.760,77.389 277.040,77.200 276.600 L 76.856 275.800 76.856 276.600 M51.236 279.675 C 51.153 281.227,54.606 293.527,55.011 293.122 C 55.094 293.039,54.623 291.268,53.965 289.186 C 53.307 287.104,52.432 283.960,52.020 282.200 C 51.609 280.440,51.256 279.304,51.236 279.675 M77.816 280.200 C 81.299 297.280,102.720 318.701,119.800 322.184 C 120.460 322.319,119.290 321.796,117.200 321.023 C 98.777 314.203,85.863 301.279,78.973 282.768 C 78.202 280.695,77.681 279.540,77.816 280.200 M56.002 295.823 C 55.978 300.090,68.215 317.926,76.843 326.200 C 84.321 333.371,102.806 345.327,104.223 343.910 C 104.323 343.810,102.844 343.033,100.937 342.183 C 83.201 334.281,68.048 319.507,58.902 301.200 C 57.309 298.010,56.004 295.590,56.002 295.823 M306.581 306.500 L 305.000 308.200 306.700 306.619 C 307.635 305.749,308.400 304.984,308.400 304.919 C 308.400 304.616,308.052 304.919,306.581 306.500 M326.778 321.900 L 325.400 323.400 326.900 322.022 C 328.296 320.738,328.584 320.400,328.278 320.400 C 328.212 320.400,327.537 321.075,326.778 321.900 M122.000 322.800 C 123.368 323.238,124.419 323.238,123.400 322.800 C 122.960 322.611,122.240 322.462,121.800 322.468 C 121.157 322.477,121.196 322.543,122.000 322.800 M125.400 323.600 C 126.060 323.768,127.050 323.905,127.600 323.905 C 128.492 323.905,128.470 323.872,127.400 323.600 C 126.740 323.432,125.750 323.295,125.200 323.295 C 124.308 323.295,124.330 323.328,125.400 323.600 M131.000 324.465 C 132.100 324.611,148.660 324.708,167.800 324.681 C 186.940 324.654,200.890 324.582,198.800 324.520 C 190.295 324.270,129.147 324.219,131.000 324.465 M321.178 327.500 L 319.800 329.000 321.300 327.622 C 322.696 326.338,322.984 326.000,322.678 326.000 C 322.612 326.000,321.937 326.675,321.178 327.500 M104.855 344.189 C 105.180 344.513,110.393 346.401,110.909 346.381 C 111.179 346.370,109.970 345.830,108.222 345.181 C 105.029 343.994,104.507 343.840,104.855 344.189 M112.400 346.856 C 113.897 347.464,119.285 348.789,120.200 348.776 C 120.640 348.769,118.930 348.232,116.400 347.583 C 111.540 346.336,110.775 346.197,112.400 346.856 M122.000 349.193 C 122.988 349.516,126.289 349.735,125.967 349.456 C 125.875 349.376,124.720 349.211,123.400 349.088 C 121.909 348.949,121.379 348.989,122.000 349.193 M127.421 350.053 C 128.070 350.192,159.110 350.285,196.400 350.260 C 233.690 350.235,259.610 350.167,254.000 350.108 C 230.628 349.866,126.336 349.820,127.421 350.053 " stroke="none" fill="#fb7c6c" fill-rule="evenodd"></path><path id="path2" d="M309.600 0.585 C 353.160 10.834,370.625 58.352,343.233 92.089 C 339.956 96.124,340.052 95.733,341.594 98.787 C 345.552 106.628,348.067 115.052,349.973 126.846 C 350.247 128.547,350.400 139.755,350.400 158.223 C 350.400 181.264,350.499 186.833,350.900 186.346 C 351.175 186.012,353.200 184.551,355.400 183.099 C 378.231 168.032,394.252 143.206,398.571 116.200 C 398.923 114.000,399.389 111.225,399.606 110.033 C 400.387 105.739,400.088 83.881,399.189 79.600 C 392.606 48.249,370.017 19.786,342.400 8.044 C 341.190 7.529,340.020 6.965,339.800 6.791 C 339.580 6.616,338.320 6.109,337.000 5.665 C 335.680 5.221,334.060 4.637,333.400 4.367 C 332.740 4.098,332.020 3.832,331.800 3.777 C 331.580 3.722,329.510 3.131,327.200 2.463 C 320.912 0.644,316.820 -0.004,311.856 0.034 L 307.400 0.067 309.600 0.585 M53.470 9.879 C 52.848 10.205,52.435 10.569,52.553 10.686 C 52.670 10.804,53.359 10.520,54.083 10.057 C 55.578 9.099,55.175 8.983,53.470 9.879 M30.378 26.291 C 29.620 27.112,29.438 27.427,29.973 26.991 C 31.552 25.706,32.423 24.800,32.078 24.800 C 31.902 24.800,31.137 25.471,30.378 26.291 M25.875 30.722 C 25.284 31.339,24.800 31.969,24.800 32.122 C 24.800 32.410,25.790 31.476,26.749 30.283 C 27.614 29.207,27.059 29.486,25.875 30.722 M6.867 59.980 C 6.633 60.651,6.527 61.200,6.631 61.200 C 6.901 61.200,7.656 59.122,7.457 58.924 C 7.367 58.833,7.101 59.308,6.867 59.980 M2.400 72.000 C 2.062 72.632,2.096 72.800,2.561 72.800 C 2.904 72.800,3.125 72.465,3.090 72.000 C 3.057 71.560,2.984 71.200,2.929 71.200 C 2.874 71.200,2.635 71.560,2.400 72.000 M313.800 110.645 C 309.667 111.809,304.497 112.397,298.367 112.398 C 291.030 112.400,291.388 112.213,292.782 115.329 C 298.451 127.991,286.450 141.460,273.274 137.224 C 264.171 134.297,259.436 123.935,263.324 115.452 C 263.916 114.160,264.400 112.945,264.400 112.752 C 264.400 112.263,183.225 112.311,176.000 112.803 C 140.266 115.240,105.225 127.698,78.487 147.471 L 75.573 149.626 75.712 210.313 C 75.818 256.993,75.965 271.462,76.348 273.000 C 76.622 274.100,77.122 276.170,77.461 277.600 C 82.874 300.502,101.406 317.938,126.200 323.455 C 129.480 324.185,260.838 325.208,266.938 324.551 C 268.958 324.334,257.503 324.245,236.839 324.319 C 218.491 324.385,203.328 324.288,203.144 324.104 C 202.959 323.919,202.434 321.976,201.975 319.784 C 199.355 307.258,199.355 292.742,201.975 280.216 C 202.885 275.866,202.938 275.762,204.400 275.463 C 204.950 275.351,203.960 275.348,202.200 275.458 C 174.739 277.171,145.646 259.904,132.687 234.200 C 104.301 177.897,152.857 113.988,214.897 125.996 C 250.421 132.872,277.646 167.129,275.458 202.200 C 275.348 203.960,275.351 204.950,275.463 204.400 C 275.762 202.938,275.866 202.885,280.216 201.975 C 286.133 200.737,293.125 200.008,299.200 199.996 C 306.109 199.981,313.586 199.187,321.555 197.623 C 322.740 197.390,323.873 197.200,324.072 197.200 C 324.288 197.200,324.388 212.016,324.318 233.700 C 324.253 253.775,324.319 269.300,324.465 268.200 C 325.305 261.862,324.369 130.312,323.455 126.200 C 320.348 112.222,318.540 109.309,313.800 110.645 M194.000 151.005 C 153.858 156.299,136.467 204.235,163.994 233.711 C 177.420 248.087,195.020 252.447,216.600 246.742 C 230.744 243.003,244.251 227.940,247.932 211.800 C 255.695 177.761,227.984 146.524,194.000 151.005 M45.195 177.902 C 21.420 205.623,6.307 239.451,1.639 275.400 C 1.181 278.920,0.626 283.249,0.404 285.021 C -0.384 291.308,-0.100 316.066,0.811 320.400 C 7.692 353.166,29.649 379.936,60.502 393.175 C 64.571 394.921,73.979 398.128,76.465 398.616 C 83.753 400.048,79.913 400.002,187.144 399.947 C 253.708 399.914,289.815 399.760,288.400 399.516 C 263.368 395.206,246.690 387.305,230.998 372.324 C 224.135 365.771,213.426 352.052,214.199 350.801 C 214.364 350.534,200.282 350.400,171.970 350.400 C 143.748 350.400,128.604 350.257,126.846 349.973 C 84.385 343.113,56.887 315.615,50.027 273.154 C 49.741 271.382,49.600 254.581,49.600 222.277 C 49.600 194.215,49.450 173.954,49.241 173.825 C 49.043 173.703,47.223 175.538,45.195 177.902 M274.658 208.759 C 274.507 210.386,274.461 211.795,274.557 211.890 C 274.806 212.139,275.321 206.963,275.110 206.330 C 275.013 206.039,274.810 207.132,274.658 208.759 M273.467 215.867 C 273.079 217.752,272.836 219.369,272.927 219.460 C 273.018 219.551,273.415 218.089,273.810 216.210 C 274.204 214.331,274.447 212.713,274.349 212.616 C 274.252 212.519,273.855 213.981,273.467 215.867 M246.212 217.094 C 243.810 226.663,232.085 239.516,221.147 244.570 C 215.405 247.223,214.950 246.984,217.878 242.851 C 224.701 233.219,234.018 223.926,242.868 217.927 C 246.159 215.696,246.590 215.589,246.212 217.094 M271.242 224.068 C 264.528 245.087,246.938 262.955,225.200 270.836 C 222.890 271.673,221.211 272.368,221.468 272.379 C 221.726 272.391,223.526 271.840,225.468 271.155 C 243.938 264.646,260.084 249.984,268.387 232.180 C 270.221 228.246,272.488 222.063,272.301 221.503 C 272.233 221.300,271.757 222.455,271.242 224.068 M350.083 267.044 C 350.037 268.828,349.913 271.168,349.806 272.244 L 349.612 274.200 350.020 272.604 C 350.244 271.726,350.369 269.386,350.297 267.404 L 350.166 263.800 350.083 267.044 M323.433 272.833 C 323.283 273.966,323.241 274.974,323.339 275.072 C 323.437 275.171,323.645 274.328,323.800 273.200 C 323.955 272.072,323.998 271.064,323.894 270.961 C 323.791 270.858,323.584 271.700,323.433 272.833 M215.200 273.612 C 213.550 274.003,212.650 274.326,213.200 274.329 C 213.750 274.332,215.460 274.010,217.000 273.613 C 220.616 272.682,219.131 272.681,215.200 273.612 M207.800 274.800 C 205.868 275.065,205.854 275.076,207.400 275.114 C 208.280 275.136,209.720 275.005,210.600 274.823 C 212.642 274.401,210.820 274.386,207.800 274.800 M349.046 276.747 C 348.889 277.927,348.846 278.979,348.950 279.083 C 349.217 279.350,349.722 275.764,349.507 275.125 C 349.411 274.836,349.203 275.566,349.046 276.747 M322.650 276.850 C 322.509 277.553,322.469 278.202,322.559 278.292 C 322.650 278.383,322.848 277.891,323.000 277.200 C 323.152 276.509,323.193 275.859,323.091 275.758 C 322.989 275.656,322.791 276.147,322.650 276.850 M321.829 279.829 C 321.681 280.415,321.638 280.972,321.732 281.066 C 321.827 281.160,322.024 280.758,322.171 280.171 C 322.319 279.585,322.362 279.028,322.268 278.934 C 322.173 278.840,321.976 279.242,321.829 279.829 M348.222 281.022 C 348.072 281.825,348.038 282.572,348.148 282.682 C 348.258 282.792,348.472 282.225,348.622 281.422 C 348.773 280.619,348.806 279.873,348.696 279.763 C 348.586 279.653,348.373 280.219,348.222 281.022 M321.000 282.400 C 320.850 282.873,320.817 283.350,320.927 283.460 C 321.037 283.570,321.250 283.273,321.400 282.800 C 321.550 282.327,321.583 281.850,321.473 281.740 C 321.363 281.630,321.150 281.927,321.000 282.400 M347.450 284.450 C 347.309 285.153,347.269 285.802,347.359 285.892 C 347.450 285.983,347.648 285.491,347.800 284.800 C 347.952 284.109,347.993 283.459,347.891 283.358 C 347.789 283.256,347.591 283.747,347.450 284.450 M318.594 288.502 C 312.019 302.847,302.189 312.106,284.800 320.331 L 283.800 320.804 284.800 320.558 C 292.677 318.622,306.737 307.682,313.278 298.400 C 315.812 294.804,320.290 286.557,319.913 286.180 C 319.817 286.084,319.223 287.129,318.594 288.502 M345.357 291.115 C 344.453 293.692,343.587 296.160,343.432 296.600 C 343.259 297.089,343.377 297.011,343.734 296.400 C 344.472 295.139,347.259 287.171,347.110 286.746 C 347.050 286.572,346.261 288.538,345.357 291.115 M340.656 302.243 C 330.433 322.398,312.763 337.817,291.200 345.399 C 288.450 346.366,286.380 347.167,286.599 347.179 C 287.790 347.242,296.162 344.031,301.014 341.649 C 318.457 333.086,332.174 319.621,340.968 302.428 C 342.232 299.956,343.203 297.870,343.126 297.792 C 343.048 297.715,341.937 299.717,340.656 302.243 M282.000 321.200 C 281.467 321.545,281.467 321.588,282.000 321.588 C 282.330 321.588,282.870 321.413,283.200 321.200 C 283.733 320.855,283.733 320.812,283.200 320.812 C 282.870 320.812,282.330 320.987,282.000 321.200 M279.400 322.000 C 278.896 322.217,278.822 322.344,279.200 322.344 C 279.530 322.344,280.160 322.189,280.600 322.000 C 281.104 321.783,281.178 321.656,280.800 321.656 C 280.470 321.656,279.840 321.811,279.400 322.000 M276.400 322.800 C 275.596 323.057,275.557 323.123,276.200 323.132 C 276.640 323.138,277.360 322.989,277.800 322.800 C 278.819 322.362,277.768 322.362,276.400 322.800 M272.000 323.600 C 270.650 323.884,270.643 323.895,271.800 323.900 C 272.460 323.903,273.540 323.768,274.200 323.600 C 275.860 323.178,274.007 323.178,272.000 323.600 M284.000 347.600 C 283.196 347.857,283.157 347.923,283.800 347.932 C 284.240 347.938,284.960 347.789,285.400 347.600 C 286.419 347.162,285.368 347.162,284.000 347.600 M280.400 348.400 L 279.400 348.720 280.400 348.732 C 280.950 348.738,281.760 348.589,282.200 348.400 L 283.000 348.056 282.200 348.068 C 281.760 348.074,280.950 348.224,280.400 348.400 M276.000 349.200 L 274.600 349.495 276.000 349.507 C 276.770 349.515,277.850 349.376,278.400 349.200 L 279.400 348.880 278.400 348.893 C 277.850 348.900,276.770 349.038,276.000 349.200 M267.800 350.000 L 263.800 350.245 267.400 350.299 C 269.380 350.329,271.720 350.205,272.600 350.023 C 274.495 349.631,273.873 349.628,267.800 350.000 " stroke="none" fill="#fb3c54" fill-rule="evenodd"></path><path id="path3" d="M344.800 8.984 C 344.800 9.094,345.520 9.551,346.400 10.000 C 347.280 10.449,348.000 10.726,348.000 10.616 C 348.000 10.506,347.280 10.049,346.400 9.600 C 345.520 9.151,344.800 8.874,344.800 8.984 M354.800 14.546 C 354.800 14.656,355.340 15.130,356.000 15.600 C 356.660 16.070,357.200 16.364,357.200 16.254 C 357.200 16.144,356.660 15.670,356.000 15.200 C 355.340 14.730,354.800 14.436,354.800 14.546 M363.000 20.602 C 363.660 21.196,365.951 23.233,368.092 25.129 C 370.233 27.024,373.447 30.246,375.235 32.287 C 377.023 34.329,378.575 36.000,378.684 36.000 C 378.880 36.000,378.378 35.403,374.081 30.524 C 371.967 28.124,365.438 22.153,363.000 20.390 L 361.800 19.522 363.000 20.602 M28.189 28.100 L 25.400 31.000 28.300 28.211 C 29.895 26.677,31.200 25.372,31.200 25.311 C 31.200 25.017,30.780 25.406,28.189 28.100 M381.025 39.300 C 382.275 41.005,383.376 42.400,383.473 42.400 C 383.723 42.400,381.328 39.108,379.928 37.526 C 379.282 36.797,379.776 37.595,381.025 39.300 M386.600 47.600 C 386.941 48.260,387.311 48.800,387.421 48.800 C 387.531 48.800,387.341 48.260,387.000 47.600 C 386.659 46.940,386.289 46.400,386.179 46.400 C 386.069 46.400,386.259 46.940,386.600 47.600 M399.403 110.900 C 395.468 141.295,379.805 166.993,355.400 183.099 C 353.200 184.551,351.175 186.012,350.900 186.346 C 350.507 186.823,350.400 195.955,350.400 229.010 C 350.400 253.025,350.241 271.996,350.029 273.233 C 349.825 274.425,349.445 276.660,349.184 278.200 C 344.636 305.062,326.273 329.249,301.014 341.649 C 292.071 346.039,284.808 348.217,273.167 349.997 C 271.589 350.239,259.304 350.400,242.491 350.400 C 224.164 350.400,214.361 350.539,214.199 350.801 C 213.426 352.052,224.135 365.771,230.998 372.324 C 246.853 387.461,265.231 396.050,289.400 399.619 C 293.476 400.221,320.409 399.952,322.200 399.292 C 322.860 399.048,324.210 398.644,325.200 398.393 C 333.378 396.322,347.112 390.828,346.517 389.866 C 346.382 389.647,346.484 389.605,346.749 389.769 C 348.145 390.631,367.645 377.241,367.300 375.658 C 367.245 375.406,367.425 375.245,367.700 375.300 C 367.975 375.355,368.157 375.181,368.105 374.914 C 368.052 374.647,368.251 374.522,368.547 374.635 C 370.123 375.240,387.271 354.238,386.616 352.505 C 386.513 352.232,386.630 352.052,386.876 352.105 C 387.308 352.197,391.854 343.679,393.337 340.000 C 393.736 339.010,394.247 337.816,394.473 337.348 C 394.699 336.879,394.763 336.069,394.616 335.548 C 394.415 334.839,394.450 334.749,394.752 335.189 C 395.109 335.707,395.181 335.707,395.355 335.189 C 396.545 331.658,396.947 330.408,397.247 329.300 C 397.441 328.585,397.794 327.325,398.030 326.500 C 398.543 324.710,399.108 322.136,399.587 319.400 C 399.925 317.471,400.175 108.800,399.840 108.800 C 399.749 108.800,399.553 109.745,399.403 110.900 M321.600 197.589 C 314.418 199.110,306.130 199.999,299.084 200.003 C 291.529 200.008,277.090 201.950,275.922 203.118 C 275.751 203.289,275.428 205.197,275.204 207.360 C 271.460 243.468,243.468 271.460,207.360 275.204 C 202.615 275.696,202.994 275.343,201.975 280.216 C 199.181 293.575,199.780 318.789,203.016 324.025 C 203.340 324.551,264.369 324.512,268.984 323.983 C 298.349 320.619,320.619 298.349,323.983 268.984 C 324.232 266.808,324.395 252.000,324.397 231.300 C 324.400 193.174,324.712 196.929,321.600 197.589 M242.868 217.927 C 234.018 223.926,224.701 233.219,217.878 242.851 C 214.950 246.984,215.405 247.223,221.147 244.570 C 230.804 240.109,240.109 230.804,244.570 221.147 C 247.218 215.415,247.048 215.093,242.868 217.927 M13.000 352.400 C 13.341 353.060,13.711 353.600,13.821 353.600 C 13.931 353.600,13.741 353.060,13.400 352.400 C 13.059 351.740,12.689 351.200,12.579 351.200 C 12.469 351.200,12.659 351.740,13.000 352.400 M17.624 359.374 C 18.325 360.349,19.426 361.744,20.072 362.474 C 20.718 363.203,20.224 362.405,18.975 360.700 C 17.725 358.995,16.624 357.600,16.527 357.600 C 16.430 357.600,16.924 358.398,17.624 359.374 M22.412 365.400 C 25.730 369.404,28.278 372.098,30.738 374.205 L 33.400 376.486 30.386 373.543 C 28.728 371.924,25.958 369.070,24.229 367.200 C 22.500 365.330,21.683 364.520,22.412 365.400 M33.600 376.525 C 33.600 376.594,34.185 377.179,34.900 377.825 L 36.200 379.000 35.025 377.700 C 33.930 376.488,33.600 376.216,33.600 376.525 M37.526 379.928 C 39.108 381.328,42.400 383.723,42.400 383.473 C 42.400 383.376,41.005 382.275,39.300 381.025 C 37.595 379.776,36.797 379.282,37.526 379.928 M59.200 393.000 C 59.750 393.314,60.380 393.572,60.600 393.572 C 60.820 393.572,60.550 393.314,60.000 393.000 C 59.450 392.686,58.820 392.428,58.600 392.428 C 58.380 392.428,58.650 392.686,59.200 393.000 M64.000 395.000 C 64.550 395.314,65.270 395.571,65.600 395.570 C 65.930 395.569,65.594 395.306,64.854 394.984 C 63.151 394.245,62.694 394.253,64.000 395.000 " stroke="none" fill="#e40444" fill-rule="evenodd"></path><path id="path4" d="M126.400 50.208 C 86.335 55.519,55.535 86.460,50.174 126.783 C 49.475 132.044,49.735 266.392,50.457 272.800 C 54.888 312.119,86.171 343.936,125.770 349.397 C 132.189 350.283,265.832 350.303,272.815 349.420 C 313.459 344.279,344.365 313.376,349.428 272.815 C 350.311 265.739,350.276 132.110,349.389 125.770 C 343.776 85.639,313.236 55.346,273.200 50.198 C 266.921 49.391,132.497 49.400,126.400 50.208 M267.200 50.397 C 309.363 53.200,342.091 82.992,348.699 124.586 C 349.791 131.463,349.775 267.798,348.681 274.800 C 342.290 315.706,310.393 345.714,269.600 349.199 C 260.141 350.007,128.871 349.532,124.030 348.672 C 83.883 341.542,54.343 310.113,50.840 270.800 C 50.303 264.777,49.924 139.588,50.421 132.341 C 53.536 86.897,88.534 52.614,134.200 50.274 C 140.654 49.944,262.063 50.056,267.200 50.397 M131.600 75.057 C 131.050 75.143,128.800 75.498,126.600 75.846 C 101.473 79.817,81.020 100.144,75.728 126.400 C 74.857 130.726,74.371 264.272,75.205 270.400 C 79.060 298.735,99.836 319.946,128.307 324.613 C 132.811 325.352,267.139 325.492,271.554 324.763 C 299.363 320.170,319.736 300.056,324.589 272.400 C 325.486 267.288,325.499 133.851,324.603 128.284 C 320.286 101.454,300.601 81.170,273.600 75.728 C 270.430 75.090,135.460 74.451,131.600 75.057 M266.278 75.612 C 286.096 77.204,303.711 87.301,313.827 102.866 C 318.286 109.725,318.789 110.617,320.279 114.300 C 324.983 125.921,324.877 123.804,324.715 203.000 L 324.577 271.000 323.664 275.000 C 317.738 300.973,298.380 319.625,272.850 323.959 C 266.348 325.063,136.908 325.284,129.311 324.204 C 101.137 320.199,79.784 298.885,75.809 270.800 C 75.076 265.620,74.899 142.594,75.612 133.722 C 78.159 102.020,101.741 78.229,133.200 75.625 C 139.079 75.138,260.235 75.126,266.278 75.612 M272.357 106.924 C 256.217 113.693,260.763 137.400,278.200 137.400 C 294.984 137.400,299.962 114.727,284.812 107.286 C 281.618 105.718,275.647 105.544,272.357 106.924 M281.800 106.944 C 293.190 109.986,297.187 123.936,289.074 132.332 C 280.609 141.091,266.521 137.296,263.344 125.400 C 260.431 114.498,270.898 104.031,281.800 106.944 M190.213 125.439 C 133.205 133.220,105.538 199.145,139.952 245.200 C 160.179 272.270,198.482 282.681,228.726 269.329 C 233.915 267.038,234.749 266.621,238.000 264.686 C 274.895 242.730,286.263 194.648,262.966 159.088 C 247.033 134.769,218.510 121.576,190.213 125.439 M207.200 125.792 C 269.324 132.416,296.681 206.217,253.818 251.558 C 218.286 289.145,155.209 279.036,132.728 232.151 C 107.727 180.010,149.963 119.690,207.200 125.792 M193.400 150.030 C 151.624 155.737,134.953 207.236,165.438 236.409 C 197.275 266.877,250.217 244.127,250.166 200.000 C 250.131 169.680,223.186 145.961,193.400 150.030 M207.042 150.827 C 229.315 153.490,247.590 172.848,249.500 195.800 C 253.394 242.581,196.480 268.115,163.991 234.162 C 139.216 208.271,149.519 165.238,183.400 153.098 C 191.051 150.356,197.737 149.714,207.042 150.827 " stroke="none" fill="#f794ae" fill-rule="evenodd"></path></g></svg>